<?xml version="1.0" encoding="UTF-8" standalone="no"?>
<svg
   xmlns:dc="http://purl.org/dc/elements/1.1/"
   xmlns:cc="http://creativecommons.org/ns#"
   xmlns:rdf="http://www.w3.org/1999/02/22-rdf-syntax-ns#"
   xmlns:svg="http://www.w3.org/2000/svg"
   xmlns="http://www.w3.org/2000/svg"
   xmlns:sodipodi="http://sodipodi.sourceforge.net/DTD/sodipodi-0.dtd"
   xmlns:inkscape="http://www.inkscape.org/namespaces/inkscape"
   width="59.999935"
   height="116.82085"
   viewBox="0 0 15.874983 30.90885"
   version="1.1"
   id="svg13045"
   inkscape:version="1.0 (4035a4fb49, 2020-05-01)"
   sodipodi:docname="arrowButtons.svg">
  <defs
     id="defs13039" />
  <sodipodi:namedview
     units="px"
     id="base"
     pagecolor="#ffffff"
     bordercolor="#666666"
     borderopacity="1.0"
     inkscape:pageopacity="0.0"
     inkscape:pageshadow="2"
     inkscape:zoom="2.8"
     inkscape:cx="-67.627177"
     inkscape:cy="121.41994"
     inkscape:document-units="mm"
     inkscape:current-layer="layer1"
     inkscape:document-rotation="0"
     showgrid="false"
     fit-margin-top="0"
     fit-margin-left="0"
     fit-margin-right="0"
     fit-margin-bottom="0" />
  <metadata
     id="metadata13042">
    <rdf:RDF>
      <cc:Work
         rdf:about="">
        <dc:format>image/svg+xml</dc:format>
        <dc:type
           rdf:resource="http://purl.org/dc/dcmitype/StillImage" />
        <dc:title></dc:title>
      </cc:Work>
    </rdf:RDF>
  </metadata>
  <g
     inkscape:label="upArray"
     inkscape:groupmode="layer"
     id="layer1"
     style="display:inline">
    <g
       id="upArrow">
      <path
         id="path1247"
         style="color:#000000;overflow:visible;fill:#808080;fill-opacity:0.1;stroke:#000000;stroke-width:0.264583;stroke-linecap:round;stroke-linejoin:round;stroke-miterlimit:4;stroke-dasharray:none;stroke-opacity:0.321569;paint-order:markers fill stroke"
         d="m 5.1817497,0.507591 c 1.2669371,0 2.3099183,-0.0497 3.5768554,-0.0497 l 2.1739589,-0.3256 1.810496,0.2381 c 0.323803,0 0.651059,0.2194 0.942668,0.3203 0.30262,0.1047 0.518271,0.0943 0.769755,0.29 0.519111,0.4249 0.834236,0.7464 1.023292,1.3615 0.09415,0.3124 0.195495,0.9027 0.195495,1.2495 l 0.0067,4.5931333 -0.08613,4.9247337 -0.0739,4.777433 0.187283,4.601633 0.03443,4.790634 c 0.0025,0.346889 -0.118603,0.5217 -0.212758,0.8342 -0.327722,0.9917 -1.119033,2.1396 -2.007951,2.4537 -0.291516,0.1008 -0.560076,0.0021 -0.883692,0.0021 -1.266844,0 -2.585385,0.2073 -3.8522283,0.2073 l -1.8566876,-0.2018 -1.8189884,-0.1314 -1.9456167,0.0559 c -0.3235933,0.0093 -0.7119931,0.0797 -1.0036023,-0.0212 -0.3026204,-0.1047 -0.4184243,-0.1339 -0.6699081,-0.3296 -0.51901771,-0.425 -1.03141012,-1.1245 -1.22046621,-1.7396 -0.0941548,-0.3124 0.0238701,-0.549056 0.0141839,-0.8957 L 0.14927432,22.657524 0.16747074,17.937091 0.132291,13.252858 0.15869913,8.5191243 0.20768948,3.654891 c 0.003494,-0.3468798 -0.010078,-0.8493 0.0840768,-1.1618 0.21537091,-0.6597 0.56688833,-0.8824 1.05380572,-1.2664 0.2518571,-0.1961 0.6034678,-0.6274 0.9066481,-0.7323 2.0115503,0.0037 0.4254378,-0.208014 2.9295296,0.0132 z"
         sodipodi:nodetypes="cccssccsccccsccccccssccsccccscccc" />
      <path
         id="path1549"
         style="color:#000000;overflow:visible;fill:#ffffff;fill-opacity:1;stroke:#999999;stroke-width:0.264583;stroke-linecap:round;stroke-linejoin:round;stroke-miterlimit:4;stroke-dasharray:none;stroke-opacity:1;paint-order:markers fill stroke"
         d="m 7.8015422,9.296872 c -0.027,-0.0024 -0.109,0.0667 -0.123,0.0806 l -0.595,0.5215 -0.316,0.451 c 0,0 -0.388,0.4631 -1.005,1.0823 -0.329,0.329301 -0.777,0.625501 -1.151,0.999901 -0.373,0.3745 -0.796,0.7552 -1.124,1.0845 -0.6169999,0.6193 -1.0089999,1.1661 -1.0089999,1.1661 -0.088,0.0881 0.15,0.5043 0.538,0.8936 l 0.3,0.3553 c 0.3879999,0.3893 0.9009999,0.6986 0.9879999,0.6105 0,0 0.545,-0.6945 1.122,-1.2722 0.576,-0.5778 1.08,-1.1344 1.08,-1.1344 0,0 0.081,0.8754 0.081,1.8988 0,0.5442 -0.015,1.0217 -0.015,1.6405 0,0.6188 0.078,1.2339 0.078,1.7781 0,1.0234 -0.07,1.9023 -0.07,1.9023 0,0.1245 0.349,0.2573 0.898,0.2573 l 0.693,-0.1279 c 0.549,0 1.018,-0.1286 1.018,-0.2531 0,0 -0.021,-0.5727 -0.021,-1.596 0,-0.5442 0.04,-1.2359 0.04,-1.8547 0,-0.6188 -0.135,-1.231 -0.135,-1.7752 0,-1.0233 0.04,-1.8347 0.04,-1.8347 0,0 0.583,0.5237 1.1589998,1.1014 0.576,0.5776 1.124,1.2938 1.124,1.2938 0.088,0.0881 0.542,-0.2414 0.931,-0.6307 l 0.442,-0.3206 c 0.389,-0.3893 0.719,-0.7664 0.631,-0.8545 0,0 -0.511,-0.6187 -1.128,-1.238 -0.329,-0.3293 -0.76,-0.6185 -1.134,-0.993 -0.374,-0.3744 -0.697,-0.8207 -1.026,-1.150001 -0.6169998,-0.6192 -1.1929998,-1.0869 -1.1929998,-1.0869 l -0.315,-0.4712 -0.504,-0.4662 c -0.027,-0.0271 -0.09,0.0099 -0.164,0.0399 -0.038,-0.015 -0.171,-0.0524 -0.198,-0.0546 l -0.01,-0.0198"
         sodipodi:nodetypes="sccccssccssssccsscccccs" />
    </g>
  </g>
  <g
     inkscape:groupmode="layer"
     id="layer10"
     inkscape:label="downArray"
     style="display:inline">
    <g
       id="downArrow">
      <path
         sodipodi:nodetypes="cccssccsccccsccccccssccsccccscccc"
         d="m 10.693234,30.401259 c -1.2669366,0 -2.3099178,0.0497 -3.5768549,0.0497 l -2.1739589,0.3256 -1.810496,-0.2381 c -0.323803,0 -0.651059,-0.2194 -0.942668,-0.3203 -0.30262,-0.1047 -0.518271,-0.0943 -0.769755,-0.29 -0.519111,-0.4249 -0.834236,-0.7464 -1.023292,-1.3615 -0.09415,-0.3124 -0.195495,-0.9027 -0.195495,-1.2495 l -0.0067,-4.593133 0.08613,-4.924734 0.0739,-4.777433 -0.187283,-4.601633 -0.03443,-4.790634 c -0.0025,-0.346889 0.118603,-0.5217 0.212758,-0.8342 0.327722,-0.9917 1.119033,-2.1396 2.007951,-2.4537 0.291516,-0.1008 0.560076,-0.0021 0.883692,-0.0021 1.266844,0 2.585385,-0.2073 3.8522283,-0.2073 l 1.8566876,0.2018 1.8189889,0.1314 1.945616,-0.0559 c 0.323594,-0.0093 0.711993,-0.0797 1.003603,0.0212 0.30262,0.1047 0.418424,0.1339 0.669908,0.3296 0.519017,0.425 1.03141,1.1245 1.220466,1.7396 0.09416,0.3124 -0.02387,0.549056 -0.01418,0.8957 l 0.135664,4.855634 -0.0182,4.720433 0.03518,4.684233 -0.02641,4.733734 -0.04899,4.864233 c -0.0035,0.34688 0.01008,0.8493 -0.08408,1.1618 -0.215371,0.6597 -0.566888,0.8824 -1.053806,1.2664 -0.251857,0.1961 -0.603468,0.6274 -0.906648,0.7323 -2.01155,-0.0037 -0.425438,0.208014 -2.92953,-0.0132 z"
         style="color:#000000;overflow:visible;fill:#808080;fill-opacity:0.1;stroke:#000000;stroke-width:0.264583;stroke-linecap:round;stroke-linejoin:round;stroke-miterlimit:4;stroke-dasharray:none;stroke-opacity:0.321569;paint-order:markers fill stroke"
         id="path1247-7" />
      <path
         sodipodi:nodetypes="sccccssccssssccsscccccs"
         d="m 8.073442,21.611978 c 0.027,0.0024 0.109,-0.0667 0.123,-0.0806 l 0.595,-0.5215 0.316,-0.451 c 0,0 0.388,-0.4631 1.005,-1.0823 0.329,-0.329301 0.777,-0.625501 1.151,-0.999901 0.373,-0.3745 0.796,-0.7552 1.124,-1.0845 0.617,-0.6193 1.009,-1.1661 1.009,-1.1661 0.088,-0.0881 -0.15,-0.5043 -0.538,-0.8936 l -0.3,-0.3553 c -0.388,-0.3893 -0.901,-0.6986 -0.988,-0.6105 0,0 -0.545,0.6945 -1.122,1.2722 -0.576,0.5778 -1.08,1.1344 -1.08,1.1344 0,0 -0.081,-0.8754 -0.081,-1.8988 0,-0.5442 0.015,-1.0217 0.015,-1.6405 0,-0.6188 -0.078,-1.2339 -0.078,-1.7781 0,-1.0234 0.07,-1.9023 0.07,-1.9023 0,-0.1245 -0.349,-0.2573 -0.898,-0.2573 l -0.693,0.1279 c -0.549,0 -1.018,0.1286 -1.018,0.2531 0,0 0.021,0.5727 0.021,1.596 0,0.5442 -0.04,1.2359 -0.04,1.8547 0,0.6188 0.135,1.231 0.135,1.7752 0,1.0233 -0.04,1.8347 -0.04,1.8347 0,0 -0.583,-0.5237 -1.1589998,-1.1014 -0.576,-0.5776 -1.124,-1.2938 -1.124,-1.2938 -0.088,-0.0881 -0.542,0.2414 -0.931,0.6307 l -0.442,0.3206 c -0.389,0.3893 -0.719,0.7664 -0.631,0.8545 0,0 0.511,0.6187 1.128,1.238 0.329,0.3293 0.76,0.6185 1.134,0.993 0.374,0.3744 0.697,0.8207 1.026,1.150001 0.6169998,0.6192 1.1929998,1.0869 1.1929998,1.0869 l 0.315,0.4712 0.504,0.4662 c 0.027,0.0271 0.09,-0.0099 0.164,-0.0399 0.038,0.015 0.171,0.0524 0.198,0.0546 l 0.01,0.0198"
         style="color:#000000;overflow:visible;fill:#ffffff;fill-opacity:1;stroke:#999999;stroke-width:0.264583;stroke-linecap:round;stroke-linejoin:round;stroke-miterlimit:4;stroke-dasharray:none;stroke-opacity:1;paint-order:markers fill stroke"
         id="path1549-4" />
    </g>
  </g>
</svg>
