<?xml version="1.0" encoding="UTF-8" standalone="no"?>
<svg
   xmlns:dc="http://purl.org/dc/elements/1.1/"
   xmlns:cc="http://creativecommons.org/ns#"
   xmlns:rdf="http://www.w3.org/1999/02/22-rdf-syntax-ns#"
   xmlns:svg="http://www.w3.org/2000/svg"
   xmlns="http://www.w3.org/2000/svg"
   xmlns:sodipodi="http://sodipodi.sourceforge.net/DTD/sodipodi-0.dtd"
   xmlns:inkscape="http://www.inkscape.org/namespaces/inkscape"
   sodipodi:docname="arrowButtons.svg"
   inkscape:version="1.0 (4035a4fb49, 2020-05-01)"
   id="svg13045"
   version="1.1"
   viewBox="0 0 16.993282 57.367184"
   height="57.367184mm"
   width="16.993282mm">
  <defs
     id="defs13039" />
  <sodipodi:namedview
     fit-margin-bottom="0"
     fit-margin-right="0"
     fit-margin-left="0"
     fit-margin-top="0"
     showgrid="false"
     inkscape:document-rotation="0"
     inkscape:current-layer="layer10"
     inkscape:document-units="mm"
     inkscape:cy="162.18709"
     inkscape:cx="-67.627179"
     inkscape:zoom="2.8"
     inkscape:pageshadow="2"
     inkscape:pageopacity="0.0"
     borderopacity="1.0"
     bordercolor="#666666"
     pagecolor="#ffffff"
     id="base" />
  <metadata
     id="metadata13042">
    <rdf:RDF>
      <cc:Work
         rdf:about="">
        <dc:format>image/svg+xml</dc:format>
        <dc:type
           rdf:resource="http://purl.org/dc/dcmitype/StillImage" />
        <dc:title></dc:title>
      </cc:Work>
    </rdf:RDF>
  </metadata>
  <g
     style="display:inline"
     id="layer1"
     inkscape:groupmode="layer"
     inkscape:label="upArray">
    <g
       id="upArrow">
      <path
         sodipodi:nodetypes="cccssccsccccsccccccssccsccccscccc"
         d="m 5.543491,0.507591 c 1.3577,0 2.4754,-0.0497 3.8331,-0.0497 l 2.3297,-0.3256 1.9402,0.2381 c 0.347,0 0.6977,0.2194 1.0102,0.3203 0.3243,0.1047 0.5554,0.0943 0.8249,0.29 0.5563,0.4249 0.894,0.7464 1.0966,1.3615 0.1009,0.3124 0.2095,0.9027 0.2095,1.2495 l 0.0072,9.8848 -0.0923,10.2164 -0.0792,10.0691 0.2007,9.8933 0.0369,10.0823 c 0,0.3469 -0.1271,0.5217 -0.228,0.8342 -0.3512,0.9917 -1.1992,2.1396 -2.1518,2.4537 -0.3124,0.1008 -0.6002,0.0021 -0.947,0.0021 -1.3576,0 -2.7706,0.2073 -4.1282,0.2073 l -1.9897,-0.2018 -1.9493,-0.1314 -2.085,0.0559 c -0.3469,0 -0.763,0.0797 -1.0755,-0.0212 -0.3243,-0.1047 -0.4484,-0.1339 -0.7179,-0.3296 -0.5562,-0.425 -1.1053,-1.1245 -1.3079,-1.7396 -0.1009,-0.3124 0.0152,-0.5489 0.0152,-0.8957 l -0.1454,-10.1473 0.0195,-10.0121 -0.0377,-9.9759 0.0283,-10.0254 0.0525,-10.1559 c 0,-0.3469 -0.0108,-0.8493 0.0901,-1.1618 0.2308,-0.6597 0.6075,-0.8824 1.1293,-1.2664 0.2699,-0.1961 0.6467,-0.6274 0.9716,-0.7323 2.155657,0.0037 0.455916,-0.208014 3.1394,0.0132 z"
         style="color:#000000;overflow:visible;fill:#808080;fill-opacity:0.1;stroke:#000000;stroke-width:0.264583;stroke-linecap:round;stroke-linejoin:round;stroke-miterlimit:4;stroke-dasharray:none;stroke-opacity:0.321569;paint-order:markers fill stroke"
         id="path1247" />
      <path
         sodipodi:nodetypes="sccccssccssssccsscccccs"
         d="m 8.360692,22.526039 c -0.027,-0.0024 -0.109,0.0667 -0.123,0.0806 l -0.595,0.5215 -0.316,0.451 c 0,0 -0.388,0.4631 -1.005,1.0823 -0.329,0.3293 -0.777,0.6255 -1.151,0.9999 -0.373,0.3745 -0.796,0.7552 -1.124,1.0845 -0.617,0.6193 -1.009,1.1661 -1.009,1.1661 -0.088,0.0881 0.15,0.5043 0.538,0.8936 l 0.3,0.3553 c 0.388,0.3893 0.901,0.6986 0.988,0.6105 0,0 0.545,-0.6945 1.122,-1.2722 0.576,-0.5778 1.08,-1.1344 1.08,-1.1344 0,0 0.081,0.8754 0.081,1.8988 0,0.5442 -0.015,1.0217 -0.015,1.6405 0,0.6188 0.078,1.2339 0.078,1.7781 0,1.0234 -0.07,1.9023 -0.07,1.9023 0,0.1245 0.349,0.2573 0.898,0.2573 l 0.693,-0.1279 c 0.549,0 1.018,-0.1286 1.018,-0.2531 0,0 -0.021,-0.5727 -0.021,-1.596 0,-0.5442 0.04,-1.2359 0.04,-1.8547 0,-0.6188 -0.135,-1.231 -0.135,-1.7752 0,-1.0233 0.04,-1.8347 0.04,-1.8347 0,0 0.583,0.5237 1.159,1.1014 0.576,0.5776 1.124,1.2938 1.124,1.2938 0.088,0.0881 0.542,-0.2414 0.931,-0.6307 l 0.442,-0.3206 c 0.389,-0.3893 0.719,-0.7664 0.631,-0.8545 0,0 -0.511,-0.6187 -1.128,-1.238 -0.329,-0.3293 -0.76,-0.6185 -1.134,-0.993 -0.374,-0.3744 -0.697,-0.8207 -1.026,-1.15 -0.617,-0.6192 -1.193,-1.0869 -1.193,-1.0869 l -0.315,-0.4712 -0.504,-0.4662 c -0.027,-0.0271 -0.09,0.0099 -0.164,0.0399 -0.038,-0.015 -0.171,-0.0524 -0.198,-0.0546 l -0.01,-0.0198"
         style="color:#000000;overflow:visible;fill:#ffffff;fill-opacity:1;stroke:#999999;stroke-width:0.264583;stroke-linecap:round;stroke-linejoin:round;stroke-miterlimit:4;stroke-dasharray:none;stroke-opacity:1;paint-order:markers fill stroke"
         id="path1549" />
    </g>
  </g>
  <g
     style="display:inline"
     inkscape:label="downArray"
     id="layer10"
     inkscape:groupmode="layer">
    <g
       id="downArrow">
      <path
         id="path13636"
         style="color:#000000;overflow:visible;fill:#808080;fill-opacity:0.1;stroke:#000000;stroke-width:0.264583;stroke-linecap:round;stroke-linejoin:round;stroke-miterlimit:4;stroke-dasharray:none;stroke-opacity:0.321569;paint-order:markers fill stroke"
         d="m 5.543491,56.85959 c 1.3577,0 2.4754,0.0497 3.8331,0.0497 l 2.3297,0.3256 1.9402,-0.2381 c 0.347,0 0.6977,-0.2194 1.0102,-0.3203 0.3243,-0.1047 0.5554,-0.0943 0.8249,-0.29 0.5563,-0.4249 0.894,-0.7464 1.0966,-1.3615 0.1009,-0.3124 0.2095,-0.9027 0.2095,-1.2495 l 0.0072,-9.8848 -0.0923,-10.2164 -0.0792,-10.0691 0.2007,-9.8933 0.0369,-10.0823 c 0,-0.3469 -0.1271,-0.5217 -0.228,-0.8342 -0.3512,-0.9917 -1.1992,-2.1396 -2.1518,-2.4537 -0.3124,-0.1008 -0.6002,-0.0021 -0.947,-0.0021 -1.3576,0 -2.7706,-0.2073 -4.1282,-0.2073 l -1.9897,0.2018 -1.9493,0.1314 -2.085,-0.0559 c -0.3469,0 -0.763,-0.0797 -1.0755,0.0212 -0.3243,0.1047 -0.4484,0.1339 -0.7179,0.3296 -0.5562,0.425 -1.1053,1.1245 -1.3079,1.7396 -0.1009,0.3124 0.0152,0.5489 0.0152,0.8957 l -0.1454,10.1473 0.0195,10.0121 -0.0377,9.9759 0.0283,10.0254 0.0525,10.1559 c 0,0.3469 -0.0108,0.8493 0.0901,1.1618 0.2308,0.6597 0.6075,0.8824 1.1293,1.2664 0.2699,0.1961 0.6467,0.6274 0.9716,0.7323 2.155657,-0.0037 0.455916,0.208014 3.1394,-0.0132 z"
         sodipodi:nodetypes="cccssccsccccsccccccssccsccccscccc" />
      <path
         id="path13638"
         style="color:#000000;overflow:visible;fill:#ffffff;fill-opacity:1;stroke:#999999;stroke-width:0.264583;stroke-linecap:round;stroke-linejoin:round;stroke-miterlimit:4;stroke-dasharray:none;stroke-opacity:1;paint-order:markers fill stroke"
         d="m 8.360692,34.841142 c -0.027,0.0024 -0.109,-0.0667 -0.123,-0.0806 l -0.595,-0.5215 -0.316,-0.451 c 0,0 -0.388,-0.4631 -1.005,-1.0823 -0.329,-0.3293 -0.777,-0.6255 -1.151,-0.9999 -0.373,-0.3745 -0.796,-0.7552 -1.124,-1.0845 -0.617,-0.6193 -1.009,-1.1661 -1.009,-1.1661 -0.088,-0.0881 0.15,-0.5043 0.538,-0.8936 l 0.3,-0.3553 c 0.388,-0.3893 0.901,-0.6986 0.988,-0.6105 0,0 0.545,0.6945 1.122,1.2722 0.576,0.5778 1.08,1.1344 1.08,1.1344 0,0 0.081,-0.8754 0.081,-1.8988 0,-0.5442 -0.015,-1.0217 -0.015,-1.6405 0,-0.6188 0.078,-1.2339 0.078,-1.7781 0,-1.0234 -0.07,-1.9023 -0.07,-1.9023 0,-0.1245 0.349,-0.2573 0.898,-0.2573 l 0.693,0.1279 c 0.549,0 1.018,0.1286 1.018,0.2531 0,0 -0.021,0.5727 -0.021,1.596 0,0.5442 0.04,1.2359 0.04,1.8547 0,0.6188 -0.135,1.231 -0.135,1.7752 0,1.0233 0.04,1.8347 0.04,1.8347 0,0 0.583,-0.5237 1.159,-1.1014 0.576,-0.5776 1.124,-1.2938 1.124,-1.2938 0.088,-0.0881 0.542,0.2414 0.931,0.6307 l 0.442,0.3206 c 0.389,0.3893 0.719,0.7664 0.631,0.8545 0,0 -0.511,0.6187 -1.128,1.238 -0.329,0.3293 -0.76,0.6185 -1.134,0.993 -0.374,0.3744 -0.697,0.8207 -1.026,1.15 -0.617,0.6192 -1.193,1.0869 -1.193,1.0869 l -0.315,0.4712 -0.504,0.4662 c -0.027,0.0271 -0.09,-0.0099 -0.164,-0.0399 -0.038,0.015 -0.171,0.0524 -0.198,0.0546 l -0.01,0.0198"
         sodipodi:nodetypes="sccccssccssssccsscccccs" />
    </g>
  </g>
</svg>
