<?xml version="1.0" encoding="UTF-8" standalone="no"?>
<svg
   xmlns:dc="http://purl.org/dc/elements/1.1/"
   xmlns:cc="http://creativecommons.org/ns#"
   xmlns:rdf="http://www.w3.org/1999/02/22-rdf-syntax-ns#"
   xmlns:svg="http://www.w3.org/2000/svg"
   xmlns="http://www.w3.org/2000/svg"
   xmlns:sodipodi="http://sodipodi.sourceforge.net/DTD/sodipodi-0.dtd"
   xmlns:inkscape="http://www.inkscape.org/namespaces/inkscape"
   sodipodi:docname="awaiting-input.svg"
   inkscape:version="1.0 (4035a4fb49, 2020-05-01)"
   id="svg3725"
   version="1.1"
   viewBox="0 0 78.04467 38.085945"
   height="38.085945mm"
   width="78.04467mm">
  <defs
     id="defs3719" />
  <sodipodi:namedview
     fit-margin-bottom="0"
     fit-margin-right="0"
     fit-margin-left="0"
     fit-margin-top="0"
     inkscape:pagecheckerboard="true"
     showgrid="false"
     inkscape:document-rotation="0"
     inkscape:current-layer="layer1"
     inkscape:document-units="mm"
     inkscape:cy="98.303112"
     inkscape:cx="136.28611"
     inkscape:zoom="2.8"
     inkscape:pageshadow="2"
     inkscape:pageopacity="0.0"
     borderopacity="1.0"
     bordercolor="#666666"
     pagecolor="#ffffff"
     id="base" />
  <metadata
     id="metadata3722">
    <rdf:RDF>
      <cc:Work
         rdf:about="">
        <dc:format>image/svg+xml</dc:format>
        <dc:type
           rdf:resource="http://purl.org/dc/dcmitype/StillImage" />
        <dc:title></dc:title>
      </cc:Work>
    </rdf:RDF>
  </metadata>
  <g
     transform="translate(-85.70981,-60.332027)"
     id="layer1"
     inkscape:groupmode="layer"
     inkscape:label="Layer 1">
    <path
       id="path23876"
       style="color:#000000;font-style:normal;font-variant:normal;font-weight:normal;font-stretch:normal;font-size:9.5454px;line-height:71.5%;font-family:VT323;-inkscape-font-specification:'VT323, Normal';font-variant-ligatures:normal;font-variant-caps:normal;font-variant-numeric:normal;font-variant-east-asian:normal;text-align:center;writing-mode:lr-tb;text-anchor:middle;white-space:pre;inline-size:127.793;fill:#ffffff;fill-opacity:1;stroke:none;stroke-width:1.00012;stroke-linecap:round;stroke-linejoin:round;stroke-miterlimit:4;stroke-dasharray:none;stroke-opacity:0.175732;paint-order:markers fill stroke"
       d="m 90.336281,96.72572 q 0,0.324348 -0.05642,0.564085 0.05642,0.225633 0.05642,0.564084 0,0.324348 -0.05642,0.564084 h -1.128409 q -0.05642,-0.239736 -0.05642,-0.564084 0,-0.338451 0.05642,-0.564084 -0.05642,-0.239737 -0.05642,-0.564085 0,-0.338451 0.05642,-0.564084 h -2.256817 q 0.05642,0.225633 0.05642,0.564084 0,0.324348 -0.05642,0.564085 0.05642,0.225633 0.05642,0.564084 0,0.324348 -0.05642,0.564084 h -1.128409 q -0.05642,-0.239736 -0.05642,-0.564084 0,-0.338451 0.05642,-0.564084 -0.05642,-0.239737 -0.05642,-0.564085 0,-0.338451 0.05642,-0.564084 h 0.423153 q -0.05642,-0.239736 -0.05642,-0.564084 0,-0.338452 0.05642,-0.564085 -0.05642,-0.239736 -0.05642,-0.564084 0,-0.338451 0.05642,-0.564085 h 0.282103 q -0.05642,-0.239736 -0.05642,-0.564084 0,-0.338451 0.05642,-0.564084 h 0.423153 q -0.05642,-0.239736 -0.05642,-0.564085 0,-0.338451 0.05642,-0.564084 h 0.282102 q -0.05642,-0.239736 -0.05642,-0.564084 0,-0.338451 0.05642,-0.564085 h 1.692613 q 0.05642,0.225634 0.05642,0.564085 0,0.324348 -0.05642,0.564084 h 0.282102 q 0.05642,0.225633 0.05642,0.564084 0,0.324349 -0.05642,0.564085 h 0.423154 q 0.05642,0.225633 0.05642,0.564084 0,0.324348 -0.05642,0.564084 h 0.282102 q 0.05642,0.225634 0.05642,0.564085 0,0.324348 -0.05642,0.564084 0.05642,0.225633 0.05642,0.564085 0,0.324348 -0.05642,0.564084 h 0.423153 q 0.05642,0.225633 0.05642,0.564084 z m -1.607983,-1.692253 q -0.05642,-0.239736 -0.05642,-0.564084 0,-0.338451 0.05642,-0.564085 h -0.282102 q -0.05642,-0.239736 -0.05642,-0.564084 0,-0.338451 0.05642,-0.564084 h -0.846307 q 0.05642,0.225633 0.05642,0.564084 0,0.324348 -0.05642,0.564084 h -0.282102 q 0.05642,0.225634 0.05642,0.564085 0,0.324348 -0.05642,0.564084 z" />
    <path
       sodipodi:nodetypes="cscsssccscsccsccsccsccsccsccsccscsccscscscsccscscscscsccsccscscscsccscscscsccsccscscscscsccsc"
       id="path23878"
       style="color:#000000;font-style:normal;font-variant:normal;font-weight:normal;font-stretch:normal;font-size:9.5454px;line-height:71.5%;font-family:VT323;-inkscape-font-specification:'VT323, Normal';font-variant-ligatures:normal;font-variant-caps:normal;font-variant-numeric:normal;font-variant-east-asian:normal;text-align:center;writing-mode:lr-tb;text-anchor:middle;white-space:pre;inline-size:127.793;fill:#ffffff;fill-opacity:1;stroke:none;stroke-width:1.00012;stroke-linecap:round;stroke-linejoin:round;stroke-miterlimit:4;stroke-dasharray:none;stroke-opacity:0.175732;paint-order:markers fill stroke"
       d="m 95.927414,91.648961 c 0.03761,0.150422 0.05642,0.33845 0.05642,0.564084 0,0.216233 -0.01881,0.404261 -0.05642,0.564085 0.03761,0.150421 0.05642,0.33845 0.05642,0.564084 0,0.216233 -0.05642,0.399894 -0.05642,0.564084 0,0.155054 0.05642,0.33845 0.05642,0.564085 0,0.216232 -0.01881,0.404261 -0.05642,0.564084 h -0.423153 c 0.03761,0.150422 0.05642,0.33845 0.05642,0.564085 0,0.216232 -0.01881,0.40426 -0.05642,0.564084 0.03761,0.150421 0.05642,0.33845 0.05642,0.564084 0,0.216233 -0.01881,0.404261 -0.05642,0.564085 h -0.282102 c 0.03761,0.150421 0.05642,0.338449 0.05642,0.564084 0,0.216233 -0.01881,0.404261 -0.05642,0.564084 h -0.846307 c -0.03761,-0.159823 -0.05642,-0.347851 -0.05642,-0.564084 0,-0.225635 0.01881,-0.413663 0.05642,-0.564084 H 94.09375 c -0.03761,-0.159824 -0.05642,-0.347852 -0.05642,-0.564085 0,-0.225634 0.01881,-0.413663 0.05642,-0.564084 h -0.846306 c 0.03761,0.150421 0.05642,0.33845 0.05642,0.564084 0,0.216233 -0.01881,0.404261 -0.05642,0.564085 h -0.282103 c 0.03761,0.150421 0.05642,0.338449 0.05642,0.564084 0,0.216233 -0.01881,0.404261 -0.05642,0.564084 h -0.846306 c -0.03761,-0.159823 -0.05642,-0.347851 -0.05642,-0.564084 0,-0.225635 0.01881,-0.413663 0.05642,-0.564084 h -0.282102 c -0.03761,-0.159824 -0.05642,-0.347852 -0.05642,-0.564085 0,-0.225634 0.01881,-0.413663 0.05642,-0.564084 -0.03761,-0.159824 -0.05642,-0.347852 -0.05642,-0.564084 0,-0.225635 0.01881,-0.413663 0.05642,-0.564085 h -0.423154 c -0.03761,-0.159823 -0.05642,-0.347852 -0.05642,-0.564084 0,-0.225635 0.01881,-0.413663 0.05642,-0.564085 -0.03761,-0.159823 -0.05642,-0.347851 -0.05642,-0.564084 0,-0.225634 0.01881,-0.413663 0.05642,-0.564084 -0.03761,-0.159824 -0.05642,-0.347852 -0.05642,-0.564085 0,-0.225634 0.01881,-0.413662 0.05642,-0.564084 -0.03761,-0.159823 -0.05642,-0.347852 -0.05642,-0.564084 0,-0.225635 0.01881,-0.413663 0.05642,-0.564085 h 1.128409 c 0.03761,0.150422 0.05642,0.33845 0.05642,0.564085 0,0.216232 -0.01881,0.404261 -0.05642,0.564084 0.03761,0.150422 0.05642,0.33845 0.05642,0.564084 0,0.216233 -0.01881,0.404261 -0.05642,0.564085 0.03761,0.150421 0.05642,0.33845 0.05642,0.564084 0,0.216233 -0.01881,0.404261 -0.05642,0.564084 0.03761,0.150422 0.05642,0.33845 0.05642,0.564085 0,0.216232 -0.01881,0.404261 -0.05642,0.564084 0.03761,0.150422 0.05642,0.33845 0.05642,0.564085 0,0.216232 -0.01881,0.40426 -0.05642,0.564084 h 0.423153 c -0.03761,-0.159824 -0.05642,-0.347852 -0.05642,-0.564084 0,-0.225635 0.01881,-0.413663 0.05642,-0.564085 h 0.282103 c -0.03761,-0.159823 -0.05642,-0.347852 -0.05642,-0.564084 0,-0.225635 0.01881,-0.413663 0.05642,-0.564085 -0.03761,-0.159823 -0.05642,-0.347851 -0.05642,-0.564084 0,-0.225634 0.01881,-0.413663 0.05642,-0.564084 -0.03761,-0.159824 -0.05642,-0.347852 -0.05642,-0.564085 0,-0.225634 0.01881,-0.413662 0.05642,-0.564084 -0.03761,-0.159823 -0.05642,-0.347852 -0.05642,-0.564084 0,-0.225635 0.01881,-0.413663 0.05642,-0.564085 h 0.846306 c 0.03761,0.150422 0.05642,0.33845 0.05642,0.564085 0,0.216232 -0.01881,0.404261 -0.05642,0.564084 0.03761,0.150422 0.05642,0.33845 0.05642,0.564084 0,0.216233 -0.01881,0.404261 -0.05642,0.564085 0.03761,0.150421 0.05642,0.33845 0.05642,0.564084 0,0.216233 -0.01881,0.404261 -0.05642,0.564084 0.03761,0.150422 0.05642,0.33845 0.05642,0.564085 0,0.216232 -0.01881,0.404261 -0.05642,0.564084 h 0.282102 c 0.03761,0.150422 0.05642,0.33845 0.05642,0.564085 0,0.216232 -0.01881,0.40426 -0.05642,0.564084 h 0.423154 c -0.03761,-0.159824 -0.05642,-0.347852 -0.05642,-0.564084 0,-0.225635 0.01881,-0.413663 0.05642,-0.564085 -0.03761,-0.159823 -0.05642,-0.347852 -0.05642,-0.564084 0,-0.225635 0.01881,-0.413663 0.05642,-0.564085 -0.03761,-0.159823 -0.05642,-0.347851 -0.05642,-0.564084 0,-0.225634 0.01881,-0.413663 0.05642,-0.564084 -0.03761,-0.159824 -0.05642,-0.347852 -0.05642,-0.564085 0,-0.225634 0.01881,-0.413662 0.05642,-0.564084 -0.03761,-0.159823 -0.05642,-0.347852 -0.05642,-0.564084 0,-0.225635 0.01881,-0.413663 0.05642,-0.564085 h 1.128408 c 0.03761,0.150422 0.05642,0.33845 0.05642,0.564085 0,0.216232 -0.01881,0.404261 -0.05642,0.564084 z" />
    <path
       id="path23880"
       style="color:#000000;font-style:normal;font-variant:normal;font-weight:normal;font-stretch:normal;font-size:9.5454px;line-height:71.5%;font-family:VT323;-inkscape-font-specification:'VT323, Normal';font-variant-ligatures:normal;font-variant-caps:normal;font-variant-numeric:normal;font-variant-east-asian:normal;text-align:center;writing-mode:lr-tb;text-anchor:middle;white-space:pre;inline-size:127.793;fill:#ffffff;fill-opacity:1;stroke:none;stroke-width:1.00012;stroke-linecap:round;stroke-linejoin:round;stroke-miterlimit:4;stroke-dasharray:none;stroke-opacity:0.175732;paint-order:markers fill stroke"
       d="m 101.63139,96.72572 q 0,0.324348 -0.0564,0.564085 0.0564,0.225633 0.0564,0.564084 0,0.324348 -0.0564,0.564084 h -1.12841 q -0.0564,-0.239736 -0.0564,-0.564084 0,-0.338451 0.0564,-0.564084 -0.0564,-0.239737 -0.0564,-0.564085 0,-0.338451 0.0564,-0.564084 h -2.256816 q 0.05642,0.225633 0.05642,0.564084 0,0.324348 -0.05642,0.564085 0.05642,0.225633 0.05642,0.564084 0,0.324348 -0.05642,0.564084 h -1.128409 q -0.05642,-0.239736 -0.05642,-0.564084 0,-0.338451 0.05642,-0.564084 -0.05642,-0.239737 -0.05642,-0.564085 0,-0.338451 0.05642,-0.564084 h 0.423153 q -0.05642,-0.239736 -0.05642,-0.564084 0,-0.338452 0.05642,-0.564085 -0.05642,-0.239736 -0.05642,-0.564084 0,-0.338451 0.05642,-0.564085 h 0.282102 q -0.05642,-0.239736 -0.05642,-0.564084 0,-0.338451 0.05642,-0.564084 h 0.423154 q -0.05642,-0.239736 -0.05642,-0.564085 0,-0.338451 0.05642,-0.564084 h 0.282102 q -0.05642,-0.239736 -0.05642,-0.564084 0,-0.338451 0.05642,-0.564085 h 1.692614 q 0.0564,0.225634 0.0564,0.564085 0,0.324348 -0.0564,0.564084 h 0.2821 q 0.0564,0.225633 0.0564,0.564084 0,0.324349 -0.0564,0.564085 h 0.42315 q 0.0564,0.225633 0.0564,0.564084 0,0.324348 -0.0564,0.564084 h 0.28211 q 0.0564,0.225634 0.0564,0.564085 0,0.324348 -0.0564,0.564084 0.0564,0.225633 0.0564,0.564085 0,0.324348 -0.0564,0.564084 h 0.42315 q 0.0564,0.225633 0.0564,0.564084 z m -1.60798,-1.692253 q -0.05642,-0.239736 -0.05642,-0.564084 0,-0.338451 0.05642,-0.564085 h -0.282107 q -0.05642,-0.239736 -0.05642,-0.564084 0,-0.338451 0.05642,-0.564084 h -0.846307 q 0.05642,0.225633 0.05642,0.564084 0,0.324348 -0.05642,0.564084 h -0.282102 q 0.05642,0.225634 0.05642,0.564085 0,0.324348 -0.05642,0.564084 z" />
    <path
       id="path23882"
       style="color:#000000;font-style:normal;font-variant:normal;font-weight:normal;font-stretch:normal;font-size:9.5454px;line-height:71.5%;font-family:VT323;-inkscape-font-specification:'VT323, Normal';font-variant-ligatures:normal;font-variant-caps:normal;font-variant-numeric:normal;font-variant-east-asian:normal;text-align:center;writing-mode:lr-tb;text-anchor:middle;white-space:pre;inline-size:127.793;fill:#ffffff;fill-opacity:1;stroke:none;stroke-width:1.00012;stroke-linecap:round;stroke-linejoin:round;stroke-miterlimit:4;stroke-dasharray:none;stroke-opacity:0.175732;paint-order:markers fill stroke"
       d="m 106.37621,97.289805 q 0.0564,0.225633 0.0564,0.564084 0,0.324348 -0.0564,0.564084 h -2.82102 q -0.0564,-0.239736 -0.0564,-0.564084 0,-0.338451 0.0564,-0.564084 h 0.84631 q -0.0564,-0.239737 -0.0564,-0.564085 0,-0.338451 0.0564,-0.564084 -0.0564,-0.239736 -0.0564,-0.564084 0,-0.338452 0.0564,-0.564085 -0.0564,-0.239736 -0.0564,-0.564084 0,-0.338451 0.0564,-0.564085 -0.0564,-0.239736 -0.0564,-0.564084 0,-0.338451 0.0564,-0.564084 -0.0564,-0.239736 -0.0564,-0.564085 0,-0.338451 0.0564,-0.564084 h -0.84631 q -0.0564,-0.239736 -0.0564,-0.564084 0,-0.338451 0.0564,-0.564085 h 2.82102 q 0.0564,0.225634 0.0564,0.564085 0,0.324348 -0.0564,0.564084 h -0.8463 q 0.0564,0.225633 0.0564,0.564084 0,0.324349 -0.0564,0.564085 0.0564,0.225633 0.0564,0.564084 0,0.324348 -0.0564,0.564084 0.0564,0.225634 0.0564,0.564085 0,0.324348 -0.0564,0.564084 0.0564,0.225633 0.0564,0.564085 0,0.324348 -0.0564,0.564084 0.0564,0.225633 0.0564,0.564084 0,0.324348 -0.0564,0.564085 z" />
    <path
       id="path23884"
       style="color:#000000;font-style:normal;font-variant:normal;font-weight:normal;font-stretch:normal;font-size:9.5454px;line-height:71.5%;font-family:VT323;-inkscape-font-specification:'VT323, Normal';font-variant-ligatures:normal;font-variant-caps:normal;font-variant-numeric:normal;font-variant-east-asian:normal;text-align:center;writing-mode:lr-tb;text-anchor:middle;white-space:pre;inline-size:127.793;fill:#ffffff;fill-opacity:1;stroke:none;stroke-width:1.00012;stroke-linecap:round;stroke-linejoin:round;stroke-miterlimit:4;stroke-dasharray:none;stroke-opacity:0.175732;paint-order:markers fill stroke"
       d="m 112.92649,91.084877 q 0,0.324348 -0.0564,0.564084 h -1.69262 q 0.0564,0.225633 0.0564,0.564084 0,0.324349 -0.0564,0.564085 0.0564,0.225633 0.0564,0.564084 0,0.324348 -0.0564,0.564084 0.0564,0.225634 0.0564,0.564085 0,0.324348 -0.0564,0.564084 0.0564,0.225633 0.0564,0.564085 0,0.324348 -0.0564,0.564084 0.0564,0.225633 0.0564,0.564084 0,0.324348 -0.0564,0.564085 0.0564,0.225633 0.0564,0.564084 0,0.324348 -0.0564,0.564084 h -1.12841 q -0.0564,-0.239736 -0.0564,-0.564084 0,-0.338451 0.0564,-0.564084 -0.0564,-0.239737 -0.0564,-0.564085 0,-0.338451 0.0564,-0.564084 -0.0564,-0.239736 -0.0564,-0.564084 0,-0.338452 0.0564,-0.564085 -0.0564,-0.239736 -0.0564,-0.564084 0,-0.338451 0.0564,-0.564085 -0.0564,-0.239736 -0.0564,-0.564084 0,-0.338451 0.0564,-0.564084 -0.0564,-0.239736 -0.0564,-0.564085 0,-0.338451 0.0564,-0.564084 h -1.69261 q -0.0564,-0.239736 -0.0564,-0.564084 0,-0.338451 0.0564,-0.564085 h 4.51363 q 0.0564,0.225634 0.0564,0.564085 z" />
    <path
       id="path23886"
       style="color:#000000;font-style:normal;font-variant:normal;font-weight:normal;font-stretch:normal;font-size:9.5454px;line-height:71.5%;font-family:VT323;-inkscape-font-specification:'VT323, Normal';font-variant-ligatures:normal;font-variant-caps:normal;font-variant-numeric:normal;font-variant-east-asian:normal;text-align:center;writing-mode:lr-tb;text-anchor:middle;white-space:pre;inline-size:127.793;fill:#ffffff;fill-opacity:1;stroke:none;stroke-width:1.00012;stroke-linecap:round;stroke-linejoin:round;stroke-miterlimit:4;stroke-dasharray:none;stroke-opacity:0.175732;paint-order:markers fill stroke"
       d="m 117.67132,97.289805 q 0.0564,0.225633 0.0564,0.564084 0,0.324348 -0.0564,0.564084 h -2.82102 q -0.0564,-0.239736 -0.0564,-0.564084 0,-0.338451 0.0564,-0.564084 h 0.8463 q -0.0564,-0.239737 -0.0564,-0.564085 0,-0.338451 0.0564,-0.564084 -0.0564,-0.239736 -0.0564,-0.564084 0,-0.338452 0.0564,-0.564085 -0.0564,-0.239736 -0.0564,-0.564084 0,-0.338451 0.0564,-0.564085 -0.0564,-0.239736 -0.0564,-0.564084 0,-0.338451 0.0564,-0.564084 -0.0564,-0.239736 -0.0564,-0.564085 0,-0.338451 0.0564,-0.564084 h -0.8463 q -0.0564,-0.239736 -0.0564,-0.564084 0,-0.338451 0.0564,-0.564085 h 2.82102 q 0.0564,0.225634 0.0564,0.564085 0,0.324348 -0.0564,0.564084 h -0.84631 q 0.0564,0.225633 0.0564,0.564084 0,0.324349 -0.0564,0.564085 0.0564,0.225633 0.0564,0.564084 0,0.324348 -0.0564,0.564084 0.0564,0.225634 0.0564,0.564085 0,0.324348 -0.0564,0.564084 0.0564,0.225633 0.0564,0.564085 0,0.324348 -0.0564,0.564084 0.0564,0.225633 0.0564,0.564084 0,0.324348 -0.0564,0.564085 z" />
    <path
       id="path23888"
       style="color:#000000;font-style:normal;font-variant:normal;font-weight:normal;font-stretch:normal;font-size:9.5454px;line-height:71.5%;font-family:VT323;-inkscape-font-specification:'VT323, Normal';font-variant-ligatures:normal;font-variant-caps:normal;font-variant-numeric:normal;font-variant-east-asian:normal;text-align:center;writing-mode:lr-tb;text-anchor:middle;white-space:pre;inline-size:127.793;fill:#ffffff;fill-opacity:1;stroke:none;stroke-width:1.00012;stroke-linecap:round;stroke-linejoin:round;stroke-miterlimit:4;stroke-dasharray:none;stroke-opacity:0.175732;paint-order:markers fill stroke"
       d="m 124.16518,91.648961 q 0.0564,0.225633 0.0564,0.564084 0,0.324349 -0.0564,0.564085 0.0564,0.225633 0.0564,0.564084 0,0.324348 -0.0564,0.564084 0.0564,0.225634 0.0564,0.564085 0,0.324348 -0.0564,0.564084 0.0564,0.225633 0.0564,0.564085 0,0.324348 -0.0564,0.564084 0.0564,0.225633 0.0564,0.564084 0,0.324348 -0.0564,0.564085 0.0564,0.225633 0.0564,0.564084 0,0.324348 -0.0564,0.564084 h -1.12841 q -0.0564,-0.239736 -0.0564,-0.564084 0,-0.338451 0.0564,-0.564084 h -0.70525 q -0.0564,-0.239737 -0.0564,-0.564085 0,-0.338451 0.0564,-0.564084 h -0.42316 q -0.0564,-0.239736 -0.0564,-0.564084 0,-0.338452 0.0564,-0.564085 h -0.5642 q -0.0564,-0.239736 -0.0564,-0.564084 0,-0.338451 0.0564,-0.564085 h -0.5642 q 0.0564,0.225634 0.0564,0.564085 0,0.324348 -0.0564,0.564084 0.0564,0.225633 0.0564,0.564085 0,0.324348 -0.0564,0.564084 0.0564,0.225633 0.0564,0.564084 0,0.324348 -0.0564,0.564085 0.0564,0.225633 0.0564,0.564084 0,0.324348 -0.0564,0.564084 h -1.12841 q -0.0564,-0.239736 -0.0564,-0.564084 0,-0.338451 0.0564,-0.564084 -0.0564,-0.239737 -0.0564,-0.564085 0,-0.338451 0.0564,-0.564084 -0.0564,-0.239736 -0.0564,-0.564084 0,-0.338452 0.0564,-0.564085 -0.0564,-0.239736 -0.0564,-0.564084 0,-0.338451 0.0564,-0.564085 -0.0564,-0.239736 -0.0564,-0.564084 0,-0.338451 0.0564,-0.564084 -0.0564,-0.239736 -0.0564,-0.564085 0,-0.338451 0.0564,-0.564084 -0.0564,-0.239736 -0.0564,-0.564084 0,-0.338451 0.0564,-0.564085 h 1.41051 q 0.0564,0.225634 0.0564,0.564085 0,0.324348 -0.0564,0.564084 h 0.42315 q 0.0564,0.225633 0.0564,0.564084 0,0.324349 -0.0564,0.564085 h 0.42315 q 0.0564,0.225633 0.0564,0.564084 0,0.324348 -0.0564,0.564084 h 0.56421 q 0.0564,0.225634 0.0564,0.564085 0,0.324348 -0.0564,0.564084 h 0.5642 q -0.0564,-0.239736 -0.0564,-0.564084 0,-0.338451 0.0564,-0.564085 -0.0564,-0.239736 -0.0564,-0.564084 0,-0.338451 0.0564,-0.564084 -0.0564,-0.239736 -0.0564,-0.564085 0,-0.338451 0.0564,-0.564084 -0.0564,-0.239736 -0.0564,-0.564084 0,-0.338451 0.0564,-0.564085 h 1.12841 q 0.0564,0.225634 0.0564,0.564085 0,0.324348 -0.0564,0.564084 z" />
    <path
       id="path23890"
       style="color:#000000;font-style:normal;font-variant:normal;font-weight:normal;font-stretch:normal;font-size:9.5454px;line-height:71.5%;font-family:VT323;-inkscape-font-specification:'VT323, Normal';font-variant-ligatures:normal;font-variant-caps:normal;font-variant-numeric:normal;font-variant-east-asian:normal;text-align:center;writing-mode:lr-tb;text-anchor:middle;white-space:pre;inline-size:127.793;fill:#ffffff;fill-opacity:1;stroke:none;stroke-width:1.00012;stroke-linecap:round;stroke-linejoin:round;stroke-miterlimit:4;stroke-dasharray:none;stroke-opacity:0.175732;paint-order:markers fill stroke"
       d="m 129.81273,93.905298 q 0.0564,0.225634 0.0564,0.564085 0,0.324348 -0.0564,0.564084 0.0564,0.225633 0.0564,0.564085 0,0.324348 -0.0564,0.564084 0.0564,0.225633 0.0564,0.564084 0,0.324348 -0.0564,0.564085 h -0.5642 q 0.0564,0.225633 0.0564,0.564084 0,0.324348 -0.0564,0.564084 h -2.82102 q -0.0564,-0.239736 -0.0564,-0.564084 0,-0.338451 0.0564,-0.564084 h -0.56421 q -0.0564,-0.239737 -0.0564,-0.564085 0,-0.338451 0.0564,-0.564084 h -0.5642 q -0.0564,-0.239736 -0.0564,-0.564084 0,-0.338452 0.0564,-0.564085 -0.0564,-0.239736 -0.0564,-0.564084 0,-0.338451 0.0564,-0.564085 -0.0564,-0.239736 -0.0564,-0.564084 0,-0.338451 0.0564,-0.564084 h 0.5642 q -0.0564,-0.239736 -0.0564,-0.564085 0,-0.338451 0.0564,-0.564084 h 0.56421 q -0.0564,-0.239736 -0.0564,-0.564084 0,-0.338451 0.0564,-0.564085 h 2.82102 q 0.0564,0.225634 0.0564,0.564085 0,0.324348 -0.0564,0.564084 h 0.5642 q 0.0564,0.225633 0.0564,0.564084 0,0.324349 -0.0564,0.564085 h -1.1284 q -0.0564,-0.239736 -0.0564,-0.564085 0,-0.338451 0.0564,-0.564084 h -1.69262 q 0.0564,0.225633 0.0564,0.564084 0,0.324349 -0.0564,0.564085 h -0.5642 q 0.0564,0.225633 0.0564,0.564084 0,0.324348 -0.0564,0.564084 0.0564,0.225634 0.0564,0.564085 0,0.324348 -0.0564,0.564084 0.0564,0.225633 0.0564,0.564085 0,0.324348 -0.0564,0.564084 h 0.5642 q 0.0564,0.225633 0.0564,0.564084 0,0.324348 -0.0564,0.564085 h 1.69262 q -0.0564,-0.239737 -0.0564,-0.564085 0,-0.338451 0.0564,-0.564084 -0.0564,-0.239736 -0.0564,-0.564084 0,-0.338452 0.0564,-0.564085 h -0.84631 q -0.0564,-0.239736 -0.0564,-0.564084 0,-0.338451 0.0564,-0.564085 z" />
    <path
       id="path23892"
       style="color:#000000;font-style:normal;font-variant:normal;font-weight:normal;font-stretch:normal;font-size:9.5454px;line-height:71.5%;font-family:VT323;-inkscape-font-specification:'VT323, Normal';font-variant-ligatures:normal;font-variant-caps:normal;font-variant-numeric:normal;font-variant-east-asian:normal;text-align:center;writing-mode:lr-tb;text-anchor:middle;white-space:pre;inline-size:127.793;fill:#ffffff;fill-opacity:1;stroke:none;stroke-width:1.00012;stroke-linecap:round;stroke-linejoin:round;stroke-miterlimit:4;stroke-dasharray:none;stroke-opacity:0.175732;paint-order:markers fill stroke"
       d="m 140.26153,97.289805 q 0.0564,0.225633 0.0564,0.564084 0,0.324348 -0.0564,0.564084 h -2.82102 q -0.0564,-0.239736 -0.0564,-0.564084 0,-0.338451 0.0564,-0.564084 h 0.84631 q -0.0564,-0.239737 -0.0564,-0.564085 0,-0.338451 0.0564,-0.564084 -0.0564,-0.239736 -0.0564,-0.564084 0,-0.338452 0.0564,-0.564085 -0.0564,-0.239736 -0.0564,-0.564084 0,-0.338451 0.0564,-0.564085 -0.0564,-0.239736 -0.0564,-0.564084 0,-0.338451 0.0564,-0.564084 -0.0564,-0.239736 -0.0564,-0.564085 0,-0.338451 0.0564,-0.564084 h -0.84631 q -0.0564,-0.239736 -0.0564,-0.564084 0,-0.338451 0.0564,-0.564085 h 2.82102 q 0.0564,0.225634 0.0564,0.564085 0,0.324348 -0.0564,0.564084 h -0.8463 q 0.0564,0.225633 0.0564,0.564084 0,0.324349 -0.0564,0.564085 0.0564,0.225633 0.0564,0.564084 0,0.324348 -0.0564,0.564084 0.0564,0.225634 0.0564,0.564085 0,0.324348 -0.0564,0.564084 0.0564,0.225633 0.0564,0.564085 0,0.324348 -0.0564,0.564084 0.0564,0.225633 0.0564,0.564084 0,0.324348 -0.0564,0.564085 z" />
    <path
       id="path23894"
       style="color:#000000;font-style:normal;font-variant:normal;font-weight:normal;font-stretch:normal;font-size:9.5454px;line-height:71.5%;font-family:VT323;-inkscape-font-specification:'VT323, Normal';font-variant-ligatures:normal;font-variant-caps:normal;font-variant-numeric:normal;font-variant-east-asian:normal;text-align:center;writing-mode:lr-tb;text-anchor:middle;white-space:pre;inline-size:127.793;fill:#ffffff;fill-opacity:1;stroke:none;stroke-width:1.00012;stroke-linecap:round;stroke-linejoin:round;stroke-miterlimit:4;stroke-dasharray:none;stroke-opacity:0.175732;paint-order:markers fill stroke"
       d="m 146.75539,91.648961 q 0.0564,0.225633 0.0564,0.564084 0,0.324349 -0.0564,0.564085 0.0564,0.225633 0.0564,0.564084 0,0.324348 -0.0564,0.564084 0.0564,0.225634 0.0564,0.564085 0,0.324348 -0.0564,0.564084 0.0564,0.225633 0.0564,0.564085 0,0.324348 -0.0564,0.564084 0.0564,0.225633 0.0564,0.564084 0,0.324348 -0.0564,0.564085 0.0564,0.225633 0.0564,0.564084 0,0.324348 -0.0564,0.564084 h -1.12841 q -0.0564,-0.239736 -0.0564,-0.564084 0,-0.338451 0.0564,-0.564084 h -0.70525 q -0.0564,-0.239737 -0.0564,-0.564085 0,-0.338451 0.0564,-0.564084 h -0.42315 q -0.0564,-0.239736 -0.0564,-0.564084 0,-0.338452 0.0564,-0.564085 h -0.56421 q -0.0564,-0.239736 -0.0564,-0.564084 0,-0.338451 0.0564,-0.564085 h -0.5642 q 0.0564,0.225634 0.0564,0.564085 0,0.324348 -0.0564,0.564084 0.0564,0.225633 0.0564,0.564085 0,0.324348 -0.0564,0.564084 0.0564,0.225633 0.0564,0.564084 0,0.324348 -0.0564,0.564085 0.0564,0.225633 0.0564,0.564084 0,0.324348 -0.0564,0.564084 h -1.12841 q -0.0564,-0.239736 -0.0564,-0.564084 0,-0.338451 0.0564,-0.564084 -0.0564,-0.239737 -0.0564,-0.564085 0,-0.338451 0.0564,-0.564084 -0.0564,-0.239736 -0.0564,-0.564084 0,-0.338452 0.0564,-0.564085 -0.0564,-0.239736 -0.0564,-0.564084 0,-0.338451 0.0564,-0.564085 -0.0564,-0.239736 -0.0564,-0.564084 0,-0.338451 0.0564,-0.564084 -0.0564,-0.239736 -0.0564,-0.564085 0,-0.338451 0.0564,-0.564084 -0.0564,-0.239736 -0.0564,-0.564084 0,-0.338451 0.0564,-0.564085 h 1.41051 q 0.0564,0.225634 0.0564,0.564085 0,0.324348 -0.0564,0.564084 h 0.42315 q 0.0564,0.225633 0.0564,0.564084 0,0.324349 -0.0564,0.564085 h 0.42316 q 0.0564,0.225633 0.0564,0.564084 0,0.324348 -0.0564,0.564084 h 0.5642 q 0.0564,0.225634 0.0564,0.564085 0,0.324348 -0.0564,0.564084 h 0.5642 q -0.0564,-0.239736 -0.0564,-0.564084 0,-0.338451 0.0564,-0.564085 -0.0564,-0.239736 -0.0564,-0.564084 0,-0.338451 0.0564,-0.564084 -0.0564,-0.239736 -0.0564,-0.564085 0,-0.338451 0.0564,-0.564084 -0.0564,-0.239736 -0.0564,-0.564084 0,-0.338451 0.0564,-0.564085 h 1.12841 q 0.0564,0.225634 0.0564,0.564085 0,0.324348 -0.0564,0.564084 z" />
    <path
       id="path23896"
       style="color:#000000;font-style:normal;font-variant:normal;font-weight:normal;font-stretch:normal;font-size:9.5454px;line-height:71.5%;font-family:VT323;-inkscape-font-specification:'VT323, Normal';font-variant-ligatures:normal;font-variant-caps:normal;font-variant-numeric:normal;font-variant-east-asian:normal;text-align:center;writing-mode:lr-tb;text-anchor:middle;white-space:pre;inline-size:127.793;fill:#ffffff;fill-opacity:1;stroke:none;stroke-width:1.00012;stroke-linecap:round;stroke-linejoin:round;stroke-miterlimit:4;stroke-dasharray:none;stroke-opacity:0.175732;paint-order:markers fill stroke"
       d="m 152.45937,92.213045 q 0,0.324349 -0.0564,0.564085 0.0564,0.225633 0.0564,0.564084 0,0.324348 -0.0564,0.564084 h -0.56421 q 0.0564,0.225634 0.0564,0.564085 0,0.324348 -0.0564,0.564084 h -2.82102 q 0.0564,0.225633 0.0564,0.564085 0,0.324348 -0.0564,0.564084 0.0564,0.225633 0.0564,0.564084 0,0.324348 -0.0564,0.564085 0.0564,0.225633 0.0564,0.564084 0,0.324348 -0.0564,0.564084 h -1.12841 q -0.0564,-0.239736 -0.0564,-0.564084 0,-0.338451 0.0564,-0.564084 -0.0564,-0.239737 -0.0564,-0.564085 0,-0.338451 0.0564,-0.564084 -0.0564,-0.239736 -0.0564,-0.564084 0,-0.338452 0.0564,-0.564085 -0.0564,-0.239736 -0.0564,-0.564084 0,-0.338451 0.0564,-0.564085 -0.0564,-0.239736 -0.0564,-0.564084 0,-0.338451 0.0564,-0.564084 -0.0564,-0.239736 -0.0564,-0.564085 0,-0.338451 0.0564,-0.564084 -0.0564,-0.239736 -0.0564,-0.564084 0,-0.338451 0.0564,-0.564085 h 3.94943 q 0.0564,0.225634 0.0564,0.564085 0,0.324348 -0.0564,0.564084 h 0.56421 q 0.0564,0.225633 0.0564,0.564084 z m -1.18483,1.692253 q -0.0564,-0.239736 -0.0564,-0.564084 0,-0.338451 0.0564,-0.564084 -0.0564,-0.239736 -0.0564,-0.564085 0,-0.338451 0.0564,-0.564084 h -2.25682 q 0.0564,0.225633 0.0564,0.564084 0,0.324349 -0.0564,0.564085 0.0564,0.225633 0.0564,0.564084 0,0.324348 -0.0564,0.564084 z" />
    <path
       id="path23898"
       style="color:#000000;font-style:normal;font-variant:normal;font-weight:normal;font-stretch:normal;font-size:9.5454px;line-height:71.5%;font-family:VT323;-inkscape-font-specification:'VT323, Normal';font-variant-ligatures:normal;font-variant-caps:normal;font-variant-numeric:normal;font-variant-east-asian:normal;text-align:center;writing-mode:lr-tb;text-anchor:middle;white-space:pre;inline-size:127.793;fill:#ffffff;fill-opacity:1;stroke:none;stroke-width:1.00012;stroke-linecap:round;stroke-linejoin:round;stroke-miterlimit:4;stroke-dasharray:none;stroke-opacity:0.175732;paint-order:markers fill stroke"
       d="m 158.0505,91.648961 q 0.0564,0.225633 0.0564,0.564084 0,0.324349 -0.0564,0.564085 0.0564,0.225633 0.0564,0.564084 0,0.324348 -0.0564,0.564084 0.0564,0.225634 0.0564,0.564085 0,0.324348 -0.0564,0.564084 0.0564,0.225633 0.0564,0.564085 0,0.324348 -0.0564,0.564084 0.0564,0.225633 0.0564,0.564084 0,0.324348 -0.0564,0.564085 h -0.5642 q 0.0564,0.225633 0.0564,0.564084 0,0.324348 -0.0564,0.564084 h -3.38523 q -0.0564,-0.239736 -0.0564,-0.564084 0,-0.338451 0.0564,-0.564084 h -0.5642 q -0.0564,-0.239737 -0.0564,-0.564085 0,-0.338451 0.0564,-0.564084 -0.0564,-0.239736 -0.0564,-0.564084 0,-0.338452 0.0564,-0.564085 -0.0564,-0.239736 -0.0564,-0.564084 0,-0.338451 0.0564,-0.564085 -0.0564,-0.239736 -0.0564,-0.564084 0,-0.338451 0.0564,-0.564084 -0.0564,-0.239736 -0.0564,-0.564085 0,-0.338451 0.0564,-0.564084 -0.0564,-0.239736 -0.0564,-0.564084 0,-0.338451 0.0564,-0.564085 h 1.12841 q 0.0564,0.225634 0.0564,0.564085 0,0.324348 -0.0564,0.564084 0.0564,0.225633 0.0564,0.564084 0,0.324349 -0.0564,0.564085 0.0564,0.225633 0.0564,0.564084 0,0.324348 -0.0564,0.564084 0.0564,0.225634 0.0564,0.564085 0,0.324348 -0.0564,0.564084 0.0564,0.225633 0.0564,0.564085 0,0.324348 -0.0564,0.564084 0.0564,0.225633 0.0564,0.564084 0,0.324348 -0.0564,0.564085 h 2.25681 q -0.0564,-0.239737 -0.0564,-0.564085 0,-0.338451 0.0564,-0.564084 -0.0564,-0.239736 -0.0564,-0.564084 0,-0.338452 0.0564,-0.564085 -0.0564,-0.239736 -0.0564,-0.564084 0,-0.338451 0.0564,-0.564085 -0.0564,-0.239736 -0.0564,-0.564084 0,-0.338451 0.0564,-0.564084 -0.0564,-0.239736 -0.0564,-0.564085 0,-0.338451 0.0564,-0.564084 -0.0564,-0.239736 -0.0564,-0.564084 0,-0.338451 0.0564,-0.564085 h 1.12841 q 0.0564,0.225634 0.0564,0.564085 0,0.324348 -0.0564,0.564084 z" />
    <path
       id="path23900"
       style="color:#000000;font-style:normal;font-variant:normal;font-weight:normal;font-stretch:normal;font-size:9.5454px;line-height:71.5%;font-family:VT323;-inkscape-font-specification:'VT323, Normal';font-variant-ligatures:normal;font-variant-caps:normal;font-variant-numeric:normal;font-variant-east-asian:normal;text-align:center;writing-mode:lr-tb;text-anchor:middle;white-space:pre;inline-size:127.793;fill:#ffffff;fill-opacity:1;stroke:none;stroke-width:1.00012;stroke-linecap:round;stroke-linejoin:round;stroke-miterlimit:4;stroke-dasharray:none;stroke-opacity:0.175732;paint-order:markers fill stroke"
       d="m 163.75448,91.084877 q 0,0.324348 -0.0564,0.564084 h -1.69261 q 0.0564,0.225633 0.0564,0.564084 0,0.324349 -0.0564,0.564085 0.0564,0.225633 0.0564,0.564084 0,0.324348 -0.0564,0.564084 0.0564,0.225634 0.0564,0.564085 0,0.324348 -0.0564,0.564084 0.0564,0.225633 0.0564,0.564085 0,0.324348 -0.0564,0.564084 0.0564,0.225633 0.0564,0.564084 0,0.324348 -0.0564,0.564085 0.0564,0.225633 0.0564,0.564084 0,0.324348 -0.0564,0.564084 h -1.12841 q -0.0564,-0.239736 -0.0564,-0.564084 0,-0.338451 0.0564,-0.564084 -0.0564,-0.239737 -0.0564,-0.564085 0,-0.338451 0.0564,-0.564084 -0.0564,-0.239736 -0.0564,-0.564084 0,-0.338452 0.0564,-0.564085 -0.0564,-0.239736 -0.0564,-0.564084 0,-0.338451 0.0564,-0.564085 -0.0564,-0.239736 -0.0564,-0.564084 0,-0.338451 0.0564,-0.564084 -0.0564,-0.239736 -0.0564,-0.564085 0,-0.338451 0.0564,-0.564084 h -1.69262 q -0.0564,-0.239736 -0.0564,-0.564084 0,-0.338451 0.0564,-0.564085 h 4.51364 q 0.0564,0.225634 0.0564,0.564085 z" />
    <path
       id="rect19229"
       style="color:#000000;overflow:visible;fill:#ffffff;stroke:#ffffff;stroke-width:0.132292;stroke-linecap:square;stroke-linejoin:round;stroke-miterlimit:4;stroke-dasharray:none;paint-order:markers fill stroke;stop-color:#000000"
       d="m 121.98485,60.398173 v 0.602033 h -0.60255 -0.60254 v 0.60203 h -0.60203 v 0.602547 h -0.60255 -0.60203 -0.60255 v 0.60203 h -0.60254 v 0.60203 h 0.60254 0.60255 v -0.60203 h 0.60203 0.60255 0.60203 v 0.60203 h 0.60254 0.60255 0.60203 v -0.60203 h -0.60203 -0.60255 v -0.60203 -0.602547 h 0.60255 0.60203 0.60255 0.60203 0.60255 v -0.60203 h -0.60255 v -0.602033 h -0.60203 -0.60255 z m 2.40916,1.204063 v 0.602547 0.60203 h 0.60203 v 0.60203 h 0.60254 0.60255 v -0.60203 h -0.60255 v -0.60203 h -0.60254 v -0.602547 z m -7.22799,1.807123 v 0.60203 0.602031 0.602549 0.60203 0.60203 h 0.30128 v 0.602546 0.602031 h 0.60203 v 0.602033 h 0.60255 v 0.602546 h 0.60203 v 0.60203 h 0.60254 v 0.60203 h 0.60255 0.60203 v 0.602547 h 0.60255 0.60203 v 0.60203 h -0.60203 -0.60255 -0.60203 -0.60255 -0.60254 v 0.60203 h 0.60254 0.60255 v 0.602549 h 0.60203 v 0.60203 h -0.60203 -0.60255 -0.60254 -0.60203 -0.60255 -0.60203 v 0.602031 h -0.60255 v 0.602546 h 0.60255 0.60203 v 0.60203 h -0.60203 -0.60255 v 0.602033 h -0.60255 v 0.602546 h -0.60203 v 0.602031 h -0.60254 v 0.60203 h 0.60254 0.60203 0.60255 0.60255 v 0.602546 h -0.60255 v 0.60203 h -0.60255 v 0.602031 h -0.60203 v 0.602548 h 0.60203 0.60255 v 0.602031 h 0.60255 v 0.60203 h -0.60255 v 0.602546 h -0.60255 v 0.602031 h 0.60255 0.60255 v 0.602032 h 0.60203 0.60255 v 0.602547 h -0.60255 -0.60203 -0.60255 -0.60255 v -0.602547 h -0.60203 -0.60254 v -0.602032 h -0.60204 v -0.602031 -0.602546 -0.60203 -0.602031 -0.602548 -0.602031 -0.60203 -0.602546 -0.60203 -0.602031 -0.602546 h 0.60204 v -0.602033 -0.60203 -0.602546 h 0.60254 v -0.602031 -0.60203 h 0.60203 v -0.602549 -0.60203 -0.60203 -0.602547 h 0.60255 v -0.60203 -0.60203 -0.602546 -0.602033 -0.602031 -0.602546 -0.60203 -0.60203 H 116.2622 V 64.61342 h -0.60203 v -0.602031 h -0.60254 -0.60204 -0.60254 -0.60255 v 0.602031 h -0.60203 v 0.602549 0.60203 0.60203 0.602546 h -0.60255 v 0.602031 0.602033 0.602546 0.60203 0.60203 h -0.60203 v 0.602547 0.60203 0.60203 0.602549 0.60203 0.602031 0.602546 0.60203 0.602033 0.602546 0.602031 0.60203 0.602546 0.60203 0.602031 h 0.60203 v 0.602548 0.602031 0.602546 h 0.60255 v 0.60203 h 0.60203 v 0.602031 0.602548 h 0.60255 v -5.29e-4 h 0.60254 v 5.29e-4 h -0.60254 v 0.602031 h 0.60254 v 0.60203 h 0.60204 v 0.602546 h 0.60254 0.60203 v 0.60203 h 0.60255 0.60255 0.60203 v -0.60203 h 0.60255 0.60203 V 83.88408 h 0.60254 0.60255 0.60203 0.60255 v 0.602546 0.60203 h 0.60203 0.60255 0.60203 v -0.60203 -0.602546 -0.60203 h 5.3e-4 v -0.602547 h -5.3e-4 v -0.602032 h 0.60254 0.60255 V 81.47544 h 0.60203 0.60255 v -0.602546 h 0.60203 0.60254 v -0.60203 h 0.60255 0.60203 v -0.602031 h 0.60255 v -0.602548 h 0.60203 v -0.602031 h 0.60255 v 0.602031 h 0.60255 v 0.602548 0.602031 h 0.60203 0.60254 0.60203 v -0.602031 -0.602548 -0.602031 h -0.60203 v -0.60203 -0.602546 h 0.60203 v -0.60203 h 0.60255 0.60255 0.60203 v -0.602031 h 0.60255 0.60203 v -0.602546 h 0.60254 v -0.602033 -0.60203 -0.602546 H 135.537 v -0.602031 h -0.60203 -0.60255 v -0.60203 h -0.60203 v -0.602549 h -0.60255 v -0.60203 h -0.60255 v -0.60203 -0.602547 -0.60203 h -0.60203 v -0.60203 -0.602546 -0.602033 -0.602031 -0.602546 h -0.60254 v 0.602546 h -0.60203 v 0.602031 0.602033 h -0.60255 v 0.602546 h -0.60255 v -0.602546 -0.602033 h -0.60203 v -0.602031 h -0.60255 v 0.602031 h -0.30127 v -0.602031 -0.602546 h -0.60203 v -0.60203 -0.60203 h -0.60255 V 64.61342 64.011389 h -0.60203 v -0.60203 h -0.60255 v 0.60203 0.602031 h 0.60255 v 0.602549 0.60203 h 0.60203 v 0.60203 0.602546 h 0.60255 v 0.602031 h 0.30127 v 0.602033 0.602546 0.60203 h -0.30127 v -0.60203 -0.602546 h -0.60255 v -0.602033 h -0.60203 v -0.301274 -0.60203 h -0.60255 v -0.60203 h -0.60254 v 0.60203 0.60203 h 0.60254 v 0.602549 h 0.60255 v 0.300758 0.602546 h 0.60203 v 0.60203 0.60203 h 0.60255 v 0.602547 h 0.30127 v 0.60203 0.60203 0.602549 0.60203 0.602031 h -0.60255 -0.60254 v -0.602031 h -0.60203 v -0.60203 h -0.60255 v -0.602549 h -0.60203 v -0.60203 h -0.60255 v -0.60203 h -0.60254 -0.60203 v -0.602547 h -0.60255 -0.60203 v -0.60203 h -0.60255 -0.60203 v -0.60203 h -0.60255 v -0.602546 h -0.60254 v -0.602033 h -0.60203 v -0.602031 h -0.60255 v -0.602546 h -0.30127 v -0.60203 -0.60203 -0.602549 -0.602031 h 0.60254 v -0.60203 h -0.60254 z m 7.83002,2.709913 v -0.602546 -0.602031 h -0.60203 v -0.60203 h -0.60255 v -0.301276 h -0.60203 v -0.60203 h -0.60255 -0.60203 v 0.60203 h 0.60203 v 0.602031 h 0.60255 v 0.602549 h 0.60203 v 0.300757 h 0.60255 v 0.602546 z m -9.93841,-0.903819 h 0.60254 v 5.29e-4 h -0.60254 z m 15.05851,6.624399 h 0.60255 0.60203 0.60254 0.60203 v 0.602549 h 0.60255 v 0.60203 0.602031 0.602546 h -0.60255 v 0.60203 h -0.60203 -0.60254 -0.60203 -0.60255 v -0.60203 h -0.60255 v -0.602546 -0.602031 -0.60203 h 0.60255 z m 0.60255,0.903306 v 0.602546 0.602031 h 0.60203 0.60254 v -0.602031 -0.602546 h -0.60254 z m -7.2285,6.925675 h 5.3e-4 v 0.602031 0.60203 0.602546 h -5.3e-4 v -0.602546 -0.60203 z" />
  </g>
</svg>
