<svg xmlns="http://www.w3.org/2000/svg" id="svg3725" version="1.1" viewBox="0 0 78.04 38.09">
  <g id="layer1" fill="#fff" stroke-dasharray="none" stroke-linejoin="round" stroke-miterlimit="4" color="#000" paint-order="markers fill stroke" transform="translate(-85.71 -60.33)">
    <path id="path23876" fill-opacity="1" stroke="none" stroke-linecap="round" stroke-opacity=".18" stroke-width="1" d="M90.34 96.73q0 .32-.06.56.06.23.06.56 0 .33-.06.57h-1.13q-.05-.24-.05-.57 0-.33.05-.56-.05-.24-.05-.56 0-.34.05-.57H86.9q.06.23.06.57 0 .32-.06.56.06.23.06.56 0 .33-.06.57h-1.12q-.06-.24-.06-.57 0-.33.06-.56-.06-.24-.06-.56 0-.34.06-.57h.42q-.06-.24-.06-.56 0-.34.06-.57-.06-.24-.06-.56 0-.34.06-.56h.28q-.05-.24-.05-.57 0-.34.05-.56h.42q-.05-.24-.05-.57 0-.34.05-.56h.29q-.06-.24-.06-.57 0-.33.06-.56h1.69q.06.23.06.56 0 .33-.06.57h.28q.06.22.06.56 0 .33-.06.57h.42q.06.22.06.56 0 .33-.06.57h.29q.05.22.05.56 0 .32-.05.56.05.23.05.57 0 .32-.05.56h.42q.06.23.06.57zm-1.61-1.7q-.06-.24-.06-.56 0-.34.06-.56h-.28q-.06-.24-.06-.57 0-.34.06-.56h-.85q.06.22.06.56 0 .33-.06.57h-.28q.05.22.05.56 0 .32-.05.56z" font-family="VT323" font-size="9.55" font-stretch="normal" font-style="normal" font-variant="normal" font-weight="400" style="line-height:71.5%;-inkscape-font-specification:'VT323, Normal';font-variant-ligatures:normal;font-variant-caps:normal;font-variant-numeric:normal;font-variant-east-asian:normal;text-align:center;white-space:pre;inline-size:127.793" text-anchor="middle" writing-mode="lr-tb"/>
    <path id="path23878" fill-opacity="1" stroke="none" stroke-linecap="round" stroke-opacity=".18" stroke-width="1" d="M95.93 91.65c.04.15.05.34.05.56 0 .22-.01.4-.05.57.04.15.05.34.05.56 0 .22-.05.4-.05.57 0 .15.05.33.05.56 0 .22-.01.4-.05.56h-.43c.04.15.06.34.06.57 0 .21-.02.4-.06.56.04.15.06.34.06.57 0 .21-.02.4-.06.56h-.28a2.49 2.49 0 010 1.13h-.84a2.49 2.49 0 01-.06-.57c0-.22.02-.41.06-.56h-.29a2.49 2.49 0 01-.05-.56c0-.23.02-.42.05-.57h-.84c.04.15.05.34.05.57 0 .21-.01.4-.05.56h-.28c.03.15.05.34.05.56 0 .22-.02.4-.05.57h-.85a2.49 2.49 0 01-.06-.57c0-.22.02-.41.06-.56h-.28a2.49 2.49 0 01-.06-.56c0-.23.02-.42.06-.57a2.49 2.49 0 01-.06-.56c0-.23.02-.42.06-.57h-.43a2.49 2.49 0 01-.05-.56c0-.23.02-.41.05-.56a2.49 2.49 0 01-.05-.57c0-.22.02-.41.05-.56a2.49 2.49 0 01-.05-.57c0-.22.02-.41.05-.56a2.49 2.49 0 01-.05-.57c0-.22.02-.4.05-.56h1.13a2.49 2.49 0 010 1.13 2.49 2.49 0 010 1.13 2.49 2.49 0 010 1.13 2.49 2.49 0 010 1.13c.04.14.06.33.06.56 0 .21-.02.4-.06.56h.43a2.49 2.49 0 01-.06-.56c0-.23.02-.42.06-.57h.28a2.49 2.49 0 01-.06-.56c0-.23.02-.41.06-.56a2.49 2.49 0 01-.06-.57c0-.22.02-.41.06-.56a2.49 2.49 0 01-.06-.57c0-.22.02-.41.06-.56a2.49 2.49 0 01-.06-.57c0-.22.02-.4.06-.56h.84a2.49 2.49 0 010 1.13 2.49 2.49 0 010 1.13 2.49 2.49 0 010 1.13 2.49 2.49 0 010 1.13h.29c.03.14.05.33.05.56 0 .21-.02.4-.05.56h.42a2.49 2.49 0 01-.06-.56c0-.23.02-.42.06-.57a2.49 2.49 0 01-.06-.56c0-.23.02-.41.06-.56a2.49 2.49 0 01-.06-.57c0-.22.02-.41.06-.56a2.49 2.49 0 01-.06-.57c0-.22.02-.41.06-.56a2.49 2.49 0 01-.06-.57c0-.22.02-.4.06-.56h1.13c.04.15.05.34.05.56 0 .22-.01.4-.05.57z" font-family="VT323" font-size="9.55" font-stretch="normal" font-style="normal" font-variant="normal" font-weight="400" style="line-height:71.5%;-inkscape-font-specification:'VT323, Normal';font-variant-ligatures:normal;font-variant-caps:normal;font-variant-numeric:normal;font-variant-east-asian:normal;text-align:center;white-space:pre;inline-size:127.793" text-anchor="middle" writing-mode="lr-tb"/>
    <path id="path23880" fill-opacity="1" stroke="none" stroke-linecap="round" stroke-opacity=".18" stroke-width="1" d="M101.63 96.73q0 .32-.06.56.06.23.06.56 0 .33-.06.57h-1.12q-.06-.24-.06-.57 0-.33.06-.56-.06-.24-.06-.56 0-.34.06-.57h-2.26q.06.23.06.57 0 .32-.06.56.06.23.06.56 0 .33-.06.57h-1.13q-.06-.24-.06-.57 0-.33.06-.56-.06-.24-.06-.56 0-.34.06-.57h.42q-.05-.24-.05-.56 0-.34.05-.57-.05-.24-.05-.56 0-.34.05-.56h.29q-.06-.24-.06-.57 0-.34.06-.56h.42q-.06-.24-.06-.57 0-.34.06-.56h.28q-.05-.24-.05-.57 0-.33.05-.56h1.7q.05.23.05.56 0 .33-.06.57h.29q.05.22.05.56 0 .33-.05.57h.42q.06.22.06.56 0 .33-.06.57h.28q.06.22.06.56 0 .32-.06.56.06.23.06.57 0 .32-.06.56h.42q.06.23.06.57zm-1.6-1.7q-.06-.24-.06-.56 0-.34.05-.56h-.28q-.06-.24-.06-.57 0-.34.06-.56h-.85q.06.22.06.56 0 .33-.06.57h-.28q.06.22.06.56 0 .32-.06.56z" font-family="VT323" font-size="9.55" font-stretch="normal" font-style="normal" font-variant="normal" font-weight="400" style="line-height:71.5%;-inkscape-font-specification:'VT323, Normal';font-variant-ligatures:normal;font-variant-caps:normal;font-variant-numeric:normal;font-variant-east-asian:normal;text-align:center;white-space:pre;inline-size:127.793" text-anchor="middle" writing-mode="lr-tb"/>
    <path id="path23882" fill-opacity="1" stroke="none" stroke-linecap="round" stroke-opacity=".18" stroke-width="1" d="M106.38 97.29q.05.23.05.56 0 .33-.05.57h-2.82q-.06-.24-.06-.57 0-.33.06-.56h.84q-.05-.24-.05-.56 0-.34.05-.57-.05-.24-.05-.56 0-.34.05-.57-.05-.24-.05-.56 0-.34.05-.56-.05-.24-.05-.57 0-.34.05-.56-.05-.24-.05-.57 0-.34.05-.56h-.84q-.06-.24-.06-.57 0-.33.06-.56h2.82q.05.23.05.56 0 .33-.05.57h-.85q.06.22.06.56 0 .33-.06.57.06.22.06.56 0 .33-.06.57.06.22.06.56 0 .32-.06.56.06.23.06.57 0 .32-.06.56.06.23.06.57 0 .32-.06.56z" font-family="VT323" font-size="9.55" font-stretch="normal" font-style="normal" font-variant="normal" font-weight="400" style="line-height:71.5%;-inkscape-font-specification:'VT323, Normal';font-variant-ligatures:normal;font-variant-caps:normal;font-variant-numeric:normal;font-variant-east-asian:normal;text-align:center;white-space:pre;inline-size:127.793" text-anchor="middle" writing-mode="lr-tb"/>
    <path id="path23884" fill-opacity="1" stroke="none" stroke-linecap="round" stroke-opacity=".18" stroke-width="1" d="M112.93 91.08q0 .33-.06.57h-1.7q.06.22.06.56 0 .33-.05.57.05.22.05.56 0 .33-.05.57.05.22.05.56 0 .32-.05.56.05.23.05.57 0 .32-.05.56.05.23.05.57 0 .32-.05.56.05.23.05.56 0 .33-.05.57h-1.13q-.06-.24-.06-.57 0-.33.06-.56-.06-.24-.06-.56 0-.34.06-.57-.06-.24-.06-.56 0-.34.06-.57-.06-.24-.06-.56 0-.34.06-.56-.06-.24-.06-.57 0-.34.06-.56-.06-.24-.06-.57 0-.34.06-.56h-1.7q-.05-.24-.05-.57 0-.33.06-.56h4.51q.06.23.06.56z" font-family="VT323" font-size="9.55" font-stretch="normal" font-style="normal" font-variant="normal" font-weight="400" style="line-height:71.5%;-inkscape-font-specification:'VT323, Normal';font-variant-ligatures:normal;font-variant-caps:normal;font-variant-numeric:normal;font-variant-east-asian:normal;text-align:center;white-space:pre;inline-size:127.793" text-anchor="middle" writing-mode="lr-tb"/>
    <path id="path23886" fill-opacity="1" stroke="none" stroke-linecap="round" stroke-opacity=".18" stroke-width="1" d="M117.67 97.29q.06.23.06.56 0 .33-.06.57h-2.82q-.06-.24-.06-.57 0-.33.06-.56h.85q-.06-.24-.06-.56 0-.34.06-.57-.06-.24-.06-.56 0-.34.06-.57-.06-.24-.06-.56 0-.34.06-.56-.06-.24-.06-.57 0-.34.06-.56-.06-.24-.06-.57 0-.34.06-.56h-.85q-.06-.24-.06-.57 0-.33.06-.56h2.82q.06.23.06.56 0 .33-.06.57h-.84q.05.22.05.56 0 .33-.05.57.05.22.05.56 0 .33-.05.57.05.22.05.56 0 .32-.05.56.05.23.05.57 0 .32-.05.56.05.23.05.57 0 .32-.05.56z" font-family="VT323" font-size="9.55" font-stretch="normal" font-style="normal" font-variant="normal" font-weight="400" style="line-height:71.5%;-inkscape-font-specification:'VT323, Normal';font-variant-ligatures:normal;font-variant-caps:normal;font-variant-numeric:normal;font-variant-east-asian:normal;text-align:center;white-space:pre;inline-size:127.793" text-anchor="middle" writing-mode="lr-tb"/>
    <path id="path23888" fill-opacity="1" stroke="none" stroke-linecap="round" stroke-opacity=".18" stroke-width="1" d="M124.17 91.65q.05.22.05.56 0 .33-.05.57.05.22.05.56 0 .33-.05.57.05.22.05.56 0 .32-.05.56.05.23.05.57 0 .32-.05.56.05.23.05.57 0 .32-.05.56.05.23.05.56 0 .33-.05.57h-1.13q-.06-.24-.06-.57 0-.33.06-.56h-.7q-.06-.24-.06-.56 0-.34.05-.57h-.42q-.06-.24-.06-.56 0-.34.06-.57h-.57q-.05-.24-.05-.56 0-.34.05-.56h-.56q.06.22.06.56 0 .32-.06.56.06.23.06.57 0 .32-.06.56.06.23.06.57 0 .32-.06.56.06.23.06.56 0 .33-.06.57h-1.13q-.05-.24-.05-.57 0-.33.05-.56-.05-.24-.05-.56 0-.34.05-.57-.05-.24-.05-.56 0-.34.05-.57-.05-.24-.05-.56 0-.34.05-.56-.05-.24-.05-.57 0-.34.05-.56-.05-.24-.05-.57 0-.34.05-.56-.05-.24-.05-.57 0-.33.05-.56h1.41q.06.23.06.56 0 .33-.06.57h.43q.05.22.05.56 0 .33-.05.57h.42q.05.22.05.56 0 .33-.05.57h.56q.06.22.06.56 0 .32-.06.56h.57q-.06-.24-.06-.56 0-.34.06-.56-.06-.24-.06-.57 0-.34.06-.56-.06-.24-.06-.57 0-.34.06-.56-.06-.24-.06-.57 0-.33.06-.56h1.13q.05.23.05.56 0 .33-.05.57z" font-family="VT323" font-size="9.55" font-stretch="normal" font-style="normal" font-variant="normal" font-weight="400" style="line-height:71.5%;-inkscape-font-specification:'VT323, Normal';font-variant-ligatures:normal;font-variant-caps:normal;font-variant-numeric:normal;font-variant-east-asian:normal;text-align:center;white-space:pre;inline-size:127.793" text-anchor="middle" writing-mode="lr-tb"/>
    <path id="path23890" fill-opacity="1" stroke="none" stroke-linecap="round" stroke-opacity=".18" stroke-width="1" d="M129.81 93.9q.06.23.06.57 0 .32-.06.56.06.23.06.57 0 .32-.06.56.06.23.06.57 0 .32-.06.56h-.56q.05.23.05.56 0 .33-.05.57h-2.82q-.06-.24-.06-.57 0-.33.06-.56h-.57q-.05-.24-.05-.56 0-.34.05-.57h-.56q-.06-.24-.06-.56 0-.34.06-.57-.06-.24-.06-.56 0-.34.06-.56-.06-.24-.06-.57 0-.34.06-.56h.56q-.05-.24-.05-.57 0-.34.05-.56h.57q-.06-.24-.06-.57 0-.33.06-.56h2.82q.05.23.05.56 0 .33-.05.57h.56q.06.22.06.56 0 .33-.06.57h-1.13q-.05-.24-.05-.57 0-.34.05-.56H127q.06.22.06.56 0 .33-.06.57h-.56q.05.22.05.56 0 .33-.05.57.05.22.05.56 0 .32-.05.56.05.23.05.57 0 .32-.05.56h.56q.06.23.06.57 0 .32-.06.56h1.7q-.06-.24-.06-.56 0-.34.05-.57-.05-.24-.05-.56 0-.34.05-.57h-.84q-.06-.24-.06-.56 0-.34.06-.56z" font-family="VT323" font-size="9.55" font-stretch="normal" font-style="normal" font-variant="normal" font-weight="400" style="line-height:71.5%;-inkscape-font-specification:'VT323, Normal';font-variant-ligatures:normal;font-variant-caps:normal;font-variant-numeric:normal;font-variant-east-asian:normal;text-align:center;white-space:pre;inline-size:127.793" text-anchor="middle" writing-mode="lr-tb"/>
    <path id="path23892" fill-opacity="1" stroke="none" stroke-linecap="round" stroke-opacity=".18" stroke-width="1" d="M140.26 97.29q.06.23.06.56 0 .33-.06.57h-2.82q-.06-.24-.06-.57 0-.33.06-.56h.85q-.06-.24-.06-.56 0-.34.06-.57-.06-.24-.06-.56 0-.34.06-.57-.06-.24-.06-.56 0-.34.06-.56-.06-.24-.06-.57 0-.34.06-.56-.06-.24-.06-.57 0-.34.06-.56h-.85q-.06-.24-.06-.57 0-.33.06-.56h2.82q.06.23.06.56 0 .33-.06.57h-.84q.05.22.05.56 0 .33-.05.57.05.22.05.56 0 .33-.05.57.05.22.05.56 0 .32-.05.56.05.23.05.57 0 .32-.05.56.05.23.05.57 0 .32-.05.56z" font-family="VT323" font-size="9.55" font-stretch="normal" font-style="normal" font-variant="normal" font-weight="400" style="line-height:71.5%;-inkscape-font-specification:'VT323, Normal';font-variant-ligatures:normal;font-variant-caps:normal;font-variant-numeric:normal;font-variant-east-asian:normal;text-align:center;white-space:pre;inline-size:127.793" text-anchor="middle" writing-mode="lr-tb"/>
    <path id="path23894" fill-opacity="1" stroke="none" stroke-linecap="round" stroke-opacity=".18" stroke-width="1" d="M146.76 91.65q.05.22.05.56 0 .33-.05.57.05.22.05.56 0 .33-.05.57.05.22.05.56 0 .32-.05.56.05.23.05.57 0 .32-.05.56.05.23.05.57 0 .32-.05.56.05.23.05.56 0 .33-.05.57h-1.13q-.06-.24-.06-.57 0-.33.06-.56h-.7q-.06-.24-.06-.56 0-.34.05-.57h-.42q-.06-.24-.06-.56 0-.34.06-.57h-.57q-.05-.24-.05-.56 0-.34.05-.56h-.56q.06.22.06.56 0 .32-.06.56.06.23.06.57 0 .32-.06.56.06.23.06.57 0 .32-.06.56.06.23.06.56 0 .33-.06.57h-1.13q-.05-.24-.05-.57 0-.33.05-.56-.05-.24-.05-.56 0-.34.05-.57-.05-.24-.05-.56 0-.34.05-.57-.05-.24-.05-.56 0-.34.05-.56-.05-.24-.05-.57 0-.34.05-.56-.05-.24-.05-.57 0-.34.05-.56-.05-.24-.05-.57 0-.33.05-.56h1.41q.06.23.06.56 0 .33-.06.57h.43q.05.22.05.56 0 .33-.05.57h.42q.05.22.05.56 0 .33-.05.57h.56q.06.22.06.56 0 .32-.06.56h.57q-.06-.24-.06-.56 0-.34.06-.56-.06-.24-.06-.57 0-.34.06-.56-.06-.24-.06-.57 0-.34.06-.56-.06-.24-.06-.57 0-.33.06-.56h1.13q.05.23.05.56 0 .33-.05.57z" font-family="VT323" font-size="9.55" font-stretch="normal" font-style="normal" font-variant="normal" font-weight="400" style="line-height:71.5%;-inkscape-font-specification:'VT323, Normal';font-variant-ligatures:normal;font-variant-caps:normal;font-variant-numeric:normal;font-variant-east-asian:normal;text-align:center;white-space:pre;inline-size:127.793" text-anchor="middle" writing-mode="lr-tb"/>
    <path id="path23896" fill-opacity="1" stroke="none" stroke-linecap="round" stroke-opacity=".18" stroke-width="1" d="M152.46 92.21q0 .33-.06.57.06.22.06.56 0 .33-.06.57h-.56q.06.22.06.56 0 .32-.06.56h-2.82q.05.23.05.57 0 .32-.05.56.05.23.05.57 0 .32-.05.56.05.23.05.56 0 .33-.05.57h-1.13q-.06-.24-.06-.57 0-.33.06-.56-.06-.24-.06-.56 0-.34.06-.57-.06-.24-.06-.56 0-.34.06-.57-.06-.24-.06-.56 0-.34.06-.56-.06-.24-.06-.57 0-.34.06-.56-.06-.24-.06-.57 0-.34.06-.56-.06-.24-.06-.57 0-.33.06-.56h3.95q.06.23.06.56 0 .33-.06.57h.56q.06.22.06.56zm-1.19 1.7q-.05-.24-.05-.57 0-.34.05-.56-.05-.24-.05-.57 0-.34.05-.56h-2.25q.05.22.05.56 0 .33-.05.57.05.22.05.56 0 .33-.05.57z" font-family="VT323" font-size="9.55" font-stretch="normal" font-style="normal" font-variant="normal" font-weight="400" style="line-height:71.5%;-inkscape-font-specification:'VT323, Normal';font-variant-ligatures:normal;font-variant-caps:normal;font-variant-numeric:normal;font-variant-east-asian:normal;text-align:center;white-space:pre;inline-size:127.793" text-anchor="middle" writing-mode="lr-tb"/>
    <path id="path23898" fill-opacity="1" stroke="none" stroke-linecap="round" stroke-opacity=".18" stroke-width="1" d="M158.05 91.65q.06.22.06.56 0 .33-.06.57.06.22.06.56 0 .33-.06.57.06.22.06.56 0 .32-.06.56.06.23.06.57 0 .32-.06.56.06.23.06.57 0 .32-.06.56h-.56q.05.23.05.56 0 .33-.05.57h-3.39q-.06-.24-.06-.57 0-.33.06-.56h-.56q-.06-.24-.06-.56 0-.34.06-.57-.06-.24-.06-.56 0-.34.06-.57-.06-.24-.06-.56 0-.34.06-.56-.06-.24-.06-.57 0-.34.06-.56-.06-.24-.06-.57 0-.34.06-.56-.06-.24-.06-.57 0-.33.06-.56h1.13q.05.23.05.56 0 .33-.05.57.05.22.05.56 0 .33-.05.57.05.22.05.56 0 .33-.05.57.05.22.05.56 0 .32-.05.56.05.23.05.57 0 .32-.05.56.05.23.05.57 0 .32-.05.56h2.25q-.05-.24-.05-.56 0-.34.05-.57-.05-.24-.05-.56 0-.34.05-.57-.05-.24-.05-.56 0-.34.05-.56-.05-.24-.05-.57 0-.34.05-.56-.05-.24-.05-.57 0-.34.05-.56-.05-.24-.05-.57 0-.33.05-.56h1.13q.06.23.06.56 0 .33-.06.57z" font-family="VT323" font-size="9.55" font-stretch="normal" font-style="normal" font-variant="normal" font-weight="400" style="line-height:71.5%;-inkscape-font-specification:'VT323, Normal';font-variant-ligatures:normal;font-variant-caps:normal;font-variant-numeric:normal;font-variant-east-asian:normal;text-align:center;white-space:pre;inline-size:127.793" text-anchor="middle" writing-mode="lr-tb"/>
    <path id="path23900" fill-opacity="1" stroke="none" stroke-linecap="round" stroke-opacity=".18" stroke-width="1" d="M163.75 91.08q0 .33-.05.57H162q.06.22.06.56 0 .33-.05.57.05.22.05.56 0 .33-.05.57.05.22.05.56 0 .32-.05.56.05.23.05.57 0 .32-.05.56.05.23.05.57 0 .32-.05.56.05.23.05.56 0 .33-.05.57h-1.13q-.06-.24-.06-.57 0-.33.06-.56-.06-.24-.06-.56 0-.34.06-.57-.06-.24-.06-.56 0-.34.06-.57-.06-.24-.06-.56 0-.34.06-.56-.06-.24-.06-.57 0-.34.06-.56-.06-.24-.06-.57 0-.34.06-.56h-1.7q-.05-.24-.05-.57 0-.33.05-.56h4.52q.05.23.05.56z" font-family="VT323" font-size="9.55" font-stretch="normal" font-style="normal" font-variant="normal" font-weight="400" style="line-height:71.5%;-inkscape-font-specification:'VT323, Normal';font-variant-ligatures:normal;font-variant-caps:normal;font-variant-numeric:normal;font-variant-east-asian:normal;text-align:center;white-space:pre;inline-size:127.793" text-anchor="middle" writing-mode="lr-tb"/>
    <path id="rect19229" stroke="#fff" stroke-linecap="square" stroke-width=".13" d="M121.98 60.4v.6h-1.2v.6h-.6v.6H118.38v.6h-.61v.6h1.2v-.6h1.81v.6H122.58v-.6h-1.2v-1.2h3.01V61h-.6v-.6h-1.2zm2.41 1.2v1.2h.6v.6h1.21v-.6h-.6v-.6h-.6v-.6zm-7.22 1.8v3.02h.3v1.2h.6v.6h.6v.6h.6v.61h.6v.6h1.21v.6h1.2v.6h-3v.61h1.2v.6h.6v.6h-3.61v.6h-.6v.6h1.2v.61h-1.2v.6h-.6v.6h-.61v.6h-.6v.61h2.4v.6h-.6v.6h-.6v.6h-.6v.6h1.2v.61h.6v.6h-.6v.6h-.6v.6h1.2v.61h1.21v.6h-2.4v-.6h-1.21v-.6h-.6V75.46h.6v-1.81h.6v-1.2h.6v-2.41h.6V65.21h-.6v-.6h-.6v-.6H113.25v.6h-.6v2.4h-.6v3.01h-.6v9.03h.6v1.81h.6v.6h.6v1.21h.6v0h.6v0h-.6v.6h.6v.6h.6v.6h1.21v.6H118.06v-.6h1.21v-.6h2.41v1.2h1.81V83.29h0v-.6h0v-.6h1.2v-.6h1.21v-.6h1.2v-.6h1.2v-.61h.61v-.6h.6v-.6h.6v.6h.6v1.2h1.81V78.47h-.6v-1.21h.6v-.6h1.81v-.6h1.2v-.6h.61v-1.81h-.6v-.6h-1.2v-.6h-.61v-.61h-.6v-.6h-.6V69.44h-.6v-3.02h-.6v.6h-.61v1.2h-.6v.6h-.6v-1.2h-.6v-.6h-.61v.6h-.3v-1.2h-.6v-1.2h-.6v-1.2h-.6v-.61h-.61v1.2h.6v1.2h.6v1.21h.6v.6h.3v1.81h-.3v-1.2h-.6v-.6h-.6V66.72h-.6v-.61h-.6v1.2h.6v.6h.6V68.83h.6v1.21h.6v.6h.3V73.65h-1.2v-.6h-.6v-.6h-.6v-.6h-.6v-.6h-.6v-.6h-1.21v-.6h-1.2v-.6h-1.21v-.61h-.6v-.6h-.6v-.6h-.6v-.6h-.61v-.61h-.3v-2.4h.6v-.61h-.6zm7.83 2.72v-1.2h-.6v-.6h-.6v-.3h-.61v-.61h-1.2v.6h.6v.6h.6v.6h.6v.3h.6v.6zm-9.94-.9h.6v0h-.6zm15.06 6.62h2.4v.6h.6V74.24h-.6v.61h-2.4v-.6h-.6V72.45h.6zm.6.9v1.2h1.2v-1.2h-.6zm-7.23 6.93h0V81.47h0v-1.2z" overflow="visible" stop-color="#000"/>
  </g>
</svg>
