<?xml version="1.0" encoding="UTF-8" standalone="no"?>
<svg
   xmlns:dc="http://purl.org/dc/elements/1.1/"
   xmlns:cc="http://creativecommons.org/ns#"
   xmlns:rdf="http://www.w3.org/1999/02/22-rdf-syntax-ns#"
   xmlns:svg="http://www.w3.org/2000/svg"
   xmlns="http://www.w3.org/2000/svg"
   xmlns:sodipodi="http://sodipodi.sourceforge.net/DTD/sodipodi-0.dtd"
   xmlns:inkscape="http://www.inkscape.org/namespaces/inkscape"
   width="50.000042"
   height="50.000153"
   viewBox="0 0 13.229177 13.229207"
   version="1.1"
   id="svg6266"
   inkscape:version="1.0 (4035a4fb49, 2020-05-01)"
   sodipodi:docname="boat-island-story-icons.svg">
  <defs
     id="defs6260" />
  <sodipodi:namedview
     showguides="false"
     id="base"
     pagecolor="#ffffff"
     bordercolor="#666666"
     borderopacity="1.0"
     inkscape:pageopacity="0.0"
     inkscape:pageshadow="2"
     inkscape:zoom="7.9195959"
     inkscape:cx="57.149493"
     inkscape:cy="19.203328"
     inkscape:document-units="mm"
     inkscape:current-layer="layer1"
     inkscape:document-rotation="0"
     showgrid="false"
     fit-margin-top="0"
     fit-margin-left="0"
     fit-margin-right="0"
     fit-margin-bottom="0"
     units="px" />
  <metadata
     id="metadata6263">
    <rdf:RDF>
      <cc:Work
         rdf:about="">
        <dc:format>image/svg+xml</dc:format>
        <dc:type
           rdf:resource="http://purl.org/dc/dcmitype/StillImage" />
        <dc:title />
      </cc:Work>
    </rdf:RDF>
  </metadata>
  <g
     inkscape:label="island"
     inkscape:groupmode="layer"
     id="layer1"
     style="display:inline">
    <path
       sodipodi:nodetypes="ccccccccccccccczzzszzzzzzzzzcczzzzzzccccc"
       d="m 0.478501,12.895521 c 0.7885432,0.272482 1.6242644,-0.150891 2.41699,0.09148 0.8430824,-0.1636 1.6999064,-0.03719 2.5388686,0.02935 1.3156995,-0.07808 2.6366865,-0.07279 3.9505975,-0.01356 0.5464684,0.06001 1.1298379,0.161626 1.6507999,-0.07427 0.559514,3.4e-4 1.684679,0.303208 1.879947,-0.07185 C 12.276975,12.44775 11.574187,12.160822 10.909479,11.804901 10.348839,11.320137 9.6498746,11.077304 9.0566233,10.658313 8.4494864,10.275169 7.8119924,9.9306843 7.1695677,9.6166085 5.7548524,9.1531989 4.0449429,8.9298612 2.7443566,9.8127453 2.1089753,10.382293 1.4720897,10.978271 1.0162094,11.70595 c -0.30218122,0.488635 -0.76128827,1.21668 -0.69636118,1.282199 -0.30772113,0.188718 0.13649155,-0.104407 -0.14477525,-0.05707 0.008898,-0.116834 0.24317196,0.0216 0.18074685,-0.06275 l 0.1231712,0.02614 M 2.6916793,1.8888667 C 2.2370531,1.9558585 2.380631,1.7981288 2.1382259,2.2242459 1.8958208,2.650363 1.3699183,3.2983087 1.6603282,3.7704862 1.9507381,4.2426637 2.439874,4.4130705 2.4707497,4.5112451 c 0,0 -0.7438149,0.3319158 -0.4510441,0.6533271 C 2.3124764,5.4859836 1.9573719,5.588414 2.4876723,5.8355176 3.0179727,6.0826212 3.1912579,6.8656055 3.8202814,7.0372462 4.4493049,7.2088869 3.9692634,6.7201708 4.3482979,7.1244032 4.7273324,7.5286356 5.9244501,6.8690998 6.3291354,6.9242139 6.7338207,6.979328 6.1248112,6.40442 6.6120699,6.6885508 7.0993286,6.9726816 6.8983134,7.4974269 8.0665062,7.2274055 9.234699,6.9573841 8.6116829,5.6713673 9.2485823,5.4330054 9.8854817,5.1946435 9.6975819,5.3714287 9.8148502,4.9557561 9.9321185,4.5400835 9.7107013,4.0510407 9.339511,3.8593582 8.7982335,3.6120244 9.2319052,3.4777057 9.0215279,3.3228964 8.9241871,2.9589149 9.1633344,2.8503134 8.9361298,2.469322 8.7089252,2.0883306 8.7805379,0.59772754 7.8877913,0.61615061 6.9950447,0.63457368 6.2646374,0.03890191 6.0223379,0.42242101 5.7800384,0.80594011 5.7905525,0.93220023 5.4107485,0.612362 5.0309445,0.29252377 4.5916511,0.71613742 3.9054044,0.73284966 3.2191577,0.7495619 3.1463055,1.8218749 2.6916793,1.8888667 Z M 6.1941352,6.8956821 C 5.6543145,6.961672 4.9472101,7.0478598 5.1032687,7.8256904 5.2814801,8.3229268 4.5913996,9.3245543 5.5153932,9.2408754 5.9739055,9.2161342 6.5047286,9.578643 6.3692065,8.8524952 6.4075759,8.1921325 5.9492993,7.5088199 6.1494613,6.8766512"
       style="color:#000000;overflow:visible;fill:#808080;fill-opacity:0.1;stroke:#000000;stroke-width:0.264582;stroke-linecap:round;stroke-linejoin:round;stroke-miterlimit:4;stroke-dasharray:none;stroke-opacity:0.33;paint-order:markers fill stroke"
       id="path1227" />
  </g>
  <g
     inkscape:groupmode="layer"
     id="layer3"
     inkscape:label="boat"
     style="display:none">
    <path
       id="boat"
       style="color:#000000;overflow:visible;fill:#808080;fill-opacity:0.1;stroke:#000000;stroke-width:0.264583;stroke-linecap:round;stroke-linejoin:round;stroke-miterlimit:4;stroke-dasharray:none;stroke-opacity:0.33;paint-order:markers fill stroke"
       inkscape:transform-center-x="-5.2521208e-06"
       inkscape:transform-center-y="-3.4698722"
       d="m 7.7500753,9.4644638 c 0,0 0.1624399,-0.0884 0.6428701,-0.0884 0.24409,0 0.6340599,0.0268 0.92677,0.0268 0.26894,0 0.5648799,-0.024299 0.8339306,-0.024299 0.29282,0 0.4303,-0.011099 0.67439,-0.011099 0.48054,0 0.86599,0.13634 0.86599,0.13634 0,0 -0.30616,-0.6298599 -0.80822,-1.5456799 -0.25496,-0.4652399 -0.49593,-1.13361 -0.80176,-1.6915501 C 9.8027253,5.7533952 9.4540753,5.2037453 9.1727653,4.6904452 8.8669252,4.1325053 8.5313952,3.7012353 8.2764453,3.2361153 7.7746054,2.3206452 7.5256753,1.6581752 7.5256753,1.6581752 c 0,0 -0.1108101,0.49194 -0.0893,1.40775 0.011001,0.4652399 0.1607201,1.16849 0.1738399,1.7264301 0.011999,0.51318 -0.0553,1.04693 -0.0432,1.5602198 0.0132,0.5579401 0.0108,1.0993001 0.021699,1.5644202 0.0215,0.91548 0.1613601,1.5475 0.1613601,1.5475 m -0.99529,-0.10214 c 0,0 -0.52959,-0.047 -1.20162,-0.047 -0.34134,0 -0.5638102,0.075 -0.9732402,0.075 -0.3761899,0 -0.9052499,0.0765 -1.2814398,0.0765 -0.4096496,0 -0.7363596,0.0474 -1.0778096,0.0474 -0.67213,0 -1.13826,-0.1982499 -1.13826,-0.1982499 0,0 0.35673,-0.5740799 1.00519,-1.6742801 0.32929,-0.5589699 0.7913301,-1.4109399 1.1863496,-2.0813499 0.3633898,-0.61668 0.7926199,-1.21246 1.1560098,-1.8290302 0.39502,-0.6702999 0.6274901,-1.3040199 0.9567802,-1.8628699 0.64825,-1.09987009 1.09265,-1.73620008 1.09265,-1.73620008 0,0 0.2256899,0.68710999 0.24925,1.78732008 0.012099,0.55897 -0.0433,1.1083901 -0.0289,1.7788101 0.0132,0.61668 0.017399,1.4255898 0.0307,2.04215 0.014301,0.6703099 0.0947,1.3026599 0.1066102,1.8615199 0.023601,1.09986 -0.0822,1.7604002 -0.0822,1.7604002 m 6.3420315,0.9016095 c 0,0 -1.08211,-0.0575 -2.59022,-0.0599 -0.7660412,-0.001 -1.6868912,-0.0703 -2.6057013,-0.0717 -0.8452202,-0.001 -1.7819902,0.0104 -2.6271101,0.009 -0.91816,-10e-4 -1.8174901,0.0276 -2.5831096,0.0265 -1.5084299,-0.002 -2.55847989,-0.0436 -2.55847989,-0.0436 0,0 0.26819002,0.21495 0.46602001,0.5492 0.10047999,0.16973 0.0478,0.49511 0.16824999,0.69882 0.1107,0.18711 0.24473999,0.24642 0.35542999,0.43365 0.12059,0.2037 0.37243,0.41286 0.47291,0.58271 0.19783,0.33436 0.3892,0.54306 0.3892,0.54306 0,0 0.56359,0.0865 1.6474195,0.0849 0.5505701,-6.88e-4 1.18764,0.081 1.84805,0.0801 0.6074799,-9e-4 1.3723401,-0.0632 1.9797199,-0.0641 0.6603003,-8.99e-4 1.2678802,-0.15599 1.8184601,-0.15667 1.0833914,-0.002 1.7543414,0.16383 1.7543414,0.16383 0,0 0.12544,-0.204729 0.35199,-0.53522 0.115,-0.16781 0.25377,-0.37083 0.39179,-0.57215 0.12684,-0.18507 0.37749,-0.36935 0.50432,-0.55431 0.13802,-0.20143 0.33381,-0.39536 0.44891,-0.563279 0.22645,-0.330611 0.36781,-0.550901 0.36781,-0.550901" />
  </g>
  <g
     inkscape:groupmode="layer"
     id="layer2"
     inkscape:label="story"
     style="display:none">
    <path
       id="story"
       style="color:#000000;overflow:visible;opacity:0.997;fill:#808080;fill-opacity:0.1;stroke:#000000;stroke-width:0.264582;stroke-linecap:round;stroke-linejoin:round;stroke-miterlimit:4;stroke-dasharray:none;stroke-opacity:0.33;paint-order:markers fill stroke"
       d="m 2.9134411,8.0720109 c 0,0 0.2845898,0.1655601 0.8966399,0.1655601 0.3109902,0 0.8636902,-0.0346 1.2362,-0.0346 0.34285,0 0.6373302,-0.0884 0.9801701,-0.0884 0.37251,0 0.71974,0.1537499 1.03071,0.1537499 0.6120699,0 1.0582,-0.1414698 1.0582,-0.1414698 M 2.4125605,5.8436214 c 0,0 1.0450031,0.065463 1.8306833,0.065463 0.3977799,0 0.9425972,-0.037743 1.4216973,-0.037743 0.43952,0 0.76259,-0.11038 1.2021299,-0.11038 0.4780002,0 1.1043301,-0.018799 1.5032201,-0.018799 0.78457,0 1.0445897,-0.2236822 1.0445897,-0.2236822 M 2.9530011,3.4393909 c 0,0 0.4713999,-0.048 1.2570701,-0.048 0.3977798,0 0.98347,-0.0286 1.46255,-0.0286 0.4395499,0 0.9274299,-2.299e-4 1.3669697,-2.299e-4 0.4779902,0 0.8241303,0.1180402 1.2230103,0.1180402 0.78457,0 1.4526699,-0.1585902 1.4526699,-0.1585902 m -6.78205,-3.07050998 c -0.3274701,0 -0.4659101,0.004 -0.7571001,0.12433999 -0.2934,0.12063002 -0.65163,0.27415 -0.89117,0.49512003 C 1.054201,1.0844009 0.81904101,1.4343409 0.65421099,1.7221109 c -0.15711998,0.27369 -0.21757,0.58015 -0.29997998,0.90442 -0.078,0.3057799 -0.13954001,0.6451401 -0.13954001,0.9817901 0,0 -0.0824,0.2201899 -0.0824,0.69684 0,0.24227 0.16812,0.4856599 0.16812,0.7761301 0,0.2669299 -0.002,0.6212699 -0.002,0.8881999 0,0.29059 -0.078,0.59119 -0.078,0.83346 0,0.4768799 0.009,0.8566599 0.009,0.8566599 0,0.33665 -0.0396,0.52587 0.0385,0.8316601 0.0824,0.32415 0.29778002,0.75834 0.45382,1.0319099 0.16592002,0.28766 0.39009,0.44568 0.62195,0.6591101 0.23954,0.22121 0.42744,0.38959 0.72083,0.51033 0.2912,0.11973 0.73184,0.16252 1.0581901,0.16252 0.5768999,-0.0168 1.0054399,0.0818 1.4273998,0.0643 0.6208501,-0.0256 1.1142202,-0.1623 1.5076101,-0.14563 0.5834899,0.0246 1.0439001,0.15791 1.48014,0.4173 0.33844,0.2016 0.6318301,0.49365 1.10763,0.92795 0.3087801,0.28135 0.5505201,0.57149 0.98566,0.97786 0,0 0.0857,-0.078 0.0396,-0.34386 -0.023101,-0.13471 0.009,-0.38261 -0.019801,-0.54412 -0.025299,-0.14889 -0.15383,-0.30567 -0.18021,-0.45457 -0.0275,-0.16174 -0.0714,-0.31289 -0.0945,-0.44782 -0.0462,-0.26682 -0.1318602,-0.41448 -0.1318602,-0.41448 0,0 0.2340502,0.0595 0.33294,0.0595 0.0506,0 0.1044001,-0.0614 0.1648402,-0.0614 0.056,0 0.13515,-0.003 0.1911898,-0.003 0.0604,0 0.0176,-0.0738 0.067001,-0.0738 0.1,0 0.260429,0.036 0.260429,0.036 0.326351,0 0.4758,0.01 0.767001,-0.11015 0.293389,-0.12062 0.62852,-0.35411 0.868079,-0.57509 0.231851,-0.2134303 0.337341,-0.5084103 0.502171,-0.7961804 0.15713,-0.27369 0.38129,-0.4879099 0.463709,-0.81217 0.078,-0.30568 0.140651,-0.62611 0.140651,-0.96276 0,0 0.0187,-0.4435298 0.0187,-0.9201798 0,-0.2421602 0.0758,-0.4711301 0.0758,-0.76161 0,-0.2669302 -0.17032,-0.5061501 -0.17032,-0.77309 0,-0.29058 0.14504,-0.5319501 0.14504,-0.77421 0,-0.47688 -0.19229,-0.7506801 -0.19229,-0.7506801 0,-0.33665 0.0352,-0.8160001 -0.0429,-1.12179 -0.0824,-0.3241498 -0.243939,-0.4899398 -0.401069,-0.7635198 -0.16483,-0.28777 -0.21978,-0.54378 -0.45053,-0.75720998 -0.24065,-0.22131999 -0.61206,-0.43261 -0.90655,-0.55335001 -0.29119,-0.11972999 -0.66149,-0.26208999 -0.98785,-0.26208999 0,0 -0.4933932,0.0927 -1.3318033,0.0927 -0.4263501,0 -0.8318201,-0.0964 -1.34278,-0.0964 -0.4703001,0 -1.0801601,0.0508 -1.55047,0.0508 -0.5109601,0 -0.9988301,-0.0701 -1.42519,-0.0701 -0.8384201,0 -1.4900399,0.0471 -1.4900399,0.0471"
       sodipodi:nodetypes="cssssccssssccsssscccccccssssccccccccccccccccssssccccccssssccccccssssc" />
  </g>
</svg>
