<svg xmlns="http://www.w3.org/2000/svg" id="svg6266" version="1.1" viewBox="0 0 13.23 13.23">
  <g id="layer1" display="inline">
    <path id="path1227" fill="gray" fill-opacity=".1" stroke="#000" stroke-dasharray="none" stroke-linecap="round" stroke-linejoin="round" stroke-miterlimit="4" stroke-opacity=".33" stroke-width=".26" d="M.48 12.9c.79.27 1.62-.16 2.42.09.63.01 1.3-.28 1.9.03.75.04 1.51-.07 2.27-.06.69-.04 1.38.09 2.09 0 .66.14 1.36.2 2-.08.56.2 1.2.18 1.79.1.32-.19-.7-.34-.85-.58-.44-.39-1.18-.3-1.47-.86-.6-.38-1.35-.54-1.82-1.1-.7-.17-1.2-.78-1.88-.9a5.44 5.44 0 00-3.75 0c-.5.31-1.02.69-1.35 1.2-.5.34-.75.84-1.02 1.35-.25.18-.42.77-.5.81.1-.14-.16.12.06-.15-.01.32 0 .02-.06.35.32-.34-.41.2 0-.18-.46.01.24.04-.13 0 .29-.25-.02-.05.21.04l-.05-.1.14.03M4.6.3c.17-.03-.2.22-.23.13-.45-.17-.38.32-.8.43-.05-.36-.2.32-.27.18-.14.07-.16.44-.18.35.09.2-.42.4-.03.35-.15.21-.36-.07-.35.22-.16-.26-.32.27-.33-.02-.22-.21-.13.35-.37.01.35.21-.14.43-.07.4.22.26-.48 0-.3.4-.12 0-.32.53-.13.46-.15.28.05.17.06.45-.04.2.4.58.34.6-.2.03.26-.07.04.21.18-.05.35-.12.2.1.35-.35.44.16 0 .18.34-.08-.1.12.3-.04-.38-.04-.02.15-.14.1.06.3-.05-.1-.02.28-.21.08.12-.16-.11.05-.07.01-.1.41.14.19-.4.11.4.57.05.52.33-.1.22.54.3.4-.08-.11.28.17.13.03.14.15-.02.39.24.33.02.08.4.07.3.18-.12.17.46.13.1.13.22.38.6-.04.55.1.15.14.47-.33.23.1.28-.14.12.4.37.02.18.18.44.07.36.04.5.15.12-.22.92-.26.17 0 .54.15.42 0-.22.1.26-.37 0 0 .03-.2.37-.38.28-.12.3-.2-.1.07.12 0 .26.11.1.59.4.24-.07.19.43-.19.12.1.28-.29.02.16.3-.07-.17-.04.19.05-.01.19.17-.29.46.3.17-.12.36.38-.12-.16.3.13.08-.17.25.07.4-.25.04.37.25-.35.2.04-.07-.1.16-.44.21-.15-.29-.2.33-.22 0-.14.22.36.03-.02.08-.25.2.25.28.08.02-.06.4 0-.04.18.13-.22-.32.39.32-.3-.02-.05.13-.06.09-.39.14-.15-.08-.2.16.06-.14-.14-.13.17.16-.3.07.14-.37 0 .26 0-.14-.04 0-.23.23.2.21-.11.03-.1.15-.18-.13-.23.37.24-.1-.05.07-.03-.01 0 .31-.44.3-.1.18.21-.08-.46.24-.24-.35-.22.34-.25.04-.27.34.12.01-.19.02-.42.06.26-.24-.31.12-.25-.18 0-.27-.25-.24-.26-.3.12-.13-.46-.37-.3.08.22-.17-.3-.05.11-.22-.27-.24-.41-.45-.24-.16-.05.15-.4.12-.21-.21-.28.33-.16.14-.06 0-.05.13-.26-.1-.18.24-.04-.05-.2.2-.22-.3-.3.08 0 .07-.1-.25-.2 0-.38-.26-.38.37-.17-.18-.5-.1-.6-.09.01-.54-.11-.38-.22.27-.04-.36 0 .04-.07-.1.36-.2-.14-.12.2-.1-.3.09 0-.16-.08.16-.28.02 0 .19-.01-.21 0 .27-.29-.03-.06.42 0-.32.17.05-.02-.27-.06-.26.22-.07.08.02.09.03-.3-.08-.27-.04-.04-.05-.52-.1-.21.06-.32-.13-.2-.26-.4.3-.24-.13.08.13-.14-.31-.3.02.04-.33-.12.34.15-.3.18-.01.05C7.39.7 7.53.34 7.2.47 7.16.31 6.98.6 6.94.33c-.2.3-.12-.07-.36.1-.02-.17-.3 0-.04-.18-.15.27-.38-.25-.12 0-.32-.16-.09 0-.4.02.37 0-.21.2-.18.3-.08.18-.27-.2-.22.12.2.01-.24.16-.18-.19-.05.43-.03-.5-.4 0 .22-.2 0 .12-.03-.13-.17-.06-.61.16-.24.1-.07 0-.06-.24-.28-.19.23.18-.18-.14.06.15-.08.13.24-.31.03 0 .06-.36.03.12.09-.26-.1.42-.26-.02-.05.02.15.11-.18.03.09 0-.06.37-.34.34-.05.02.15.31-.21-.19.03.13-.4.03.19-.16-.18-.15.35.02.03.35.1.05 0 .17-.08.28 0 .03-.27.2.3-.06-.03.15-.24.04-.07-.31.06.04M6.19 6.9c-.2-.07-.54.37-.5.02-.41.26-.58.23-.57.37.09.67-.11 1.33-.13 1.9-.12-.02.71-.01 1.3.2.28-1.11-.31-1.67-.17-2.37-.14.12 0-.1.03-.14" color="#000" overflow="visible" paint-order="markers fill stroke"/>
  </g>
  <g id="layer3" display="inline">
    <path id="boat" fill="gray" fill-opacity=".1" stroke="#000" stroke-dasharray="none" stroke-linecap="round" stroke-linejoin="round" stroke-miterlimit="4" stroke-opacity=".33" stroke-width=".26" d="M7.75 9.46s.16-.08.64-.08l.93.02.83-.02.68-.01c.48 0 .86.13.86.13s-.3-.63-.8-1.54c-.26-.47-.5-1.14-.8-1.7-.29-.5-.64-1.06-.92-1.57-.3-.56-.64-.99-.9-1.45-.5-.92-.74-1.58-.74-1.58s-.12.49-.1 1.4c.02.47.17 1.17.18 1.73.01.52-.06 1.05-.04 1.56.01.56 0 1.1.02 1.57.02.91.16 1.54.16 1.54m-1-.1s-.52-.04-1.2-.04c-.34 0-.56.07-.97.07-.38 0-.9.08-1.28.08-.41 0-.74.04-1.08.04-.67 0-1.14-.2-1.14-.2s.36-.57 1-1.67c.34-.56.8-1.4 1.2-2.08.36-.62.79-1.21 1.15-1.83.4-.67.63-1.3.96-1.86C6.03.77 6.48.13 6.48.13s.23.69.25 1.79c.01.56-.04 1.1-.03 1.78l.03 2.04c.01.67.1 1.3.1 1.86.03 1.1-.08 1.76-.08 1.76m6.35.9s-1.09-.05-2.6-.06c-.76 0-1.68-.07-2.6-.07l-2.63.01c-.91 0-1.81.03-2.58.03-1.5 0-2.56-.05-2.56-.05s.27.22.47.55c.1.17.05.5.17.7.1.19.24.25.35.44.12.2.37.4.47.58.2.33.4.54.4.54s.56.09 1.64.09c.55 0 1.19.08 1.85.08.6 0 1.37-.07 1.98-.07.66 0 1.27-.15 1.82-.15 1.08 0 1.75.16 1.75.16l.35-.54.4-.57c.12-.18.37-.37.5-.55.14-.2.33-.4.45-.57l.37-.55" color="#000" overflow="visible" paint-order="markers fill stroke"/>
  </g>
  <g id="layer2" display="inline">
    <path id="story" fill="gray" fill-opacity=".1" stroke="#000" stroke-dasharray="none" stroke-linecap="round" stroke-linejoin="round" stroke-miterlimit="4" stroke-opacity=".33" stroke-width=".26" d="M2.91 8.07s.29.17.9.17c.31 0 .86-.04 1.24-.04.34 0 .63-.09.98-.09.37 0 .72.16 1.03.16.6 0 1.06-.14 1.06-.14m-5.7-2.29s1.04.07 1.82.07c.4 0 .95-.04 1.42-.04.44 0 .77-.1 1.2-.1l1.51-.03c.78 0 1.04-.22 1.04-.22M2.95 3.44s.47-.05 1.26-.05l1.46-.03h1.37c.48 0 .82.12 1.22.12.79 0 1.46-.16 1.46-.16M2.93.25c-.32 0-.46 0-.75.13-.3.12-.66.27-.9.5-.23.2-.46.55-.63.84-.15.28-.21.58-.3.9-.07.31-.14.65-.14.99 0 0-.08.22-.08.7 0 .24.17.48.17.77v.89c0 .29-.08.6-.08.83v.86c0 .34-.03.53.05.83.08.33.3.76.45 1.03.17.3.4.45.62.66.24.22.43.4.72.51.3.12.74.17 1.06.17.58-.02 1 .08 1.43.06.62-.03 1.11-.16 1.5-.15.6.03 1.05.16 1.49.42.34.2.63.5 1.1.93.31.28.56.57 1 .98 0 0 .08-.08.03-.35-.02-.13.01-.38-.02-.54-.02-.15-.15-.3-.18-.46l-.1-.44c-.04-.27-.13-.42-.13-.42s.24.06.34.06c.05 0 .1-.06.16-.06h.2c.05 0 .01-.08.06-.08.1 0 .26.04.26.04.33 0 .48 0 .77-.11.3-.12.63-.35.87-.58.23-.2.33-.5.5-.8.16-.27.38-.48.46-.8.08-.31.14-.63.14-.97 0 0 .02-.44.02-.92 0-.24.08-.47.08-.76 0-.27-.17-.5-.17-.77 0-.3.14-.53.14-.78 0-.47-.2-.75-.2-.75 0-.33.04-.81-.03-1.12-.09-.32-.25-.49-.4-.76-.17-.29-.22-.55-.46-.76a3.32 3.32 0 00-.9-.55c-.3-.12-.66-.26-.99-.26 0 0-.5.09-1.33.09-.43 0-.83-.1-1.34-.1-.47 0-1.08.05-1.55.05-.52 0-1-.07-1.43-.07-.84 0-1.49.05-1.49.05" color="#000" opacity="1" overflow="visible" paint-order="markers fill stroke"/>
  </g>
</svg>
