<svg xmlns="http://www.w3.org/2000/svg" id="svg8" version="1.1" viewBox="0 0 36.79 8.44">
  <g id="layer1" transform="translate(-13.12 -223.53)">
    <path id="rect833" fill="#000" stroke="none" stroke-linecap="round" stroke-linejoin="round" stroke-opacity=".99" stroke-width=".26" d="M13.12 224.33c.16-.33 5.5 2.74 5.38 5.44 1.86-1.15 1.84-3.02.51-6.18 2.29 1.33 4.78 3.3 5.15 5.84 1.66-1.1 1.59-2.54 1.87-5.63 2.05 1.36 4.29 2.89 5.38 6.23 1.42-2.25 1.27-3.18.31-6.23 1.96.84 4.25 2.52 4.6 5.57 2.33-1.16 2.03-2.69 2.04-5.84a6.59 6.59 0 014.59 6.1s3.76-.77 2.05-6c4.72 1.85 3.08 7.06 4.91 5.86v2.48H13.12v-2.49c2.14-1.57.25-3.42 0-5.15" color="#000" opacity="1" overflow="visible" paint-order="markers fill stroke"/>
  </g>
</svg>
