<?xml version="1.0" encoding="UTF-8" standalone="no"?>
<svg
   xmlns:dc="http://purl.org/dc/elements/1.1/"
   xmlns:cc="http://creativecommons.org/ns#"
   xmlns:rdf="http://www.w3.org/1999/02/22-rdf-syntax-ns#"
   xmlns:svg="http://www.w3.org/2000/svg"
   xmlns="http://www.w3.org/2000/svg"
   xmlns:xlink="http://www.w3.org/1999/xlink"
   xmlns:sodipodi="http://sodipodi.sourceforge.net/DTD/sodipodi-0.dtd"
   xmlns:inkscape="http://www.inkscape.org/namespaces/inkscape"
   sodipodi:docname="border.svg"
   inkscape:version="1.0 (4035a4fb49, 2020-05-01)"
   width="77.390213"
   height="10.640202"
   viewBox="0 0 20.47616 2.8152199"
   version="1.1"
   id="svg8">
  <defs
     id="defs2" />
  <sodipodi:namedview
     units="px"
     fit-margin-bottom="0"
     fit-margin-right="0"
     fit-margin-left="0"
     fit-margin-top="0"
     showgrid="false"
     inkscape:document-rotation="0"
     inkscape:current-layer="layer1"
     inkscape:document-units="px"
     inkscape:cy="3.2689038"
     inkscape:cx="4.273486"
     inkscape:zoom="7.9195959"
     inkscape:pageshadow="2"
     inkscape:pageopacity="0.0"
     borderopacity="1.0"
     bordercolor="#666666"
     pagecolor="#ffffff"
     id="base" />
  <metadata
     id="metadata5">
    <rdf:RDF>
      <cc:Work
         rdf:about="">
        <dc:format>image/svg+xml</dc:format>
        <dc:type
           rdf:resource="http://purl.org/dc/dcmitype/StillImage" />
        <dc:title></dc:title>
      </cc:Work>
    </rdf:RDF>
  </metadata>
  <g
     style="display:inline"
     transform="translate(-13.12134,-228.38562)"
     id="layer1"
     inkscape:groupmode="layer"
     inkscape:label="bottom">
    <path
       inkscape:export-ydpi="135.21089"
       inkscape:export-xdpi="135.21089"
       inkscape:export-filename="E:\dev\_apps_.artfly.io\tizzie-whizie-fly\public\img\bg\border-bottom.png"
       sodipodi:nodetypes="cccccccccccccccc"
       d="m 13.650507,228.91216 c 0.10366,-0.20957 1.722711,-0.0961 1.644488,1.63446 1.334465,-0.52734 1.724023,-1.26465 1.115008,-2.10556 1.970019,0.19044 2.47676,1.07539 2.637752,1.99652 1.780161,-0.49072 1.760835,-1.0895 1.027041,-2.05196 1.693543,0.29915 2.501746,0.49796 2.724111,2.01308 1.20232,-0.42739 1.67245,-0.72874 1.456849,-1.98337 1.350353,0.34047 2.209327,0.0256 2.328779,2.17412 1.287644,-0.35584 1.535086,-0.68608 1.174494,-2.14289 1.777922,0.51031 1.96363,0.91584 2.01358,2.25089 -0.03192,-0.005 1.296122,0.0252 1.530313,-2.12387 2.897784,0.98683 1.135172,2.5624 2.294578,1.79722 v 0.83004 H 13.12134 v -0.8348 c 0.653236,-0.33837 1.193048,-0.78768 0.529167,-1.45388"
       style="color:#000000;overflow:visible;opacity:0.997;fill:#000000;fill-opacity:0.867257;stroke:none;stroke-width:0.264583;stroke-linecap:round;stroke-linejoin:round;stroke-opacity:0.9941;paint-order:markers fill stroke"
       id="rect833" />
  </g>
  <g
     style="display:none"
     transform="translate(0,-2.74077)"
     inkscape:label="top"
     id="layer2"
     inkscape:groupmode="layer">
    <use
       inkscape:export-ydpi="90.554085"
       inkscape:export-xdpi="90.554085"
       inkscape:export-filename="E:\dev\_apps_.artfly.io\tizzie-whizie-fly\public\img\bg\border-top.png"
       height="100%"
       width="100%"
       transform="matrix(1,0,0,-1,-13.12134,233.94161)"
       style="display:inline"
       x="0"
       y="0"
       xlink:href="#rect833"
       id="use861" />
  </g>
</svg>
