<?xml version="1.0" encoding="UTF-8" standalone="no"?>
<svg
   xmlns:dc="http://purl.org/dc/elements/1.1/"
   xmlns:cc="http://creativecommons.org/ns#"
   xmlns:rdf="http://www.w3.org/1999/02/22-rdf-syntax-ns#"
   xmlns:svg="http://www.w3.org/2000/svg"
   xmlns="http://www.w3.org/2000/svg"
   xmlns:sodipodi="http://sodipodi.sourceforge.net/DTD/sodipodi-0.dtd"
   xmlns:inkscape="http://www.inkscape.org/namespaces/inkscape"
   width="201.25615mm"
   height="124.81326mm"
   viewBox="0 0 201.25615 124.81327"
   version="1.1"
   id="svg1267"
   inkscape:version="1.0 (4035a4fb49, 2020-05-01)"
   sodipodi:docname="canvasOutline.svg">
  <defs
     id="defs1261" />
  <sodipodi:namedview
     inkscape:pagecheckerboard="true"
     fit-margin-bottom="0"
     fit-margin-right="0"
     fit-margin-left="0"
     fit-margin-top="0"
     showgrid="false"
     inkscape:document-rotation="0"
     inkscape:current-layer="layer1"
     inkscape:document-units="mm"
     inkscape:cy="242.80554"
     inkscape:cx="417.42418"
     inkscape:zoom="1.4"
     inkscape:pageshadow="2"
     inkscape:pageopacity="0.0"
     borderopacity="1.0"
     bordercolor="#666666"
     pagecolor="#ffffff"
     id="base" />
  <metadata
     id="metadata1264">
    <rdf:RDF>
      <cc:Work
         rdf:about="">
        <dc:format>image/svg+xml</dc:format>
        <dc:type
           rdf:resource="http://purl.org/dc/dcmitype/StillImage" />
        <dc:title></dc:title>
      </cc:Work>
    </rdf:RDF>
  </metadata>
  <g
     transform="translate(-49.798447,-131.87478)"
     id="layer1"
     inkscape:groupmode="layer"
     inkscape:label="Layer 1">
    <path
       sodipodi:nodetypes="czzzzzzzzzzzzzzzzzzzzzzzzzzzzzzzzzzzzzzzzzzzssszzzzzzzzzzzzc"
       d="m 56.1274,132.273 c 0,0 11.200063,-0.0123 15.0767,-0.007 3.876637,0.005 4.700093,0.0395 8.1831,0.026 3.483007,-0.0135 8.807858,-0.12876 12.7143,-0.139 3.906442,-0.0102 6.575251,0.0404 10.7235,0.061 4.14825,0.0206 10.12956,0.0741 14.166,0.06 4.03644,-0.0141 6.68234,-0.10782 10.052,-0.113 3.36966,-0.005 6.26944,0.0733 10.165,0.083 3.89556,0.01 9.24266,-0.0321 13.208,-0.042 3.96534,-0.01 6.68743,-0.0345 10.584,-0.019 3.89657,0.0155 8.7676,0.10763 12.795,0.125 4.0274,0.0174 7.39216,-3.8e-4 11.369,-0.013 3.97684,-0.0126 8.14845,-0.0631 12.492,-0.065 4.34355,-0.002 9.68347,0.0569 13.569,0.059 3.88553,0.002 5.53865,-0.0102 9.744,-0.032 4.20535,-0.0218 11.41063,-0.0948 15.488,-0.11 4.07737,-0.0152 7.51,-0.003 8.976,-0.003 1.466,0 4.99,3.918 4.99,5.384 0,1.466 -0.36494,7.32388 -0.363,10.494 0.002,3.17012 0.21783,5.28097 0.305,8.515 0.0872,3.23403 0.14786,7.76681 0.197,10.889 0.0491,3.12219 0.16611,5.17653 0.105,7.844 -0.0611,2.66747 -0.44049,4.97812 -0.483,8.15 -0.0425,3.17188 0.3039,7.59356 0.352,10.863 0.0481,3.26944 -0.0625,5.58179 -0.026,8.75 0.0365,3.16821 0.34638,6.94683 0.267,10.257 -0.0794,3.31017 -0.67663,6.44434 -0.71,9.58 -0.0334,3.13566 0.38576,5.83113 0.485,9.196 0.0992,3.36487 0.0478,7.84433 0.069,10.989 0.0212,3.14467 0.057,6.4135 0.057,7.879 0,1.4655 -4.293,5.436 -5.759,5.436 -1.466,0 -9.64026,-0.0897 -13.591,-0.094 -3.95074,-0.004 -4.45967,0.0231 -10.113,0.048 -5.65333,0.0249 -15.91369,0.11175 -23.807,0.097 -7.89331,-0.0147 -17.88039,-0.16915 -23.552,-0.184 -5.67161,-0.0149 -6.59282,0.0277 -10.477,0.027 -3.88418,-7.5e-4 -8.77806,-0.0564 -12.828,-0.038 -4.04994,0.0184 -7.48611,0.11275 -11.471,0.138 -3.98489,0.0253 -8.08765,0.015 -12.438,0.008 -4.35035,-0.007 -9.78041,-0.0664 -13.664,-0.053 -3.88359,0.0134 -4.02912,0.093 -9.637,0.104 -5.607877,0.011 -18.283968,-0.17937 -24.0092,-0.165 -5.725232,0.0144 -6.441835,0.11355 -10.341,0.123 -3.899165,0.009 -11.546651,-0.21365 -13.053,-0.092 -1.506349,0.12165 -5.075006,-3.59258 -4.9927,-5.305 0.03147,-0.65484 -0.313376,-1.75585 -0.350324,-2.92537 -0.05967,-1.8888 0.15185,-4.10828 0.06902,-6.05263 -0.134111,-3.14827 -0.447812,-6.5392 -0.5339,-9.91 -0.08609,-3.3708 -0.1014,-7.14845 0.0284,-10.307 0.1298,-3.15855 0.637433,-5.89802 0.6868,-8.633 0.04937,-2.73498 -0.275944,-4.58382 -0.3355,-7.745 -0.05956,-3.16118 0.06866,-7.88142 0.063,-11.218 -0.0057,-3.33658 -0.150889,-5.65993 -0.0793,-8.801 0.07159,-3.14107 0.613874,-6.71788 0.5483,-10.035 -0.06557,-3.31712 -0.938976,-6.65268 -0.9263,-9.813 0.01268,-3.16032 0.904709,-6.18522 0.9284,-9.058 0.02369,-2.87278 -0.561469,-4.95222 -0.6956,-8.102 -0.134131,-3.14978 0.0057,-9.318 0.0057,-10.784 0,-1.466 4.3189,-5.3 5.7847,-5.3 1.4658,0 -0.4606,-0.019 -0.4606,-0.019"
       style="color:#000000;overflow:visible;opacity:0.997;fill:none;stroke:#b3b3b3;stroke-width:0.529167;stroke-linecap:round;stroke-linejoin:round;stroke-opacity:0.9941;paint-order:markers fill stroke"
       id="rect1241" />
  </g>
</svg>
