<svg xmlns="http://www.w3.org/2000/svg" viewBox="0 0 29.8 30">
  <g stroke="#000" stroke-linecap="round" stroke-linejoin="round" stroke-width=".3" color="#000" paint-order="markers fill stroke">
    <path fill="none" d="M10.2 2.5c4.7-.2 9-.1 13.2 0a4.9 4.9 0 014.8 5c-.2 5.3-.3 10.5-.7 15.5v.8a5.4 5.4 0 01-5.2 5c-3 0-6 .2-9 .4H5.5c-.7 0-1.4-.2-2.1-.4M21.2 27c-6-.5-11 0-16.2.5-.7 0-1.4 0-2-.3A4.5 4.5 0 010 23c.1-4.2.1-8.6.4-12.7l.1-4c0-2.7 2.2-5 4.9-5.3l6.2-.4 10-.4M11 2.3c3.7.1 7.7-.2 12-.8 3-.4 5.5 1 6.3 2.9l.1.4a47.6 47.6 0 01-3 18.9c-1.2 2.3-3.3 4-5.6 4-3.7 0-6.5-.4-9.8-.5H5.8c-1.3 0-2.6-.5-3.5-1.3m16.5 3.9c-4.5-.2-9 0-12.9 0-1.3 0-2.5-.6-3-1.7-.6-.9-.8-2-.7-3.2.4-5.2-.8-10.8-1-16.5v-2c-.2-3 2.1-5.3 5-5.3C9.2 1 12 1 15 .7a48.4 48.4 0 019.7.1" overflow="visible"/>
    <path fill="#ffe680" d="M9.6 20.8c.2-4 .1-7.8 0-11.6l8.5 5 .2.2M15 11.7c2.1 1 4.1 2.1 6 3.2-4 2.2-8.2 4.3-12.6 6.4a1930.7 1930.7 0 00-.2-2m.6-.3c.2-3.5.2-7 .3-10.7a1545.1 1545.1 0 019.9 5.7m-2.3-3l5 3.2-12.4 7.6a63.8 63.8 0 00-.3-2.2" overflow="visible"/>
  </g>
  <g stroke="#000" stroke-linecap="round" stroke-linejoin="round" stroke-width=".3" color="#000" paint-order="markers fill stroke">
    <path fill="none" d="M29.4 7.1c0 5-.3 10.6-.8 16.5a7 7 0 01-1.2 3.4 5.6 5.6 0 01-4.5 2.5c-4.8 0-9.2-.6-14.2-.8l-3.2-.1a5 5 0 01-5.1-5c0-2.3 0-4.6-.2-7V6.8M3 26.7c-.4-.7-.6-1.5-.6-2.3a319.5 319.5 0 00-.9-19.2c-.2-3 2-5.3 4.7-5 3 .2 6 .7 8.7 1 2.3.4 4.8.4 7.5.4 3 0 5.4 2.3 5.8 5.1l.4 3.3c.3 3.3.3 6.5.1 9.7M27 8.2c0 5.8.2 10.8.5 15.7 0 .7 0 1.4-.3 2a4.6 4.6 0 01-4.3 2.6c-4.3 0-8.8.2-13.1.1H6c-2.7.1-5-2-4.9-4.5l.2-5.8c.1-2.6 0-6-.3-9.7m1.3 18c-.5-.8-.8-1.7-.8-2.7A127.5 127.5 0 000 7.7C0 5 2.4 2.5 5.5 2.2L16.4.7c3.1-.5 5.8-.5 8.3-.3 2.6.3 4.5 3 4.2 6.4a113.9 113.9 0 00-.2 13" overflow="visible"/>
    <path fill="#ffe680" d="M12.5 8.7h.6l.5.3c.2 4.5 0 9.2-.2 13.8 0 .1-.1.2-.4.3l-1.2.1a551.5 551.5 0 01-2.1 0l-.5-.3a434 434 0 010-2.7m1.4 2.3h-.8l-.4-.3c0-4.8-.2-9.4-.6-14 0-.1.1-.2.4-.3l1-.1a351.5 351.5 0 001.8 0l.4.3a695.3 695.3 0 01-.3 2.5m.1-3c.3 0 .5.2.5.3l.3 14c0 .2-.2.3-.5.3l-1 .2a328.8 328.8 0 00-2 0L9 22a141.9 141.9 0 01.1-3.3m1.8 2.5h-.1c-.3 0-.5-.1-.5-.2l-.7-13c0-.1.1-.2.4-.2h1a89.8 89.8 0 011.9.3c.2.1.4.2.3.3a150.6 150.6 0 01-.3 3.7M19.4 8.7h.7l.4.3c.2 4.5 0 9.2-.1 13.8l-.5.3-1.1.1a551.5 551.5 0 01-2.2 0l-.4-.3a434 434 0 01-.2-2.7m1.5 2.3h-.8l-.4-.3c.1-4.8-.2-9.4-.6-14l.4-.3 1-.1a351.5 351.5 0 001.8 0l.4.3a695.3 695.3 0 01-.2 2.5m0-3c.4 0 .5.2.5.3.3 4.8.3 9.4.3 14 0 .2-.2.3-.4.3l-1.1.2a328.8 328.8 0 00-2 0l-.5-.3a141.9 141.9 0 01.2-3.3m1.7 2.5s0 0 0 0c-.4 0-.6-.1-.6-.2-.2-4.4-.3-8.8-.7-13l.4-.2h1a89.8 89.8 0 011.9.3l.4.3a150.6 150.6 0 01-.4 3.7" overflow="visible"/>
  </g>
</svg>
