<?xml version="1.0" encoding="UTF-8" standalone="no"?>
<svg
   xmlns:dc="http://purl.org/dc/elements/1.1/"
   xmlns:cc="http://creativecommons.org/ns#"
   xmlns:rdf="http://www.w3.org/1999/02/22-rdf-syntax-ns#"
   xmlns:svg="http://www.w3.org/2000/svg"
   xmlns="http://www.w3.org/2000/svg"
   xmlns:sodipodi="http://sodipodi.sourceforge.net/DTD/sodipodi-0.dtd"
   xmlns:inkscape="http://www.inkscape.org/namespaces/inkscape"
   sodipodi:docname="game-outer.svg"
   inkscape:version="1.0 (4035a4fb49, 2020-05-01)"
   id="svg965"
   version="1.1"
   viewBox="0 0 168.56792 88.221136"
   height="333.4342"
   width="637.10712">
  <defs
     id="defs959">
    <inkscape:path-effect
       effect="sketch"
       id="path-effect937"
       is_visible="true"
       lpeversion="1"
       nbiter_approxstrokes="4"
       strokelength="85"
       strokelength_rdm="0;1818729994"
       strokeoverlap="0.3"
       strokeoverlap_rdm="0.1;640227810"
       ends_tolerance="0.1;64550074"
       parallel_offset="0.4;2043538031"
       tremble_size="1.5;1866837988"
       tremble_frequency="3.51"
       nbtangents="0"
       tgt_places_rdmness="0.7;1"
       tgtscale="10"
       tgtlength="100"
       tgtlength_rdm="0.3;1" />
  </defs>
  <sodipodi:namedview
     fit-margin-bottom="0"
     fit-margin-right="0"
     fit-margin-left="0"
     fit-margin-top="0"
     units="px"
     inkscape:pagecheckerboard="true"
     showgrid="false"
     inkscape:document-rotation="0"
     inkscape:current-layer="layer1"
     inkscape:document-units="px"
     inkscape:cy="349.57425"
     inkscape:cx="361.4107"
     inkscape:zoom="0.35"
     inkscape:pageshadow="2"
     inkscape:pageopacity="0.0"
     borderopacity="1.0"
     bordercolor="#666666"
     pagecolor="#ffffff"
     id="base" />
  <metadata
     id="metadata962">
    <rdf:RDF>
      <cc:Work
         rdf:about="">
        <dc:format>image/svg+xml</dc:format>
        <dc:type
           rdf:resource="http://purl.org/dc/dcmitype/StillImage" />
        <dc:title></dc:title>
      </cc:Work>
    </rdf:RDF>
  </metadata>
  <g
     transform="translate(-10.210084,-55.675148)"
     id="layer1"
     inkscape:groupmode="layer"
     inkscape:label="Layer 1">
    <path
       d="m 27.373169,56.420297 c 7.939884,-0.276405 15.753388,0.445145 23.069965,1.324562 l 2e-6,0 c 7.319599,0.879779 15.944671,-0.181434 23.630585,-0.539063 7.685913,-0.357629 16.018059,0.290624 23.829801,0.855469 l 4e-6,0 c 3.987214,0.288304 8.142894,0.143981 12.361274,-0.209326 m -23.439987,0.135595 c 8.006264,0.39337 15.887597,-0.421052 23.444887,-1.254394 l 0,0 c 7.56041,-0.833686 15.75064,0.35524 23.03293,1.078125 7.28228,0.722885 16.48924,0.09315 25.24777,0.292968 l 0,10e-7 c 2.68623,0.06128 5.22946,0.08837 7.68868,0.09882 1.69951,0.0072 3.26859,0.389242 4.64806,1.072062 m -26.20448,-0.976613 c 6.5879,0.341823 13.37073,-0.08361 20.29503,-0.582655 1.57627,-0.113605 3.08447,0.07112 4.47049,0.503014 4.27505,1.332139 7.11633,5.3094 7.1013,10.007646 -0.012,3.747055 -0.0401,7.527547 0.0445,11.166032 l 0,3e-6 c 0.18447,7.932927 0.14522,16.721093 0.42187,25.939179 0.14121,4.70503 0.011,8.63282 -0.28024,12.24212 m 0.54174,-25.964911 c -0.18357,8.057488 -0.41974,16.552011 -1.25368,25.448721 -0.50271,5.36303 -0.17452,9.92193 0.43522,14.2201 0.42622,3.00454 -0.57447,5.56476 -2.48614,7.16528 -1.55431,1.30133 -3.93363,2.19788 -6.73103,2.29449 -5.53676,0.19122 -11.75099,1.12398 -17.49822,1.76675 -4.33828,0.4852 -8.38258,0.34039 -12.30503,-0.0562 m 24.29576,-0.20739 c -7.92486,-0.24556 -16.44694,0.0258 -25.13248,0.0941 -8.68913,0.0682 -15.95841,-0.15018 -23.66574,-0.44531 -7.70733,-0.29513 -16.519122,-0.27156 -25.341525,-0.82032 l -4e-6,0 c -4.50307,-0.28009 -8.654531,-0.25918 -12.754271,-0.15589 m 23.020773,0.14536 c -8.560051,0.32758 -16.182701,0.15096 -24.34654,0.45663 -8.167211,0.30579 -15.384056,-0.27537 -21.943086,-0.82031 -6.55903,-0.54495 -16.408868,0.50988 -25.001677,1.53515 l -4e-6,0 c -1.053954,0.12576 -2.098701,0.21416 -3.137148,0.27087 -3.464892,0.18923 -6.537342,-1.41255 -8.676862,-3.95861 m 24.092901,3.93806 c -4.922088,0.16075 -10.174586,-0.11489 -15.602201,-0.63918 -3.431412,-0.33146 -6.584788,-2.06036 -8.916654,-4.64273 -2.160937,-2.39307 -3.387026,-5.13394 -3.324597,-7.88871 0.110877,-4.89258 0.657163,-8.96073 0.932556,-13.20615 l 0,0 C 12.359694,109.59792 11.5193,99.79188 10.695494,91.394889 10.275013,87.108956 10.294473,83.004131 10.425993,78.952928 m 2.786915,26.445212 c 0.182709,-8.225349 -0.61406,-16.834483 -1.84007,-26.292273 -0.524922,-4.049396 -0.439945,-7.495963 -0.03392,-10.667495 0.575461,-4.495039 4.828828,-7.820058 10.219451,-8.710263 1.369671,-0.226186 2.732508,-0.325568 4.069933,-0.26248 7.381861,0.348215 12.274456,-0.59915 17.916557,-0.969208 3.384969,-0.222016 7.47027,-0.201122 11.681756,-0.110818 m -30.693728,0.921578 c 7.585713,0.486808 16.437659,-0.565962 25.109468,-1.699822 8.675391,-1.134329 16.27013,-0.08966 24.591524,-0.257813 8.321392,-0.168153 15.81057,0.206111 23.220426,0.609375 l 4e-6,0 c 3.782083,0.205831 7.946803,0.298438 12.231683,0.43836 m -23.608267,0.218778 c 8.462389,0.08569 15.931827,-0.0806 23.584947,-0.2462 7.65627,-0.165671 16.07275,0.250184 24.00558,0.761718 7.93284,0.511534 16.73309,-0.760294 25.97433,-2.285155 l 1e-5,-10e-7 c 2.60114,-0.429204 4.96684,-0.571706 7.17535,-0.529697 1.87061,0.03558 3.53086,0.685967 4.89443,1.758731 m -22.11199,1.242822 c 5.5341,-0.01137 11.01974,-0.115486 16.00816,-0.326861 2.02558,-0.08583 3.81872,0.547326 5.13378,1.683816 2.12175,1.833639 3.87774,5.12119 4.02444,8.940161 0.17372,4.522098 0.71405,9.118552 0.6952,13.578122 -0.0338,7.999057 0.8284,15.930927 2.47265,23.560275 l 0,0 c 0.83925,3.89412 0.68608,8.1778 0.19694,12.67272 m -1.66217,-23.589614 c -0.31612,8.559804 -0.44502,15.881344 -1.34727,23.432474 -0.41864,3.50371 -0.2603,7.19725 0.20544,10.92591 0.57361,4.59224 -1.27371,8.54584 -4.31822,10.07827 -1.02175,0.51428 -2.30057,0.80595 -3.76039,0.8155 -6.19433,0.0405 -14.37706,0.65861 -21.69683,1.35663 -4.58456,0.43718 -8.56782,0.32968 -12.31276,0.0203 m 24.63544,-1.41771 c -8.45864,0.17174 -16.11571,0.2678 -24.12401,0.8201 l 0,0 c -8.01161,0.55253 -15.40873,-0.48764 -22.02512,-1.46484 -6.61638,-0.97721 -16.733636,0.41838 -25.997766,1.2539 l -5e-6,1e-5 c -4.728532,0.42646 -8.884349,0.55423 -12.9406,0.71462 m 24.654163,1.06136 c -8.095697,0.16339 -15.614382,-0.40034 -22.647897,-1.1838 l -4e-6,0 c -7.036419,-0.78378 -16.469531,-0.17504 -25.189177,-0.52734 -8.719646,-0.3523 -15.684511,-0.19812 -22.821989,-0.59766 l -4e-6,0 c -0.563271,-0.0315 -1.138345,-0.0566 -1.723852,-0.0759 -3.418297,-0.11259 -6.706268,-1.81394 -8.846512,-4.43856 m 20.168498,5.16639 c -4.382984,0.1538 -9.001157,0.18864 -13.70183,0.24916 -3.869915,0.0498 -7.33168,-1.7182 -9.489517,-4.39337 -1.392658,-1.72654 -2.203448,-3.91157 -2.223474,-6.30746 -0.04788,-5.72888 0.07391,-11.62845 -0.01395,-17.33703 l 0,0 c -0.122839,-7.98146 0.09586,-16.730196 0.304687,-25.974336 0.106586,-4.71833 0.06926,-8.683889 -0.02945,-12.362109 m 2.372919,25.248495 C 13.369694,92.940107 13.34703,84.722367 12.838463,76.575984 c -0.154057,-2.467718 -0.188154,-4.881567 -0.145139,-7.248233 0.104533,-5.751248 5.251779,-10.216484 11.53077,-9.89304 0.206335,0.01063 0.41319,0.02486 0.620478,0.04281 8.35872,0.723992 15.310144,-0.795416 22.423918,-2.155323 3.720468,-0.711224 7.945432,-0.735933 12.362797,-0.630252 m -31.22162,1.091985 c 8.392537,0.0116 16.313122,-0.119646 24.745186,-0.363295 8.435547,-0.24375 15.68833,0.208455 22.857149,0.621094 7.168818,0.412638 16.202067,0.424999 24.392298,1.265624 l 10e-6,10e-7 c 4.1804,0.429066 8.39169,0.35482 12.68284,0.114439 M 87.795348,57.058077 c 7.870166,-0.05075 16.298352,-0.08812 24.687242,-0.281187 8.39235,-0.193151 16.66186,0.391039 25.7634,1.183594 9.10154,0.792554 15.44393,-0.267186 22.11886,-0.785156 l 0,-10e-7 c 1.40107,-0.108721 2.9215,-0.170459 4.5224,-0.199562 2.41423,-0.04389 4.80115,0.839005 6.75046,2.322048 m -23.1759,-0.700084 c 5.91685,0.305162 11.6563,-0.147727 17.39222,-0.885339 2.35416,-0.302734 4.52922,0.111569 6.3182,1.039779 2.83259,1.46969 4.62062,4.795916 4.44524,8.823546 -0.21051,4.834414 -0.54505,10.053243 -1.03207,15.005104 -0.87036,8.849427 0.7908,15.898302 2.36718,23.489961 l 0,0 c 0.80461,3.87488 0.76741,7.98693 0.51896,12.14597 m 0.17397,-23.879547 c -0.0318,8.178127 -0.78994,16.304417 -2.35543,24.722017 -0.74699,4.01658 -0.71049,7.83989 -0.40132,11.58331 0.36075,4.36788 -1.63177,8.01489 -5.13088,9.61072 -1.29635,0.59122 -2.78243,0.91947 -4.3733,0.90764 -6.18658,-0.046 -12.67315,0.2526 -18.502,0.43244 -3.71069,0.11449 -7.9775,0.1636 -12.48082,0.23744 m 24.52521,-0.51213 c -8.43134,0.2461 -16.09961,0.63165 -24.1006,1.89813 l -1e-5,0 c -8.00429,1.267 -16.8465,-0.10501 -26.31417,-0.30469 -9.46767,-0.19968 -15.947844,-0.0423 -23.642304,-0.1289 l -5e-6,0 c -3.927353,-0.0442 -8.040951,-0.21267 -12.192261,-0.54082 m 24.288799,0.87768 c -8.280039,0.12057 -16.980163,-0.33333 -26.725794,-1.00796 l -3e-6,0 c -9.749655,-0.6749 -15.348115,0.42073 -21.814177,1.26563 -6.466063,0.8449 -16.59908,-0.12491 -25.575895,-0.38672 l -4e-6,0 c -0.291185,-0.008 -0.580856,-0.0165 -0.869106,-0.0241 -4.503474,-0.11826 -8.139729,-2.322 -10.136781,-5.61839 m 22.96508,3.23323 c -3.738494,0.0522 -7.603734,0.12986 -11.522279,0.26899 -4.576116,0.16247 -8.561033,-2.25418 -10.426034,-5.72747 -0.691258,-1.28737 -1.098962,-2.78835 -1.157833,-4.42182 -0.228732,-6.34662 -0.623419,-13.3923 -1.508099,-20.10547 -1.10363,-8.37461 0.299357,-15.870999 0.902343,-23.396206 l 10e-7,-2e-6 c 0.307772,-3.840964 0.218931,-8.113021 -0.02754,-12.600212 m 2.063059,25.54234 c 0.295465,-8.528955 -0.966926,-16.290232 -2.894898,-24.674705 -0.464229,-2.018862 -0.666132,-4.009019 -0.686507,-5.98371 -0.06456,-6.25718 6.405381,-11.154387 13.645542,-11.338158 0.361248,-0.0092 0.720982,-0.01894 1.078882,-0.02938 9.405309,-0.274126 15.577115,-0.354136 22.517304,-1.066406 l 1e-6,0 c 3.542363,-0.363552 7.864601,-0.285247 12.51551,-0.04845 m -32.898158,1.98133 c 8.23701,0.05018 16.800799,-0.606083 26.198503,-1.828187 9.401586,-1.22261 16.050828,-0.04311 23.923556,-0.140625 7.872725,-0.09752 15.518106,0.146232 22.34152,0.445312 l 4e-6,0 c 3.48276,0.152655 7.6332,0.08522 11.95515,-0.08278 m -21.48172,1.62888 c 7.686414,0.0071 15.64777,-0.834697 22.73044,-2.484384 l 0,0 c 7.08559,-1.650369 16.91921,0.06903 26.54855,0.222656 9.62934,0.153629 15.81696,0.450322 23.24387,1.359375 l 0,0 c 0.92043,0.112661 1.85829,0.201919 2.80988,0.272936 3.15599,0.235529 6.08461,1.685382 8.12726,3.991181 m -25.21522,-4.532504 c 5.45492,0.190723 10.76654,0.12236 16.17651,0.04209 3.04539,-0.04518 5.83558,1.05877 7.98979,2.924398 2.32155,2.010561 3.74367,4.95205 3.81949,8.325488 0.12003,5.339935 0.19262,10.929327 0.58256,16.742446 l 0,3e-6 c 0.6227,9.283111 0.3153,16.146877 0.94922,24.239957 0.32355,4.13082 0.11513,8.13159 -0.37055,12.01234 m 0.33169,-25.546593 c 0.16752,7.631963 -0.11933,15.796303 -0.36349,23.175813 -0.0998,3.01717 -0.22378,6.35851 -0.42265,9.88379 -0.3066,5.4348 -4.10601,10.37496 -9.49397,12.38846 -1.14703,0.42865 -2.31037,0.69472 -3.47325,0.78251 -7.56991,0.57151 -13.43921,-0.0893 -20.1399,0.26334 -3.93094,0.20689 -7.91197,0.0243 -11.79454,-0.38573 m 25.37513,-0.25878 c -8.54062,0.0118 -16.25934,0.18217 -24.5575,0.56248 l -1e-5,0 c -8.30158,0.38047 -15.84627,-0.52095 -23.33761,-1.54687 -7.49134,-1.02592 -16.638559,-0.19146 -25.693087,-0.57422 -4.621549,-0.19537 -8.728819,0.0148 -12.714296,0.4801 m 26.185035,0.0841 c -7.663997,0.0824 -16.825289,0.6463 -26.269527,1.93349 l -2e-6,0 c -9.448137,1.28773 -16.355422,-0.80119 -24.861049,-2.39062 l -4e-6,0 c -8.459659,-1.58084 -15.303472,0.45165 -21.813548,1.41409 -0.03543,0.005 -0.07079,0.0102 -0.106099,0.0149 0,0 0,0 0,0 -3.573331,0.47176 -7.453474,-2.09065 -9.562624,-5.76853 m 20.686782,3.77605 c -3.711337,-0.097 -7.634872,-0.0389 -11.716851,0.11114 -4.908228,0.18039 -9.303332,-2.24929 -11.678503,-5.84079 -0.836323,-1.26461 -1.314198,-2.70894 -1.379548,-4.25125 -0.265915,-6.27577 0.78153,-12.91747 1.185534,-18.99021 l 0,-1e-5 C 12.625595,103.9274 11.795219,95.420442 11.141588,87.619498 10.807966,83.637795 10.977093,79.561319 11.389213,75.497113 m 0.222365,24.718937 c 0.370761,-7.64042 0.524002,-16.595166 1.558135,-25.578152 0.266877,-2.318227 0.38157,-4.536579 0.397511,-6.701949 0.04723,-6.414852 4.270658,-11.136441 10.098096,-11.591551 0.158166,-0.01235 0.316661,-0.02521 0.475513,-0.0386 7.645473,-0.644486 16.071691,0.694438 23.982147,2.074218 l 2e-6,10e-7 c 4.0376,0.704257 8.134619,0.537169 12.227185,0.04881"
       rx="11.1125"
       style="color:#000000;overflow:visible;fill:none;stroke:#000000;stroke-width:0.264999;stroke-linecap:round;stroke-linejoin:round;stroke-miterlimit:4;stroke-dasharray:none;paint-order:markers fill stroke"
       id="rect919"
       width="164.4149"
       height="83.904724"
       x="12.417369"
       y="57.976109"
       ry="11.1125"
       inkscape:path-effect="#path-effect937"
       sodipodi:type="rect" />
  </g>
</svg>
