<svg xmlns="http://www.w3.org/2000/svg" id="svg6266" version="1.1" viewBox="0 0 13.23 13.23">
  <g id="layer1" display="inline">
    <path id="path1227" fill="gray" fill-opacity=".1" stroke="#000" stroke-dasharray="none" stroke-linecap="round" stroke-linejoin="round" stroke-miterlimit="4" stroke-opacity=".33" stroke-width=".26" d="M.48 12.9c.79.27 1.62-.16 2.42.09.84-.17 1.7-.04 2.53.03 1.32-.08 2.64-.08 3.95-.02.55.06 1.13.16 1.66-.07.56 0 1.68.3 1.88-.07-.64-.41-1.35-.7-2.01-1.06-.56-.48-1.26-.72-1.85-1.14a20 20 0 00-1.89-1.04c-1.42-.47-3.13-.69-4.43.2a9.2 9.2 0 00-1.72 1.89c-.3.48-.77 1.21-.7 1.28-.3.19.14-.1-.14-.06 0-.12.24.02.18-.06l.12.02m2.21-11c-.45.07-.3-.1-.55.33-.24.43-.77 1.08-.48 1.55.3.47.78.64.81.74 0 0-.74.33-.45.65.3.33-.06.43.47.68.53.24.7 1.03 1.33 1.2.63.17.15-.32.53.08s1.57-.25 1.98-.2c.4.06-.2-.52.28-.23.49.28.29.8 1.46.54 1.16-.27.54-1.56 1.18-1.8.64-.24.45-.06.56-.47a.99.99 0 00-.47-1.1c-.54-.25-.1-.38-.32-.54-.1-.36.14-.47-.08-.85C8.7 2.09 8.78.6 7.89.62c-.9.01-1.63-.58-1.87-.2-.24.39-.23.51-.6.2-.39-.33-.83.1-1.51.11-.7.02-.76 1.1-1.22 1.16zm3.5 5c-.54.07-1.24.16-1.09.94.18.5-.5 1.5.42 1.41.45-.02.98.34.85-.39.04-.66-.42-1.34-.22-1.97" color="#000" overflow="visible" paint-order="markers fill stroke"/>
  </g>
</svg>
