<?xml version="1.0" encoding="UTF-8" standalone="no"?>
<svg
   xmlns:dc="http://purl.org/dc/elements/1.1/"
   xmlns:cc="http://creativecommons.org/ns#"
   xmlns:rdf="http://www.w3.org/1999/02/22-rdf-syntax-ns#"
   xmlns:svg="http://www.w3.org/2000/svg"
   xmlns="http://www.w3.org/2000/svg"
   xmlns:sodipodi="http://sodipodi.sourceforge.net/DTD/sodipodi-0.dtd"
   xmlns:inkscape="http://www.inkscape.org/namespaces/inkscape"
   sodipodi:docname="loading-text.svg"
   inkscape:version="1.0 (4035a4fb49, 2020-05-01)"
   id="svg3382"
   version="1.1"
   viewBox="0 0 48.598842 7.9023599"
   height="7.90236mm"
   width="48.598843mm">
  <defs
     id="defs3376" />
  <sodipodi:namedview
     fit-margin-bottom="0"
     fit-margin-right="0"
     fit-margin-left="0"
     fit-margin-top="0"
     inkscape:pagecheckerboard="true"
     showgrid="false"
     inkscape:document-rotation="0"
     inkscape:current-layer="layer1"
     inkscape:document-units="mm"
     inkscape:cy="40.804937"
     inkscape:cx="86.006617"
     inkscape:zoom="5.6"
     inkscape:pageshadow="2"
     inkscape:pageopacity="0.0"
     borderopacity="1.0"
     bordercolor="#666666"
     pagecolor="#ffffff"
     id="base" />
  <metadata
     id="metadata3379">
    <rdf:RDF>
      <cc:Work
         rdf:about="">
        <dc:format>image/svg+xml</dc:format>
        <dc:type
           rdf:resource="http://purl.org/dc/dcmitype/StillImage" />
        <dc:title></dc:title>
      </cc:Work>
    </rdf:RDF>
  </metadata>
  <g
     transform="translate(-0.26458348,-0.26458333)"
     id="layer1"
     inkscape:groupmode="layer"
     inkscape:label="Layer 1">
    <path
       d="m 16.706474,0.26458333 c -0.03763,0.15051839 -0.05633,0.33852903 -0.05633,0.56430663 0,0.21637014 0.01869,0.40489754 0.05633,0.56482344 -0.03763,0.1505184 -0.05633,0.338529 -0.05633,0.5643066 0,0.2163702 0.01869,0.4043808 0.05633,0.5643066 -0.03763,0.1505185 -0.05633,0.3385291 -0.05633,0.5643068 0,0.2163701 0.01869,0.4048974 0.05633,0.5648232 -0.03763,0.1505185 -0.05633,0.3385291 -0.05633,0.5643068 0,0.2163701 0.01869,0.4043807 0.05633,0.5643065 -0.03763,0.1505185 -0.05633,0.338529 -0.05633,0.5643067 0,0.2163702 0.01869,0.4048975 0.05633,0.5648233 -0.03763,0.1505185 -0.05633,0.338529 -0.05633,0.5643067 0,0.2163702 0.01869,0.4043807 0.05633,0.5643065 -0.03763,0.1505186 -0.05633,0.3385291 -0.05633,0.5643068 0,0.2163702 0.01869,0.4048977 0.05633,0.5648235 h 3.386873 c 0.03763,-0.1599258 0.05633,-0.3484533 0.05633,-0.5648235 0,-0.2257777 -0.0187,-0.4137882 -0.05633,-0.5643068 h 0.564307 c 0.03763,-0.1599258 0.05633,-0.3479363 0.05633,-0.5643065 0,-0.2257777 -0.0187,-0.4137882 -0.05633,-0.5643067 h 0.564306 c 0.03763,-0.1599258 0.05633,-0.3484531 0.05633,-0.5648233 0,-0.2257777 -0.0187,-0.4137882 -0.05633,-0.5643067 0.03763,-0.1599258 0.05633,-0.3479364 0.05633,-0.5643065 0,-0.2257777 -0.0187,-0.4137883 -0.05633,-0.5643068 0.03763,-0.1599258 0.05633,-0.3484531 0.05633,-0.5648232 0,-0.2257777 -0.0187,-0.4137883 -0.05633,-0.5643068 h -0.564306 c 0.03763,-0.1599258 0.05633,-0.3479364 0.05633,-0.5643066 0,-0.2257776 -0.0187,-0.4137882 -0.05633,-0.5643066 h -0.564307 c 0.03763,-0.1599259 0.05633,-0.3484533 0.05633,-0.56482344 0,-0.2257776 -0.0187,-0.41378824 -0.05633,-0.56430663 z m 1.128613,1.12913007 h 1.693437 c -0.03763,0.1505184 -0.05633,0.338529 -0.05633,0.5643066 0,0.2163702 0.0187,0.4043808 0.05633,0.5643066 h 0.564823 c -0.03763,0.1505185 -0.05684,0.3385291 -0.05684,0.5643068 0,0.2163701 0.01921,0.4048974 0.05684,0.5648232 -0.03763,0.1505185 -0.05684,0.3385291 -0.05684,0.5643068 0,0.2163701 0.01921,0.4043807 0.05684,0.5643065 -0.03763,0.1505185 -0.05684,0.338529 -0.05684,0.5643067 0,0.2163702 0.01921,0.4048975 0.05684,0.5648233 h -0.564823 c -0.03763,0.1505185 -0.05633,0.338529 -0.05633,0.5643067 0,0.2163702 0.0187,0.4043807 0.05633,0.5643065 h -1.693437 c 0.03763,-0.1599258 0.05684,-0.3479363 0.05684,-0.5643065 0,-0.2257777 -0.01922,-0.4137882 -0.05684,-0.5643067 0.03763,-0.1599258 0.05684,-0.3484531 0.05684,-0.5648233 0,-0.2257777 -0.01922,-0.4137882 -0.05684,-0.5643067 0.03763,-0.1599258 0.05684,-0.3479364 0.05684,-0.5643065 0,-0.2257777 -0.01922,-0.4137883 -0.05684,-0.5643068 0.03763,-0.1599258 0.05684,-0.3484531 0.05684,-0.5648232 0,-0.2257777 -0.01922,-0.4137883 -0.05684,-0.5643068 0.03763,-0.1599258 0.05684,-0.3479364 0.05684,-0.5643066 0,-0.2257776 -0.01922,-0.4137882 -0.05684,-0.5643066 z"
       style="color:#000000;font-style:normal;font-variant:normal;font-weight:normal;font-stretch:normal;font-size:14.1111px;line-height:125%;font-family:VT323;-inkscape-font-specification:'VT323, Normal';font-variant-ligatures:normal;font-variant-caps:normal;font-variant-numeric:normal;font-variant-east-asian:normal;writing-mode:lr-tb;fill:#ffffff;stroke:none;stroke-width:0.529167;stroke-linecap:round;stroke-linejoin:round;paint-order:markers fill stroke"
       id="path3987" />
    <path
       d="m 12.467456,0.26458333 c -0.03763,0.15051839 -0.05633,0.33852903 -0.05633,0.56430663 0,0.21637014 0.01869,0.40489754 0.05633,0.56482344 h -0.282153 c -0.03763,0.1505184 -0.05633,0.338529 -0.05633,0.5643066 0,0.2163702 0.01869,0.4043808 0.05633,0.5643066 h -0.42323 c -0.03763,0.1505185 -0.05633,0.3385291 -0.05633,0.5643068 0,0.2163701 0.01869,0.4048974 0.05633,0.5648232 h -0.282154 c -0.03763,0.1505185 -0.05633,0.3385291 -0.05633,0.5643068 0,0.2163701 0.0187,0.4043807 0.05633,0.5643065 -0.03763,0.1505185 -0.05633,0.338529 -0.05633,0.5643067 0,0.2163702 0.0187,0.4048975 0.05633,0.5648233 h -0.42323 c -0.03763,0.1505185 -0.05684,0.338529 -0.05684,0.5643067 0,0.2163702 0.01922,0.4043807 0.05684,0.5643065 -0.03763,0.1505186 -0.05684,0.3385291 -0.05684,0.5643068 0,0.2163702 0.01922,0.4048977 0.05684,0.5648235 h 1.128614 c 0.03763,-0.1599258 0.05633,-0.3484533 0.05633,-0.5648235 0,-0.2257777 -0.0187,-0.4137882 -0.05633,-0.5643068 0.03763,-0.1599258 0.05633,-0.3479363 0.05633,-0.5643065 0,-0.2257777 -0.0187,-0.4137882 -0.05633,-0.5643067 h 2.257743 c -0.03763,0.1505185 -0.05633,0.338529 -0.05633,0.5643067 0,0.2163702 0.01869,0.4043807 0.05633,0.5643065 -0.03763,0.1505186 -0.05633,0.3385291 -0.05633,0.5643068 0,0.2163702 0.01869,0.4048977 0.05633,0.5648235 h 1.12913 c 0.03763,-0.1599258 0.05633,-0.3484533 0.05633,-0.5648235 0,-0.2257777 -0.0187,-0.4137882 -0.05633,-0.5643068 0.03763,-0.1599258 0.05633,-0.3479363 0.05633,-0.5643065 0,-0.2257777 -0.0187,-0.4137882 -0.05633,-0.5643067 h -0.42323 c 0.03763,-0.1599258 0.05633,-0.3484531 0.05633,-0.5648233 0,-0.2257777 -0.0187,-0.4137882 -0.05633,-0.5643067 0.03763,-0.1599258 0.05633,-0.3479364 0.05633,-0.5643065 0,-0.2257777 -0.0187,-0.4137883 -0.05633,-0.5643068 h -0.28267 c 0.03763,-0.1599258 0.05684,-0.3484531 0.05684,-0.5648232 0,-0.2257777 -0.01922,-0.4137883 -0.05684,-0.5643068 h -0.42323 c 0.03763,-0.1599258 0.05633,-0.3479364 0.05633,-0.5643066 0,-0.2257776 -0.0187,-0.4137882 -0.05633,-0.5643066 h -0.282154 c 0.03763,-0.1599259 0.05633,-0.3484533 0.05633,-0.56482344 0,-0.2257776 -0.0187,-0.41378824 -0.05633,-0.56430663 z m 0.42323,2.25774327 h 0.846977 c -0.03763,0.1505185 -0.05633,0.3385291 -0.05633,0.5643068 0,0.2163701 0.0187,0.4048974 0.05633,0.5648232 h 0.282153 c -0.03763,0.1505185 -0.05633,0.3385291 -0.05633,0.5643068 0,0.2163701 0.01869,0.4043807 0.05633,0.5643065 h -1.411283 c 0.03763,-0.1599258 0.05684,-0.3479364 0.05684,-0.5643065 0,-0.2257777 -0.01922,-0.4137883 -0.05684,-0.5643068 h 0.282153 c 0.03763,-0.1599258 0.05684,-0.3484531 0.05684,-0.5648232 0,-0.2257777 -0.01922,-0.4137883 -0.05684,-0.5643068 z"
       style="color:#000000;font-style:normal;font-variant:normal;font-weight:normal;font-stretch:normal;font-size:14.1111px;line-height:125%;font-family:VT323;-inkscape-font-specification:'VT323, Normal';font-variant-ligatures:normal;font-variant-caps:normal;font-variant-numeric:normal;font-variant-east-asian:normal;writing-mode:lr-tb;fill:#ffffff;stroke:none;stroke-width:0.529167;stroke-linecap:round;stroke-linejoin:round;paint-order:markers fill stroke"
       id="path3991" />
    <path
       d="m 6.5355183,0.26458333 c -0.037629,0.15051839 -0.056327,0.33852903 -0.056327,0.56430663 0,0.21637014 0.018698,0.40489754 0.056327,0.56482344 H 5.8296182 c -0.037629,0.1505184 -0.056327,0.338529 -0.056327,0.5643066 3e-7,0.2163702 0.018698,0.4043808 0.056327,0.5643066 H 5.4063883 c -0.037629,0.1505185 -0.056327,0.3385291 -0.056327,0.5643068 0,0.2163701 0.018698,0.4048974 0.056327,0.5648232 -0.037629,0.1505185 -0.056327,0.3385291 -0.056327,0.5643068 0,0.2163701 0.018698,0.4043807 0.056327,0.5643065 -0.037629,0.1505185 -0.056327,0.338529 -0.056327,0.5643067 0,0.2163702 0.018698,0.4048975 0.056327,0.5648233 h 0.4232299 c -0.037629,0.1505185 -0.056327,0.338529 -0.056327,0.5643067 3e-7,0.2163702 0.018698,0.4043807 0.056327,0.5643065 h 0.7059001 c -0.037629,0.1505186 -0.056327,0.3385291 -0.056327,0.5643068 0,0.2163702 0.018698,0.4048977 0.056327,0.5648235 h 2.2577433 c 0.037629,-0.1599258 0.056327,-0.3484533 0.056327,-0.5648235 0,-0.2257777 -0.018698,-0.4137882 -0.056327,-0.5643068 H 9.498645 C 9.536274,6.8778873 9.554972,6.6898768 9.554972,6.4735066 c 0,-0.2257777 -0.018698,-0.4137882 -0.056327,-0.5643067 h 0.4232299 c 0.037629,-0.1599258 0.056844,-0.3484531 0.056844,-0.5648233 0,-0.2257777 -0.019214,-0.4137882 -0.056844,-0.5643067 0.037629,-0.1599258 0.056844,-0.3479364 0.056844,-0.5643065 0,-0.2257777 -0.019214,-0.4137883 -0.056844,-0.5643068 0.037629,-0.1599258 0.056844,-0.3484531 0.056844,-0.5648232 0,-0.2257777 -0.019214,-0.4137883 -0.056844,-0.5643068 H 9.498645 C 9.536274,2.3624008 9.554972,2.1743902 9.554972,1.95802 9.554972,1.7322424 9.536274,1.5442318 9.498645,1.3937134 H 8.7932616 c 0.037629,-0.1599259 0.056327,-0.3484533 0.056327,-0.56482344 0,-0.2257776 -0.018698,-0.41378824 -0.056327,-0.56430663 z M 6.9587482,1.3937134 h 1.4112835 c -0.037629,0.1505184 -0.056844,0.338529 -0.056844,0.5643066 0,0.2163702 0.019214,0.4043808 0.056844,0.5643066 h 0.4232299 c -0.037629,0.1505185 -0.056327,0.3385291 -0.056327,0.5643068 0,0.2163701 0.018698,0.4048974 0.056327,0.5648232 -0.037629,0.1505185 -0.056327,0.3385291 -0.056327,0.5643068 0,0.2163701 0.018698,0.4043807 0.056327,0.5643065 -0.037629,0.1505185 -0.056327,0.338529 -0.056327,0.5643067 0,0.2163702 0.018698,0.4048975 0.056327,0.5648233 H 8.3700317 c -0.037629,0.1505185 -0.056844,0.338529 -0.056844,0.5643067 0,0.2163702 0.019214,0.4043807 0.056844,0.5643065 H 6.9587482 c 0.037629,-0.1599258 0.056327,-0.3479363 0.056327,-0.5643065 0,-0.2257777 -0.018698,-0.4137882 -0.056327,-0.5643067 H 6.5355183 c 0.037629,-0.1599258 0.056327,-0.3484531 0.056327,-0.5648233 0,-0.2257777 -0.018698,-0.4137882 -0.056327,-0.5643067 0.037629,-0.1599258 0.056327,-0.3479364 0.056327,-0.5643065 0,-0.2257777 -0.018698,-0.4137883 -0.056327,-0.5643068 0.037629,-0.1599258 0.056327,-0.3484531 0.056327,-0.5648232 0,-0.2257777 -0.018698,-0.4137883 -0.056327,-0.5643068 h 0.4232299 c 0.037629,-0.1599258 0.056327,-0.3479364 0.056327,-0.5643066 0,-0.2257776 -0.018698,-0.4137882 -0.056327,-0.5643066 z"
       style="color:#000000;font-style:normal;font-variant:normal;font-weight:normal;font-stretch:normal;font-size:14.1111px;line-height:125%;font-family:VT323;-inkscape-font-specification:'VT323, Normal';font-variant-ligatures:normal;font-variant-caps:normal;font-variant-numeric:normal;font-variant-east-asian:normal;writing-mode:lr-tb;fill:#ffffff;stroke:none;stroke-width:0.529167;stroke-linecap:round;stroke-linejoin:round;paint-order:markers fill stroke"
       id="path3995" />
    <path
       style="color:#000000;font-style:normal;font-variant:normal;font-weight:normal;font-stretch:normal;font-size:14.1111px;line-height:125%;font-family:VT323;-inkscape-font-specification:'VT323, Normal';font-variant-ligatures:normal;font-variant-caps:normal;font-variant-numeric:normal;font-variant-east-asian:normal;writing-mode:lr-tb;fill:#ffffff;stroke:none;stroke-width:0.529167;stroke-linecap:round;stroke-linejoin:round;paint-order:markers fill stroke"
       d="m 4.2721359,7.0379115 q 0.056444,0.2257776 0.056444,0.564444 0,0.3245553 -0.056444,0.564444 H 0.32102788 q -0.0564444,-0.2398887 -0.0564444,-0.564444 0,-0.3386664 0.0564444,-0.564444 -0.0564444,-0.2398887 -0.0564444,-0.564444 0,-0.3386664 0.0564444,-0.564444 -0.0564444,-0.2398887 -0.0564444,-0.564444 0,-0.3386664 0.0564444,-0.564444 -0.0564444,-0.2398887 -0.0564444,-0.564444 0,-0.3386664 0.0564444,-0.564444 -0.0564444,-0.2398887 -0.0564444,-0.564444 0,-0.3386664 0.0564444,-0.564444 -0.0564444,-0.2398887 -0.0564444,-0.564444 0,-0.3386664 0.0564444,-0.564444 -0.0564444,-0.2398888 -0.0564444,-0.56444406 0,-0.3386664 0.0564444,-0.564444 H 1.4499159 q 0.056444,0.2257776 0.056444,0.564444 0,0.32455526 -0.056444,0.56444406 0.056444,0.2257776 0.056444,0.564444 0,0.3245553 -0.056444,0.564444 0.056444,0.2257776 0.056444,0.564444 0,0.3245553 -0.056444,0.564444 0.056444,0.2257776 0.056444,0.564444 0,0.3245553 -0.056444,0.564444 0.056444,0.2257776 0.056444,0.564444 0,0.3245553 -0.056444,0.564444 0.056444,0.2257776 0.056444,0.564444 0,0.3245553 -0.056444,0.564444 z"
       id="path3999" />
    <path
       style="color:#000000;font-style:normal;font-variant:normal;font-weight:normal;font-stretch:normal;font-size:14.1111px;line-height:125%;font-family:VT323;-inkscape-font-specification:'VT323, Normal';font-variant-ligatures:normal;font-variant-caps:normal;font-variant-numeric:normal;font-variant-east-asian:normal;writing-mode:lr-tb;fill:#ffffff;stroke:none;stroke-width:0.529167;stroke-linecap:round;stroke-linejoin:round;paint-order:markers fill stroke"
       d="m 26.02528,7.0379115 q 0.05644,0.2257776 0.05644,0.564444 0,0.3245553 -0.05644,0.564444 h -2.82222 q -0.05645,-0.2398887 -0.05645,-0.564444 0,-0.3386664 0.05645,-0.564444 h 0.846666 q -0.05645,-0.2398887 -0.05645,-0.564444 0,-0.3386664 0.05645,-0.564444 -0.05645,-0.2398887 -0.05645,-0.564444 0,-0.3386664 0.05645,-0.564444 -0.05645,-0.2398887 -0.05645,-0.564444 0,-0.3386664 0.05645,-0.564444 -0.05645,-0.2398887 -0.05645,-0.564444 0,-0.3386664 0.05645,-0.564444 -0.05645,-0.2398887 -0.05645,-0.564444 0,-0.3386664 0.05645,-0.564444 H 23.20306 q -0.05645,-0.2398888 -0.05645,-0.56444406 0,-0.3386664 0.05645,-0.564444 h 2.82222 q 0.05644,0.2257776 0.05644,0.564444 0,0.32455526 -0.05644,0.56444406 h -0.846666 q 0.05644,0.2257776 0.05644,0.564444 0,0.3245553 -0.05644,0.564444 0.05644,0.2257776 0.05644,0.564444 0,0.3245553 -0.05644,0.564444 0.05644,0.2257776 0.05644,0.564444 0,0.3245553 -0.05644,0.564444 0.05644,0.2257776 0.05644,0.564444 0,0.3245553 -0.05644,0.564444 0.05644,0.2257776 0.05644,0.564444 0,0.3245553 -0.05644,0.564444 z"
       id="path3985" />
    <path
       style="color:#000000;font-style:normal;font-variant:normal;font-weight:normal;font-stretch:normal;font-size:14.1111px;line-height:125%;font-family:VT323;-inkscape-font-specification:'VT323, Normal';font-variant-ligatures:normal;font-variant-caps:normal;font-variant-numeric:normal;font-variant-east-asian:normal;writing-mode:lr-tb;fill:#ffffff;stroke:none;stroke-width:0.529167;stroke-linecap:round;stroke-linejoin:round;paint-order:markers fill stroke"
       d="m 32.521898,1.3934715 q 0.05644,0.2257776 0.05644,0.564444 0,0.3245553 -0.05644,0.564444 0.05644,0.2257776 0.05644,0.564444 0,0.3245553 -0.05644,0.564444 0.05644,0.2257776 0.05644,0.564444 0,0.3245553 -0.05644,0.564444 0.05644,0.2257776 0.05644,0.564444 0,0.3245553 -0.05644,0.564444 0.05644,0.2257776 0.05644,0.564444 0,0.3245553 -0.05644,0.564444 0.05644,0.2257776 0.05644,0.564444 0,0.3245553 -0.05644,0.564444 H 31.39301 q -0.05645,-0.2398887 -0.05645,-0.564444 0,-0.3386664 0.05645,-0.564444 h -0.705556 q -0.05644,-0.2398887 -0.05644,-0.564444 0,-0.3386664 0.05644,-0.564444 h -0.423333 q -0.05644,-0.2398887 -0.05644,-0.564444 0,-0.3386664 0.05644,-0.564444 h -0.564444 q -0.05644,-0.2398887 -0.05644,-0.564444 0,-0.3386664 0.05644,-0.564444 h -0.564444 q 0.05645,0.2257776 0.05645,0.564444 0,0.3245553 -0.05645,0.564444 0.05645,0.2257776 0.05645,0.564444 0,0.3245553 -0.05645,0.564444 0.05645,0.2257776 0.05645,0.564444 0,0.3245553 -0.05645,0.564444 0.05645,0.2257776 0.05645,0.564444 0,0.3245553 -0.05645,0.564444 h -1.128888 q -0.05644,-0.2398887 -0.05644,-0.564444 0,-0.3386664 0.05644,-0.564444 -0.05644,-0.2398887 -0.05644,-0.564444 0,-0.3386664 0.05644,-0.564444 -0.05644,-0.2398887 -0.05644,-0.564444 0,-0.3386664 0.05644,-0.564444 -0.05644,-0.2398887 -0.05644,-0.564444 0,-0.3386664 0.05644,-0.564444 -0.05644,-0.2398887 -0.05644,-0.564444 0,-0.3386664 0.05644,-0.564444 -0.05644,-0.2398887 -0.05644,-0.564444 0,-0.3386664 0.05644,-0.564444 -0.05644,-0.2398888 -0.05644,-0.56444406 0,-0.3386664 0.05644,-0.564444 h 1.41111 q 0.05645,0.2257776 0.05645,0.564444 0,0.32455526 -0.05645,0.56444406 h 0.423333 q 0.05645,0.2257776 0.05645,0.564444 0,0.3245553 -0.05645,0.564444 h 0.423333 q 0.05645,0.2257776 0.05645,0.564444 0,0.3245553 -0.05645,0.564444 h 0.564444 q 0.05645,0.2257776 0.05645,0.564444 0,0.3245553 -0.05645,0.564444 h 0.564445 q -0.05645,-0.2398887 -0.05645,-0.564444 0,-0.3386664 0.05645,-0.564444 -0.05645,-0.2398887 -0.05645,-0.564444 0,-0.3386664 0.05645,-0.564444 -0.05645,-0.2398887 -0.05645,-0.564444 0,-0.3386664 0.05645,-0.564444 -0.05645,-0.2398888 -0.05645,-0.56444406 0,-0.3386664 0.05645,-0.564444 h 1.128888 q 0.05644,0.2257776 0.05644,0.564444 0,0.32455526 -0.05644,0.56444406 z"
       id="path3983" />
    <path
       style="color:#000000;font-style:normal;font-variant:normal;font-weight:normal;font-stretch:normal;font-size:14.1111px;line-height:125%;font-family:VT323;-inkscape-font-specification:'VT323, Normal';font-variant-ligatures:normal;font-variant-caps:normal;font-variant-numeric:normal;font-variant-east-asian:normal;writing-mode:lr-tb;fill:#ffffff;stroke:none;stroke-width:0.529167;stroke-linecap:round;stroke-linejoin:round;paint-order:markers fill stroke"
       d="m 38.171851,3.6512475 q 0.05645,0.2257776 0.05645,0.564444 0,0.3245553 -0.05645,0.564444 0.05645,0.2257776 0.05645,0.564444 0,0.3245553 -0.05645,0.564444 0.05645,0.2257776 0.05645,0.564444 0,0.3245553 -0.05645,0.564444 h -0.564444 q 0.05644,0.2257776 0.05644,0.564444 0,0.3245553 -0.05644,0.564444 h -2.82222 q -0.05644,-0.2398887 -0.05644,-0.564444 0,-0.3386664 0.05644,-0.564444 h -0.564444 q -0.05644,-0.2398887 -0.05644,-0.564444 0,-0.3386664 0.05644,-0.564444 h -0.564444 q -0.05644,-0.2398887 -0.05644,-0.564444 0,-0.3386664 0.05644,-0.564444 -0.05644,-0.2398887 -0.05644,-0.564444 0,-0.3386664 0.05644,-0.564444 -0.05644,-0.2398887 -0.05644,-0.564444 0,-0.3386664 0.05644,-0.564444 h 0.564444 q -0.05644,-0.2398887 -0.05644,-0.564444 0,-0.3386664 0.05644,-0.564444 h 0.564444 q -0.05644,-0.2398888 -0.05644,-0.56444406 0,-0.3386664 0.05644,-0.564444 h 2.82222 q 0.05644,0.2257776 0.05644,0.564444 0,0.32455526 -0.05644,0.56444406 h 0.564444 q 0.05645,0.2257776 0.05645,0.564444 0,0.3245553 -0.05645,0.564444 h -1.128888 q -0.05644,-0.2398887 -0.05644,-0.564444 0,-0.3386664 0.05644,-0.564444 h -1.693332 q 0.05644,0.2257776 0.05644,0.564444 0,0.3245553 -0.05644,0.564444 h -0.564444 q 0.05644,0.2257776 0.05644,0.564444 0,0.3245553 -0.05644,0.564444 0.05644,0.2257776 0.05644,0.564444 0,0.3245553 -0.05644,0.564444 0.05644,0.2257776 0.05644,0.564444 0,0.3245553 -0.05644,0.564444 h 0.564444 q 0.05644,0.2257776 0.05644,0.564444 0,0.3245553 -0.05644,0.564444 h 1.693332 q -0.05644,-0.2398887 -0.05644,-0.564444 0,-0.3386664 0.05644,-0.564444 -0.05644,-0.2398887 -0.05644,-0.564444 0,-0.3386664 0.05644,-0.564444 h -0.846666 q -0.05644,-0.2398887 -0.05644,-0.564444 0,-0.3386664 0.05644,-0.564444 z"
       id="path3981" />
    <path
       style="color:#000000;font-style:normal;font-variant:normal;font-weight:normal;font-stretch:normal;font-size:14.1111px;line-height:125%;font-family:VT323;-inkscape-font-specification:'VT323, Normal';font-variant-ligatures:normal;font-variant-caps:normal;font-variant-numeric:normal;font-variant-east-asian:normal;writing-mode:lr-tb;fill:#ffffff;stroke:none;stroke-width:0.529167;stroke-linecap:round;stroke-linejoin:round;paint-order:markers fill stroke"
       d="m 41.796861,6.4734675 q 0,0.3245553 -0.05645,0.564444 0.05645,0.2257776 0.05645,0.564444 0,0.3245553 -0.05645,0.564444 h -1.41111 q -0.05644,-0.2398887 -0.05644,-0.564444 0,-0.3386664 0.05644,-0.564444 -0.05644,-0.2398887 -0.05644,-0.564444 0,-0.3386664 0.05644,-0.564444 h 1.41111 q 0.05645,0.2257776 0.05645,0.564444 z"
       id="path3979" />
    <path
       style="color:#000000;font-style:normal;font-variant:normal;font-weight:normal;font-stretch:normal;font-size:14.1111px;line-height:125%;font-family:VT323;-inkscape-font-specification:'VT323, Normal';font-variant-ligatures:normal;font-variant-caps:normal;font-variant-numeric:normal;font-variant-east-asian:normal;writing-mode:lr-tb;fill:#ffffff;stroke:none;stroke-width:0.529167;stroke-linecap:round;stroke-linejoin:round;paint-order:markers fill stroke"
       d="m 45.330144,6.4734675 q 0,0.3245553 -0.05645,0.564444 0.05645,0.2257776 0.05645,0.564444 0,0.3245553 -0.05645,0.564444 h -1.41111 q -0.05644,-0.2398887 -0.05644,-0.564444 0,-0.3386664 0.05644,-0.564444 -0.05644,-0.2398887 -0.05644,-0.564444 0,-0.3386664 0.05644,-0.564444 h 1.41111 q 0.05645,0.2257776 0.05645,0.564444 z"
       id="path3977" />
    <path
       style="color:#000000;font-style:normal;font-variant:normal;font-weight:normal;font-stretch:normal;font-size:14.1111px;line-height:125%;font-family:VT323;-inkscape-font-specification:'VT323, Normal';font-variant-ligatures:normal;font-variant-caps:normal;font-variant-numeric:normal;font-variant-east-asian:normal;writing-mode:lr-tb;fill:#ffffff;stroke:none;stroke-width:0.529167;stroke-linecap:round;stroke-linejoin:round;paint-order:markers fill stroke"
       d="m 48.863427,6.4734675 q 0,0.3245553 -0.05645,0.564444 0.05645,0.2257776 0.05645,0.564444 0,0.3245553 -0.05645,0.564444 h -1.41111 q -0.05644,-0.2398887 -0.05644,-0.564444 0,-0.3386664 0.05644,-0.564444 -0.05644,-0.2398887 -0.05644,-0.564444 0,-0.3386664 0.05644,-0.564444 h 1.41111 q 0.05645,0.2257776 0.05645,0.564444 z"
       id="path3971" />
  </g>
</svg>
