<svg xmlns="http://www.w3.org/2000/svg" viewBox="0 0 48.599 7.902">
  <g fill="#fff" color="#000" font-family="VT323" font-size="14.111" font-weight="400" paint-order="markers fill stroke">
    <path d="M16.442 0c-.038.15-.056.339-.056.564 0 .217.018.405.056.565-.038.15-.056.339-.056.564 0 .217.018.405.056.565-.038.15-.056.338-.056.564 0 .216.018.405.056.565-.038.15-.056.338-.056.564 0 .217.018.405.056.564-.038.151-.056.339-.056.565 0 .216.018.405.056.565-.038.15-.056.338-.056.564 0 .216.018.404.056.564-.038.15-.056.339-.056.565 0 .216.018.404.056.564h3.387c.037-.16.056-.348.056-.564 0-.226-.019-.414-.056-.565h.564c.038-.16.056-.348.056-.564 0-.226-.018-.414-.056-.564h.564c.038-.16.057-.349.057-.565 0-.226-.019-.414-.057-.565.038-.16.057-.347.057-.564 0-.226-.019-.414-.057-.564.038-.16.057-.349.057-.565 0-.226-.019-.414-.057-.564h-.564c.038-.16.056-.348.056-.565 0-.225-.018-.413-.056-.564h-.564c.037-.16.056-.348.056-.565 0-.225-.019-.413-.056-.564zm1.129 1.13h1.693c-.038.15-.056.338-.056.563 0 .217.018.405.056.565h.565c-.038.15-.057.338-.057.564 0 .216.02.405.057.565-.038.15-.057.338-.057.564 0 .217.02.405.057.564-.038.151-.057.339-.057.565 0 .216.02.405.057.565h-.565c-.038.15-.056.338-.056.564 0 .216.018.404.056.564H17.57c.037-.16.056-.348.056-.564 0-.226-.019-.414-.056-.564.037-.16.056-.349.056-.565 0-.226-.019-.414-.056-.565.037-.16.056-.347.056-.564 0-.226-.019-.414-.056-.564.037-.16.056-.349.056-.565 0-.226-.019-.414-.056-.564.037-.16.056-.348.056-.565 0-.225-.019-.413-.056-.564zM12.203 0c-.038.15-.056.339-.056.564 0 .217.018.405.056.565h-.282c-.038.15-.057.339-.057.564 0 .217.02.405.057.565h-.424c-.037.15-.056.338-.056.564 0 .216.019.405.056.565h-.282c-.037.15-.056.338-.056.564 0 .217.019.405.056.564-.037.151-.056.339-.056.565 0 .216.019.405.056.565h-.423c-.038.15-.057.338-.057.564 0 .216.02.404.057.564-.038.15-.057.339-.057.565 0 .216.02.404.057.564h1.129c.037-.16.056-.348.056-.564 0-.226-.019-.414-.056-.565.037-.16.056-.348.056-.564 0-.226-.019-.414-.056-.564h2.257c-.037.15-.056.338-.056.564 0 .216.019.404.056.564-.037.15-.056.339-.056.565 0 .216.019.404.056.564h1.13c.037-.16.056-.348.056-.564 0-.226-.019-.414-.056-.565.037-.16.056-.348.056-.564 0-.226-.019-.414-.056-.564h-.424c.038-.16.057-.349.057-.565 0-.226-.019-.414-.057-.565.038-.16.057-.347.057-.564 0-.226-.019-.414-.057-.564h-.282c.037-.16.057-.349.057-.565 0-.226-.02-.414-.057-.564h-.424c.038-.16.057-.348.057-.565 0-.225-.019-.413-.057-.564h-.282c.038-.16.057-.348.057-.565 0-.225-.02-.413-.057-.564zm.423 2.258h.847c-.038.15-.056.338-.056.564 0 .216.018.405.056.565h.282c-.037.15-.056.338-.056.564 0 .217.019.405.056.564h-1.411c.038-.16.057-.347.057-.564 0-.226-.02-.414-.057-.564h.282c.038-.16.057-.349.057-.565 0-.226-.02-.414-.057-.564zM6.27 0c-.037.15-.055.339-.055.564 0 .217.018.405.056.565h-.706c-.038.15-.056.339-.056.564 0 .217.018.405.056.565h-.423c-.038.15-.057.338-.057.564 0 .216.02.405.057.565-.038.15-.057.338-.057.564 0 .217.02.405.057.564-.038.151-.057.339-.057.565 0 .216.02.405.057.565h.423c-.038.15-.056.338-.056.564 0 .216.018.404.056.564h.706c-.038.15-.056.339-.056.565 0 .216.018.404.056.564h2.258c.037-.16.056-.348.056-.564 0-.226-.019-.414-.056-.565h.705c.038-.16.056-.348.056-.564 0-.226-.018-.414-.056-.564h.423c.038-.16.057-.349.057-.565 0-.226-.02-.414-.057-.565.038-.16.057-.347.057-.564 0-.226-.02-.414-.057-.564.038-.16.057-.349.057-.565 0-.226-.02-.414-.057-.564h-.423c.038-.16.056-.348.056-.565 0-.225-.018-.413-.056-.564H8.53c.037-.16.056-.348.056-.565 0-.225-.019-.413-.056-.564zm.424 1.13h1.411c-.037.15-.056.338-.056.563 0 .217.019.405.056.565h.424c-.038.15-.057.338-.057.564 0 .216.019.405.057.565-.038.15-.057.338-.057.564 0 .217.019.405.057.564-.038.151-.057.339-.057.565 0 .216.019.405.057.565h-.424c-.037.15-.056.338-.056.564 0 .216.019.404.056.564h-1.41c.037-.16.055-.348.055-.564 0-.226-.018-.414-.056-.564h-.423c.038-.16.056-.349.056-.565 0-.226-.018-.414-.056-.565.038-.16.056-.347.056-.564 0-.226-.018-.414-.056-.564.038-.16.056-.349.056-.565 0-.226-.018-.414-.056-.564h.423c.038-.16.056-.348.056-.565 0-.225-.018-.413-.056-.564zM4.008 6.773q.056.226.056.565 0 .324-.056.564H.056Q0 7.662 0 7.338q0-.339.056-.565Q0 6.533 0 6.21q0-.339.056-.565Q0 5.404 0 5.08q0-.339.056-.564Q0 4.276 0 3.95q0-.339.056-.564Q0 3.147 0 2.822q0-.338.056-.564Q0 2.018 0 1.693q0-.338.056-.564Q0 .889 0 .564 0 .226.056 0h1.13q.056.226.056.564 0 .325-.057.565.057.226.057.564 0 .325-.057.565.057.226.057.564 0 .325-.057.565.057.225.057.564 0 .325-.057.565.057.225.057.564 0 .325-.057.564.057.226.057.565 0 .324-.057.564zM25.76 6.773q.057.226.057.565 0 .324-.056.564h-2.823q-.056-.24-.056-.564 0-.339.056-.565h.847q-.056-.24-.056-.564 0-.339.056-.565-.056-.24-.056-.564 0-.339.056-.564-.056-.24-.056-.565 0-.339.056-.564-.056-.24-.056-.565 0-.338.056-.564-.056-.24-.056-.565 0-.338.056-.564h-.847q-.056-.24-.056-.565 0-.338.056-.564h2.823q.056.226.056.564 0 .325-.056.565h-.847q.056.226.056.564 0 .325-.056.565.056.226.056.564 0 .325-.056.565.056.225.056.564 0 .325-.056.565.056.225.056.564 0 .325-.056.564.056.226.056.565 0 .324-.056.564zM32.257 1.129q.057.226.057.564 0 .325-.057.565.057.226.057.564 0 .325-.057.565.057.225.057.564 0 .325-.057.565.057.225.057.564 0 .325-.057.564.057.226.057.565 0 .324-.057.564.057.226.057.565 0 .324-.057.564h-1.129q-.056-.24-.056-.564 0-.339.056-.565h-.705q-.057-.24-.057-.564 0-.339.057-.565H30q-.057-.24-.057-.564 0-.339.057-.564h-.565q-.056-.24-.056-.565 0-.339.056-.564h-.564q.056.225.056.564 0 .325-.056.565.056.225.056.564 0 .325-.056.564.056.226.056.565 0 .324-.056.564.056.226.056.565 0 .324-.056.564h-1.13q-.056-.24-.056-.564 0-.339.057-.565-.057-.24-.057-.564 0-.339.057-.565-.057-.24-.057-.564 0-.339.057-.564-.057-.24-.057-.565 0-.339.057-.564-.057-.24-.057-.565 0-.338.057-.564-.057-.24-.057-.565 0-.338.057-.564-.057-.24-.057-.565 0-.338.057-.564h1.41q.057.226.057.564 0 .325-.056.565h.423q.057.226.057.564 0 .325-.057.565H30q.056.226.056.564 0 .325-.056.565h.564q.056.225.056.564 0 .325-.056.565h.564q-.056-.24-.056-.565 0-.339.056-.564-.056-.24-.056-.565 0-.338.056-.564-.056-.24-.056-.565 0-.338.056-.564-.056-.24-.056-.565 0-.338.056-.564h1.13q.056.226.056.564 0 .325-.057.565zM37.907 3.387q.057.225.057.564 0 .325-.057.565.057.225.057.564 0 .325-.057.564.057.226.057.565 0 .324-.057.564h-.564q.056.226.056.565 0 .324-.056.564H34.52q-.057-.24-.057-.564 0-.339.057-.565h-.565q-.056-.24-.056-.564 0-.339.056-.565h-.564q-.057-.24-.057-.564 0-.339.057-.564-.057-.24-.057-.565 0-.339.057-.564-.057-.24-.057-.565 0-.338.057-.564h.564q-.056-.24-.056-.565 0-.338.056-.564h.565q-.057-.24-.057-.565 0-.338.057-.564h2.822q.056.226.056.564 0 .325-.056.565h.564q.057.226.057.564 0 .325-.057.565h-1.129q-.056-.24-.056-.565 0-.338.056-.564h-1.693q.056.226.056.564 0 .325-.056.565h-.564q.056.226.056.564 0 .325-.056.565.056.225.056.564 0 .325-.056.565.056.225.056.564 0 .325-.056.564h.564q.056.226.056.565 0 .324-.056.564h1.693q-.056-.24-.056-.564 0-.339.056-.565-.056-.24-.056-.564 0-.339.056-.564h-.846q-.057-.24-.057-.565 0-.339.057-.564zM41.532 6.209q0 .324-.056.564.056.226.056.565 0 .324-.056.564h-1.411q-.057-.24-.057-.564 0-.339.057-.565-.057-.24-.057-.564 0-.339.057-.565h1.41q.057.226.057.565zM45.066 6.209q0 .324-.057.564.057.226.057.565 0 .324-.057.564h-1.411q-.056-.24-.056-.564 0-.339.056-.565-.056-.24-.056-.564 0-.339.056-.565h1.411q.057.226.057.565zM48.599 6.209q0 .324-.057.564.057.226.057.565 0 .324-.057.564h-1.41q-.057-.24-.057-.564 0-.339.056-.565-.056-.24-.056-.564 0-.339.056-.565h1.411q.057.226.057.565z" style="line-height:125%;-inkscape-font-specification:'VT323, Normal';font-variant-ligatures:normal;font-variant-caps:normal;font-variant-numeric:normal;font-variant-east-asian:normal"/>
  </g>
</svg>
