<svg xmlns="http://www.w3.org/2000/svg" id="svg9893" version="1.1" viewBox="0 0 138.26 152.56">
  <g id="layer1">
    <g id="g22022" stroke-dasharray="none" stroke-dashoffset="0" stroke-linecap="round" stroke-linejoin="round" stroke-miterlimit="4" stroke-opacity="1" color="#000" paint-order="markers fill stroke">
      <path id="rect12478" fill="#1a1a1a" fill-opacity=".85" stroke="#333" stroke-width="1" d="M2.58 34.42H135.5V7.21H2.58z" display="inline" overflow="visible" stop-color="#000" style="font-variation-settings:normal" vector-effect="none"/>
      <g id="g12516" fill="maroon" fill-opacity="1" stroke="#1a1a1a" stroke-width=".75" display="inline" transform="matrix(1.54322 0 0 2.04256 -136.08 -62.7)">
        <path id="path12504" d="M92.24 38.06v6.6" opacity="1" overflow="visible" stop-color="#000" stop-opacity="1" style="font-variation-settings:normal" vector-effect="none"/>
        <path id="path12506" d="M94.55 38.06v6.6" opacity="1" overflow="visible" stop-color="#000" stop-opacity="1" style="font-variation-settings:normal" vector-effect="none"/>
        <path id="path12508" d="M96.87 38.06v6.6" opacity="1" overflow="visible" stop-color="#000" stop-opacity="1" style="font-variation-settings:normal" vector-effect="none"/>
        <path id="path12510" d="M99.19 38.06v6.6" opacity="1" overflow="visible" stop-color="#000" stop-opacity="1" style="font-variation-settings:normal" vector-effect="none"/>
        <path id="path12512" d="M101.5 38.06v6.6" opacity="1" overflow="visible" stop-color="#000" stop-opacity="1" style="font-variation-settings:normal" vector-effect="none"/>
        <path id="path12514" d="M103.82 38.06v6.6" opacity="1" overflow="visible" stop-color="#000" stop-opacity="1" style="font-variation-settings:normal" vector-effect="none"/>
      </g>
      <g id="g12530" fill="maroon" fill-opacity="1" stroke="#1a1a1a" stroke-width=".75" display="inline" transform="matrix(1.54322 0 0 2.04256 -27.64 -62.7)">
        <path id="path12518" d="M92.24 38.06v6.6" opacity="1" overflow="visible" stop-color="#000" stop-opacity="1" style="font-variation-settings:normal" vector-effect="none"/>
        <path id="path12520" d="M94.55 38.06v6.6" opacity="1" overflow="visible" stop-color="#000" stop-opacity="1" style="font-variation-settings:normal" vector-effect="none"/>
        <path id="path12522" d="M96.87 38.06v6.6" opacity="1" overflow="visible" stop-color="#000" stop-opacity="1" style="font-variation-settings:normal" vector-effect="none"/>
        <path id="path12524" d="M99.19 38.06v6.6" opacity="1" overflow="visible" stop-color="#000" stop-opacity="1" style="font-variation-settings:normal" vector-effect="none"/>
        <path id="path12526" d="M101.5 38.06v6.6" opacity="1" overflow="visible" stop-color="#000" stop-opacity="1" style="font-variation-settings:normal" vector-effect="none"/>
        <path id="path12528" d="M103.82 38.06v6.6" opacity="1" overflow="visible" stop-color="#000" stop-opacity="1" style="font-variation-settings:normal" vector-effect="none"/>
      </g>
    </g>
    <g id="g22972">
      <rect id="rect12442" width="132.54" height="27.21" x="3.22" y="115.55" fill="#f4eed7" fill-opacity=".85" stroke="#d0c598" stroke-dasharray="none" stroke-dashoffset="0" stroke-linecap="round" stroke-linejoin="round" stroke-miterlimit="4" stroke-opacity="1" stroke-width="1.06" color="#000" display="inline" overflow="visible" paint-order="markers fill stroke" rx="1.52" ry="1.66" stop-color="#000" style="font-variation-settings:normal" vector-effect="none"/>
    </g>
    <g id="selectButton">
      <rect id="rect20959" width="57.94" height="18.41" x="74.27" y="119.89" fill="#f4eed7" fill-opacity=".85" stroke="#d0c598" stroke-dasharray="none" stroke-linecap="round" stroke-linejoin="round" stroke-miterlimit="4" stroke-opacity="1" stroke-width="1.06" color="#000" display="inline" overflow="visible" paint-order="markers fill stroke" rx="2.46" ry="2.46" stop-color="#000"/>
      <rect id="rect20961" width="47.98" height="11.22" x="79.12" y="123.69" fill="#ff7f2a" fill-opacity="1" stroke="#a40" stroke-dasharray="none" stroke-dashoffset="0" stroke-linecap="butt" stroke-linejoin="miter" stroke-miterlimit="4" stroke-opacity="1" stroke-width="1.06" color="#000" overflow="visible" paint-order="markers fill stroke" rx="2.54" ry="2.54" stop-color="#000" vector-effect="none"/>
      <text id="text20965" x="107.05" y="132.81" fill="#fff" fill-opacity="1" stroke="none" stroke-dasharray="none" stroke-dashoffset="0" stroke-linecap="butt" stroke-linejoin="miter" stroke-miterlimit="4" stroke-opacity="1" stroke-width="1.06" color="#000" font-family="Courier" font-size="7.88" font-stretch="normal" font-style="normal" font-variant="normal" font-weight="700" overflow="visible" paint-order="markers fill stroke" stop-color="#000" style="line-height:125%;-inkscape-font-specification:'Courier, Bold';font-variant-ligatures:normal;font-variant-caps:normal;font-variant-numeric:normal;font-variant-east-asian:normal;text-align:center" text-anchor="middle" transform="scale(1.01032 .98979)" vector-effect="none" writing-mode="lr-tb" xml:space="preserve">
        <tspan id="tspan20963" x="107.05" y="132.81" fill="#fff" stroke="none" stroke-width="1.06" font-family="Courier" font-size="7.88" font-stretch="normal" font-style="normal" font-variant="normal" font-weight="700" style="-inkscape-font-specification:'Courier, Bold';font-variant-ligatures:normal;font-variant-caps:normal;font-variant-numeric:normal;font-variant-east-asian:normal">SELECT</tspan>
      </text>
      <g id="g20969" fill="#fff" stroke="currentColor" stroke-width="0" transform="matrix(.01617 0 0 .01616 82.2 125.17)">
        <path id="path20967" fill="#fff" stroke="none" stroke-width="0" d="M480 416v16a48 48 0 01-48 48H48a48 48 0 01-48-48V176a48 48 0 0148-48h16v48H54a6 6 0 00-6 6v244a6 6 0 006 6h372a6 6 0 006-6v-10zm42-336H150a6 6 0 00-6 6v244a6 6 0 006 6h372a6 6 0 006-6V86a6 6 0 00-6-6zm6-48a48 48 0 0148 48v256a48 48 0 01-48 48H144a48 48 0 01-48-48V80a48 48 0 0148-48zM264 144a40 40 0 11-80 0 40 40 0 0180 0zm-72 96l39.52-39.52a12 12 0 0116.97 0L288 240l103.52-103.52a12 12 0 0116.97 0L480 208v80H192z"/>
      </g>
    </g>
    <g id="g22969" fill-opacity="1" stroke="#333" stroke-dasharray="none" stroke-dashoffset="0" stroke-linecap="round" stroke-linejoin="round" stroke-miterlimit="4" stroke-opacity="1" paint-order="markers fill stroke">
      <rect id="rect14262" width="9.64" height="136.85" x="142.39" y="-137.64" fill="gray" stroke-width="1" color="#000" display="inline" overflow="visible" rx="1.64" ry="1.54" stop-color="#000" style="font-variation-settings:normal" transform="rotate(90)" vector-effect="none"/>
      <g id="g14306" fill="#000" stroke-width="1.04" display="inline" style="font-variation-settings:normal" transform="matrix(0 .99957 -.92766 0 162.45 80.74)">
        <g id="g14304" fill="#4d4d4d" fill-opacity="1" stroke="#333" stroke-dasharray="none" stroke-dashoffset="0" stroke-linecap="round" stroke-linejoin="round" stroke-miterlimit="4" stroke-opacity="1" stroke-width="1.04" paint-order="markers fill stroke">
          <g id="g14266" display="inline" style="font-variation-settings:normal" transform="translate(73.99 -27.78)">
            <path id="path14264" fill="#4d4d4d" fill-opacity="1" stroke="#333" stroke-dasharray="none" stroke-dashoffset="0" stroke-linecap="round" stroke-linejoin="round" stroke-miterlimit="4" stroke-opacity="1" stroke-width="1.04" d="M-5.62 61.53a1.8 1.8 0 01-1.8 1.8 1.8 1.8 0 01-1.8-1.8 1.8 1.8 0 011.8-1.8 1.8 1.8 0 011.8 1.8" color="#000" opacity="1" overflow="visible" paint-order="markers fill stroke" stop-color="#000" stop-opacity="1" style="font-variation-settings:normal" vector-effect="none"/>
          </g>
          <g id="g14270" display="inline" style="font-variation-settings:normal" transform="translate(73.99 61.03)">
            <path id="path14268" fill="#4d4d4d" fill-opacity="1" stroke="#333" stroke-dasharray="none" stroke-dashoffset="0" stroke-linecap="round" stroke-linejoin="round" stroke-miterlimit="4" stroke-opacity="1" stroke-width="1.04" d="M-5.62 61.53a1.8 1.8 0 01-1.8 1.8 1.8 1.8 0 01-1.8-1.8 1.8 1.8 0 011.8-1.8 1.8 1.8 0 011.8 1.8" color="#000" opacity="1" overflow="visible" paint-order="markers fill stroke" stop-color="#000" stop-opacity="1" style="font-variation-settings:normal" vector-effect="none"/>
          </g>
          <g id="g14274" display="inline" style="font-variation-settings:normal" transform="translate(73.99 46.23)">
            <path id="path14272" fill="#4d4d4d" fill-opacity="1" stroke="#333" stroke-dasharray="none" stroke-dashoffset="0" stroke-linecap="round" stroke-linejoin="round" stroke-miterlimit="4" stroke-opacity="1" stroke-width="1.04" d="M-5.62 61.53a1.8 1.8 0 01-1.8 1.8 1.8 1.8 0 01-1.8-1.8 1.8 1.8 0 011.8-1.8 1.8 1.8 0 011.8 1.8" color="#000" opacity="1" overflow="visible" paint-order="markers fill stroke" stop-color="#000" stop-opacity="1" style="font-variation-settings:normal" vector-effect="none"/>
          </g>
          <g id="g14278" display="inline" style="font-variation-settings:normal" transform="translate(73.99 31.43)">
            <path id="path14276" fill="#4d4d4d" fill-opacity="1" stroke="#333" stroke-dasharray="none" stroke-dashoffset="0" stroke-linecap="round" stroke-linejoin="round" stroke-miterlimit="4" stroke-opacity="1" stroke-width="1.04" d="M-5.62 61.53a1.8 1.8 0 01-1.8 1.8 1.8 1.8 0 01-1.8-1.8 1.8 1.8 0 011.8-1.8 1.8 1.8 0 011.8 1.8" color="#000" opacity="1" overflow="visible" paint-order="markers fill stroke" stop-color="#000" stop-opacity="1" style="font-variation-settings:normal" vector-effect="none"/>
          </g>
          <g id="g14282" display="inline" style="font-variation-settings:normal" transform="translate(73.99 16.62)">
            <path id="path14280" fill="#4d4d4d" fill-opacity="1" stroke="#333" stroke-dasharray="none" stroke-dashoffset="0" stroke-linecap="round" stroke-linejoin="round" stroke-miterlimit="4" stroke-opacity="1" stroke-width="1.04" d="M-5.62 61.53a1.8 1.8 0 01-1.8 1.8 1.8 1.8 0 01-1.8-1.8 1.8 1.8 0 011.8-1.8 1.8 1.8 0 011.8 1.8" color="#000" opacity="1" overflow="visible" paint-order="markers fill stroke" stop-color="#000" stop-opacity="1" style="font-variation-settings:normal" vector-effect="none"/>
          </g>
          <g id="g14286" display="inline" style="font-variation-settings:normal" transform="translate(73.99 1.82)">
            <path id="path14284" fill="#4d4d4d" fill-opacity="1" stroke="#333" stroke-dasharray="none" stroke-dashoffset="0" stroke-linecap="round" stroke-linejoin="round" stroke-miterlimit="4" stroke-opacity="1" stroke-width="1.04" d="M-5.62 61.53a1.8 1.8 0 01-1.8 1.8 1.8 1.8 0 01-1.8-1.8 1.8 1.8 0 011.8-1.8 1.8 1.8 0 011.8 1.8" color="#000" opacity="1" overflow="visible" paint-order="markers fill stroke" stop-color="#000" stop-opacity="1" style="font-variation-settings:normal" vector-effect="none"/>
          </g>
          <g id="g14290" display="inline" style="font-variation-settings:normal" transform="translate(73.99 -12.98)">
            <path id="path14288" fill="#4d4d4d" fill-opacity="1" stroke="#333" stroke-dasharray="none" stroke-dashoffset="0" stroke-linecap="round" stroke-linejoin="round" stroke-miterlimit="4" stroke-opacity="1" stroke-width="1.04" d="M-5.62 61.53a1.8 1.8 0 01-1.8 1.8 1.8 1.8 0 01-1.8-1.8 1.8 1.8 0 011.8-1.8 1.8 1.8 0 011.8 1.8" color="#000" opacity="1" overflow="visible" paint-order="markers fill stroke" stop-color="#000" stop-opacity="1" style="font-variation-settings:normal" vector-effect="none"/>
          </g>
          <g id="g14294" display="inline" style="font-variation-settings:normal" transform="translate(73.99 105.44)">
            <path id="path14292" fill="#4d4d4d" fill-opacity="1" stroke="#333" stroke-dasharray="none" stroke-dashoffset="0" stroke-linecap="round" stroke-linejoin="round" stroke-miterlimit="4" stroke-opacity="1" stroke-width="1.04" d="M-5.62 61.53a1.8 1.8 0 01-1.8 1.8 1.8 1.8 0 01-1.8-1.8 1.8 1.8 0 011.8-1.8 1.8 1.8 0 011.8 1.8" color="#000" opacity="1" overflow="visible" paint-order="markers fill stroke" stop-color="#000" stop-opacity="1" style="font-variation-settings:normal" vector-effect="none"/>
          </g>
          <g id="g14298" display="inline" style="font-variation-settings:normal" transform="translate(73.99 90.63)">
            <path id="path14296" fill="#4d4d4d" fill-opacity="1" stroke="#333" stroke-dasharray="none" stroke-dashoffset="0" stroke-linecap="round" stroke-linejoin="round" stroke-miterlimit="4" stroke-opacity="1" stroke-width="1.04" d="M-5.62 61.53a1.8 1.8 0 01-1.8 1.8 1.8 1.8 0 01-1.8-1.8 1.8 1.8 0 011.8-1.8 1.8 1.8 0 011.8 1.8" color="#000" opacity="1" overflow="visible" paint-order="markers fill stroke" stop-color="#000" stop-opacity="1" style="font-variation-settings:normal" vector-effect="none"/>
          </g>
          <g id="g14302" display="inline" style="font-variation-settings:normal" transform="translate(73.99 75.83)">
            <path id="path14300" fill="#4d4d4d" fill-opacity="1" stroke="#333" stroke-dasharray="none" stroke-dashoffset="0" stroke-linecap="round" stroke-linejoin="round" stroke-miterlimit="4" stroke-opacity="1" stroke-width="1.04" d="M-5.62 61.53a1.8 1.8 0 01-1.8 1.8 1.8 1.8 0 01-1.8-1.8 1.8 1.8 0 011.8-1.8 1.8 1.8 0 011.8 1.8" color="#000" opacity="1" overflow="visible" paint-order="markers fill stroke" stop-color="#000" stop-opacity="1" style="font-variation-settings:normal" vector-effect="none"/>
          </g>
        </g>
      </g>
    </g>
    <g id="g21989" fill="#999" fill-opacity="1" stroke="#333" stroke-dasharray="none" stroke-dashoffset="0" stroke-linecap="round" stroke-linejoin="round" stroke-miterlimit="4" stroke-opacity="1" paint-order="markers fill stroke">
      <rect id="rect14260" width="9.64" height="136.85" x=".52" y="-137.57" stroke-width="1" color="#000" display="inline" overflow="visible" rx="1.64" ry="1.54" stop-color="#000" style="font-variation-settings:normal" transform="rotate(90)" vector-effect="none"/>
      <g id="g14350" stroke-width="1.04" display="inline" style="font-variation-settings:normal" transform="matrix(0 .99957 -.92766 0 162.38 -61.66)">
        <g id="g14348" fill="#4d4d4d" fill-opacity="1" stroke="#333" stroke-dasharray="none" stroke-dashoffset="0" stroke-linecap="round" stroke-linejoin="round" stroke-miterlimit="4" stroke-opacity="1" stroke-width="1.04" paint-order="markers fill stroke">
          <g id="g14310" display="inline" style="font-variation-settings:normal" transform="translate(73.99 -27.78)">
            <path id="path14308" fill="#4d4d4d" fill-opacity="1" stroke="#333" stroke-dasharray="none" stroke-dashoffset="0" stroke-linecap="round" stroke-linejoin="round" stroke-miterlimit="4" stroke-opacity="1" stroke-width="1.04" d="M-5.62 61.53a1.8 1.8 0 01-1.8 1.8 1.8 1.8 0 01-1.8-1.8 1.8 1.8 0 011.8-1.8 1.8 1.8 0 011.8 1.8" color="#000" opacity="1" overflow="visible" paint-order="markers fill stroke" stop-color="#000" stop-opacity="1" style="font-variation-settings:normal" vector-effect="none"/>
          </g>
          <g id="g14314" display="inline" style="font-variation-settings:normal" transform="translate(73.99 61.03)">
            <path id="path14312" fill="#4d4d4d" fill-opacity="1" stroke="#333" stroke-dasharray="none" stroke-dashoffset="0" stroke-linecap="round" stroke-linejoin="round" stroke-miterlimit="4" stroke-opacity="1" stroke-width="1.04" d="M-5.62 61.53a1.8 1.8 0 01-1.8 1.8 1.8 1.8 0 01-1.8-1.8 1.8 1.8 0 011.8-1.8 1.8 1.8 0 011.8 1.8" color="#000" opacity="1" overflow="visible" paint-order="markers fill stroke" stop-color="#000" stop-opacity="1" style="font-variation-settings:normal" vector-effect="none"/>
          </g>
          <g id="g14318" display="inline" style="font-variation-settings:normal" transform="translate(73.99 46.23)">
            <path id="path14316" fill="#4d4d4d" fill-opacity="1" stroke="#333" stroke-dasharray="none" stroke-dashoffset="0" stroke-linecap="round" stroke-linejoin="round" stroke-miterlimit="4" stroke-opacity="1" stroke-width="1.04" d="M-5.62 61.53a1.8 1.8 0 01-1.8 1.8 1.8 1.8 0 01-1.8-1.8 1.8 1.8 0 011.8-1.8 1.8 1.8 0 011.8 1.8" color="#000" opacity="1" overflow="visible" paint-order="markers fill stroke" stop-color="#000" stop-opacity="1" style="font-variation-settings:normal" vector-effect="none"/>
          </g>
          <g id="g14322" display="inline" style="font-variation-settings:normal" transform="translate(73.99 31.43)">
            <path id="path14320" fill="#4d4d4d" fill-opacity="1" stroke="#333" stroke-dasharray="none" stroke-dashoffset="0" stroke-linecap="round" stroke-linejoin="round" stroke-miterlimit="4" stroke-opacity="1" stroke-width="1.04" d="M-5.62 61.53a1.8 1.8 0 01-1.8 1.8 1.8 1.8 0 01-1.8-1.8 1.8 1.8 0 011.8-1.8 1.8 1.8 0 011.8 1.8" color="#000" opacity="1" overflow="visible" paint-order="markers fill stroke" stop-color="#000" stop-opacity="1" style="font-variation-settings:normal" vector-effect="none"/>
          </g>
          <g id="g14326" display="inline" style="font-variation-settings:normal" transform="translate(73.99 16.62)">
            <path id="path14324" fill="#4d4d4d" fill-opacity="1" stroke="#333" stroke-dasharray="none" stroke-dashoffset="0" stroke-linecap="round" stroke-linejoin="round" stroke-miterlimit="4" stroke-opacity="1" stroke-width="1.04" d="M-5.62 61.53a1.8 1.8 0 01-1.8 1.8 1.8 1.8 0 01-1.8-1.8 1.8 1.8 0 011.8-1.8 1.8 1.8 0 011.8 1.8" color="#000" opacity="1" overflow="visible" paint-order="markers fill stroke" stop-color="#000" stop-opacity="1" style="font-variation-settings:normal" vector-effect="none"/>
          </g>
          <g id="g14330" display="inline" style="font-variation-settings:normal" transform="translate(73.99 1.82)">
            <path id="path14328" fill="#4d4d4d" fill-opacity="1" stroke="#333" stroke-dasharray="none" stroke-dashoffset="0" stroke-linecap="round" stroke-linejoin="round" stroke-miterlimit="4" stroke-opacity="1" stroke-width="1.04" d="M-5.62 61.53a1.8 1.8 0 01-1.8 1.8 1.8 1.8 0 01-1.8-1.8 1.8 1.8 0 011.8-1.8 1.8 1.8 0 011.8 1.8" color="#000" opacity="1" overflow="visible" paint-order="markers fill stroke" stop-color="#000" stop-opacity="1" style="font-variation-settings:normal" vector-effect="none"/>
          </g>
          <g id="g14334" display="inline" style="font-variation-settings:normal" transform="translate(73.99 -12.98)">
            <path id="path14332" fill="#4d4d4d" fill-opacity="1" stroke="#333" stroke-dasharray="none" stroke-dashoffset="0" stroke-linecap="round" stroke-linejoin="round" stroke-miterlimit="4" stroke-opacity="1" stroke-width="1.04" d="M-5.62 61.53a1.8 1.8 0 01-1.8 1.8 1.8 1.8 0 01-1.8-1.8 1.8 1.8 0 011.8-1.8 1.8 1.8 0 011.8 1.8" color="#000" opacity="1" overflow="visible" paint-order="markers fill stroke" stop-color="#000" stop-opacity="1" style="font-variation-settings:normal" vector-effect="none"/>
          </g>
          <g id="g14338" display="inline" style="font-variation-settings:normal" transform="translate(73.99 105.44)">
            <path id="path14336" fill="#4d4d4d" fill-opacity="1" stroke="#333" stroke-dasharray="none" stroke-dashoffset="0" stroke-linecap="round" stroke-linejoin="round" stroke-miterlimit="4" stroke-opacity="1" stroke-width="1.04" d="M-5.62 61.53a1.8 1.8 0 01-1.8 1.8 1.8 1.8 0 01-1.8-1.8 1.8 1.8 0 011.8-1.8 1.8 1.8 0 011.8 1.8" color="#000" opacity="1" overflow="visible" paint-order="markers fill stroke" stop-color="#000" stop-opacity="1" style="font-variation-settings:normal" vector-effect="none"/>
          </g>
          <g id="g14342" display="inline" style="font-variation-settings:normal" transform="translate(73.99 90.63)">
            <path id="path14340" fill="#4d4d4d" fill-opacity="1" stroke="#333" stroke-dasharray="none" stroke-dashoffset="0" stroke-linecap="round" stroke-linejoin="round" stroke-miterlimit="4" stroke-opacity="1" stroke-width="1.04" d="M-5.62 61.53a1.8 1.8 0 01-1.8 1.8 1.8 1.8 0 01-1.8-1.8 1.8 1.8 0 011.8-1.8 1.8 1.8 0 011.8 1.8" color="#000" opacity="1" overflow="visible" paint-order="markers fill stroke" stop-color="#000" stop-opacity="1" style="font-variation-settings:normal" vector-effect="none"/>
          </g>
          <g id="g14346" display="inline" style="font-variation-settings:normal" transform="translate(73.99 75.83)">
            <path id="path14344" fill="#4d4d4d" fill-opacity="1" stroke="#333" stroke-dasharray="none" stroke-dashoffset="0" stroke-linecap="round" stroke-linejoin="round" stroke-miterlimit="4" stroke-opacity="1" stroke-width="1.04" d="M-5.62 61.53a1.8 1.8 0 01-1.8 1.8 1.8 1.8 0 01-1.8-1.8 1.8 1.8 0 011.8-1.8 1.8 1.8 0 011.8 1.8" color="#000" opacity="1" overflow="visible" paint-order="markers fill stroke" stop-color="#000" stop-opacity="1" style="font-variation-settings:normal" vector-effect="none"/>
          </g>
        </g>
      </g>
    </g>
    <rect id="rect20997" width="83.83" height="18.85" x="27.74" y="-31.65" fill="#fff" fill-opacity=".85" stroke="none" stroke-dasharray="none" stroke-linecap="round" stroke-linejoin="round" stroke-miterlimit="4" stroke-opacity="1" stroke-width="1.06" color="#000" display="inline" overflow="visible" paint-order="markers fill stroke" rx="2.46" ry="2.46" stop-color="#000" transform="scale(1 -1)"/>
    <g id="printTemplateButton" stroke-dasharray="none" stroke-miterlimit="4" stroke-opacity="1" stroke-width="1.06" color="#000" paint-order="markers fill stroke">
      <g id="abortButton">
        <rect id="rect12494" width="83.83" height="18.85" x="27.74" y="-31.65" fill="#fff" fill-opacity=".85" stroke="none" stroke-linecap="round" stroke-linejoin="round" display="inline" overflow="visible" rx="2.46" ry="2.46" stop-color="#000" transform="scale(1 -1)"/>
        <rect id="rect12498" width="76.27" height="11.22" x="31.55" y="16.63" fill="#d35f5f" fill-opacity="1" stroke="maroon" stroke-dashoffset="0" stroke-linecap="butt" stroke-linejoin="miter" display="inline" overflow="visible" rx="1.6" ry="1.74" stop-color="#000" vector-effect="none"/>
        <text id="text12502" x="68.94" y="24.64" fill="#fff" fill-opacity="1" stroke="none" stroke-dashoffset="0" stroke-linecap="butt" stroke-linejoin="miter" display="inline" font-family="Courier" font-size="7.88" font-stretch="normal" font-style="normal" font-variant="normal" font-weight="700" overflow="visible" stop-color="#000" style="line-height:125%;-inkscape-font-specification:'Courier, Bold';font-variant-ligatures:normal;font-variant-caps:normal;font-variant-numeric:normal;font-variant-east-asian:normal;text-align:center" text-anchor="middle" transform="scale(1.01032 .98979)" vector-effect="none" writing-mode="lr-tb" xml:space="preserve">
          <tspan id="tspan12500" x="68.94" y="24.64" fill="#fff" stroke="none" stroke-width="1.06" font-family="Courier" font-size="7.88" font-stretch="normal" font-style="normal" font-variant="normal" font-weight="700" style="-inkscape-font-specification:'Courier, Bold';font-variant-ligatures:normal;font-variant-caps:normal;font-variant-numeric:normal;font-variant-east-asian:normal">ABORT</tspan>
        </text>
      </g>
      <rect id="rect20999" width="76.27" height="11.22" x="31.55" y="16.63" fill="#217821" fill-opacity="1" stroke="#165016" stroke-dashoffset="0" stroke-linecap="butt" stroke-linejoin="miter" display="inline" overflow="visible" rx="1.6" ry="1.74" stop-color="#000" vector-effect="none"/>
      <text id="text21003" x="68.94" y="24.64" fill="#fff" fill-opacity="1" stroke="none" stroke-dashoffset="0" stroke-linecap="butt" stroke-linejoin="miter" display="inline" font-family="Courier" font-size="7.88" font-stretch="normal" font-style="normal" font-variant="normal" font-weight="700" overflow="visible" stop-color="#000" style="line-height:125%;-inkscape-font-specification:'Courier, Bold';font-variant-ligatures:normal;font-variant-caps:normal;font-variant-numeric:normal;font-variant-east-asian:normal;text-align:center" text-anchor="middle" transform="scale(1.01032 .98979)" vector-effect="none" writing-mode="lr-tb" xml:space="preserve">
        <tspan id="tspan21001" x="68.94" y="24.64" fill="#fff" stroke="none" stroke-width="1.06" font-family="Courier" font-size="7.88" font-stretch="normal" font-style="normal" font-variant="normal" font-weight="700" style="-inkscape-font-specification:'Courier, Bold';font-variant-ligatures:normal;font-variant-caps:normal;font-variant-numeric:normal;font-variant-east-asian:normal">PRINT TEMPLATE</tspan>
      </text>
    </g>
    <g id="snapButton">
      <rect id="rect20975" width="47.79" height="18.41" x="6.82" y="119.89" fill="#f4eed7" fill-opacity=".85" stroke="#d0c598" stroke-dasharray="none" stroke-linecap="round" stroke-linejoin="round" stroke-miterlimit="4" stroke-opacity="1" stroke-width="1.06" color="#000" display="inline" overflow="visible" paint-order="markers fill stroke" rx="2.46" ry="2.46" stop-color="#000"/>
      <rect id="rect20981" width="37.4" height="11.22" x="12.14" y="123.95" fill="#ff7f2a" fill-opacity="1" stroke="#a40" stroke-dasharray="none" stroke-dashoffset="0" stroke-linecap="butt" stroke-linejoin="miter" stroke-miterlimit="4" stroke-opacity="1" stroke-width="1.06" color="#000" overflow="visible" paint-order="markers fill stroke" rx="2.54" ry="2.54" stop-color="#000" vector-effect="none"/>
      <text id="text20985" x="34.99" y="133.07" fill="#fff" fill-opacity="1" stroke="none" stroke-dasharray="none" stroke-dashoffset="0" stroke-linecap="butt" stroke-linejoin="miter" stroke-miterlimit="4" stroke-opacity="1" stroke-width="1.06" color="#000" font-family="Courier" font-size="7.88" font-stretch="normal" font-style="normal" font-variant="normal" font-weight="700" overflow="visible" paint-order="markers fill stroke" stop-color="#000" style="line-height:125%;-inkscape-font-specification:'Courier, Bold';font-variant-ligatures:normal;font-variant-caps:normal;font-variant-numeric:normal;font-variant-east-asian:normal;text-align:center" text-anchor="middle" transform="scale(1.01032 .98979)" vector-effect="none" writing-mode="lr-tb" xml:space="preserve">
        <tspan id="tspan20983" x="34.99" y="133.07" fill="#fff" stroke="none" stroke-width="1.06" font-family="Courier" font-size="7.88" font-stretch="normal" font-style="normal" font-variant="normal" font-weight="700" style="-inkscape-font-specification:'Courier, Bold';font-variant-ligatures:normal;font-variant-caps:normal;font-variant-numeric:normal;font-variant-east-asian:normal">SNAP</tspan>
      </text>
      <g id="g20991" fill="#fff" stroke="none" stroke-width="0" transform="matrix(.34948 0 0 .3494 14.97 125.41)">
        <circle id="circle20987" cx="12" cy="12" r="3.2"/>
        <path id="path20989" d="M9 2L7.17 4H4a2 2 0 00-2 2v12c0 1.1.9 2 2 2h16a2 2 0 002-2V6a2 2 0 00-2-2h-3.17L15 2zm3 15a5 5 0 110-10 5 5 0 010 10z"/>
      </g>
    </g>
    <g id="generateGameButton" stroke-dasharray="none" stroke-miterlimit="4" stroke-opacity="1" stroke-width="1.06" color="#000" paint-order="markers fill stroke">
      <rect id="rect12444" width="85.74" height="18.41" x="26.3" y="120" fill="#f4eed7" fill-opacity=".85" stroke="#d0c598" stroke-linecap="round" stroke-linejoin="round" display="inline" overflow="visible" rx="2.46" ry="2.46" stop-color="#000"/>
      <rect id="rect18149" width="76.27" height="11.22" x="31.01" y="123.54" fill="#5aa02c" fill-opacity="1" stroke="#2d5016" stroke-dashoffset="0" stroke-linecap="butt" stroke-linejoin="miter" display="inline" overflow="visible" rx="1.6" ry="1.74" stop-color="#000" vector-effect="none"/>
      <text id="text18153" x="68.41" y="132.66" fill="#fff" fill-opacity="1" stroke="none" stroke-dashoffset="0" stroke-linecap="butt" stroke-linejoin="miter" display="inline" font-family="Courier" font-size="7.88" font-stretch="normal" font-style="normal" font-variant="normal" font-weight="700" overflow="visible" stop-color="#000" style="line-height:125%;-inkscape-font-specification:'Courier, Bold';font-variant-ligatures:normal;font-variant-caps:normal;font-variant-numeric:normal;font-variant-east-asian:normal;text-align:center" text-anchor="middle" transform="scale(1.01032 .98979)" vector-effect="none" writing-mode="lr-tb" xml:space="preserve">
        <tspan id="tspan18151" x="68.41" y="132.66" fill="#fff" stroke="none" stroke-width="1.06" font-family="Courier" font-size="7.88" font-stretch="normal" font-style="normal" font-variant="normal" font-weight="700" style="-inkscape-font-specification:'Courier, Bold';font-variant-ligatures:normal;font-variant-caps:normal;font-variant-numeric:normal;font-variant-east-asian:normal">GENERATE GAME</tspan>
      </text>
    </g>
    <g id="awaitingInputScreen" stroke-dasharray="none" stroke-miterlimit="4">
      <rect id="rect19221" width="127.87" height="73.51" x="4.92" y="38.41" fill="#1a1a1a" fill-opacity=".85" stroke="#1e1e1e" stroke-linecap="round" stroke-linejoin="round" stroke-opacity="1" stroke-width="1.06" color="#000" display="inline" overflow="visible" paint-order="markers fill stroke" rx="7.8" ry="6.73" stop-color="#000"/>
      <text id="text19227" x="127.68" y="48.99" fill="#fff" fill-opacity=".69" stroke="none" stroke-linecap="round" stroke-linejoin="round" stroke-opacity=".18" stroke-width=".68" color="#000" display="inline" font-family="VT323" font-size="9.55" font-stretch="normal" font-style="normal" font-variant="normal" font-weight="400" overflow="visible" paint-order="markers fill stroke" stop-color="#000" style="line-height:71.5%;-inkscape-font-specification:'VT323, Normal';font-variant-ligatures:normal;font-variant-caps:normal;font-variant-numeric:normal;font-variant-east-asian:normal;text-align:end;white-space:pre;inline-size:127.793" text-anchor="end" transform="matrix(1.47769 0 0 1.47737 -23.77 17.29)" writing-mode="lr-tb" xml:space="preserve">
        <tspan x="127.68" y="48.99"><tspan fill-opacity="1" style="-inkscape-font-specification:'VT323, Normal';font-variant-ligatures:normal;font-variant-caps:normal;font-variant-numeric:normal;font-variant-east-asian:normal;text-align:center" text-anchor="middle">AWAITING INPUT</tspan></tspan>
      </text>
      <g id="g20955" fill="#fff" stroke="#fff" stroke-linecap="square" stroke-width=".29" display="inline" transform="matrix(.4553 0 0 .45521 20.44 .46)">
        <g id="pixelatedIcon">
          <path id="rect19229" fill="#fff" stroke="#fff" stroke-dasharray="none" stroke-linecap="square" stroke-linejoin="round" stroke-miterlimit="4" stroke-width=".5" d="M255.98 195.2v2.28h-4.56v2.28h-2.27v2.28h-6.83v2.27h-2.28v2.28h4.56v-2.28h6.82v2.28h6.83v-2.28h-4.55v-4.55H265.08v-2.28h-2.27v-2.27h-6.83zm9.1 4.56v4.55h2.28v2.28h4.55v-2.28h-2.27v-2.27h-2.28v-2.28h-2.28zm-27.31 6.83V217.97h1.13v4.55h2.28v2.28h2.28v2.27h2.27v2.28h2.28v2.28h4.55v2.27h4.56v2.28H245.73v2.27h4.56v2.28h2.27v2.28H238.9v2.27h-2.27v2.28h4.55v2.27h-4.55v2.28h-2.28v2.28h-2.28v2.27h-2.27v2.28h9.1v2.27h-2.27v2.28h-2.28v2.28h-2.28v2.27h4.56v2.28h2.27v2.27h-2.27v2.28h-2.28v2.28h4.55v2.27h4.56v2.28h-9.11v-2.28h-4.55v-2.27h-2.28V252.1h2.28v-6.83h2.27v-4.55h2.28v-9.11h2.28v-18.2h-2.28v-2.28h-2.28v-2.27h-9.1v2.27h-2.28v9.11h-2.28V231.63h-2.27v34.14h2.27v6.83h2.28v2.27h2.28v4.55h4.55-2.28v2.28h2.28v2.27h2.28v2.28h4.55v2.28h6.83v-2.28h4.55v-2.28h9.11v4.56h6.83v-6.83h0v-2.28h0v-2.27h4.55v-2.28h4.56v-2.28h4.55v-2.27h4.55v-2.28h2.28v-2.27h2.27v-2.28h2.28v2.28H289v4.55h6.83v-6.83h-2.28v-4.55h2.28v-2.28h6.83v-2.27h4.55v-2.28h2.28v-6.83h-2.28v-2.27h-4.55v-2.28h-2.28v-2.28h-2.28v-2.27h-2.27v-6.83h-2.28V217.97h-2.28v2.28H289v4.55h-2.28v2.27h-2.28v-4.55h-2.27v-2.27h-2.28v2.27h-1.14v-4.55h-2.27v-4.55h-2.28v-4.55h-2.28v-2.28h-2.27v4.55h2.27v4.55h2.28v4.56h2.28v2.27h1.14v6.83h-1.14v-4.55h-2.28v-2.28h-2.28v-3.41h-2.27v-2.28h-2.28v4.55h2.28v2.28h2.27v3.41h2.28v4.56h2.28v2.27h1.14V245.28h-4.56v-2.27h-2.27v-2.28h-2.28v-2.28h-2.28v-2.27h-2.27v-2.28h-4.56v-2.28h-4.55v-2.27h-4.55v-2.28H248v-2.27h-2.28v-2.28h-2.27v-2.27h-2.28v-2.28h-1.14v-9.1h2.28v-2.28h-4.55zm29.59 10.24v-4.55h-2.28V210h-2.27v-1.13h-2.28v-2.28h-4.55v2.28h2.27v2.27h2.28v2.28h2.28v1.13h2.27v2.28h2.28zm-37.56-3.41h2.27-2.27 0zm56.91 25.03h9.11v2.28h2.27v6.83h-2.27v2.27h-9.11v-2.27h-2.28v-6.83h2.28v-2.28zm2.28 3.42v4.55h4.55v-4.55H289zm-27.32 26.17h0v6.83h0v-6.83z" color="#000" overflow="visible" paint-order="markers fill stroke" stop-color="#000" transform="matrix(.5811 0 0 .58123 -44.9 -1.01)"/>
        </g>
      </g>
    </g>
    <path id="rect12480" fill="#ccc" fill-opacity="1" stroke="#333" stroke-dasharray="none" stroke-dashoffset="0" stroke-linecap="round" stroke-linejoin="round" stroke-miterlimit="4" stroke-opacity="1" stroke-width="1" d="M2.02 34.11c-.84 0-1.52.74-1.52 1.66v78.63c0 .92.68 1.65 1.52 1.65h134.22c.84 0 1.52-.73 1.52-1.65V35.77c0-.92-.68-1.66-1.52-1.66zm10.56 4.23h112.7c4.32 0 7.8 3 7.8 6.74v59.77c0 3.73-3.48 6.74-7.8 6.74H12.58c-4.32 0-7.8-3-7.8-6.74V45.08c0-3.73 3.48-6.74 7.8-6.74z" color="#000" display="inline" overflow="visible" paint-order="markers fill stroke" stop-color="#000" style="font-variation-settings:normal" vector-effect="none"/>
    <g id="g22938">
      <g id="launchGameButton" stroke-dasharray="none" stroke-miterlimit="4" stroke-opacity="1" stroke-width="1.06" color="#000" paint-order="markers fill stroke">
        <rect id="rect22930" width="85.74" height="18.41" x="26.3" y="120" fill="#f4eed7" fill-opacity=".85" stroke="#d0c598" stroke-linecap="round" stroke-linejoin="round" display="inline" overflow="visible" rx="2.46" ry="2.46" stop-color="#000"/>
        <rect id="rect22932" width="76.27" height="11.22" x="31.01" y="123.54" fill="#5aa02c" fill-opacity="1" stroke="#2d5016" stroke-dashoffset="0" stroke-linecap="butt" stroke-linejoin="miter" display="inline" overflow="visible" rx="1.6" ry="1.74" stop-color="#000" vector-effect="none"/>
        <text id="text22936" x="68.41" y="132.66" fill="#fff" fill-opacity="1" stroke="none" stroke-dashoffset="0" stroke-linecap="butt" stroke-linejoin="miter" display="inline" font-family="Courier" font-size="7.88" font-stretch="normal" font-style="normal" font-variant="normal" font-weight="700" overflow="visible" stop-color="#000" style="line-height:125%;-inkscape-font-specification:'Courier, Bold';font-variant-ligatures:normal;font-variant-caps:normal;font-variant-numeric:normal;font-variant-east-asian:normal;text-align:center" text-anchor="middle" transform="scale(1.01032 .98979)" vector-effect="none" writing-mode="lr-tb" xml:space="preserve">
          <tspan id="tspan22934" x="68.41" y="132.66" fill="#fff" stroke="none" stroke-width="1.06" font-family="Courier" font-size="7.88" font-stretch="normal" font-style="normal" font-variant="normal" font-weight="700" style="-inkscape-font-specification:'Courier, Bold';font-variant-ligatures:normal;font-variant-caps:normal;font-variant-numeric:normal;font-variant-east-asian:normal">LAUNCH GAME</tspan>
        </text>
      </g>
    </g>
  </g>
</svg>
