<svg xmlns="http://www.w3.org/2000/svg" id="svg23968" version="1.1" viewBox="0 0 78.04 7.9">
  <g id="layer1" transform="translate(-17.67 -22.51)">
    <g id="awaitingInputText" fill="#fff" fill-opacity="1" stroke="none" stroke-dasharray="none" stroke-linecap="round" stroke-linejoin="round" stroke-miterlimit="4" stroke-opacity=".18" stroke-width=".68" color="#000" display="inline" font-family="VT323" font-size="9.55" font-stretch="normal" font-style="normal" font-variant="normal" font-weight="400" paint-order="markers fill stroke" style="line-height:71.5%;-inkscape-font-specification:'VT323, Normal';font-variant-ligatures:normal;font-variant-caps:normal;font-variant-numeric:normal;font-variant-east-asian:normal;text-align:end;white-space:pre;inline-size:127.793" text-anchor="middle" transform="matrix(1.47769 0 0 1.47737 -37.55 -41.98)" writing-mode="lr-tb">
      <path id="path23876" d="M40.5 47.85q0 .22-.04.38.04.15.04.38 0 .22-.04.38h-.76q-.04-.16-.04-.38 0-.23.04-.38-.04-.16-.04-.38 0-.23.04-.38h-1.53q.04.15.04.38 0 .22-.04.38.04.15.04.38 0 .22-.04.38h-.76q-.04-.16-.04-.38 0-.23.04-.38-.04-.16-.04-.38 0-.23.04-.38h.29q-.04-.17-.04-.39t.04-.38q-.04-.16-.04-.38 0-.23.04-.38h.19q-.04-.16-.04-.38 0-.23.04-.38h.28q-.03-.17-.03-.39 0-.23.03-.38h.2q-.04-.16-.04-.38 0-.23.03-.38h1.15q.04.15.04.38 0 .22-.04.38h.2q.03.15.03.38 0 .22-.04.39H40q.04.15.04.38 0 .22-.04.38h.19q.04.15.04.38 0 .22-.04.38.04.16.04.38t-.04.39h.28q.04.15.04.38zm-1.09-1.15q-.03-.16-.03-.38 0-.23.03-.38h-.19q-.03-.16-.03-.38 0-.23.03-.38h-.57q.04.15.04.38 0 .22-.04.38h-.19q.04.15.04.38 0 .22-.04.38z" style="-inkscape-font-specification:'VT323, Normal';font-variant-ligatures:normal;font-variant-caps:normal;font-variant-numeric:normal;font-variant-east-asian:normal;text-align:center"/>
      <path id="path23878" d="M44.29 44.41c.02.1.03.23.03.38s0 .28-.03.39c.02.1.03.22.03.38 0 .14-.03.27-.03.38 0 .1.03.23.03.38s0 .27-.03.38H44c.03.1.04.23.04.38s-.01.28-.04.39c.03.1.04.23.04.38 0 .14-.01.27-.04.38h-.2a1.68 1.68 0 010 .76h-.56c-.03-.1-.04-.23-.04-.38s.01-.28.04-.38h-.2c-.02-.1-.03-.24-.03-.38 0-.15.01-.28.04-.38h-.58c.03.1.04.23.04.38 0 .14-.01.27-.04.38h-.19c.03.1.04.23.04.38s-.01.28-.04.38h-.57c-.03-.1-.04-.23-.04-.38s.01-.28.04-.38h-.2c-.02-.1-.03-.24-.03-.38 0-.15.01-.28.04-.38-.03-.11-.04-.24-.04-.39 0-.15.01-.28.04-.38h-.29c-.02-.1-.04-.23-.04-.38s.02-.28.04-.38c-.02-.1-.04-.24-.04-.38 0-.16.02-.28.04-.38-.02-.11-.04-.24-.04-.39 0-.15.02-.28.04-.38-.02-.1-.04-.23-.04-.38s.02-.28.04-.38H42c.02.1.03.23.03.38s0 .27-.03.38c.02.1.03.23.03.38s0 .28-.03.39c.02.1.03.22.03.38 0 .14 0 .27-.03.38.02.1.03.23.03.38s0 .27-.03.38c.02.1.03.23.03.38s0 .28-.03.39h.28c-.02-.11-.04-.24-.04-.39 0-.15.02-.28.04-.38h.2a1.6 1.6 0 010-.76 1.6 1.6 0 010-.76 1.6 1.6 0 010-.76 1.6 1.6 0 010-.76h.57c.02.09.03.22.03.37s0 .27-.03.38c.02.1.03.23.03.38s0 .28-.03.39c.02.1.03.22.03.38 0 .14 0 .27-.03.38.02.1.03.23.03.38s0 .27-.03.38h.19c.02.1.03.23.03.38s0 .28-.03.39h.28c-.02-.11-.04-.24-.04-.39 0-.15.02-.28.04-.38-.02-.1-.04-.23-.04-.38s.02-.28.04-.38c-.02-.1-.04-.24-.04-.38 0-.16.02-.28.04-.38-.02-.11-.04-.24-.04-.39 0-.15.02-.28.04-.38-.02-.1-.04-.23-.04-.38s.02-.28.04-.38h.77c.02.1.03.23.03.38s0 .27-.03.38z" style="-inkscape-font-specification:'VT323, Normal';font-variant-ligatures:normal;font-variant-caps:normal;font-variant-numeric:normal;font-variant-east-asian:normal;text-align:center"/>
      <path id="path23880" d="M48.15 47.85q0 .22-.04.38.04.15.04.38 0 .22-.04.38h-.77q-.03-.16-.03-.38 0-.23.03-.38-.03-.16-.03-.38 0-.23.03-.38h-1.52q.04.15.04.38 0 .22-.04.38.04.15.04.38 0 .22-.04.38h-.77q-.03-.16-.03-.38 0-.23.03-.38-.03-.16-.03-.38 0-.23.03-.38h.29q-.04-.17-.04-.39t.04-.38q-.04-.16-.04-.38 0-.23.04-.38h.2q-.05-.16-.05-.38 0-.23.04-.38h.29q-.04-.17-.04-.39 0-.23.04-.38H46q-.04-.16-.04-.38 0-.23.04-.38h1.14q.04.15.04.38 0 .22-.04.38h.2q.03.15.03.38 0 .22-.04.39h.3q.03.15.03.38 0 .22-.04.38h.2q.03.15.03.38 0 .22-.04.38.04.16.04.38t-.04.39h.29q.04.15.04.38zm-1.1-1.15q-.03-.16-.03-.38 0-.23.04-.38h-.2q-.03-.16-.03-.38 0-.23.04-.38h-.58q.04.15.04.38 0 .22-.04.38h-.19q.04.15.04.38 0 .22-.04.38z" style="-inkscape-font-specification:'VT323, Normal';font-variant-ligatures:normal;font-variant-caps:normal;font-variant-numeric:normal;font-variant-east-asian:normal;text-align:center"/>
      <path id="path23882" d="M51.36 48.23q.04.15.04.38 0 .22-.04.38h-1.91q-.04-.16-.04-.38 0-.23.04-.38h.57q-.04-.16-.04-.38 0-.23.04-.38-.04-.17-.04-.39t.04-.38q-.04-.16-.04-.38 0-.23.04-.38-.04-.16-.04-.38 0-.23.04-.38-.04-.17-.04-.39 0-.23.04-.38h-.57q-.04-.16-.04-.38 0-.23.04-.38h1.9q.05.15.05.38 0 .22-.04.38h-.58q.04.15.04.38 0 .22-.04.39.04.15.04.38 0 .22-.04.38.04.15.04.38 0 .22-.04.38.04.16.04.38t-.04.39q.04.15.04.38 0 .22-.04.38z" style="-inkscape-font-specification:'VT323, Normal';font-variant-ligatures:normal;font-variant-caps:normal;font-variant-numeric:normal;font-variant-east-asian:normal;text-align:center"/>
      <path id="path23884" d="M55.79 44.03q0 .22-.04.38h-1.14q.03.15.03.38 0 .22-.03.39.03.15.03.38 0 .22-.03.38.03.15.03.38 0 .22-.03.38.03.16.03.38t-.03.39q.03.15.03.38 0 .22-.03.38.03.15.03.38 0 .22-.03.38h-.77q-.04-.16-.04-.38 0-.23.04-.38-.04-.16-.04-.38 0-.23.04-.38-.04-.17-.04-.39t.04-.38q-.04-.16-.04-.38 0-.23.04-.38-.04-.16-.04-.38 0-.23.04-.38-.04-.17-.04-.39 0-.23.04-.38H52.7q-.04-.16-.04-.38 0-.23.04-.38h3.05q.04.15.04.38z" style="-inkscape-font-specification:'VT323, Normal';font-variant-ligatures:normal;font-variant-caps:normal;font-variant-numeric:normal;font-variant-east-asian:normal;text-align:center"/>
      <path id="path23886" d="M59 48.23q.04.15.04.38 0 .22-.04.38h-1.9q-.05-.16-.05-.38 0-.23.04-.38h.57q-.03-.16-.03-.38 0-.23.03-.38-.03-.17-.03-.39t.03-.38q-.03-.16-.03-.38 0-.23.03-.38-.03-.16-.03-.38 0-.23.03-.38-.03-.17-.03-.39 0-.23.03-.38h-.57q-.04-.16-.04-.38 0-.23.04-.38H59q.04.15.04.38 0 .22-.04.38h-.57q.04.15.04.38 0 .22-.04.39.04.15.04.38 0 .22-.04.38.04.15.04.38 0 .22-.04.38.04.16.04.38t-.04.39q.04.15.04.38 0 .22-.04.38z" style="-inkscape-font-specification:'VT323, Normal';font-variant-ligatures:normal;font-variant-caps:normal;font-variant-numeric:normal;font-variant-east-asian:normal;text-align:center"/>
      <path id="path23888" d="M63.4 44.41q.03.15.03.38 0 .22-.03.39.03.15.03.38 0 .22-.03.38.03.15.03.38 0 .22-.03.38.03.16.03.38t-.03.39q.03.15.03.38 0 .22-.03.38.03.15.03.38 0 .22-.03.38h-.77q-.04-.16-.04-.38 0-.23.04-.38h-.48q-.03-.16-.03-.38 0-.23.03-.38h-.28q-.04-.17-.04-.39t.04-.38h-.38q-.04-.16-.04-.38 0-.23.04-.38h-.39q.04.15.04.38 0 .22-.04.38.04.16.04.38t-.04.39q.04.15.04.38 0 .22-.04.38.04.15.04.38 0 .22-.04.38h-.76q-.04-.16-.04-.38 0-.23.04-.38-.04-.16-.04-.38 0-.23.04-.38-.04-.17-.04-.39t.04-.38q-.04-.16-.04-.38 0-.23.04-.38-.04-.16-.04-.38 0-.23.04-.38-.04-.17-.04-.39 0-.23.04-.38-.04-.16-.04-.38 0-.23.04-.38h.96q.03.15.03.38 0 .22-.03.38h.28q.04.15.04.38 0 .22-.04.39h.29q.04.15.04.38 0 .22-.04.38h.38q.04.15.04.38 0 .22-.04.38h.38q-.04-.16-.04-.38 0-.23.04-.38-.04-.16-.04-.38 0-.23.04-.38-.04-.17-.04-.39 0-.23.04-.38-.04-.16-.04-.38 0-.23.04-.38h.77q.03.15.03.38 0 .22-.03.38z" style="-inkscape-font-specification:'VT323, Normal';font-variant-ligatures:normal;font-variant-caps:normal;font-variant-numeric:normal;font-variant-east-asian:normal;text-align:center"/>
      <path id="path23890" d="M67.22 45.94q.04.15.04.38 0 .22-.04.38.04.16.04.38t-.04.39q.04.15.04.38 0 .22-.04.38h-.38q.03.15.03.38 0 .22-.03.38h-1.91q-.04-.16-.04-.38 0-.23.04-.38h-.39q-.03-.16-.03-.38 0-.23.03-.38h-.38q-.04-.17-.04-.39t.04-.38q-.04-.16-.04-.38 0-.23.04-.38-.04-.16-.04-.38 0-.23.04-.38h.38q-.03-.17-.03-.39 0-.23.03-.38h.39q-.04-.16-.04-.38 0-.23.04-.38h1.9q.04.15.04.38 0 .22-.03.38h.38q.04.15.04.38 0 .22-.04.39h-.77q-.03-.17-.03-.39 0-.23.03-.38h-1.14q.04.15.04.38 0 .22-.04.39h-.38q.03.15.03.38 0 .22-.03.38.03.15.03.38 0 .22-.03.38.03.16.03.38t-.03.39h.38q.04.15.04.38 0 .22-.04.38h1.14q-.03-.16-.03-.38 0-.23.03-.38-.03-.17-.03-.39t.03-.38h-.57q-.04-.16-.04-.38 0-.23.04-.38z" style="-inkscape-font-specification:'VT323, Normal';font-variant-ligatures:normal;font-variant-caps:normal;font-variant-numeric:normal;font-variant-east-asian:normal;text-align:center"/>
      <path id="path23892" d="M74.29 48.23q.04.15.04.38 0 .22-.04.38h-1.91q-.04-.16-.04-.38 0-.23.04-.38h.57q-.04-.16-.04-.38 0-.23.04-.38-.04-.17-.04-.39t.04-.38q-.04-.16-.04-.38 0-.23.04-.38-.04-.16-.04-.38 0-.23.04-.38-.04-.17-.04-.39 0-.23.04-.38h-.57q-.04-.16-.04-.38 0-.23.04-.38h1.9q.05.15.05.38 0 .22-.04.38h-.57q.03.15.03.38 0 .22-.03.39.03.15.03.38 0 .22-.03.38.03.15.03.38 0 .22-.03.38.03.16.03.38t-.03.39q.03.15.03.38 0 .22-.03.38z" style="-inkscape-font-specification:'VT323, Normal';font-variant-ligatures:normal;font-variant-caps:normal;font-variant-numeric:normal;font-variant-east-asian:normal;text-align:center"/>
      <path id="path23894" d="M78.68 44.41q.04.15.04.38 0 .22-.04.39.04.15.04.38 0 .22-.04.38.04.15.04.38 0 .22-.04.38.04.16.04.38t-.04.39q.04.15.04.38 0 .22-.04.38.04.15.04.38 0 .22-.04.38h-.76q-.04-.16-.04-.38 0-.23.04-.38h-.48q-.04-.16-.04-.38 0-.23.04-.38h-.28q-.04-.17-.04-.39t.04-.38h-.39q-.03-.16-.03-.38 0-.23.03-.38h-.38q.04.15.04.38 0 .22-.04.38.04.16.04.38t-.04.39q.04.15.04.38 0 .22-.04.38.04.15.04.38 0 .22-.04.38h-.76q-.04-.16-.04-.38 0-.23.04-.38-.04-.16-.04-.38 0-.23.04-.38-.04-.17-.04-.39t.04-.38q-.04-.16-.04-.38 0-.23.04-.38-.04-.16-.04-.38 0-.23.04-.38-.04-.17-.04-.39 0-.23.04-.38-.04-.16-.04-.38 0-.23.04-.38h.95q.04.15.04.38 0 .22-.04.38h.29q.04.15.04.38 0 .22-.04.39h.29q.03.15.03.38 0 .22-.03.38h.38q.04.15.04.38 0 .22-.04.38h.38q-.04-.16-.04-.38 0-.23.04-.38-.04-.16-.04-.38 0-.23.04-.38-.04-.17-.04-.39 0-.23.04-.38-.04-.16-.04-.38 0-.23.04-.38h.76q.04.15.04.38 0 .22-.04.38z" style="-inkscape-font-specification:'VT323, Normal';font-variant-ligatures:normal;font-variant-caps:normal;font-variant-numeric:normal;font-variant-east-asian:normal;text-align:center"/>
      <path id="path23896" d="M82.54 44.8q0 .21-.03.38.03.15.03.38 0 .22-.03.38h-.39q.04.15.04.38 0 .22-.04.38h-1.9q.03.16.03.38t-.04.39q.04.15.04.38 0 .22-.04.38.04.15.04.38 0 .22-.04.38h-.76q-.04-.16-.04-.38 0-.23.04-.38-.04-.16-.04-.38 0-.23.04-.38-.04-.17-.04-.39t.04-.38q-.04-.16-.04-.38 0-.23.04-.38-.04-.16-.04-.38 0-.23.04-.38-.04-.17-.04-.39 0-.23.04-.38-.04-.16-.04-.38 0-.23.04-.38h2.67q.04.15.04.38 0 .22-.04.38h.39q.03.15.03.38zm-.8 1.14q-.04-.16-.04-.38 0-.23.04-.38-.04-.17-.04-.39 0-.23.04-.38h-1.53q.04.15.04.38 0 .22-.04.39.04.15.04.38 0 .22-.04.38z" style="-inkscape-font-specification:'VT323, Normal';font-variant-ligatures:normal;font-variant-caps:normal;font-variant-numeric:normal;font-variant-east-asian:normal;text-align:center"/>
      <path id="path23898" d="M86.33 44.41q.04.15.04.38 0 .22-.04.39.04.15.04.38 0 .22-.04.38.04.15.04.38 0 .22-.04.38.04.16.04.38t-.04.39q.04.15.04.38 0 .22-.04.38h-.38q.03.15.03.38 0 .22-.03.38h-2.3q-.03-.16-.03-.38 0-.23.03-.38h-.38q-.04-.16-.04-.38 0-.23.04-.38-.04-.17-.04-.39t.04-.38q-.04-.16-.04-.38 0-.23.04-.38-.04-.16-.04-.38 0-.23.04-.38-.04-.17-.04-.39 0-.23.04-.38-.04-.16-.04-.38 0-.23.04-.38h.77q.03.15.03.38 0 .22-.03.38.03.15.03.38 0 .22-.03.39.03.15.03.38 0 .22-.03.38.03.15.03.38 0 .22-.03.38.03.16.03.38t-.03.39q.03.15.03.38 0 .22-.03.38h1.52q-.03-.16-.03-.38 0-.23.03-.38-.03-.17-.03-.39t.03-.38q-.03-.16-.03-.38 0-.23.03-.38-.03-.16-.03-.38 0-.23.03-.38-.03-.17-.03-.39 0-.23.03-.38-.03-.16-.03-.38 0-.23.03-.38h.77q.04.15.04.38 0 .22-.04.38z" style="-inkscape-font-specification:'VT323, Normal';font-variant-ligatures:normal;font-variant-caps:normal;font-variant-numeric:normal;font-variant-east-asian:normal;text-align:center"/>
      <path id="path23900" d="M90.19 44.03q0 .22-.04.38H89q.04.15.04.38 0 .22-.04.39.04.15.04.38 0 .22-.04.38.04.15.04.38 0 .22-.04.38.04.16.04.38t-.04.39q.04.15.04.38 0 .22-.04.38.04.15.04.38 0 .22-.04.38h-.76q-.04-.16-.04-.38 0-.23.04-.38-.04-.16-.04-.38 0-.23.04-.38-.04-.17-.04-.39t.04-.38q-.04-.16-.04-.38 0-.23.04-.38-.04-.16-.04-.38 0-.23.04-.38-.04-.17-.04-.39 0-.23.04-.38h-1.15q-.03-.16-.03-.38 0-.23.03-.38h3.06q.04.15.04.38z" style="-inkscape-font-specification:'VT323, Normal';font-variant-ligatures:normal;font-variant-caps:normal;font-variant-numeric:normal;font-variant-east-asian:normal;text-align:center"/>
    </g>
  </g>
</svg>
