<svg xmlns="http://www.w3.org/2000/svg" viewBox="0 0 154.5 148.4">
  <rect width="134.2" height="27.2" x="10.4" y="118.6" fill="#f4eed7" fill-opacity=".8" stroke="#d0c598" stroke-linecap="round" stroke-linejoin="round" stroke-width="1.1" color="#000" overflow="visible" paint-order="markers fill stroke" rx="1.5" ry="1.7" style="font-variation-settings:normal"/>
  <rect width="126.4" height="18.4" x="14.3" y="122" fill="#f4eed7" fill-opacity=".8" stroke="#d0c598" stroke-linecap="round" stroke-linejoin="round" stroke-width="1.1" color="#000" overflow="visible" paint-order="markers fill stroke" rx="2.5" ry="2.5"/>
  <rect style="font-variation-settings:normal" width="3.4" height="134.3" x="-146.6" y="10.1" fill="#999" stroke="#1a1a1a" stroke-linecap="round" stroke-linejoin="round" color="#000" overflow="visible" paint-order="markers fill stroke" rx="0" transform="rotate(-90)"/>
  <g transform="matrix(.99957 0 0 .99936 -80 -24.3)">
    <rect width="48" height="11.2" x="163.9" y="150.2" fill="#ff7f2a" stroke="#a40" stroke-width="1.1" color="#000" overflow="visible" paint-order="markers fill stroke" rx="2.5" ry="2.5"/>
    <text x="191" y="159.5" fill="#fff" stroke-width="1.1" color="#000" font-family="Courier" font-size="7.9" transform="scale(1.01021 .9899)" style="line-height:125%;-inkscape-font-specification:'Courier, Bold';font-variant-ligatures:normal;font-variant-caps:normal;font-variant-numeric:normal;font-variant-east-asian:normal;text-align:center" font-weight="700" overflow="visible" paint-order="markers fill stroke" text-anchor="middle">
      <tspan style="-inkscape-font-specification:'Courier, Bold';font-variant-ligatures:normal;font-variant-caps:normal;font-variant-numeric:normal;font-variant-east-asian:normal" x="191" y="159.5">SELECT</tspan>
    </text>
    <path fill="#fff" stroke="none" stroke-width="0" d="M174.7 158.4v.2a.8.8 0 01-.7.8h-6.2a.8.8 0 01-.8-.8v-4.1a.8.8 0 01.8-.8h.2v.8h-.2v4a.1.1 0 000 .1h6a.1.1 0 00.2 0v-.2zm.7-5.5h-6a.1.1 0 00-.1.1v4a.1.1 0 00.1 0h6a.1.1 0 00.1 0v-4zm.1-.7a.8.8 0 01.8.7v4.2a.8.8 0 01-.8.7h-6.2a.8.8 0 01-.8-.7v-4.2a.8.8 0 01.8-.7zm-4.3 1.8a.6.6 0 11-1.2 0 .6.6 0 011.2 0zm-1.1 1.5l.6-.6a.2.2 0 01.3 0l.6.6 1.7-1.7a.2.2 0 01.3 0l1.1 1.2v1.3h-4.6z"/>
  </g>
  <g transform="matrix(.99957 0 0 .99936 -78.4 -23.3)">
    <path fill="#fff" stroke="none" stroke-width="0" d="M115.1 157.6v.2a.8.8 0 01-.7.8h-6.2a.8.8 0 01-.8-.8v-4.1a.8.8 0 01.8-.8h.2v.8h-.2v4a.1.1 0 000 .1h6a.1.1 0 00.2 0v-.2zm.7-5.5h-6a.1.1 0 00-.1.1v4a.1.1 0 00.1 0h6a.1.1 0 00.1 0v-4zm.1-.7a.8.8 0 01.8.7v4.2a.8.8 0 01-.8.7h-6.2a.8.8 0 01-.8-.7V152a.8.8 0 01.8-.7zm-4.3 1.8a.6.6 0 11-1.3 0 .6.6 0 011.3 0zm-1.1 1.5l.6-.6a.2.2 0 01.3 0l.6.6 1.7-1.7a.2.2 0 01.3 0l1.1 1.2v1.3h-4.6z"/>
    <rect width="37.4" height="11.2" x="104.3" y="149.4" fill="#ff7f2a" stroke="#a40" stroke-width="1.1" color="#000" overflow="visible" paint-order="markers fill stroke" rx="2.5" ry="2.5"/>
    <text x="126.2" y="158.7" fill="#fff" stroke-width="1.1" color="#000" font-family="Courier" font-size="7.9" transform="scale(1.01021 .9899)" style="line-height:125%;-inkscape-font-specification:'Courier, Bold';font-variant-ligatures:normal;font-variant-caps:normal;font-variant-numeric:normal;font-variant-east-asian:normal;text-align:center" font-weight="700" overflow="visible" paint-order="markers fill stroke" text-anchor="middle">
      <tspan style="-inkscape-font-specification:'Courier, Bold';font-variant-ligatures:normal;font-variant-caps:normal;font-variant-numeric:normal;font-variant-east-asian:normal" x="126.2" y="158.7">SNAP</tspan>
    </text>
    <g fill="#fff" stroke="none" stroke-width="0" transform="matrix(.34963 0 0 .34963 107.1 150.8)">
      <circle cx="12" cy="12" r="3.2"/>
      <path d="M9 2L7.2 4H4a2 2 0 00-2 2v12c0 1.1.9 2 2 2h16a2 2 0 002-2V6a2 2 0 00-2-2h-3.2L15 2zm3 15a5 5 0 110-10 5 5 0 010 10z"/>
    </g>
  </g>
  <path style="font-variation-settings:normal" fill="#1a1a1a" fill-opacity=".8" d="M10.4 30.6h134.2V3.4H10.4z" color="#000" overflow="visible" paint-order="markers fill stroke"/>
  <rect style="font-variation-settings:normal" width="134.2" height="81.9" x="10.4" y="33.4" fill="#ccc" fill-opacity=".8" color="#000" overflow="visible" paint-order="markers fill stroke" rx="1.5" ry="1.7"/>
  <rect style="font-variation-settings:normal" width="4.2" height="134.3" x="-33.7" y="10.1" fill="#999" stroke="#1a1a1a" stroke-linecap="round" stroke-linejoin="round" color="#000" overflow="visible" paint-order="markers fill stroke" rx="0" transform="rotate(-90)"/>
  <rect width="125.5" height="73.2" x="14.6" y="37.6" fill="#1a1a1a" fill-opacity=".8" stroke="#1e1e1e" stroke-linecap="round" stroke-linejoin="round" stroke-width="1.1" color="#000" overflow="visible" paint-order="markers fill stroke" rx="7.8" ry="6.7"/>
  <text x="127.7" y="49" fill="#fff" fill-opacity=".7" stroke-linecap="round" stroke-linejoin="round" stroke-opacity=".2" stroke-width=".7" color="#000" font-family="VT323" font-size="9.5" transform="matrix(1.47769 0 0 1.47737 -16.5 16.3)" style="line-height:71.5%;-inkscape-font-specification:'VT323, Normal';font-variant-ligatures:normal;font-variant-caps:normal;font-variant-numeric:normal;font-variant-east-asian:normal;text-align:end;white-space:pre;inline-size:127.793" font-weight="400" overflow="visible" paint-order="markers fill stroke" text-anchor="end">
    <tspan x="127.7" y="49"><tspan style="-inkscape-font-specification:'VT323, Normal';font-variant-ligatures:normal;font-variant-caps:normal;font-variant-numeric:normal;font-variant-east-asian:normal;text-align:center" fill-opacity="1" text-anchor="middle">AWAITING INPUT</tspan></tspan>
  </text>
  <rect width="4.2" height="134.3" x="-118.8" y="10.1" fill="#999" stroke="#1a1a1a" stroke-linecap="round" stroke-linejoin="round" color="#000" overflow="visible" paint-order="markers fill stroke" rx="0" transform="rotate(-90)" style="font-variation-settings:normal"/>
  <rect width="83.8" height="18.9" x="35.3" y="-27.7" fill="#fff" fill-opacity=".8" color="#000" overflow="visible" paint-order="markers fill stroke" rx="2.5" ry="2.5" transform="scale(1 -1)"/>
  <rect width="4.3" height="134.3" x="2.2" y="10.1" fill="#999" stroke="#333" stroke-linecap="round" stroke-linejoin="round" color="#000" overflow="visible" paint-order="markers fill stroke" rx="0" transform="matrix(0 1 1 0 0 0)"/>
  <rect width="76.3" height="11.2" x="39.2" y="12.7" fill="#217821" stroke="#165016" stroke-width="1.1" color="#000" overflow="visible" paint-order="markers fill stroke" rx="1.6" ry="1.7"/>
  <text style="line-height:125%;-inkscape-font-specification:'Courier, Bold';font-variant-ligatures:normal;font-variant-caps:normal;font-variant-numeric:normal;font-variant-east-asian:normal;text-align:center" x="76.5" y="20.7" fill="#fff" stroke-width="1.1" color="#000" font-family="Courier" font-size="7.9" font-weight="700" overflow="visible" paint-order="markers fill stroke" text-anchor="middle" transform="scale(1.01032 .98979)">
    <tspan x="76.5" y="20.7" style="-inkscape-font-specification:'Courier, Bold';font-variant-ligatures:normal;font-variant-caps:normal;font-variant-numeric:normal;font-variant-east-asian:normal">PRINT TEMPLATE</tspan>
  </text>
  <g fill="maroon" stroke="#1a1a1a" stroke-linecap="round" stroke-linejoin="round" stroke-width=".7" color="#000" paint-order="markers fill stroke">
    <path d="M92.2 38v6.7M94.6 38v6.7M96.9 38v6.7M99.2 38v6.7M101.5 38v6.7M103.8 38v6.7" style="font-variation-settings:normal" overflow="visible" transform="matrix(1.54322 0 0 2.04256 -128.3 -66.5)"/>
  </g>
  <g fill="maroon" stroke="#1a1a1a" stroke-linecap="round" stroke-linejoin="round" stroke-width=".7" color="#000" paint-order="markers fill stroke">
    <path style="font-variation-settings:normal" d="M92.2 38v6.7M94.6 38v6.7M96.9 38v6.7M99.2 38v6.7M101.5 38v6.7M103.8 38v6.7" overflow="visible" transform="matrix(1.54322 0 0 2.04256 -19.8 -66.5)"/>
  </g>
  <g fill="#fff" stroke="#fff" stroke-linecap="square" stroke-linejoin="round" stroke-width=".3" color="#000" paint-order="markers fill stroke">
    <path d="M124.4 125.7h1.3v1.3h-1.3zM124.4 127h1.3v1.3h-1.3zM123 127h1.3v1.3H123zM124.4 128.3h1.3v1.3h-1.3zM123 128.3h1.3v1.3H123z" overflow="visible" transform="matrix(.4553 0 0 .45521 27.7 -.6)"/>
    <path d="M124.4 129.6h1.3v1.3h-1.3zM123 129.6h1.3v1.3H123zM121.7 129.6h1.3v1.3h-1.3zM124.4 131h1.3v1.3h-1.3zM123 131h1.3v1.3H123zM121.7 131h1.3v1.3h-1.3zM124.4 132.3h1.3v1.3h-1.3zM123 132.3h1.3v1.3H123zM121.7 132.3h1.3v1.3h-1.3zM125.7 132.3h1.3v1.3h-1.3zM120.4 131h1.3v1.3h-1.3zM119.1 131h1.3v1.3h-1.3zM117.7 131h1.3v1.3h-1.3zM116.4 131h1.3v1.3h-1.3zM120.4 132.3h1.3v1.3h-1.3zM119.1 132.3h1.3v1.3h-1.3zM117.7 132.3h1.3v1.3h-1.3zM116.4 132.3h1.3v1.3h-1.3z" overflow="visible" transform="matrix(.4553 0 0 .45521 27.7 -.6)"/>
    <path d="M124.4 133.6h1.3v1.3h-1.3zM123 133.6h1.3v1.3H123zM121.7 133.6h1.3v1.3h-1.3zM125.7 133.6h1.3v1.3h-1.3zM120.4 133.6h1.3v1.3h-1.3zM119.1 133.6h1.3v1.3h-1.3zM117.7 133.6h1.3v1.3h-1.3zM116.4 133.6h1.3v1.3h-1.3zM124.4 134.9h1.3v1.3h-1.3zM123 134.9h1.3v1.3H123zM121.7 134.9h1.3v1.3h-1.3zM125.7 134.9h1.3v1.3h-1.3zM120.4 134.9h1.3v1.3h-1.3zM119.1 134.9h1.3v1.3h-1.3zM117.7 134.9h1.3v1.3h-1.3zM116.4 134.9h1.3v1.3h-1.3zM124.4 136.3h1.3v1.3h-1.3zM123 136.3h1.3v1.3H123zM121.7 136.3h1.3v1.3h-1.3zM125.7 136.3h1.3v1.3h-1.3zM120.4 136.3h1.3v1.3h-1.3zM119.1 136.3h1.3v1.3h-1.3zM117.7 136.3h1.3v1.3h-1.3zM116.4 136.3h1.3v1.3h-1.3zM127 136.3h1.3v1.3H127z" overflow="visible" transform="matrix(.4553 0 0 .45521 27.7 -.6)"/>
    <path d="M127 137.6h1.3v1.3H127zM119.1 137.6h1.3v1.3h-1.3zM117.7 137.6h1.3v1.3h-1.3zM116.4 137.6h1.3v1.3h-1.3zM120.4 137.6h1.3v1.3h-1.3zM119.1 138.9h1.3v1.3h-1.3zM117.7 138.9h1.3v1.3h-1.3zM116.4 138.9h1.3v1.3h-1.3zM128.3 138.9h1.3v1.3h-1.3z" overflow="visible" transform="matrix(.4553 0 0 .45521 27.7 -.6)"/>
    <path d="M129.6 140.2h1.3v1.3h-1.3z" overflow="visible" transform="matrix(.4553 0 0 .45521 27.7 -.6)"/>
    <path d="M129.6 138.9h1.3v1.3h-1.3zM128.3 141.6h1.3v1.3h-1.3z" overflow="visible" transform="matrix(.4553 0 0 .45521 27.7 -.6)"/>
    <path d="M128.3 140.2h1.3v1.3h-1.3zM129.6 142.9h1.3v1.3h-1.3zM129.6 141.6h1.3v1.3h-1.3z" overflow="visible" transform="matrix(.4553 0 0 .45521 27.7 -.6)"/>
    <path d="M128.3 144.2h1.3v1.3h-1.3z" overflow="visible" transform="matrix(.4553 0 0 .45521 27.7 -.6)"/>
    <path d="M128.3 142.9h1.3v1.3h-1.3zM127 144.2h1.3v1.3H127z" overflow="visible" transform="matrix(.4553 0 0 .45521 27.7 -.6)"/>
    <path d="M127 142.9h1.3v1.3H127zM127 146.8h1.3v1.3H127zM127 145.5h1.3v1.3H127zM125.7 144.2h1.3v1.3h-1.3zM124.4 144.2h1.3v1.3h-1.3zM123 144.2h1.3v1.3H123zM121.7 144.2h1.3v1.3h-1.3zM120.4 144.2h1.3v1.3h-1.3zM119.1 144.2h1.3v1.3h-1.3zM117.7 144.2h1.3v1.3h-1.3zM116.4 144.2h1.3v1.3h-1.3zM115.1 144.2h1.3v1.3h-1.3zM113.8 144.2h1.3v1.3h-1.3zM119.1 140.2h1.3v1.3h-1.3zM117.7 140.2h1.3v1.3h-1.3zM116.4 140.2h1.3v1.3h-1.3zM119.1 141.6h1.3v1.3h-1.3zM117.7 141.6h1.3v1.3h-1.3zM116.4 141.6h1.3v1.3h-1.3z" overflow="visible" transform="matrix(.4553 0 0 .45521 27.7 -.6)"/>
    <path d="M119.1 142.9h1.3v1.3h-1.3zM117.7 142.9h1.3v1.3h-1.3zM116.4 142.9h1.3v1.3h-1.3zM120.4 142.9h1.3v1.3h-1.3zM123 140.9h1.3v1.3H123zM123 139.6h1.3v1.3H123zM124.4 140.9h1.3v1.3h-1.3zM124.4 139.6h1.3v1.3h-1.3zM125.7 145.5h1.3v1.3h-1.3zM124.4 145.5h1.3v1.3h-1.3zM123 145.5h1.3v1.3H123zM121.7 145.5h1.3v1.3h-1.3zM120.4 145.5h1.3v1.3h-1.3zM119.1 145.5h1.3v1.3h-1.3zM117.7 145.5h1.3v1.3h-1.3zM116.4 145.5h1.3v1.3h-1.3zM115.1 145.5h1.3v1.3h-1.3zM113.8 145.5h1.3v1.3h-1.3zM125.7 146.8h1.3v1.3h-1.3zM124.4 146.8h1.3v1.3h-1.3zM123 146.8h1.3v1.3H123zM121.7 146.8h1.3v1.3h-1.3zM120.4 146.8h1.3v1.3h-1.3zM119.1 146.8h1.3v1.3h-1.3zM117.7 146.8h1.3v1.3h-1.3zM116.4 146.8h1.3v1.3h-1.3zM115.1 146.8h1.3v1.3h-1.3zM113.8 146.8h1.3v1.3h-1.3zM125.7 148.2h1.3v1.3h-1.3zM124.4 148.2h1.3v1.3h-1.3zM123 148.2h1.3v1.3H123zM121.7 148.2h1.3v1.3h-1.3zM120.4 148.2h1.3v1.3h-1.3zM119.1 148.2h1.3v1.3h-1.3zM117.7 148.2h1.3v1.3h-1.3zM116.4 148.2h1.3v1.3h-1.3zM115.1 148.2h1.3v1.3h-1.3zM113.8 148.2h1.3v1.3h-1.3zM124.4 149.5h1.3v1.3h-1.3zM123 149.5h1.3v1.3H123zM121.7 149.5h1.3v1.3h-1.3zM120.4 149.5h1.3v1.3h-1.3zM119.1 149.5h1.3v1.3h-1.3zM117.7 149.5h1.3v1.3h-1.3zM116.4 149.5h1.3v1.3h-1.3zM115.1 149.5h1.3v1.3h-1.3zM113.8 149.5h1.3v1.3h-1.3zM131 145.5h1.3v1.3H131zM129.6 145.5h1.3v1.3h-1.3z" overflow="visible" transform="matrix(.4553 0 0 .45521 27.7 -.6)"/>
    <path d="M128.3 145.5h1.3v1.3h-1.3zM132.3 144.2h1.3v1.3h-1.3zM131 144.2h1.3v1.3H131zM129.6 144.2h1.3v1.3h-1.3zM128.3 146.8h1.3v1.3h-1.3z" overflow="visible" transform="matrix(.4553 0 0 .45521 27.7 -.6)"/>
    <path d="M129.6 146.8h1.3v1.3h-1.3zM132.3 145.5h1.3v1.3h-1.3zM131 142.9h1.3v1.3H131zM132.3 141.6h1.3v1.3h-1.3zM131 141.6h1.3v1.3H131zM132.3 142.9h1.3v1.3h-1.3z" overflow="visible" transform="matrix(.4553 0 0 .45521 27.7 -.6)"/>
    <path d="M133.6 142.9h1.3v1.3h-1.3zM133.6 141.6h1.3v1.3h-1.3z" overflow="visible" transform="matrix(.4553 0 0 .45521 27.7 -.6)"/>
    <path d="M133.6 144.2h1.3v1.3h-1.3zM131 140.2h1.3v1.3H131zM132.3 140.2h1.3v1.3h-1.3zM128.3 137.6h1.3v1.3h-1.3zM117.7 129.6h1.3v1.3h-1.3zM116.4 129.6h1.3v1.3h-1.3zM119.1 128.3h1.3v1.3h-1.3z" overflow="visible" transform="matrix(.4553 0 0 .45521 27.7 -.6)"/>
    <path d="M117.7 128.3h1.3v1.3h-1.3zM119.1 129.6h1.3v1.3h-1.3zM117.7 127h1.3v1.3h-1.3zM112.4 144.2h1.3v1.3h-1.3zM111.1 144.2h1.3v1.3h-1.3zM109.8 144.2h1.3v1.3h-1.3zM108.5 144.2h1.3v1.3h-1.3zM107.2 144.2h1.3v1.3h-1.3zM105.8 144.2h1.3v1.3h-1.3zM104.5 144.2h1.3v1.3h-1.3zM103.2 144.2h1.3v1.3h-1.3zM101.9 144.2h1.3v1.3h-1.3zM112.4 145.5h1.3v1.3h-1.3zM111.1 145.5h1.3v1.3h-1.3zM109.8 145.5h1.3v1.3h-1.3zM108.5 145.5h1.3v1.3h-1.3zM107.2 145.5h1.3v1.3h-1.3zM105.8 145.5h1.3v1.3h-1.3zM104.5 145.5h1.3v1.3h-1.3zM103.2 145.5h1.3v1.3h-1.3zM101.9 145.5h1.3v1.3h-1.3zM112.4 146.8h1.3v1.3h-1.3zM111.1 146.8h1.3v1.3h-1.3zM109.8 146.8h1.3v1.3h-1.3zM108.5 146.8h1.3v1.3h-1.3zM107.2 146.8h1.3v1.3h-1.3zM105.8 146.8h1.3v1.3h-1.3zM104.5 146.8h1.3v1.3h-1.3zM103.2 146.8h1.3v1.3h-1.3zM101.9 146.8h1.3v1.3h-1.3zM112.4 148.2h1.3v1.3h-1.3zM111.1 148.2h1.3v1.3h-1.3zM109.8 148.2h1.3v1.3h-1.3zM108.5 148.2h1.3v1.3h-1.3zM107.2 148.2h1.3v1.3h-1.3zM105.8 148.2h1.3v1.3h-1.3zM104.5 148.2h1.3v1.3h-1.3zM103.2 148.2h1.3v1.3h-1.3zM101.9 148.2h1.3v1.3h-1.3zM112.4 149.5h1.3v1.3h-1.3zM111.1 149.5h1.3v1.3h-1.3zM109.8 149.5h1.3v1.3h-1.3zM108.5 149.5h1.3v1.3h-1.3zM107.2 149.5h1.3v1.3h-1.3zM105.8 149.5h1.3v1.3h-1.3zM104.5 149.5h1.3v1.3h-1.3zM103.2 149.5h1.3v1.3h-1.3zM101.9 149.5h1.3v1.3h-1.3zM111.1 150.8h1.3v1.3h-1.3zM109.8 150.8h1.3v1.3h-1.3zM108.5 150.8h1.3v1.3h-1.3zM107.2 150.8h1.3v1.3h-1.3zM105.8 150.8h1.3v1.3h-1.3zM104.5 150.8h1.3v1.3h-1.3zM103.2 150.8h1.3v1.3h-1.3zM101.9 150.8h1.3v1.3h-1.3zM100.5 150.8h1.3v1.3h-1.3z" overflow="visible" transform="matrix(.4553 0 0 .45521 27.7 -.6)"/>
    <path d="M111.1 152.1h1.3v1.3h-1.3zM109.8 152.1h1.3v1.3h-1.3zM108.5 152.1h1.3v1.3h-1.3zM107.2 152.1h1.3v1.3h-1.3zM105.8 152.1h1.3v1.3h-1.3zM104.5 152.1h1.3v1.3h-1.3zM103.2 152.1h1.3v1.3h-1.3zM101.9 152.1h1.3v1.3h-1.3zM100.5 152.1h1.3v1.3h-1.3zM111.1 153.5h1.3v1.3h-1.3zM109.8 153.5h1.3v1.3h-1.3zM108.5 153.5h1.3v1.3h-1.3zM107.2 153.5h1.3v1.3h-1.3zM105.8 153.5h1.3v1.3h-1.3zM104.5 153.5h1.3v1.3h-1.3zM103.2 153.5h1.3v1.3h-1.3zM101.9 153.5h1.3v1.3h-1.3zM100.5 153.5h1.3v1.3h-1.3zM111.1 154.8h1.3v1.3h-1.3zM109.8 154.8h1.3v1.3h-1.3zM108.5 154.8h1.3v1.3h-1.3zM107.2 154.8h1.3v1.3h-1.3zM105.8 154.8h1.3v1.3h-1.3zM104.5 154.8h1.3v1.3h-1.3zM103.2 154.8h1.3v1.3h-1.3zM101.9 154.8h1.3v1.3h-1.3zM100.5 154.8h1.3v1.3h-1.3z" overflow="visible" transform="matrix(.4553 0 0 .45521 27.7 -.6)"/>
    <path d="M111.1 156.1h1.3v1.3h-1.3zM109.8 156.1h1.3v1.3h-1.3zM108.5 156.1h1.3v1.3h-1.3zM107.2 156.1h1.3v1.3h-1.3zM105.8 156.1h1.3v1.3h-1.3zM104.5 156.1h1.3v1.3h-1.3zM103.2 156.1h1.3v1.3h-1.3zM101.9 156.1h1.3v1.3h-1.3zM100.5 156.1h1.3v1.3h-1.3zM115.1 150.8h1.3v1.3h-1.3zM113.8 150.8h1.3v1.3h-1.3zM112.4 150.8h1.3v1.3h-1.3z" overflow="visible" transform="matrix(.4553 0 0 .45521 27.7 -.6)"/>
    <path d="M115.1 152.1h1.3v1.3h-1.3zM113.8 152.1h1.3v1.3h-1.3zM112.4 152.1h1.3v1.3h-1.3zM115.1 153.5h1.3v1.3h-1.3zM113.8 153.5h1.3v1.3h-1.3zM112.4 153.5h1.3v1.3h-1.3zM104.5 140.2h1.3v1.3h-1.3zM103.2 140.2h1.3v1.3h-1.3zM101.9 140.2h1.3v1.3h-1.3zM104.5 141.6h1.3v1.3h-1.3zM103.2 141.6h1.3v1.3h-1.3zM101.9 141.6h1.3v1.3h-1.3zM104.5 142.9h1.3v1.3h-1.3zM103.2 142.9h1.3v1.3h-1.3zM101.9 142.9h1.3v1.3h-1.3zM100.5 144.2h1.3v1.3h-1.3zM100.5 145.5h1.3v1.3h-1.3zM100.5 146.8h1.3v1.3h-1.3zM100.5 148.2h1.3v1.3h-1.3zM100.5 149.5h1.3v1.3h-1.3zM99.2 157.4h1.3v1.3h-1.3zM99.2 158.8h1.3v1.3h-1.3z" overflow="visible" transform="matrix(.4553 0 0 .45521 27.7 -.6)"/>
    <path d="M99.2 160.1h1.3v1.3h-1.3zM99.2 161.4h1.3v1.3h-1.3z" overflow="visible" transform="matrix(.4553 0 0 .45521 27.7 -.6)"/>
    <path d="M99.2 162.7h1.3v1.3h-1.3zM97.9 157.4h1.3v1.3h-1.3zM97.9 158.8h1.3v1.3h-1.3z" overflow="visible" transform="matrix(.4553 0 0 .45521 27.7 -.6)"/>
    <path d="M97.9 160.1h1.3v1.3h-1.3zM97.9 161.4h1.3v1.3h-1.3z" overflow="visible" transform="matrix(.4553 0 0 .45521 27.7 -.6)"/>
    <path d="M97.9 162.7h1.3v1.3h-1.3zM96.6 157.4h1.3v1.3h-1.3zM96.6 158.8h1.3v1.3h-1.3z" overflow="visible" transform="matrix(.4553 0 0 .45521 27.7 -.6)"/>
    <path d="M96.6 160.1h1.3v1.3h-1.3zM96.6 161.4h1.3v1.3h-1.3z" overflow="visible" transform="matrix(.4553 0 0 .45521 27.7 -.6)"/>
    <path d="M96.6 162.7h1.3v1.3h-1.3zM108.5 157.4h1.3v1.3h-1.3zM107.2 157.4h1.3v1.3h-1.3zM105.8 157.4h1.3v1.3h-1.3zM104.5 157.4h1.3v1.3h-1.3zM103.2 157.4h1.3v1.3h-1.3zM101.9 157.4h1.3v1.3h-1.3zM100.5 157.4h1.3v1.3h-1.3zM109.8 157.4h1.3v1.3h-1.3zM112.4 154.8h1.3v1.3h-1.3zM111.1 157.4h1.3v1.3h-1.3z" overflow="visible" transform="matrix(.4553 0 0 .45521 27.7 -.6)"/>
    <path d="M112.4 156.1h1.3v1.3h-1.3zM124.4 150.8h1.3v1.3h-1.3zM123 150.8h1.3v1.3H123zM121.7 150.8h1.3v1.3h-1.3zM119.1 150.8h1.3v1.3h-1.3zM117.7 150.8h1.3v1.3h-1.3zM116.4 150.8h1.3v1.3h-1.3z" overflow="visible" transform="matrix(.4553 0 0 .45521 27.7 -.6)"/>
    <path d="M119.1 152.1h1.3v1.3h-1.3zM117.7 152.1h1.3v1.3h-1.3zM116.4 152.1h1.3v1.3h-1.3zM117.7 153.5h1.3v1.3h-1.3zM116.4 153.5h1.3v1.3h-1.3zM115.1 154.8h1.3v1.3h-1.3zM113.8 154.8h1.3v1.3h-1.3zM116.4 154.8h1.3v1.3h-1.3zM120.4 150.8h1.3v1.3h-1.3z" overflow="visible" transform="matrix(.4553 0 0 .45521 27.7 -.6)"/>
    <path d="M113.8 156.1h1.3v1.3h-1.3zM108.5 158.8h1.3v1.3h-1.3zM107.2 158.8h1.3v1.3h-1.3zM105.8 158.8h1.3v1.3h-1.3zM104.5 158.8h1.3v1.3h-1.3zM103.2 158.8h1.3v1.3h-1.3z" overflow="visible" transform="matrix(.4553 0 0 .45521 27.7 -.6)"/>
    <path d="M103.2 160.1h1.3v1.3h-1.3zM103.2 161.4h1.3v1.3h-1.3z" overflow="visible" transform="matrix(.4553 0 0 .45521 27.7 -.6)"/>
    <path d="M103.2 162.7h1.3v1.3h-1.3zM101.9 158.8h1.3v1.3h-1.3z" overflow="visible" transform="matrix(.4553 0 0 .45521 27.7 -.6)"/>
    <path d="M101.9 160.1h1.3v1.3h-1.3zM101.9 161.4h1.3v1.3h-1.3z" overflow="visible" transform="matrix(.4553 0 0 .45521 27.7 -.6)"/>
    <path d="M101.9 162.7h1.3v1.3h-1.3zM100.5 158.8h1.3v1.3h-1.3z" overflow="visible" transform="matrix(.4553 0 0 .45521 27.7 -.6)"/>
    <path d="M100.5 160.1h1.3v1.3h-1.3zM100.5 161.4h1.3v1.3h-1.3z" overflow="visible" transform="matrix(.4553 0 0 .45521 27.7 -.6)"/>
    <path d="M100.5 162.7h1.3v1.3h-1.3zM105.8 160.1h1.3v1.3h-1.3zM105.8 161.4h1.3v1.3h-1.3z" overflow="visible" transform="matrix(.4553 0 0 .45521 27.7 -.6)"/>
    <path d="M105.8 162.7h1.3v1.3h-1.3zM104.5 160.1h1.3v1.3h-1.3zM104.5 161.4h1.3v1.3h-1.3z" overflow="visible" transform="matrix(.4553 0 0 .45521 27.7 -.6)"/>
    <path d="M104.5 162.7h1.3v1.3h-1.3zM103.2 164h1.3v1.3h-1.3zM105.8 164h1.3v1.3h-1.3zM104.5 164h1.3v1.3h-1.3zM103.2 165.4h1.3v1.3h-1.3zM105.8 165.4h1.3v1.3h-1.3zM104.5 165.4h1.3v1.3h-1.3zM96.6 164h1.3v1.3h-1.3zM95.3 162.7h1.3v1.3h-1.3zM93.9 162.7h1.3v1.3h-1.3zM92.6 162.7h1.3v1.3h-1.3zM91.3 162.7h1.3v1.3h-1.3zM93.9 164h1.3v1.3h-1.3zM92.6 164h1.3v1.3h-1.3zM91.3 164h1.3v1.3h-1.3zM92.6 165.4h1.3v1.3h-1.3zM95.3 164h1.3v1.3h-1.3zM93.9 165.4h1.3v1.3h-1.3zM91.3 165.4h1.3v1.3h-1.3zM90 161.4h1.3v1.3H90z" overflow="visible" transform="matrix(.4553 0 0 .45521 27.7 -.6)"/>
    <path d="M90 162.7h1.3v1.3H90zM90 164h1.3v1.3H90zM125.7 152.1h1.3v1.3h-1.3zM124.4 152.1h1.3v1.3h-1.3zM123 152.1h1.3v1.3H123zM121.7 152.1h1.3v1.3h-1.3zM125.7 153.5h1.3v1.3h-1.3zM124.4 153.5h1.3v1.3h-1.3zM123 153.5h1.3v1.3H123zM125.7 154.8h1.3v1.3h-1.3zM124.4 154.8h1.3v1.3h-1.3zM123 154.8h1.3v1.3H123zM115.1 142.9h1.3v1.3h-1.3zM113.8 142.9h1.3v1.3h-1.3zM112.4 142.9h1.3v1.3h-1.3zM111.1 142.9h1.3v1.3h-1.3zM109.8 142.9h1.3v1.3h-1.3zM108.5 142.9h1.3v1.3h-1.3zM107.2 142.9h1.3v1.3h-1.3zM105.8 142.9h1.3v1.3h-1.3zM115.1 141.6h1.3v1.3h-1.3zM113.8 141.6h1.3v1.3h-1.3zM112.4 141.6h1.3v1.3h-1.3zM111.1 141.6h1.3v1.3h-1.3zM109.8 141.6h1.3v1.3h-1.3zM108.5 141.6h1.3v1.3h-1.3zM107.2 141.6h1.3v1.3h-1.3zM105.8 141.6h1.3v1.3h-1.3zM112.4 140.2h1.3v1.3h-1.3zM111.1 140.2h1.3v1.3h-1.3zM109.8 140.2h1.3v1.3h-1.3zM108.5 140.2h1.3v1.3h-1.3zM107.2 140.2h1.3v1.3h-1.3zM105.8 140.2h1.3v1.3h-1.3zM103.2 138.9h1.3v1.3h-1.3z" overflow="visible" transform="matrix(.4553 0 0 .45521 27.7 -.6)"/>
    <path d="M111.1 138.9h1.3v1.3h-1.3zM109.8 138.9h1.3v1.3h-1.3zM108.5 138.9h1.3v1.3h-1.3zM105.8 138.9h1.3v1.3h-1.3zM104.5 138.9h1.3v1.3h-1.3zM107.2 138.9h1.3v1.3h-1.3zM100.5 140.2h1.3v1.3h-1.3zM100.5 141.6h1.3v1.3h-1.3zM100.5 142.9h1.3v1.3h-1.3zM99.2 140.2h1.3v1.3h-1.3zM99.2 141.6h1.3v1.3h-1.3zM99.2 142.9h1.3v1.3h-1.3zM96.6 140.2h1.3v1.3h-1.3zM96.6 141.6h1.3v1.3h-1.3zM96.6 142.9h1.3v1.3h-1.3zM97.9 140.2h1.3v1.3h-1.3zM97.9 141.6h1.3v1.3h-1.3zM97.9 142.9h1.3v1.3h-1.3zM95.3 140.2h1.3v1.3h-1.3zM95.3 141.6h1.3v1.3h-1.3zM95.3 142.9h1.3v1.3h-1.3zM99.2 150.8h1.3v1.3h-1.3z" overflow="visible" transform="matrix(.4553 0 0 .45521 27.7 -.6)"/>
    <path d="M99.2 152.1h1.3v1.3h-1.3zM99.2 153.5h1.3v1.3h-1.3zM99.2 154.8h1.3v1.3h-1.3z" overflow="visible" transform="matrix(.4553 0 0 .45521 27.7 -.6)"/>
    <path d="M99.2 156.1h1.3v1.3h-1.3zM99.2 144.2h1.3v1.3h-1.3zM99.2 145.5h1.3v1.3h-1.3zM99.2 146.8h1.3v1.3h-1.3zM99.2 148.2h1.3v1.3h-1.3zM99.2 149.5h1.3v1.3h-1.3zM97.9 150.8h1.3v1.3h-1.3z" overflow="visible" transform="matrix(.4553 0 0 .45521 27.7 -.6)"/>
    <path d="M97.9 152.1h1.3v1.3h-1.3zM97.9 153.5h1.3v1.3h-1.3zM97.9 154.8h1.3v1.3h-1.3z" overflow="visible" transform="matrix(.4553 0 0 .45521 27.7 -.6)"/>
    <path d="M97.9 156.1h1.3v1.3h-1.3zM97.9 144.2h1.3v1.3h-1.3zM97.9 145.5h1.3v1.3h-1.3zM97.9 146.8h1.3v1.3h-1.3zM97.9 148.2h1.3v1.3h-1.3zM97.9 149.5h1.3v1.3h-1.3zM96.6 150.8h1.3v1.3h-1.3z" overflow="visible" transform="matrix(.4553 0 0 .45521 27.7 -.6)"/>
    <path d="M96.6 152.1h1.3v1.3h-1.3zM96.6 153.5h1.3v1.3h-1.3zM96.6 154.8h1.3v1.3h-1.3z" overflow="visible" transform="matrix(.4553 0 0 .45521 27.7 -.6)"/>
    <path d="M96.6 156.1h1.3v1.3h-1.3zM96.6 144.2h1.3v1.3h-1.3zM96.6 145.5h1.3v1.3h-1.3zM96.6 146.8h1.3v1.3h-1.3zM96.6 148.2h1.3v1.3h-1.3zM96.6 149.5h1.3v1.3h-1.3zM95.3 157.4h1.3v1.3h-1.3zM95.3 158.8h1.3v1.3h-1.3z" overflow="visible" transform="matrix(.4553 0 0 .45521 27.7 -.6)"/>
    <path d="M95.3 160.1h1.3v1.3h-1.3zM95.3 150.8h1.3v1.3h-1.3z" overflow="visible" transform="matrix(.4553 0 0 .45521 27.7 -.6)"/>
    <path d="M95.3 152.1h1.3v1.3h-1.3zM95.3 153.5h1.3v1.3h-1.3zM95.3 154.8h1.3v1.3h-1.3z" overflow="visible" transform="matrix(.4553 0 0 .45521 27.7 -.6)"/>
    <path d="M95.2 156.1h1.3v1.3h-1.3zM95.3 145.5h1.3v1.3h-1.3zM95.3 146.8h1.3v1.3h-1.3zM95.3 148.2h1.3v1.3h-1.3zM95.2 149.5h1.3v1.3h-1.3zM93.9 157.4h1.3v1.3h-1.3zM93.9 158.8h1.3v1.3h-1.3z" overflow="visible" transform="matrix(.4553 0 0 .45521 27.7 -.6)"/>
    <path d="M93.9 160.1h1.3v1.3h-1.3zM93.9 150.8h1.3v1.3h-1.3z" overflow="visible" transform="matrix(.4553 0 0 .45521 27.7 -.6)"/>
    <path d="M93.9 152.1h1.3v1.3h-1.3zM93.9 153.5h1.3v1.3h-1.3zM93.9 154.8h1.3v1.3h-1.3z" overflow="visible" transform="matrix(.4553 0 0 .45521 27.7 -.6)"/>
    <path d="M93.9 156.1h1.3v1.3h-1.3zM93.9 145.5h1.3v1.3h-1.3zM93.9 146.8h1.3v1.3h-1.3zM93.9 148.2h1.3v1.3h-1.3zM93.9 149.5h1.3v1.3h-1.3zM92.6 145.5h1.3v1.3h-1.3zM92.6 146.8h1.3v1.3h-1.3zM92.6 148.2h1.3v1.3h-1.3zM92.6 150.8h1.3v1.3h-1.3z" overflow="visible" transform="matrix(.4553 0 0 .45521 27.7 -.6)"/>
    <path d="M92.6 152.1h1.3v1.3h-1.3zM92.6 153.5h1.3v1.3h-1.3zM91.3 152.1h1.3v1.3h-1.3zM91.3 153.5h1.3v1.3h-1.3zM91.3 146.8h1.3v1.3h-1.3zM91.3 148.2h1.3v1.3h-1.3zM91.3 145.5h1.3v1.3h-1.3zM90 146.8h1.3v1.3H90zM90 148.2h1.3v1.3H90zM90 153.5h1.3v1.3H90zM92.6 154.8h1.3v1.3h-1.3zM88.6 148.2h1.3v1.3h-1.3zM95.3 144.2h1.3v1.3h-1.3zM93.9 144.2h1.3v1.3h-1.3zM92.6 144.2h1.3v1.3h-1.3zM93.9 141.6h1.3v1.3h-1.3zM92.6 141.6h1.3v1.3h-1.3zM93.9 140.2h1.3v1.3h-1.3zM92.6 157.4h1.3v1.3h-1.3zM92.6 158.8h1.3v1.3h-1.3zM91.3 158.8h1.3v1.3h-1.3zM88.6 161.4h1.3v1.3h-1.3z" overflow="visible" transform="matrix(.4553 0 0 .45521 27.7 -.6)"/>
    <path d="M88.6 162.7h1.3v1.3h-1.3zM88.6 164h1.3v1.3h-1.3zM87.3 160.1h1.3v1.3h-1.3zM87.3 161.4h1.3v1.3h-1.3z" overflow="visible" transform="matrix(.4553 0 0 .45521 27.7 -.6)"/>
    <path d="M87.3 162.7h1.3v1.3h-1.3zM86 158.8h1.3v1.3H86z" overflow="visible" transform="matrix(.4553 0 0 .45521 27.7 -.6)"/>
    <path d="M86 160.1h1.3v1.3H86zM86 161.4h1.3v1.3H86zM84.7 157.4H86v1.3h-1.3zM84.7 158.8H86v1.3h-1.3z" overflow="visible" transform="matrix(.4553 0 0 .45521 27.7 -.6)"/>
    <path d="M84.7 160.1H86v1.3h-1.3zM83.3 154.8h1.3v1.3h-1.3z" overflow="visible" transform="matrix(.4553 0 0 .45521 27.7 -.6)"/>
    <path d="M83.3 156.1h1.3v1.3h-1.3zM83.3 157.4h1.3v1.3h-1.3zM86 154.8h1.3v1.3H86z" overflow="visible" transform="matrix(.4553 0 0 .45521 27.7 -.6)"/>
    <path d="M86 156.1h1.3v1.3H86zM86 157.4h1.3v1.3H86zM84.7 153.5H86v1.3h-1.3zM84.7 154.8H86v1.3h-1.3z" overflow="visible" transform="matrix(.4553 0 0 .45521 27.7 -.6)"/>
    <path d="M84.7 156.1H86v1.3h-1.3zM83.3 150.8h1.3v1.3h-1.3z" overflow="visible" transform="matrix(.4553 0 0 .45521 27.7 -.6)"/>
    <path d="M83.3 152.1h1.3v1.3h-1.3zM83.3 153.5h1.3v1.3h-1.3z" overflow="visible" transform="matrix(.4553 0 0 .45521 27.7 -.6)"/>
    <path d="M83.3 150.8h1.3v1.3h-1.3z" overflow="visible" transform="matrix(.4553 0 0 .45521 27.7 -.6)"/>
    <path d="M83.3 152.1h1.3v1.3h-1.3zM83.3 153.5h1.3v1.3h-1.3zM82 153.5h1.3v1.3H82zM82 154.8h1.3v1.3H82z" overflow="visible" transform="matrix(.4553 0 0 .45521 27.7 -.6)"/>
    <path d="M82 156.1h1.3v1.3H82zM82 149.5h1.3v1.3H82zM82 150.8h1.3v1.3H82z" overflow="visible" transform="matrix(.4553 0 0 .45521 27.7 -.6)"/>
    <path d="M82 152.1h1.3v1.3H82zM82 149.5h1.3v1.3H82z" overflow="visible" transform="matrix(.4553 0 0 .45521 27.7 -.6)"/>
    <path d="M82 150.8h1.3v1.3H82z" overflow="visible" transform="matrix(.4553 0 0 .45521 27.7 -.6)"/>
    <path d="M82 152.1h1.3v1.3H82zM80.7 149.5H82v1.3h-1.3zM80.7 150.8H82v1.3h-1.3z" overflow="visible" transform="matrix(.4553 0 0 .45521 27.7 -.6)"/>
    <path d="M80.7 152.1H82v1.3h-1.3zM80.7 145.5H82v1.3h-1.3zM80.7 146.8H82v1.3h-1.3zM80.7 148.2H82v1.3h-1.3z" overflow="visible" transform="matrix(.4553 0 0 .45521 27.7 -.6)"/>
    <path d="M80.7 145.5H82v1.3h-1.3zM80.7 146.8H82v1.3h-1.3zM80.7 148.2H82v1.3h-1.3zM83.3 146.8h1.3v1.3h-1.3zM83.3 148.2h1.3v1.3h-1.3zM83.3 149.5h1.3v1.3h-1.3zM83.3 142.9h1.3v1.3h-1.3z" overflow="visible" transform="matrix(.4553 0 0 .45521 27.7 -.6)"/>
    <path d="M83.3 144.2h1.3v1.3h-1.3zM83.3 145.5h1.3v1.3h-1.3z" overflow="visible" transform="matrix(.4553 0 0 .45521 27.7 -.6)"/>
    <path d="M83.3 142.9h1.3v1.3h-1.3z" overflow="visible" transform="matrix(.4553 0 0 .45521 27.7 -.6)"/>
    <path d="M83.3 144.2h1.3v1.3h-1.3zM83.3 145.5h1.3v1.3h-1.3zM82 145.5h1.3v1.3H82zM82 146.8h1.3v1.3H82zM82 148.2h1.3v1.3H82zM82 141.6h1.3v1.3H82zM82 142.9h1.3v1.3H82z" overflow="visible" transform="matrix(.4553 0 0 .45521 27.7 -.6)"/>
    <path d="M82 144.2h1.3v1.3H82zM82 141.6h1.3v1.3H82z" overflow="visible" transform="matrix(.4553 0 0 .45521 27.7 -.6)"/>
    <path d="M82 142.9h1.3v1.3H82z" overflow="visible" transform="matrix(.4553 0 0 .45521 27.7 -.6)"/>
    <path d="M82 144.2h1.3v1.3H82zM84.7 149.5H86v1.3h-1.3zM84.7 150.8H86v1.3h-1.3z" overflow="visible" transform="matrix(.4553 0 0 .45521 27.7 -.6)"/>
    <path d="M84.7 152.1H86v1.3h-1.3zM84.7 145.5H86v1.3h-1.3zM84.7 146.8H86v1.3h-1.3zM84.7 148.2H86v1.3h-1.3z" overflow="visible" transform="matrix(.4553 0 0 .45521 27.7 -.6)"/>
    <path d="M84.7 145.5H86v1.3h-1.3zM84.7 146.8H86v1.3h-1.3zM84.7 148.2H86v1.3h-1.3zM86 150.8h1.3v1.3H86z" overflow="visible" transform="matrix(.4553 0 0 .45521 27.7 -.6)"/>
    <path d="M86 152.1h1.3v1.3H86zM86 153.5h1.3v1.3H86zM86 146.8h1.3v1.3H86zM86 148.2h1.3v1.3H86zM86 149.5h1.3v1.3H86z" overflow="visible" transform="matrix(.4553 0 0 .45521 27.7 -.6)"/>
    <path d="M86 146.8h1.3v1.3H86zM86 148.2h1.3v1.3H86zM86 149.5h1.3v1.3H86zM86 142.9h1.3v1.3H86z" overflow="visible" transform="matrix(.4553 0 0 .45521 27.7 -.6)"/>
    <path d="M86 144.2h1.3v1.3H86zM86 145.5h1.3v1.3H86zM86 138.9h1.3v1.3H86z" overflow="visible" transform="matrix(.4553 0 0 .45521 27.7 -.6)"/>
    <path d="M86 140.2h1.3v1.3H86zM86 141.6h1.3v1.3H86z" overflow="visible" transform="matrix(.4553 0 0 .45521 27.7 -.6)"/>
    <path d="M86 138.9h1.3v1.3H86z" overflow="visible" transform="matrix(.4553 0 0 .45521 27.7 -.6)"/>
    <path d="M86 140.2h1.3v1.3H86zM86 141.6h1.3v1.3H86zM80.7 141.6H82v1.3h-1.3zM80.7 142.9H82v1.3h-1.3z" overflow="visible" transform="matrix(.4553 0 0 .45521 27.7 -.6)"/>
    <path d="M80.7 144.2H82v1.3h-1.3zM80.7 137.6H82v1.3h-1.3zM80.7 138.9H82v1.3h-1.3z" overflow="visible" transform="matrix(.4553 0 0 .45521 27.7 -.6)"/>
    <path d="M80.7 140.2H82v1.3h-1.3zM80.7 137.6H82v1.3h-1.3z" overflow="visible" transform="matrix(.4553 0 0 .45521 27.7 -.6)"/>
    <path d="M80.7 138.9H82v1.3h-1.3z" overflow="visible" transform="matrix(.4553 0 0 .45521 27.7 -.6)"/>
    <path d="M80.7 140.2H82v1.3h-1.3zM84.7 141.6H86v1.3h-1.3zM84.7 142.9H86v1.3h-1.3z" overflow="visible" transform="matrix(.4553 0 0 .45521 27.7 -.6)"/>
    <path d="M84.7 144.2H86v1.3h-1.3zM84.7 137.6H86v1.3h-1.3zM84.7 138.9H86v1.3h-1.3z" overflow="visible" transform="matrix(.4553 0 0 .45521 27.7 -.6)"/>
    <path d="M84.7 140.2H86v1.3h-1.3zM84.7 137.6H86v1.3h-1.3z" overflow="visible" transform="matrix(.4553 0 0 .45521 27.7 -.6)"/>
    <path d="M84.7 138.9H86v1.3h-1.3z" overflow="visible" transform="matrix(.4553 0 0 .45521 27.7 -.6)"/>
    <path d="M84.7 140.2H86v1.3h-1.3zM83.3 138.9h1.3v1.3h-1.3z" overflow="visible" transform="matrix(.4553 0 0 .45521 27.7 -.6)"/>
    <path d="M83.3 140.2h1.3v1.3h-1.3zM83.3 141.6h1.3v1.3h-1.3zM83.3 134.9h1.3v1.3h-1.3zM83.3 136.3h1.3v1.3h-1.3z" overflow="visible" transform="matrix(.4553 0 0 .45521 27.7 -.6)"/>
    <path d="M83.3 137.6h1.3v1.3h-1.3zM83.3 134.9h1.3v1.3h-1.3z" overflow="visible" transform="matrix(.4553 0 0 .45521 27.7 -.6)"/>
    <path d="M83.3 136.3h1.3v1.3h-1.3z" overflow="visible" transform="matrix(.4553 0 0 .45521 27.7 -.6)"/>
    <path d="M83.3 137.6h1.3v1.3h-1.3zM82 137.6h1.3v1.3H82zM82 138.9h1.3v1.3H82z" overflow="visible" transform="matrix(.4553 0 0 .45521 27.7 -.6)"/>
    <path d="M82 140.2h1.3v1.3H82zM84.7 134.9H86v1.3h-1.3zM82 134.9h1.3v1.3H82zM82 136.3h1.3v1.3H82zM80.7 134.9H82v1.3h-1.3z" overflow="visible" transform="matrix(.4553 0 0 .45521 27.7 -.6)"/>
    <path d="M82 134.9h1.3v1.3H82zM82 136.3h1.3v1.3H82zM80.7 136.3H82v1.3h-1.3z" overflow="visible" transform="matrix(.4553 0 0 .45521 27.7 -.6)"/>
    <path d="M80.7 136.3H82v1.3h-1.3zM103.2 137.6h1.3v1.3h-1.3zM109.8 137.6h1.3v1.3h-1.3zM108.5 137.6h1.3v1.3h-1.3zM105.8 137.6h1.3v1.3h-1.3zM104.5 137.6h1.3v1.3h-1.3zM107.2 137.6h1.3v1.3h-1.3zM101.9 138.9h1.3v1.3h-1.3zM100.5 136.3h1.3v1.3h-1.3z" overflow="visible" transform="matrix(.4553 0 0 .45521 27.7 -.6)"/>
    <path d="M103.2 136.3h1.3v1.3h-1.3zM101.9 136.3h1.3v1.3h-1.3zM99.2 136.3h1.3v1.3h-1.3zM97.9 136.3h1.3v1.3h-1.3zM100.5 137.6h1.3v1.3h-1.3z" overflow="visible" transform="matrix(.4553 0 0 .45521 27.7 -.6)"/>
    <path d="M101.9 137.6h1.3v1.3h-1.3zM104.5 136.3h1.3v1.3h-1.3zM105.8 136.3h1.3v1.3h-1.3zM107.2 136.3h1.3v1.3h-1.3zM108.5 136.3h1.3v1.3h-1.3zM105.8 134.9h1.3v1.3h-1.3zM107.2 134.9h1.3v1.3h-1.3zM104.5 133.6h1.3v1.3h-1.3zM103.2 133.6h1.3v1.3h-1.3zM101.9 132.3h1.3v1.3h-1.3zM100.5 132.3h1.3v1.3h-1.3zM99.2 131h1.3v1.3h-1.3zM97.9 129.6h1.3v1.3h-1.3zM96.6 128.3h1.3v1.3h-1.3z" overflow="visible" transform="matrix(.4553 0 0 .45521 27.7 -.6)"/>
    <path d="M96.6 129.6h1.3v1.3h-1.3zM95.3 128.3h1.3v1.3h-1.3zM97.9 131h1.3v1.3h-1.3zM104.5 134.9h1.3v1.3h-1.3zM101.9 133.6h1.3v1.3h-1.3zM99.2 132.3h1.3v1.3h-1.3zM95.3 127h1.3v1.3h-1.3zM93.9 127h1.3v1.3h-1.3zM93.9 125.7h1.3v1.3h-1.3zM93.3 124.4h1.3v1.3h-1.3zM93.3 123h1.3v1.3h-1.3zM93.3 121.7h1.3v1.3h-1.3zM93.3 120.4h1.3v1.3h-1.3zM94.6 119.1h1.3v1.3h-1.3zM93.3 119.1h1.3v1.3h-1.3zM94.6 117.7h1.3v1.3h-1.3zM95.9 117.7h1.3v1.3h-1.3zM95.9 116.4h1.3v1.3h-1.3zM97.2 116.4h1.3v1.3h-1.3zM98.6 116.4h1.3v1.3h-1.3zM99.9 116.4h1.3v1.3h-1.3zM101.2 117.7h1.3v1.3h-1.3zM101.2 116.4h1.3v1.3h-1.3zM99.9 115.1h1.3v1.3h-1.3zM101.2 115.1h1.3v1.3h-1.3zM101.2 113.8h1.3v1.3h-1.3zM102.5 113.8h1.3v1.3h-1.3zM102.5 117.7h1.3v1.3h-1.3zM103.8 119.1h1.3v1.3h-1.3zM105.2 120.4h1.3v1.3h-1.3zM106.5 121.7h1.3v1.3h-1.3zM107.8 122.4h1.3v1.3h-1.3zM106.5 120.4h1.3v1.3h-1.3zM105.2 119.1h1.3v1.3h-1.3zM103.8 117.7h1.3v1.3h-1.3zM109.1 123.7h1.3v1.3h-1.3zM109.1 122.4h1.3v1.3h-1.3zM107.8 121h1.3v1.3h-1.3zM111.8 126.3h1.3v1.3h-1.3zM110.5 125h1.3v1.3h-1.3zM110.5 126.3h1.3v1.3h-1.3zM111.8 127.7h1.3v1.3h-1.3zM113.1 128.3h1.3v1.3h-1.3z" overflow="visible" transform="matrix(.4553 0 0 .45521 27.7 -.6)"/>
    <path d="M113.1 129.6h1.3v1.3h-1.3zM114.4 131h1.3v1.3h-1.3zM114.4 132.3h1.3v1.3h-1.3zM115.8 133.6h1.3v1.3h-1.3z" overflow="visible" transform="matrix(.4553 0 0 .45521 27.7 -.6)"/>
    <path d="M115.8 132.3h1.3v1.3h-1.3zM114.4 129.6h1.3v1.3h-1.3zM116.4 128.3h1.3v1.3h-1.3zM115.8 127h1.3v1.3h-1.3zM114.4 125.7h1.3v1.3h-1.3zM115.8 125.7h1.3v1.3h-1.3zM114.4 124.4h1.3v1.3h-1.3zM114.4 123h1.3v1.3h-1.3zM113.1 123h1.3v1.3h-1.3zM113.1 121.7h1.3v1.3h-1.3zM113.1 120.4h1.3v1.3h-1.3zM111.8 119.1h1.3v1.3h-1.3zM111.8 120.4h1.3v1.3h-1.3zM87.3 141.6h1.3v1.3h-1.3zM88.6 138.9h1.3v1.3h-1.3zM87.3 140.2h1.3v1.3h-1.3z" overflow="visible" transform="matrix(.4553 0 0 .45521 27.7 -.6)"/>
    <path d="M87.3 138.9h1.3v1.3h-1.3zM86 134.9h1.3v1.3H86zM86 136.3h1.3v1.3H86z" overflow="visible" transform="matrix(.4553 0 0 .45521 27.7 -.6)"/>
    <path d="M86 137.6h1.3v1.3H86zM86 134.9h1.3v1.3H86z" overflow="visible" transform="matrix(.4553 0 0 .45521 27.7 -.6)"/>
    <path d="M86 136.3h1.3v1.3H86z" overflow="visible" transform="matrix(.4553 0 0 .45521 27.7 -.6)"/>
    <path d="M86 137.6h1.3v1.3H86zM90 134.9h1.3v1.3H90zM90 136.3h1.3v1.3H90z" overflow="visible" transform="matrix(.4553 0 0 .45521 27.7 -.6)"/>
    <path d="M90 137.6h1.3v1.3H90zM90 134.9h1.3v1.3H90z" overflow="visible" transform="matrix(.4553 0 0 .45521 27.7 -.6)"/>
    <path d="M90 136.3h1.3v1.3H90z" overflow="visible" transform="matrix(.4553 0 0 .45521 27.7 -.6)"/>
    <path d="M90 137.6h1.3v1.3H90zM88.6 136.3h1.3v1.3h-1.3z" overflow="visible" transform="matrix(.4553 0 0 .45521 27.7 -.6)"/>
    <path d="M88.6 137.6h1.3v1.3h-1.3zM88.6 132.3h1.3v1.3h-1.3z" overflow="visible" transform="matrix(.4553 0 0 .45521 27.7 -.6)"/>
    <path d="M88.6 133.6h1.3v1.3h-1.3zM88.6 134.9h1.3v1.3h-1.3z" overflow="visible" transform="matrix(.4553 0 0 .45521 27.7 -.6)"/>
    <path d="M88.6 132.3h1.3v1.3h-1.3z" overflow="visible" transform="matrix(.4553 0 0 .45521 27.7 -.6)"/>
    <path d="M88.6 133.6h1.3v1.3h-1.3zM88.6 134.9h1.3v1.3h-1.3zM87.3 134.9h1.3v1.3h-1.3zM87.3 136.3h1.3v1.3h-1.3z" overflow="visible" transform="matrix(.4553 0 0 .45521 27.7 -.6)"/>
    <path d="M87.3 137.6h1.3v1.3h-1.3zM83.3 133.6h1.3v1.3h-1.3zM87.3 132.3h1.3v1.3h-1.3z" overflow="visible" transform="matrix(.4553 0 0 .45521 27.7 -.6)"/>
    <path d="M87.3 133.6h1.3v1.3h-1.3zM84.7 133.6H86v1.3h-1.3zM84.7 136.3H86v1.3h-1.3z" overflow="visible" transform="matrix(.4553 0 0 .45521 27.7 -.6)"/>
    <path d="M87.3 133.6h1.3v1.3h-1.3zM86 133.6h1.3v1.3H86z" overflow="visible" transform="matrix(.4553 0 0 .45521 27.7 -.6)"/>
    <path d="M86 133.6h1.3v1.3H86zM82 133.6h1.3v1.3H82z" overflow="visible" transform="matrix(.4553 0 0 .45521 27.7 -.6)"/>
    <path d="M82 133.6h1.3v1.3H82zM80.7 133.6H82v1.3h-1.3zM86 132.3h1.3v1.3H86z" overflow="visible" transform="matrix(.4553 0 0 .45521 27.7 -.6)"/>
    <path d="M86 132.3h1.3v1.3H86zM84.7 132.3H86v1.3h-1.3zM83.3 132.3h1.3v1.3h-1.3z" overflow="visible" transform="matrix(.4553 0 0 .45521 27.7 -.6)"/>
    <path d="M83.3 132.3h1.3v1.3h-1.3zM82 132.3h1.3v1.3H82zM90 132.3h1.3v1.3H90z" overflow="visible" transform="matrix(.4553 0 0 .45521 27.7 -.6)"/>
    <path d="M90 133.6h1.3v1.3H90z" overflow="visible" transform="matrix(.4553 0 0 .45521 27.7 -.6)"/>
    <path d="M90 132.3h1.3v1.3H90z" overflow="visible" transform="matrix(.4553 0 0 .45521 27.7 -.6)"/>
    <path d="M90 133.6h1.3v1.3H90zM88.6 131h1.3v1.3h-1.3z" overflow="visible" transform="matrix(.4553 0 0 .45521 27.7 -.6)"/>
    <path d="M88.6 131h1.3v1.3h-1.3zM87.3 131h1.3v1.3h-1.3zM86 131h1.3v1.3H86z" overflow="visible" transform="matrix(.4553 0 0 .45521 27.7 -.6)"/>
    <path d="M86 131h1.3v1.3H86zM84.7 131H86v1.3h-1.3zM83.3 131h1.3v1.3h-1.3z" overflow="visible" transform="matrix(.4553 0 0 .45521 27.7 -.6)"/>
    <path d="M83.3 131h1.3v1.3h-1.3zM82 131h1.3v1.3H82zM90 131h1.3v1.3H90z" overflow="visible" transform="matrix(.4553 0 0 .45521 27.7 -.6)"/>
    <path d="M90 131h1.3v1.3H90zM90 129.6h1.3v1.3H90z" overflow="visible" transform="matrix(.4553 0 0 .45521 27.7 -.6)"/>
    <path d="M90 129.6h1.3v1.3H90zM88.6 129.6h1.3v1.3h-1.3zM87.3 129.6h1.3v1.3h-1.3z" overflow="visible" transform="matrix(.4553 0 0 .45521 27.7 -.6)"/>
    <path d="M87.3 129.6h1.3v1.3h-1.3zM86 129.6h1.3v1.3H86zM84.7 129.6H86v1.3h-1.3z" overflow="visible" transform="matrix(.4553 0 0 .45521 27.7 -.6)"/>
    <path d="M84.7 129.6H86v1.3h-1.3zM83.3 129.6h1.3v1.3h-1.3zM91.3 129.6h1.3v1.3h-1.3z" overflow="visible" transform="matrix(.4553 0 0 .45521 27.7 -.6)"/>
    <path d="M91.3 129.6h1.3v1.3h-1.3zM90 128.3h1.3v1.3H90z" overflow="visible" transform="matrix(.4553 0 0 .45521 27.7 -.6)"/>
    <path d="M90 128.3h1.3v1.3H90zM88.6 128.3h1.3v1.3h-1.3zM87.3 128.3h1.3v1.3h-1.3z" overflow="visible" transform="matrix(.4553 0 0 .45521 27.7 -.6)"/>
    <path d="M87.3 128.3h1.3v1.3h-1.3zM86 128.3h1.3v1.3H86zM84.7 128.3H86v1.3h-1.3z" overflow="visible" transform="matrix(.4553 0 0 .45521 27.7 -.6)"/>
    <path d="M84.7 128.3H86v1.3h-1.3zM83.3 128.3h1.3v1.3h-1.3zM91.3 128.3h1.3v1.3h-1.3z" overflow="visible" transform="matrix(.4553 0 0 .45521 27.7 -.6)"/>
    <path d="M91.3 128.3h1.3v1.3h-1.3zM90 127h1.3v1.3H90z" overflow="visible" transform="matrix(.4553 0 0 .45521 27.7 -.6)"/>
    <path d="M90 127h1.3v1.3H90zM88.6 127h1.3v1.3h-1.3zM87.3 127h1.3v1.3h-1.3z" overflow="visible" transform="matrix(.4553 0 0 .45521 27.7 -.6)"/>
    <path d="M87.3 127h1.3v1.3h-1.3zM86 127h1.3v1.3H86zM84.7 127H86v1.3h-1.3z" overflow="visible" transform="matrix(.4553 0 0 .45521 27.7 -.6)"/>
    <path d="M84.7 127H86v1.3h-1.3zM83.3 127h1.3v1.3h-1.3zM91.3 127h1.3v1.3h-1.3z" overflow="visible" transform="matrix(.4553 0 0 .45521 27.7 -.6)"/>
    <path d="M91.3 127h1.3v1.3h-1.3zM90 125.7h1.3v1.3H90z" overflow="visible" transform="matrix(.4553 0 0 .45521 27.7 -.6)"/>
    <path d="M90 125.7h1.3v1.3H90zM88.6 125.7h1.3v1.3h-1.3zM87.3 125.7h1.3v1.3h-1.3z" overflow="visible" transform="matrix(.4553 0 0 .45521 27.7 -.6)"/>
    <path d="M87.3 125.7h1.3v1.3h-1.3zM86 125.7h1.3v1.3H86zM84.7 125.7H86v1.3h-1.3z" overflow="visible" transform="matrix(.4553 0 0 .45521 27.7 -.6)"/>
    <path d="M84.7 125.7H86v1.3h-1.3zM83.3 125.7h1.3v1.3h-1.3zM91.3 125.7h1.3v1.3h-1.3z" overflow="visible" transform="matrix(.4553 0 0 .45521 27.7 -.6)"/>
    <path d="M91.3 125.7h1.3v1.3h-1.3zM90 124.4h1.3v1.3H90z" overflow="visible" transform="matrix(.4553 0 0 .45521 27.7 -.6)"/>
    <path d="M90 124.4h1.3v1.3H90zM88.6 124.4h1.3v1.3h-1.3zM87.3 124.4h1.3v1.3h-1.3z" overflow="visible" transform="matrix(.4553 0 0 .45521 27.7 -.6)"/>
    <path d="M87.3 124.4h1.3v1.3h-1.3zM86 124.4h1.3v1.3H86zM84.7 124.4H86v1.3h-1.3z" overflow="visible" transform="matrix(.4553 0 0 .45521 27.7 -.6)"/>
    <path d="M84.7 124.4H86v1.3h-1.3zM83.3 124.4h1.3v1.3h-1.3zM91.3 124.4h1.3v1.3h-1.3z" overflow="visible" transform="matrix(.4553 0 0 .45521 27.7 -.6)"/>
    <path d="M91.3 124.4h1.3v1.3h-1.3zM90 123h1.3v1.3H90z" overflow="visible" transform="matrix(.4553 0 0 .45521 27.7 -.6)"/>
    <path d="M90 123h1.3v1.3H90zM88.6 123h1.3v1.3h-1.3zM87.3 123h1.3v1.3h-1.3z" overflow="visible" transform="matrix(.4553 0 0 .45521 27.7 -.6)"/>
    <path d="M87.3 123h1.3v1.3h-1.3zM86 123h1.3v1.3H86zM84.7 123H86v1.3h-1.3z" overflow="visible" transform="matrix(.4553 0 0 .45521 27.7 -.6)"/>
    <path d="M84.7 123H86v1.3h-1.3zM83.3 123h1.3v1.3h-1.3zM91.3 123h1.3v1.3h-1.3z" overflow="visible" transform="matrix(.4553 0 0 .45521 27.7 -.6)"/>
    <path d="M91.3 123h1.3v1.3h-1.3zM90 121.7h1.3v1.3H90z" overflow="visible" transform="matrix(.4553 0 0 .45521 27.7 -.6)"/>
    <path d="M90 121.7h1.3v1.3H90zM88.6 121.7h1.3v1.3h-1.3zM87.3 121.7h1.3v1.3h-1.3z" overflow="visible" transform="matrix(.4553 0 0 .45521 27.7 -.6)"/>
    <path d="M87.3 121.7h1.3v1.3h-1.3zM86 121.7h1.3v1.3H86zM84.7 121.7H86v1.3h-1.3z" overflow="visible" transform="matrix(.4553 0 0 .45521 27.7 -.6)"/>
    <path d="M84.7 121.7H86v1.3h-1.3zM83.3 121.7h1.3v1.3h-1.3zM88.6 120.4h1.3v1.3h-1.3zM87.3 120.4h1.3v1.3h-1.3z" overflow="visible" transform="matrix(.4553 0 0 .45521 27.7 -.6)"/>
    <path d="M87.3 120.4h1.3v1.3h-1.3zM86 120.4h1.3v1.3H86zM84.7 120.4H86v1.3h-1.3z" overflow="visible" transform="matrix(.4553 0 0 .45521 27.7 -.6)"/>
    <path d="M84.7 120.4H86v1.3h-1.3zM91.3 131h1.3v1.3h-1.3zM91.3 132.3h1.3v1.3h-1.3zM82 129.6h1.3v1.3H82z" overflow="visible" transform="matrix(.4553 0 0 .45521 27.7 -.6)"/>
    <path d="M82 128.3h1.3v1.3H82zM82 127h1.3v1.3H82zM87.3 142.9h1.3v1.3h-1.3z" overflow="visible" transform="matrix(.4553 0 0 .45521 27.7 -.6)"/>
    <path d="M87.3 144.2h1.3v1.3h-1.3zM88.6 140.2h1.3v1.3h-1.3zM103.8 112.4h1.3v1.3h-1.3zM105.2 113.8h1.3v1.3h-1.3zM105.2 112.4h1.3v1.3h-1.3zM103.8 113.8h1.3v1.3h-1.3zM106.5 112.4h1.3v1.3h-1.3zM111.8 117.7h1.3v1.3h-1.3zM110.5 117.7h1.3v1.3h-1.3zM110.5 116.4h1.3v1.3h-1.3zM109.1 116.4h1.3v1.3h-1.3zM109.1 115.1h1.3v1.3h-1.3zM107.8 113.8h1.3v1.3h-1.3zM106.5 113.8h1.3v1.3h-1.3z" overflow="visible" transform="matrix(.4553 0 0 .45521 27.7 -.6)"/>
  </g>
  <rect style="font-variation-settings:normal" width="9.6" height="147.4" x=".5" y=".5" fill="#999" stroke="#333" stroke-linecap="round" stroke-linejoin="round" color="#000" overflow="visible" paint-order="markers fill stroke" rx="1.5" ry="1.7"/>
  <rect width="9.6" height="147.4" x="144.4" y=".5" fill="gray" stroke="#333" stroke-linecap="round" stroke-linejoin="round" color="#000" overflow="visible" paint-order="markers fill stroke" rx="1.5" ry="1.7" style="font-variation-settings:normal"/>
  <g fill="#4d4d4d" stroke="#333" stroke-linecap="round" stroke-linejoin="round" paint-order="markers fill stroke">
    <path style="font-variation-settings:normal" d="M-5.6 61.5a1.8 1.8 0 01-1.8 1.8 1.8 1.8 0 01-1.8-1.8 1.8 1.8 0 011.8-1.8 1.8 1.8 0 011.8 1.8" color="#000" overflow="visible" transform="matrix(.99957 0 0 .99936 156.7 -54)"/>
    <path style="font-variation-settings:normal" d="M-5.6 61.5a1.8 1.8 0 01-1.8 1.8 1.8 1.8 0 01-1.8-1.8 1.8 1.8 0 011.8-1.8 1.8 1.8 0 011.8 1.8" color="#000" overflow="visible" transform="matrix(.99957 0 0 .99936 156.7 34.8)"/>
    <path style="font-variation-settings:normal" d="M-5.6 61.5a1.8 1.8 0 01-1.8 1.8 1.8 1.8 0 01-1.8-1.8 1.8 1.8 0 011.8-1.8 1.8 1.8 0 011.8 1.8" color="#000" overflow="visible" transform="matrix(.99957 0 0 .99936 156.7 20)"/>
    <path style="font-variation-settings:normal" d="M-5.6 61.5a1.8 1.8 0 01-1.8 1.8 1.8 1.8 0 01-1.8-1.8 1.8 1.8 0 011.8-1.8 1.8 1.8 0 011.8 1.8" color="#000" overflow="visible" transform="matrix(.99957 0 0 .99936 156.7 5.2)"/>
    <path style="font-variation-settings:normal" d="M-5.6 61.5a1.8 1.8 0 01-1.8 1.8 1.8 1.8 0 01-1.8-1.8 1.8 1.8 0 011.8-1.8 1.8 1.8 0 011.8 1.8" color="#000" overflow="visible" transform="matrix(.99957 0 0 .99936 156.7 -9.6)"/>
    <path style="font-variation-settings:normal" d="M-5.6 61.5a1.8 1.8 0 01-1.8 1.8 1.8 1.8 0 01-1.8-1.8 1.8 1.8 0 011.8-1.8 1.8 1.8 0 011.8 1.8" color="#000" overflow="visible" transform="matrix(.99957 0 0 .99936 156.7 -24.4)"/>
    <path style="font-variation-settings:normal" d="M-5.6 61.5a1.8 1.8 0 01-1.8 1.8 1.8 1.8 0 01-1.8-1.8 1.8 1.8 0 011.8-1.8 1.8 1.8 0 011.8 1.8" color="#000" overflow="visible" transform="matrix(.99957 0 0 .99936 156.7 -39.2)"/>
    <path style="font-variation-settings:normal" d="M-5.6 61.5a1.8 1.8 0 01-1.8 1.8 1.8 1.8 0 01-1.8-1.8 1.8 1.8 0 011.8-1.8 1.8 1.8 0 011.8 1.8" color="#000" overflow="visible" transform="matrix(.99957 0 0 .99936 156.7 79.1)"/>
    <path style="font-variation-settings:normal" d="M-5.6 61.5a1.8 1.8 0 01-1.8 1.8 1.8 1.8 0 01-1.8-1.8 1.8 1.8 0 011.8-1.8 1.8 1.8 0 011.8 1.8" color="#000" overflow="visible" transform="matrix(.99957 0 0 .99936 156.7 64.4)"/>
    <path style="font-variation-settings:normal" d="M-5.6 61.5a1.8 1.8 0 01-1.8 1.8 1.8 1.8 0 01-1.8-1.8 1.8 1.8 0 011.8-1.8 1.8 1.8 0 011.8 1.8" color="#000" overflow="visible" transform="matrix(.99957 0 0 .99936 156.7 49.6)"/>
  </g>
  <g fill="#4d4d4d" stroke="#333" stroke-linecap="round" stroke-linejoin="round" paint-order="markers fill stroke">
    <path style="font-variation-settings:normal" d="M-5.6 61.5a1.8 1.8 0 01-1.8 1.8 1.8 1.8 0 01-1.8-1.8 1.8 1.8 0 011.8-1.8 1.8 1.8 0 011.8 1.8" color="#000" overflow="visible" transform="matrix(.99957 0 0 .99936 12.3 -54)"/>
    <path style="font-variation-settings:normal" d="M-5.6 61.5a1.8 1.8 0 01-1.8 1.8 1.8 1.8 0 01-1.8-1.8 1.8 1.8 0 011.8-1.8 1.8 1.8 0 011.8 1.8" color="#000" overflow="visible" transform="matrix(.99957 0 0 .99936 12.3 34.8)"/>
    <path style="font-variation-settings:normal" d="M-5.6 61.5a1.8 1.8 0 01-1.8 1.8 1.8 1.8 0 01-1.8-1.8 1.8 1.8 0 011.8-1.8 1.8 1.8 0 011.8 1.8" color="#000" overflow="visible" transform="matrix(.99957 0 0 .99936 12.3 20)"/>
    <path style="font-variation-settings:normal" d="M-5.6 61.5a1.8 1.8 0 01-1.8 1.8 1.8 1.8 0 01-1.8-1.8 1.8 1.8 0 011.8-1.8 1.8 1.8 0 011.8 1.8" color="#000" overflow="visible" transform="matrix(.99957 0 0 .99936 12.3 5.2)"/>
    <path style="font-variation-settings:normal" d="M-5.6 61.5a1.8 1.8 0 01-1.8 1.8 1.8 1.8 0 01-1.8-1.8 1.8 1.8 0 011.8-1.8 1.8 1.8 0 011.8 1.8" color="#000" overflow="visible" transform="matrix(.99957 0 0 .99936 12.3 -9.6)"/>
    <path style="font-variation-settings:normal" d="M-5.6 61.5a1.8 1.8 0 01-1.8 1.8 1.8 1.8 0 01-1.8-1.8 1.8 1.8 0 011.8-1.8 1.8 1.8 0 011.8 1.8" color="#000" overflow="visible" transform="matrix(.99957 0 0 .99936 12.3 -24.4)"/>
    <path style="font-variation-settings:normal" d="M-5.6 61.5a1.8 1.8 0 01-1.8 1.8 1.8 1.8 0 01-1.8-1.8 1.8 1.8 0 011.8-1.8 1.8 1.8 0 011.8 1.8" color="#000" overflow="visible" transform="matrix(.99957 0 0 .99936 12.3 -39.2)"/>
    <path style="font-variation-settings:normal" d="M-5.6 61.5a1.8 1.8 0 01-1.8 1.8 1.8 1.8 0 01-1.8-1.8 1.8 1.8 0 011.8-1.8 1.8 1.8 0 011.8 1.8" color="#000" overflow="visible" transform="matrix(.99957 0 0 .99936 12.3 79.1)"/>
    <path style="font-variation-settings:normal" d="M-5.6 61.5a1.8 1.8 0 01-1.8 1.8 1.8 1.8 0 01-1.8-1.8 1.8 1.8 0 011.8-1.8 1.8 1.8 0 011.8 1.8" color="#000" overflow="visible" transform="matrix(.99957 0 0 .99936 12.3 64.4)"/>
    <path style="font-variation-settings:normal" d="M-5.6 61.5a1.8 1.8 0 01-1.8 1.8 1.8 1.8 0 01-1.8-1.8 1.8 1.8 0 011.8-1.8 1.8 1.8 0 011.8 1.8" color="#000" overflow="visible" transform="matrix(.99957 0 0 .99936 12.3 49.6)"/>
  </g>
</svg>
