<?xml version="1.0" encoding="UTF-8" standalone="no"?>
<svg
   xmlns:dc="http://purl.org/dc/elements/1.1/"
   xmlns:cc="http://creativecommons.org/ns#"
   xmlns:rdf="http://www.w3.org/1999/02/22-rdf-syntax-ns#"
   xmlns:svg="http://www.w3.org/2000/svg"
   xmlns="http://www.w3.org/2000/svg"
   xmlns:sodipodi="http://sodipodi.sourceforge.net/DTD/sodipodi-0.dtd"
   xmlns:inkscape="http://www.inkscape.org/namespaces/inkscape"
   sodipodi:docname="machineText.svg"
   inkscape:version="1.0 (4035a4fb49, 2020-05-01)"
   id="svg23968"
   version="1.1"
   viewBox="0 0 78.04467 7.897181"
   height="7.897181mm"
   width="78.04467mm">
  <defs
     id="defs23962" />
  <sodipodi:namedview
     fit-margin-bottom="0"
     fit-margin-right="0"
     fit-margin-left="0"
     fit-margin-top="0"
     inkscape:pagecheckerboard="true"
     showgrid="false"
     inkscape:document-rotation="0"
     inkscape:current-layer="layer1"
     inkscape:document-units="mm"
     inkscape:cy="40.600891"
     inkscape:cx="218.17775"
     inkscape:zoom="2.8"
     inkscape:pageshadow="2"
     inkscape:pageopacity="0.0"
     borderopacity="1.0"
     bordercolor="#666666"
     pagecolor="#ffffff"
     id="base" />
  <metadata
     id="metadata23965">
    <rdf:RDF>
      <cc:Work
         rdf:about="">
        <dc:format>image/svg+xml</dc:format>
        <dc:type
           rdf:resource="http://purl.org/dc/dcmitype/StillImage" />
        <dc:title></dc:title>
      </cc:Work>
    </rdf:RDF>
  </metadata>
  <g
     transform="translate(-17.674092,-22.509742)"
     id="layer1"
     inkscape:groupmode="layer"
     inkscape:label="Layer 1">
    <g
       transform="matrix(1.4776866,0,0,1.4773722,-37.549521,-41.975112)"
       style="color:#000000;font-style:normal;font-variant:normal;font-weight:normal;font-stretch:normal;font-size:9.5454px;line-height:71.5%;font-family:VT323;-inkscape-font-specification:'VT323, Normal';font-variant-ligatures:normal;font-variant-caps:normal;font-variant-numeric:normal;font-variant-east-asian:normal;text-align:end;writing-mode:lr-tb;text-anchor:end;white-space:pre;inline-size:127.793;display:inline;overflow:visible;fill:#ffffff;fill-opacity:0.693215;stroke:none;stroke-width:0.67689;stroke-linecap:round;stroke-linejoin:round;stroke-miterlimit:4;stroke-dasharray:none;stroke-opacity:0.175732;paint-order:markers fill stroke;stop-color:#000000"
       id="awaitingInputText">
      <path
         id="path23876"
         style="font-style:normal;font-variant:normal;font-weight:normal;font-stretch:normal;font-size:9.5454px;font-family:VT323;-inkscape-font-specification:'VT323, Normal';font-variant-ligatures:normal;font-variant-caps:normal;font-variant-numeric:normal;font-variant-east-asian:normal;text-align:center;text-anchor:middle;fill:#ffffff;fill-opacity:1;stroke:none;stroke-width:0.67689;stroke-miterlimit:4;stroke-dasharray:none"
         d="m 40.502556,47.848323 q 0,0.219544 -0.03818,0.381816 0.03818,0.152726 0.03818,0.381816 0,0.219544 -0.03818,0.381816 h -0.763632 q -0.03818,-0.162272 -0.03818,-0.381816 0,-0.22909 0.03818,-0.381816 -0.03818,-0.162272 -0.03818,-0.381816 0,-0.22909 0.03818,-0.381816 H 38.17348 q 0.03818,0.152726 0.03818,0.381816 0,0.219544 -0.03818,0.381816 0.03818,0.152726 0.03818,0.381816 0,0.219544 -0.03818,0.381816 h -0.763632 q -0.03818,-0.162272 -0.03818,-0.381816 0,-0.22909 0.03818,-0.381816 -0.03818,-0.162272 -0.03818,-0.381816 0,-0.22909 0.03818,-0.381816 h 0.286362 q -0.03818,-0.162272 -0.03818,-0.381816 0,-0.22909 0.03818,-0.381816 -0.03818,-0.162272 -0.03818,-0.381816 0,-0.22909 0.03818,-0.381816 h 0.190908 q -0.03818,-0.162272 -0.03818,-0.381816 0,-0.22909 0.03818,-0.381816 h 0.286362 q -0.03818,-0.162272 -0.03818,-0.381816 0,-0.22909 0.03818,-0.381816 h 0.190908 q -0.03818,-0.162272 -0.03818,-0.381816 0,-0.22909 0.03818,-0.381816 h 1.145448 q 0.03818,0.152726 0.03818,0.381816 0,0.219544 -0.03818,0.381816 h 0.190908 q 0.03818,0.152726 0.03818,0.381816 0,0.219544 -0.03818,0.381816 h 0.286362 q 0.03818,0.152726 0.03818,0.381816 0,0.219544 -0.03818,0.381816 h 0.190908 q 0.03818,0.152726 0.03818,0.381816 0,0.219544 -0.03818,0.381816 0.03818,0.152726 0.03818,0.381816 0,0.219544 -0.03818,0.381816 h 0.286362 q 0.03818,0.152726 0.03818,0.381816 z M 39.41438,46.702875 q -0.03818,-0.162272 -0.03818,-0.381816 0,-0.22909 0.03818,-0.381816 h -0.190908 q -0.03818,-0.162272 -0.03818,-0.381816 0,-0.22909 0.03818,-0.381816 h -0.572724 q 0.03818,0.152726 0.03818,0.381816 0,0.219544 -0.03818,0.381816 H 38.45984 q 0.03818,0.152726 0.03818,0.381816 0,0.219544 -0.03818,0.381816 z" />
      <path
         sodipodi:nodetypes="cscsssccscsccsccsccsccsccsccsccscsccscscscsccscscscscsccsccscscscsccscscscsccsccscscscscsccsc"
         id="path23878"
         style="font-style:normal;font-variant:normal;font-weight:normal;font-stretch:normal;font-size:9.5454px;font-family:VT323;-inkscape-font-specification:'VT323, Normal';font-variant-ligatures:normal;font-variant-caps:normal;font-variant-numeric:normal;font-variant-east-asian:normal;text-align:center;text-anchor:middle;fill:#ffffff;fill-opacity:1;stroke:none;stroke-width:0.67689;stroke-miterlimit:4;stroke-dasharray:none"
         d="m 44.286263,44.411979 c 0.02545,0.101817 0.03818,0.229089 0.03818,0.381816 0,0.146363 -0.01273,0.273635 -0.03818,0.381816 0.02545,0.101817 0.03818,0.229089 0.03818,0.381816 0,0.146363 -0.03818,0.270679 -0.03818,0.381816 0,0.104952 0.03818,0.229089 0.03818,0.381816 0,0.146363 -0.01273,0.273635 -0.03818,0.381816 h -0.286362 c 0.02545,0.101817 0.03818,0.229089 0.03818,0.381816 0,0.146363 -0.01273,0.273635 -0.03818,0.381816 0.02545,0.101817 0.03818,0.229089 0.03818,0.381816 0,0.146363 -0.01273,0.273635 -0.03818,0.381816 h -0.190908 c 0.02545,0.101817 0.03818,0.229089 0.03818,0.381816 0,0.146363 -0.01273,0.273635 -0.03818,0.381816 h -0.572724 c -0.02545,-0.108181 -0.03818,-0.235453 -0.03818,-0.381816 0,-0.152727 0.01273,-0.279999 0.03818,-0.381816 h -0.190908 c -0.02545,-0.108181 -0.03818,-0.235453 -0.03818,-0.381816 0,-0.152727 0.01273,-0.279999 0.03818,-0.381816 h -0.572724 c 0.02545,0.101817 0.03818,0.229089 0.03818,0.381816 0,0.146363 -0.01273,0.273635 -0.03818,0.381816 h -0.190908 c 0.02545,0.101817 0.03818,0.229089 0.03818,0.381816 0,0.146363 -0.01273,0.273635 -0.03818,0.381816 h -0.572724 c -0.02545,-0.108181 -0.03818,-0.235453 -0.03818,-0.381816 0,-0.152727 0.01273,-0.279999 0.03818,-0.381816 h -0.190908 c -0.02545,-0.108181 -0.03818,-0.235453 -0.03818,-0.381816 0,-0.152727 0.01273,-0.279999 0.03818,-0.381816 -0.02545,-0.108181 -0.03818,-0.235453 -0.03818,-0.381816 0,-0.152727 0.01273,-0.279999 0.03818,-0.381816 h -0.286362 c -0.02545,-0.108181 -0.03818,-0.235453 -0.03818,-0.381816 0,-0.152727 0.01273,-0.279999 0.03818,-0.381816 -0.02545,-0.108181 -0.03818,-0.235453 -0.03818,-0.381816 0,-0.152727 0.01273,-0.279999 0.03818,-0.381816 -0.02545,-0.108181 -0.03818,-0.235453 -0.03818,-0.381816 0,-0.152727 0.01273,-0.279999 0.03818,-0.381816 -0.02545,-0.108181 -0.03818,-0.235453 -0.03818,-0.381816 0,-0.152727 0.01273,-0.279999 0.03818,-0.381816 h 0.763632 c 0.02545,0.101817 0.03818,0.229089 0.03818,0.381816 0,0.146363 -0.01273,0.273635 -0.03818,0.381816 0.02545,0.101817 0.03818,0.229089 0.03818,0.381816 0,0.146363 -0.01273,0.273635 -0.03818,0.381816 0.02545,0.101817 0.03818,0.229089 0.03818,0.381816 0,0.146363 -0.01273,0.273635 -0.03818,0.381816 0.02545,0.101817 0.03818,0.229089 0.03818,0.381816 0,0.146363 -0.01273,0.273635 -0.03818,0.381816 0.02545,0.101817 0.03818,0.229089 0.03818,0.381816 0,0.146363 -0.01273,0.273635 -0.03818,0.381816 h 0.286362 c -0.02545,-0.108181 -0.03818,-0.235453 -0.03818,-0.381816 0,-0.152727 0.01273,-0.279999 0.03818,-0.381816 h 0.190908 c -0.02545,-0.108181 -0.03818,-0.235453 -0.03818,-0.381816 0,-0.152727 0.01273,-0.279999 0.03818,-0.381816 -0.02545,-0.108181 -0.03818,-0.235453 -0.03818,-0.381816 0,-0.152727 0.01273,-0.279999 0.03818,-0.381816 -0.02545,-0.108181 -0.03818,-0.235453 -0.03818,-0.381816 0,-0.152727 0.01273,-0.279999 0.03818,-0.381816 -0.02545,-0.108181 -0.03818,-0.235453 -0.03818,-0.381816 0,-0.152727 0.01273,-0.279999 0.03818,-0.381816 h 0.572724 c 0.02545,0.101817 0.03818,0.229089 0.03818,0.381816 0,0.146363 -0.01273,0.273635 -0.03818,0.381816 0.02545,0.101817 0.03818,0.229089 0.03818,0.381816 0,0.146363 -0.01273,0.273635 -0.03818,0.381816 0.02545,0.101817 0.03818,0.229089 0.03818,0.381816 0,0.146363 -0.01273,0.273635 -0.03818,0.381816 0.02545,0.101817 0.03818,0.229089 0.03818,0.381816 0,0.146363 -0.01273,0.273635 -0.03818,0.381816 h 0.190908 c 0.02545,0.101817 0.03818,0.229089 0.03818,0.381816 0,0.146363 -0.01273,0.273635 -0.03818,0.381816 h 0.286362 c -0.02545,-0.108181 -0.03818,-0.235453 -0.03818,-0.381816 0,-0.152727 0.01273,-0.279999 0.03818,-0.381816 -0.02545,-0.108181 -0.03818,-0.235453 -0.03818,-0.381816 0,-0.152727 0.01273,-0.279999 0.03818,-0.381816 -0.02545,-0.108181 -0.03818,-0.235453 -0.03818,-0.381816 0,-0.152727 0.01273,-0.279999 0.03818,-0.381816 -0.02545,-0.108181 -0.03818,-0.235453 -0.03818,-0.381816 0,-0.152727 0.01273,-0.279999 0.03818,-0.381816 -0.02545,-0.108181 -0.03818,-0.235453 -0.03818,-0.381816 0,-0.152727 0.01273,-0.279999 0.03818,-0.381816 h 0.763632 c 0.02545,0.101817 0.03818,0.229089 0.03818,0.381816 0,0.146363 -0.01273,0.273635 -0.03818,0.381816 z" />
      <path
         id="path23880"
         style="font-style:normal;font-variant:normal;font-weight:normal;font-stretch:normal;font-size:9.5454px;font-family:VT323;-inkscape-font-specification:'VT323, Normal';font-variant-ligatures:normal;font-variant-caps:normal;font-variant-numeric:normal;font-variant-east-asian:normal;text-align:center;text-anchor:middle;fill:#ffffff;fill-opacity:1;stroke:none;stroke-width:0.67689;stroke-miterlimit:4;stroke-dasharray:none"
         d="m 48.146333,47.848323 q 0,0.219544 -0.03818,0.381816 0.03818,0.152726 0.03818,0.381816 0,0.219544 -0.03818,0.381816 h -0.763632 q -0.03818,-0.162272 -0.03818,-0.381816 0,-0.22909 0.03818,-0.381816 -0.03818,-0.162272 -0.03818,-0.381816 0,-0.22909 0.03818,-0.381816 h -1.527264 q 0.03818,0.152726 0.03818,0.381816 0,0.219544 -0.03818,0.381816 0.03818,0.152726 0.03818,0.381816 0,0.219544 -0.03818,0.381816 h -0.763632 q -0.03818,-0.162272 -0.03818,-0.381816 0,-0.22909 0.03818,-0.381816 -0.03818,-0.162272 -0.03818,-0.381816 0,-0.22909 0.03818,-0.381816 h 0.286362 q -0.03818,-0.162272 -0.03818,-0.381816 0,-0.22909 0.03818,-0.381816 -0.03818,-0.162272 -0.03818,-0.381816 0,-0.22909 0.03818,-0.381816 h 0.190908 q -0.03818,-0.162272 -0.03818,-0.381816 0,-0.22909 0.03818,-0.381816 h 0.286362 q -0.03818,-0.162272 -0.03818,-0.381816 0,-0.22909 0.03818,-0.381816 h 0.190908 q -0.03818,-0.162272 -0.03818,-0.381816 0,-0.22909 0.03818,-0.381816 h 1.145448 q 0.03818,0.152726 0.03818,0.381816 0,0.219544 -0.03818,0.381816 h 0.190908 q 0.03818,0.152726 0.03818,0.381816 0,0.219544 -0.03818,0.381816 h 0.286362 q 0.03818,0.152726 0.03818,0.381816 0,0.219544 -0.03818,0.381816 h 0.190908 q 0.03818,0.152726 0.03818,0.381816 0,0.219544 -0.03818,0.381816 0.03818,0.152726 0.03818,0.381816 0,0.219544 -0.03818,0.381816 h 0.286362 q 0.03818,0.152726 0.03818,0.381816 z m -1.088176,-1.145448 q -0.03818,-0.162272 -0.03818,-0.381816 0,-0.22909 0.03818,-0.381816 h -0.190908 q -0.03818,-0.162272 -0.03818,-0.381816 0,-0.22909 0.03818,-0.381816 h -0.572724 q 0.03818,0.152726 0.03818,0.381816 0,0.219544 -0.03818,0.381816 h -0.190908 q 0.03818,0.152726 0.03818,0.381816 0,0.219544 -0.03818,0.381816 z" />
      <path
         id="path23882"
         style="font-style:normal;font-variant:normal;font-weight:normal;font-stretch:normal;font-size:9.5454px;font-family:VT323;-inkscape-font-specification:'VT323, Normal';font-variant-ligatures:normal;font-variant-caps:normal;font-variant-numeric:normal;font-variant-east-asian:normal;text-align:center;text-anchor:middle;fill:#ffffff;fill-opacity:1;stroke:none;stroke-width:0.67689;stroke-miterlimit:4;stroke-dasharray:none"
         d="m 51.357316,48.230139 q 0.03818,0.152726 0.03818,0.381816 0,0.219544 -0.03818,0.381816 h -1.90908 q -0.03818,-0.162272 -0.03818,-0.381816 0,-0.22909 0.03818,-0.381816 h 0.572724 q -0.03818,-0.162272 -0.03818,-0.381816 0,-0.22909 0.03818,-0.381816 -0.03818,-0.162272 -0.03818,-0.381816 0,-0.22909 0.03818,-0.381816 -0.03818,-0.162272 -0.03818,-0.381816 0,-0.22909 0.03818,-0.381816 -0.03818,-0.162272 -0.03818,-0.381816 0,-0.22909 0.03818,-0.381816 -0.03818,-0.162272 -0.03818,-0.381816 0,-0.22909 0.03818,-0.381816 h -0.572724 q -0.03818,-0.162272 -0.03818,-0.381816 0,-0.22909 0.03818,-0.381816 h 1.90908 q 0.03818,0.152726 0.03818,0.381816 0,0.219544 -0.03818,0.381816 h -0.572724 q 0.03818,0.152726 0.03818,0.381816 0,0.219544 -0.03818,0.381816 0.03818,0.152726 0.03818,0.381816 0,0.219544 -0.03818,0.381816 0.03818,0.152726 0.03818,0.381816 0,0.219544 -0.03818,0.381816 0.03818,0.152726 0.03818,0.381816 0,0.219544 -0.03818,0.381816 0.03818,0.152726 0.03818,0.381816 0,0.219544 -0.03818,0.381816 z" />
      <path
         id="path23884"
         style="font-style:normal;font-variant:normal;font-weight:normal;font-stretch:normal;font-size:9.5454px;font-family:VT323;-inkscape-font-specification:'VT323, Normal';font-variant-ligatures:normal;font-variant-caps:normal;font-variant-numeric:normal;font-variant-east-asian:normal;text-align:center;text-anchor:middle;fill:#ffffff;fill-opacity:1;stroke:none;stroke-width:0.67689;stroke-miterlimit:4;stroke-dasharray:none"
         d="m 55.790109,44.030163 q 0,0.219544 -0.03818,0.381816 H 54.60648 q 0.03818,0.152726 0.03818,0.381816 0,0.219544 -0.03818,0.381816 0.03818,0.152726 0.03818,0.381816 0,0.219544 -0.03818,0.381816 0.03818,0.152726 0.03818,0.381816 0,0.219544 -0.03818,0.381816 0.03818,0.152726 0.03818,0.381816 0,0.219544 -0.03818,0.381816 0.03818,0.152726 0.03818,0.381816 0,0.219544 -0.03818,0.381816 0.03818,0.152726 0.03818,0.381816 0,0.219544 -0.03818,0.381816 h -0.763632 q -0.03818,-0.162272 -0.03818,-0.381816 0,-0.22909 0.03818,-0.381816 -0.03818,-0.162272 -0.03818,-0.381816 0,-0.22909 0.03818,-0.381816 -0.03818,-0.162272 -0.03818,-0.381816 0,-0.22909 0.03818,-0.381816 -0.03818,-0.162272 -0.03818,-0.381816 0,-0.22909 0.03818,-0.381816 -0.03818,-0.162272 -0.03818,-0.381816 0,-0.22909 0.03818,-0.381816 -0.03818,-0.162272 -0.03818,-0.381816 0,-0.22909 0.03818,-0.381816 H 52.6974 q -0.03818,-0.162272 -0.03818,-0.381816 0,-0.22909 0.03818,-0.381816 h 3.054528 q 0.03818,0.152726 0.03818,0.381816 z" />
      <path
         id="path23886"
         style="font-style:normal;font-variant:normal;font-weight:normal;font-stretch:normal;font-size:9.5454px;font-family:VT323;-inkscape-font-specification:'VT323, Normal';font-variant-ligatures:normal;font-variant-caps:normal;font-variant-numeric:normal;font-variant-east-asian:normal;text-align:center;text-anchor:middle;fill:#ffffff;fill-opacity:1;stroke:none;stroke-width:0.67689;stroke-miterlimit:4;stroke-dasharray:none"
         d="m 59.001092,48.230139 q 0.03818,0.152726 0.03818,0.381816 0,0.219544 -0.03818,0.381816 h -1.90908 q -0.03818,-0.162272 -0.03818,-0.381816 0,-0.22909 0.03818,-0.381816 h 0.572724 q -0.03818,-0.162272 -0.03818,-0.381816 0,-0.22909 0.03818,-0.381816 -0.03818,-0.162272 -0.03818,-0.381816 0,-0.22909 0.03818,-0.381816 -0.03818,-0.162272 -0.03818,-0.381816 0,-0.22909 0.03818,-0.381816 -0.03818,-0.162272 -0.03818,-0.381816 0,-0.22909 0.03818,-0.381816 -0.03818,-0.162272 -0.03818,-0.381816 0,-0.22909 0.03818,-0.381816 h -0.572724 q -0.03818,-0.162272 -0.03818,-0.381816 0,-0.22909 0.03818,-0.381816 h 1.90908 q 0.03818,0.152726 0.03818,0.381816 0,0.219544 -0.03818,0.381816 h -0.572724 q 0.03818,0.152726 0.03818,0.381816 0,0.219544 -0.03818,0.381816 0.03818,0.152726 0.03818,0.381816 0,0.219544 -0.03818,0.381816 0.03818,0.152726 0.03818,0.381816 0,0.219544 -0.03818,0.381816 0.03818,0.152726 0.03818,0.381816 0,0.219544 -0.03818,0.381816 0.03818,0.152726 0.03818,0.381816 0,0.219544 -0.03818,0.381816 z" />
      <path
         id="path23888"
         style="font-style:normal;font-variant:normal;font-weight:normal;font-stretch:normal;font-size:9.5454px;font-family:VT323;-inkscape-font-specification:'VT323, Normal';font-variant-ligatures:normal;font-variant-caps:normal;font-variant-numeric:normal;font-variant-east-asian:normal;text-align:center;text-anchor:middle;fill:#ffffff;fill-opacity:1;stroke:none;stroke-width:0.67689;stroke-miterlimit:4;stroke-dasharray:none"
         d="m 63.395706,44.411979 q 0.03818,0.152726 0.03818,0.381816 0,0.219544 -0.03818,0.381816 0.03818,0.152726 0.03818,0.381816 0,0.219544 -0.03818,0.381816 0.03818,0.152726 0.03818,0.381816 0,0.219544 -0.03818,0.381816 0.03818,0.152726 0.03818,0.381816 0,0.219544 -0.03818,0.381816 0.03818,0.152726 0.03818,0.381816 0,0.219544 -0.03818,0.381816 0.03818,0.152726 0.03818,0.381816 0,0.219544 -0.03818,0.381816 h -0.763632 q -0.03818,-0.162272 -0.03818,-0.381816 0,-0.22909 0.03818,-0.381816 h -0.47727 q -0.03818,-0.162272 -0.03818,-0.381816 0,-0.22909 0.03818,-0.381816 h -0.286362 q -0.03818,-0.162272 -0.03818,-0.381816 0,-0.22909 0.03818,-0.381816 h -0.381816 q -0.03818,-0.162272 -0.03818,-0.381816 0,-0.22909 0.03818,-0.381816 H 61.10481 q 0.03818,0.152726 0.03818,0.381816 0,0.219544 -0.03818,0.381816 0.03818,0.152726 0.03818,0.381816 0,0.219544 -0.03818,0.381816 0.03818,0.152726 0.03818,0.381816 0,0.219544 -0.03818,0.381816 0.03818,0.152726 0.03818,0.381816 0,0.219544 -0.03818,0.381816 h -0.763632 q -0.03818,-0.162272 -0.03818,-0.381816 0,-0.22909 0.03818,-0.381816 -0.03818,-0.162272 -0.03818,-0.381816 0,-0.22909 0.03818,-0.381816 -0.03818,-0.162272 -0.03818,-0.381816 0,-0.22909 0.03818,-0.381816 -0.03818,-0.162272 -0.03818,-0.381816 0,-0.22909 0.03818,-0.381816 -0.03818,-0.162272 -0.03818,-0.381816 0,-0.22909 0.03818,-0.381816 -0.03818,-0.162272 -0.03818,-0.381816 0,-0.22909 0.03818,-0.381816 -0.03818,-0.162272 -0.03818,-0.381816 0,-0.22909 0.03818,-0.381816 h 0.95454 q 0.03818,0.152726 0.03818,0.381816 0,0.219544 -0.03818,0.381816 h 0.286362 q 0.03818,0.152726 0.03818,0.381816 0,0.219544 -0.03818,0.381816 h 0.286362 q 0.03818,0.152726 0.03818,0.381816 0,0.219544 -0.03818,0.381816 h 0.381816 q 0.03818,0.152726 0.03818,0.381816 0,0.219544 -0.03818,0.381816 h 0.381816 q -0.03818,-0.162272 -0.03818,-0.381816 0,-0.22909 0.03818,-0.381816 -0.03818,-0.162272 -0.03818,-0.381816 0,-0.22909 0.03818,-0.381816 -0.03818,-0.162272 -0.03818,-0.381816 0,-0.22909 0.03818,-0.381816 -0.03818,-0.162272 -0.03818,-0.381816 0,-0.22909 0.03818,-0.381816 h 0.763632 q 0.03818,0.152726 0.03818,0.381816 0,0.219544 -0.03818,0.381816 z" />
      <path
         id="path23890"
         style="font-style:normal;font-variant:normal;font-weight:normal;font-stretch:normal;font-size:9.5454px;font-family:VT323;-inkscape-font-specification:'VT323, Normal';font-variant-ligatures:normal;font-variant-caps:normal;font-variant-numeric:normal;font-variant-east-asian:normal;text-align:center;text-anchor:middle;fill:#ffffff;fill-opacity:1;stroke:none;stroke-width:0.67689;stroke-miterlimit:4;stroke-dasharray:none"
         d="m 67.217594,45.939243 q 0.03818,0.152726 0.03818,0.381816 0,0.219544 -0.03818,0.381816 0.03818,0.152726 0.03818,0.381816 0,0.219544 -0.03818,0.381816 0.03818,0.152726 0.03818,0.381816 0,0.219544 -0.03818,0.381816 h -0.381816 q 0.03818,0.152726 0.03818,0.381816 0,0.219544 -0.03818,0.381816 h -1.90908 q -0.03818,-0.162272 -0.03818,-0.381816 0,-0.22909 0.03818,-0.381816 h -0.381816 q -0.03818,-0.162272 -0.03818,-0.381816 0,-0.22909 0.03818,-0.381816 h -0.381816 q -0.03818,-0.162272 -0.03818,-0.381816 0,-0.22909 0.03818,-0.381816 -0.03818,-0.162272 -0.03818,-0.381816 0,-0.22909 0.03818,-0.381816 -0.03818,-0.162272 -0.03818,-0.381816 0,-0.22909 0.03818,-0.381816 h 0.381816 q -0.03818,-0.162272 -0.03818,-0.381816 0,-0.22909 0.03818,-0.381816 h 0.381816 q -0.03818,-0.162272 -0.03818,-0.381816 0,-0.22909 0.03818,-0.381816 h 1.90908 q 0.03818,0.152726 0.03818,0.381816 0,0.219544 -0.03818,0.381816 h 0.381816 q 0.03818,0.152726 0.03818,0.381816 0,0.219544 -0.03818,0.381816 h -0.763632 q -0.03818,-0.162272 -0.03818,-0.381816 0,-0.22909 0.03818,-0.381816 h -1.145448 q 0.03818,0.152726 0.03818,0.381816 0,0.219544 -0.03818,0.381816 h -0.381816 q 0.03818,0.152726 0.03818,0.381816 0,0.219544 -0.03818,0.381816 0.03818,0.152726 0.03818,0.381816 0,0.219544 -0.03818,0.381816 0.03818,0.152726 0.03818,0.381816 0,0.219544 -0.03818,0.381816 h 0.381816 q 0.03818,0.152726 0.03818,0.381816 0,0.219544 -0.03818,0.381816 h 1.145448 q -0.03818,-0.162272 -0.03818,-0.381816 0,-0.22909 0.03818,-0.381816 -0.03818,-0.162272 -0.03818,-0.381816 0,-0.22909 0.03818,-0.381816 h -0.572724 q -0.03818,-0.162272 -0.03818,-0.381816 0,-0.22909 0.03818,-0.381816 z" />
      <path
         id="path23892"
         style="font-style:normal;font-variant:normal;font-weight:normal;font-stretch:normal;font-size:9.5454px;font-family:VT323;-inkscape-font-specification:'VT323, Normal';font-variant-ligatures:normal;font-variant-caps:normal;font-variant-numeric:normal;font-variant-east-asian:normal;text-align:center;text-anchor:middle;fill:#ffffff;fill-opacity:1;stroke:none;stroke-width:0.67689;stroke-miterlimit:4;stroke-dasharray:none"
         d="m 74.288646,48.230139 q 0.03818,0.152726 0.03818,0.381816 0,0.219544 -0.03818,0.381816 h -1.90908 q -0.03818,-0.162272 -0.03818,-0.381816 0,-0.22909 0.03818,-0.381816 h 0.572724 q -0.03818,-0.162272 -0.03818,-0.381816 0,-0.22909 0.03818,-0.381816 -0.03818,-0.162272 -0.03818,-0.381816 0,-0.22909 0.03818,-0.381816 -0.03818,-0.162272 -0.03818,-0.381816 0,-0.22909 0.03818,-0.381816 -0.03818,-0.162272 -0.03818,-0.381816 0,-0.22909 0.03818,-0.381816 -0.03818,-0.162272 -0.03818,-0.381816 0,-0.22909 0.03818,-0.381816 h -0.572724 q -0.03818,-0.162272 -0.03818,-0.381816 0,-0.22909 0.03818,-0.381816 h 1.90908 q 0.03818,0.152726 0.03818,0.381816 0,0.219544 -0.03818,0.381816 h -0.572724 q 0.03818,0.152726 0.03818,0.381816 0,0.219544 -0.03818,0.381816 0.03818,0.152726 0.03818,0.381816 0,0.219544 -0.03818,0.381816 0.03818,0.152726 0.03818,0.381816 0,0.219544 -0.03818,0.381816 0.03818,0.152726 0.03818,0.381816 0,0.219544 -0.03818,0.381816 0.03818,0.152726 0.03818,0.381816 0,0.219544 -0.03818,0.381816 z" />
      <path
         id="path23894"
         style="font-style:normal;font-variant:normal;font-weight:normal;font-stretch:normal;font-size:9.5454px;font-family:VT323;-inkscape-font-specification:'VT323, Normal';font-variant-ligatures:normal;font-variant-caps:normal;font-variant-numeric:normal;font-variant-east-asian:normal;text-align:center;text-anchor:middle;fill:#ffffff;fill-opacity:1;stroke:none;stroke-width:0.67689;stroke-miterlimit:4;stroke-dasharray:none"
         d="m 78.683258,44.411979 q 0.03818,0.152726 0.03818,0.381816 0,0.219544 -0.03818,0.381816 0.03818,0.152726 0.03818,0.381816 0,0.219544 -0.03818,0.381816 0.03818,0.152726 0.03818,0.381816 0,0.219544 -0.03818,0.381816 0.03818,0.152726 0.03818,0.381816 0,0.219544 -0.03818,0.381816 0.03818,0.152726 0.03818,0.381816 0,0.219544 -0.03818,0.381816 0.03818,0.152726 0.03818,0.381816 0,0.219544 -0.03818,0.381816 h -0.763632 q -0.03818,-0.162272 -0.03818,-0.381816 0,-0.22909 0.03818,-0.381816 h -0.47727 q -0.03818,-0.162272 -0.03818,-0.381816 0,-0.22909 0.03818,-0.381816 h -0.286362 q -0.03818,-0.162272 -0.03818,-0.381816 0,-0.22909 0.03818,-0.381816 h -0.381816 q -0.03818,-0.162272 -0.03818,-0.381816 0,-0.22909 0.03818,-0.381816 h -0.381816 q 0.03818,0.152726 0.03818,0.381816 0,0.219544 -0.03818,0.381816 0.03818,0.152726 0.03818,0.381816 0,0.219544 -0.03818,0.381816 0.03818,0.152726 0.03818,0.381816 0,0.219544 -0.03818,0.381816 0.03818,0.152726 0.03818,0.381816 0,0.219544 -0.03818,0.381816 H 75.62873 q -0.03818,-0.162272 -0.03818,-0.381816 0,-0.22909 0.03818,-0.381816 -0.03818,-0.162272 -0.03818,-0.381816 0,-0.22909 0.03818,-0.381816 -0.03818,-0.162272 -0.03818,-0.381816 0,-0.22909 0.03818,-0.381816 -0.03818,-0.162272 -0.03818,-0.381816 0,-0.22909 0.03818,-0.381816 -0.03818,-0.162272 -0.03818,-0.381816 0,-0.22909 0.03818,-0.381816 -0.03818,-0.162272 -0.03818,-0.381816 0,-0.22909 0.03818,-0.381816 -0.03818,-0.162272 -0.03818,-0.381816 0,-0.22909 0.03818,-0.381816 h 0.95454 q 0.03818,0.152726 0.03818,0.381816 0,0.219544 -0.03818,0.381816 h 0.286362 q 0.03818,0.152726 0.03818,0.381816 0,0.219544 -0.03818,0.381816 h 0.286362 q 0.03818,0.152726 0.03818,0.381816 0,0.219544 -0.03818,0.381816 h 0.381816 q 0.03818,0.152726 0.03818,0.381816 0,0.219544 -0.03818,0.381816 h 0.381816 q -0.03818,-0.162272 -0.03818,-0.381816 0,-0.22909 0.03818,-0.381816 -0.03818,-0.162272 -0.03818,-0.381816 0,-0.22909 0.03818,-0.381816 -0.03818,-0.162272 -0.03818,-0.381816 0,-0.22909 0.03818,-0.381816 -0.03818,-0.162272 -0.03818,-0.381816 0,-0.22909 0.03818,-0.381816 h 0.763632 q 0.03818,0.152726 0.03818,0.381816 0,0.219544 -0.03818,0.381816 z" />
      <path
         id="path23896"
         style="font-style:normal;font-variant:normal;font-weight:normal;font-stretch:normal;font-size:9.5454px;font-family:VT323;-inkscape-font-specification:'VT323, Normal';font-variant-ligatures:normal;font-variant-caps:normal;font-variant-numeric:normal;font-variant-east-asian:normal;text-align:center;text-anchor:middle;fill:#ffffff;fill-opacity:1;stroke:none;stroke-width:0.67689;stroke-miterlimit:4;stroke-dasharray:none"
         d="m 82.543327,44.793795 q 0,0.219544 -0.03818,0.381816 0.03818,0.152726 0.03818,0.381816 0,0.219544 -0.03818,0.381816 H 82.12333 q 0.03818,0.152726 0.03818,0.381816 0,0.219544 -0.03818,0.381816 h -1.90908 q 0.03818,0.152726 0.03818,0.381816 0,0.219544 -0.03818,0.381816 0.03818,0.152726 0.03818,0.381816 0,0.219544 -0.03818,0.381816 0.03818,0.152726 0.03818,0.381816 0,0.219544 -0.03818,0.381816 h -0.763632 q -0.03818,-0.162272 -0.03818,-0.381816 0,-0.22909 0.03818,-0.381816 -0.03818,-0.162272 -0.03818,-0.381816 0,-0.22909 0.03818,-0.381816 -0.03818,-0.162272 -0.03818,-0.381816 0,-0.22909 0.03818,-0.381816 -0.03818,-0.162272 -0.03818,-0.381816 0,-0.22909 0.03818,-0.381816 -0.03818,-0.162272 -0.03818,-0.381816 0,-0.22909 0.03818,-0.381816 -0.03818,-0.162272 -0.03818,-0.381816 0,-0.22909 0.03818,-0.381816 -0.03818,-0.162272 -0.03818,-0.381816 0,-0.22909 0.03818,-0.381816 h 2.672712 q 0.03818,0.152726 0.03818,0.381816 0,0.219544 -0.03818,0.381816 h 0.381816 q 0.03818,0.152726 0.03818,0.381816 z m -0.801813,1.145448 q -0.03818,-0.162272 -0.03818,-0.381816 0,-0.22909 0.03818,-0.381816 -0.03818,-0.162272 -0.03818,-0.381816 0,-0.22909 0.03818,-0.381816 H 80.21425 q 0.03818,0.152726 0.03818,0.381816 0,0.219544 -0.03818,0.381816 0.03818,0.152726 0.03818,0.381816 0,0.219544 -0.03818,0.381816 z" />
      <path
         id="path23898"
         style="font-style:normal;font-variant:normal;font-weight:normal;font-stretch:normal;font-size:9.5454px;font-family:VT323;-inkscape-font-specification:'VT323, Normal';font-variant-ligatures:normal;font-variant-caps:normal;font-variant-numeric:normal;font-variant-east-asian:normal;text-align:center;text-anchor:middle;fill:#ffffff;fill-opacity:1;stroke:none;stroke-width:0.67689;stroke-miterlimit:4;stroke-dasharray:none"
         d="m 86.327037,44.411979 q 0.03818,0.152726 0.03818,0.381816 0,0.219544 -0.03818,0.381816 0.03818,0.152726 0.03818,0.381816 0,0.219544 -0.03818,0.381816 0.03818,0.152726 0.03818,0.381816 0,0.219544 -0.03818,0.381816 0.03818,0.152726 0.03818,0.381816 0,0.219544 -0.03818,0.381816 0.03818,0.152726 0.03818,0.381816 0,0.219544 -0.03818,0.381816 h -0.381816 q 0.03818,0.152726 0.03818,0.381816 0,0.219544 -0.03818,0.381816 h -2.290896 q -0.03818,-0.162272 -0.03818,-0.381816 0,-0.22909 0.03818,-0.381816 h -0.381816 q -0.03818,-0.162272 -0.03818,-0.381816 0,-0.22909 0.03818,-0.381816 -0.03818,-0.162272 -0.03818,-0.381816 0,-0.22909 0.03818,-0.381816 -0.03818,-0.162272 -0.03818,-0.381816 0,-0.22909 0.03818,-0.381816 -0.03818,-0.162272 -0.03818,-0.381816 0,-0.22909 0.03818,-0.381816 -0.03818,-0.162272 -0.03818,-0.381816 0,-0.22909 0.03818,-0.381816 -0.03818,-0.162272 -0.03818,-0.381816 0,-0.22909 0.03818,-0.381816 h 0.763632 q 0.03818,0.152726 0.03818,0.381816 0,0.219544 -0.03818,0.381816 0.03818,0.152726 0.03818,0.381816 0,0.219544 -0.03818,0.381816 0.03818,0.152726 0.03818,0.381816 0,0.219544 -0.03818,0.381816 0.03818,0.152726 0.03818,0.381816 0,0.219544 -0.03818,0.381816 0.03818,0.152726 0.03818,0.381816 0,0.219544 -0.03818,0.381816 0.03818,0.152726 0.03818,0.381816 0,0.219544 -0.03818,0.381816 h 1.527264 q -0.03818,-0.162272 -0.03818,-0.381816 0,-0.22909 0.03818,-0.381816 -0.03818,-0.162272 -0.03818,-0.381816 0,-0.22909 0.03818,-0.381816 -0.03818,-0.162272 -0.03818,-0.381816 0,-0.22909 0.03818,-0.381816 -0.03818,-0.162272 -0.03818,-0.381816 0,-0.22909 0.03818,-0.381816 -0.03818,-0.162272 -0.03818,-0.381816 0,-0.22909 0.03818,-0.381816 -0.03818,-0.162272 -0.03818,-0.381816 0,-0.22909 0.03818,-0.381816 h 0.763632 q 0.03818,0.152726 0.03818,0.381816 0,0.219544 -0.03818,0.381816 z" />
      <path
         id="path23900"
         style="font-style:normal;font-variant:normal;font-weight:normal;font-stretch:normal;font-size:9.5454px;font-family:VT323;-inkscape-font-specification:'VT323, Normal';font-variant-ligatures:normal;font-variant-caps:normal;font-variant-numeric:normal;font-variant-east-asian:normal;text-align:center;text-anchor:middle;fill:#ffffff;fill-opacity:1;stroke:none;stroke-width:0.67689;stroke-miterlimit:4;stroke-dasharray:none"
         d="m 90.187107,44.030163 q 0,0.219544 -0.03818,0.381816 h -1.145448 q 0.03818,0.152726 0.03818,0.381816 0,0.219544 -0.03818,0.381816 0.03818,0.152726 0.03818,0.381816 0,0.219544 -0.03818,0.381816 0.03818,0.152726 0.03818,0.381816 0,0.219544 -0.03818,0.381816 0.03818,0.152726 0.03818,0.381816 0,0.219544 -0.03818,0.381816 0.03818,0.152726 0.03818,0.381816 0,0.219544 -0.03818,0.381816 0.03818,0.152726 0.03818,0.381816 0,0.219544 -0.03818,0.381816 h -0.763632 q -0.03818,-0.162272 -0.03818,-0.381816 0,-0.22909 0.03818,-0.381816 -0.03818,-0.162272 -0.03818,-0.381816 0,-0.22909 0.03818,-0.381816 -0.03818,-0.162272 -0.03818,-0.381816 0,-0.22909 0.03818,-0.381816 -0.03818,-0.162272 -0.03818,-0.381816 0,-0.22909 0.03818,-0.381816 -0.03818,-0.162272 -0.03818,-0.381816 0,-0.22909 0.03818,-0.381816 -0.03818,-0.162272 -0.03818,-0.381816 0,-0.22909 0.03818,-0.381816 h -1.145448 q -0.03818,-0.162272 -0.03818,-0.381816 0,-0.22909 0.03818,-0.381816 h 3.054528 q 0.03818,0.152726 0.03818,0.381816 z" />
    </g>
  </g>
</svg>
