<?xml version="1.0" encoding="UTF-8" standalone="no"?>
<svg
   xmlns:dc="http://purl.org/dc/elements/1.1/"
   xmlns:cc="http://creativecommons.org/ns#"
   xmlns:rdf="http://www.w3.org/1999/02/22-rdf-syntax-ns#"
   xmlns:svg="http://www.w3.org/2000/svg"
   xmlns="http://www.w3.org/2000/svg"
   xmlns:sodipodi="http://sodipodi.sourceforge.net/DTD/sodipodi-0.dtd"
   xmlns:inkscape="http://www.inkscape.org/namespaces/inkscape"
   inkscape:version="1.0 (4035a4fb49, 2020-05-01)"
   sodipodi:docname="noun_Hedgehog_12558.svg"
   id="svg14"
   xml:space="preserve"
   enable-background="new 0 0 841.89 595.28"
   viewBox="0 0 841.89 744.0999999999999"
   y="0px"
   x="0px"
   version="1.1"><metadata
     id="metadata20"><rdf:RDF><cc:Work
         rdf:about=""><dc:format>image/svg+xml</dc:format><dc:type
           rdf:resource="http://purl.org/dc/dcmitype/StillImage" /></cc:Work></rdf:RDF></metadata><defs
     id="defs18" /><sodipodi:namedview
     inkscape:current-layer="g8"
     inkscape:cy="372.04999"
     inkscape:cx="420.94501"
     inkscape:zoom="0.76199438"
     showgrid="false"
     id="namedview16"
     inkscape:window-height="480"
     inkscape:window-width="640"
     inkscape:pageshadow="2"
     inkscape:pageopacity="0"
     guidetolerance="10"
     gridtolerance="10"
     objecttolerance="10"
     borderopacity="1"
     bordercolor="#666666"
     pagecolor="#ffffff" /><g
     id="g8"><path
       sodipodi:nodetypes="cccccccsccccccccccccccccccccccscccsscc"
       d="m 629.33089,185.6661 c -21.13127,9.07873 -35.79296,59.20116 -35.79296,59.20116 -20.72984,1.70051 -35.15501,-56.6416 -34.01492,-60.06188 -11.73275,22.12392 -31.95579,81.8568 -31.95579,81.8568 -60.66312,-44.29007 -121.58691,-15.25093 -121.58691,-15.25093 35.6278,23.55255 30.58851,49.22564 30.58851,49.22564 -64.8318,-32.0453 -111.08398,5.37644 -111.08398,5.37644 33.60607,13.05156 66.98805,33.84149 35.91836,39.19907 -30.03013,5.17832 -74.75454,-10.26994 -99.87972,12.289 14.37356,16.80664 43.45292,42.78758 43.45292,42.78758 -52.30524,-17.92446 -89.48041,31.57473 -89.48041,31.57473 28.56694,14.21232 67.95135,12.13772 58.37209,30.68603 -11.88501,-2.89701 -63.41673,46.19891 -65.93135,67.54845 28.71064,-21.69477 41.0279,-2.40607 56.4432,9.13754 -38.11238,14.01592 -46.42501,37.48947 -46.42501,37.48947 19.57107,-4.12744 61.39258,18.14453 61.39258,18.14453 -1.86387,4.26039 -13.83594,51.3789 -13.83594,51.3789 l 31.74414,-15.52539 c -17.3246,16.56882 66.51228,6.75175 52.4668,6.3711 8.55449,-11.01842 18.02674,-21.38795 28.0957,-31.22461 6.50026,10.61934 11.75556,13.86115 4.48242,31.36719 11.89399,5.1261 16.48402,10.87074 48.79765,-1.01953 -1.32301,-25.01269 -10.25533,-44.45247 -9.62968,-67.61329 7.0374,-5.35504 14.15452,-10.54997 21.28711,-15.58789 42.51199,-15.95618 111.61815,-92.80444 144.98118,-79.88205 5.83064,6.98977 8.98708,18.89769 12.46063,27.15751 3.53605,8.40901 4.79524,20.06929 13.07646,25.37002 6.40243,4.09836 16.47716,4.99191 23.92184,4.26795 6.63466,-0.6457 14.11865,-3.37842 18.62078,-8.55737 -0.27468,0.31536 -8.73328,-13.04677 -9.29933,-14.21036 -2.49355,-5.13072 -5.19355,-11.07254 -5.57044,-16.84785 -0.6077,-9.311 -2.8268,-30.07712 1.82353,-37.58743 10.51726,-16.30589 25.97588,-19.86116 47.02734,-24.65234 15.85781,-2.55494 30.58522,-12.70296 37.8711,-25.45313 8.06796,-7.21007 21.70636,-21.50572 11.24739,-32.67102 -13.0931,-13.97732 -36.78589,-24.53751 -44.67318,-27.1864 -26.19878,-8.79866 -40.81859,-29.07597 -55.09375,-78.46484 -6.36703,-23.83317 -2.78714,-59.96121 -9.81836,-78.6328 z"
       id="path2" /><g
       transform="translate(175.85432,132.54691)"
       id="g859"><circle
         style="color:#000000;overflow:visible;fill:#ffffff;fill-opacity:0.919355;stroke-linecap:round;stroke-linejoin:round;paint-order:markers fill stroke"
         id="path853"
         cx="440.94812"
         cy="219.16173"
         r="38.058022" /><circle
         r="15.748145"
         cy="219.16173"
         cx="440.94812"
         id="circle855"
         style="color:#000000;overflow:visible;fill:#000000;fill-opacity:0.919355;stroke-width:1;stroke-linecap:round;stroke-linejoin:round;paint-order:markers fill stroke" /></g><g
       style="stroke-width:1.26442"
       transform="matrix(0.57152281,-0.54648121,0.60178038,0.51900409,366.27918,-53.01048)"
       id="g886"><path
         id="path861"
         style="color:#000000;overflow:visible;fill:#ffffff;fill-opacity:0.919355;stroke:#000000;stroke-width:12.6442;stroke-linecap:round;stroke-linejoin:round;stroke-miterlimit:4;stroke-dasharray:none;paint-order:markers fill stroke"
         d="m -170.60493,216.21727 c 0,125.38842 -36.95613,277.2247 -94.48889,289.03581 -72.05194,-31.20976 -66.92963,-167.58443 -66.92963,-292.97285 0,-125.388404 6.77219,-161.098755 66.92963,-161.098755 60.15745,0 94.48889,39.647386 94.48889,165.035795 z"
         sodipodi:nodetypes="sccss" /><path
         style="color:#000000;overflow:visible;fill:#ffffff;fill-opacity:0.919355;stroke:#000000;stroke-width:12.6442;stroke-linecap:round;stroke-linejoin:round;stroke-miterlimit:4;stroke-dasharray:none;paint-order:markers fill stroke"
         d="m -265.09382,505.25308 c 0,0 41.49778,-224.77963 36.78087,-331.90944 -1.09461,-24.86069 -29.61256,-46.01033 -44.65494,-73.605375"
         id="path864"
         sodipodi:nodetypes="csc" /><path
         style="color:#000000;overflow:visible;fill:#ffffff;fill-opacity:0.919355;stroke:#000000;stroke-width:12.6442;stroke-linecap:round;stroke-linejoin:round;stroke-miterlimit:4;stroke-dasharray:none;paint-order:markers fill stroke"
         d="m -230.97283,261.15678 c 0,0 -62.99259,-77.42839 -61.68025,-97.11358"
         id="path866" /><path
         style="color:#000000;overflow:visible;fill:#ffffff;fill-opacity:0.919355;stroke:#000000;stroke-width:12.6442;stroke-linecap:round;stroke-linejoin:round;stroke-miterlimit:4;stroke-dasharray:none;paint-order:markers fill stroke"
         d="m -271.65555,212.59999 c 0,0 -34.12098,22.30988 -39.37037,11.81111"
         id="path868" /><path
         style="color:#000000;overflow:visible;fill:#ffffff;fill-opacity:0.919355;stroke:#000000;stroke-width:12.6442;stroke-linecap:round;stroke-linejoin:round;stroke-miterlimit:4;stroke-dasharray:none;paint-order:markers fill stroke"
         d="m -254.59505,438.32344 c 0,0 43.3074,-62.99259 49.86913,-86.61481"
         id="path870" /><path
         style="color:#000000;overflow:visible;fill:#ffffff;fill-opacity:0.919355;stroke:#000000;stroke-width:12.6442;stroke-linecap:round;stroke-linejoin:round;stroke-miterlimit:4;stroke-dasharray:none;paint-order:markers fill stroke"
         d="m -240.15925,349.08394 c 0,0 -47.24444,-28.87161 -44.61975,-44.61975"
         id="path872"
         sodipodi:nodetypes="cc" /><path
         style="color:#000000;overflow:visible;fill:#ffffff;fill-opacity:0.919355;stroke:#000000;stroke-width:12.6442;stroke-linecap:round;stroke-linejoin:round;stroke-miterlimit:4;stroke-dasharray:none;paint-order:markers fill stroke"
         d="m -266.40616,334.64814 c -27.0199,14.75316 -27.17117,41.53017 -35.43333,62.99258"
         id="path874"
         sodipodi:nodetypes="cc" /><path
         style="color:#000000;overflow:visible;fill:#ffffff;fill-opacity:0.919355;stroke:#000000;stroke-width:12.6442;stroke-linecap:round;stroke-linejoin:round;stroke-miterlimit:4;stroke-dasharray:none;paint-order:markers fill stroke"
         d="m -225.72345,208.66296 c 0,0 28.8716,-36.74568 23.62222,-68.24198"
         id="path876" /></g></g></svg>
