<svg xmlns="http://www.w3.org/2000/svg" fill="currentColor" stroke="currentColor" stroke-width="0" viewBox="0 0 576 512">
  <path stroke="none" d="M480 416v16a48 48 0 01-48 48H48a48 48 0 01-48-48V176a48 48 0 0148-48h16v48H54a6 6 0 00-6 6v244a6 6 0 006 6h372a6 6 0 006-6v-10h48zm42-336H150a6 6 0 00-6 6v244a6 6 0 006 6h372a6 6 0 006-6V86a6 6 0 00-6-6zm6-48a48 48 0 0148 48v256a48 48 0 01-48 48H144a48 48 0 01-48-48V80a48 48 0 0148-48h384zM264 144a40 40 0 11-80 0 40 40 0 0180 0zm-72 96l39.52-39.52a12 12 0 0116.97 0L288 240l103.52-103.52a12 12 0 0116.97 0L480 208v80H192v-48z"/>
</svg>
