<svg xmlns="http://www.w3.org/2000/svg" id="svg3030" version="1.1" viewBox="0 0 14.33 17.28">
  <g id="layer1" stroke-dasharray="none" stroke-linejoin="round" stroke-miterlimit="4" stroke-width=".53" color="#000" paint-order="markers fill stroke" transform="translate(-13.24 -7.12)">
    <path id="path2956" fill="none" fill-opacity=".99" stroke="#000" stroke-linecap="square" stroke-opacity="1" d="M24.84 19.33c1.25-4.36-7.88-2.88-4.2-.8 2.94 1.67 3.91-6.1-1.02-6.15" overflow="visible" stop-color="#000"/>
    <rect id="rect2958" width="2.64" height="3.96" x="-26.35" y="19.24" fill="red" fill-opacity=".99" stroke="#000" stroke-linecap="round" stroke-opacity="1" overflow="visible" rx="1.13" ry="1.2" stop-color="#000" transform="scale(-1 1)"/>
    <path id="path2960" fill="#a00" fill-opacity="1" stroke="#000" stroke-linecap="round" stroke-opacity="1" d="M26.28 20.99h-2.57c-.57 0-1.03.9-1.03 2v1.15h4.63v-1.15c0-1.1-.46-2-1.03-2z" overflow="visible" stop-color="#000"/>
    <path id="rect2867" fill="#a00" fill-opacity=".99" stroke="#000" stroke-linecap="round" stroke-opacity="1" d="M14.92 7.96h-.25v8.5h.25a4.33 4.33 0 004.46-4.22v-.07c0-2.33-1.99-4.2-4.46-4.2z" overflow="visible" stop-color="#000"/>
    <rect id="rect2963" width="1.24" height="9.75" x="-14.75" y="7.38" fill="red" fill-opacity="1" stroke="#000" stroke-linecap="square" stroke-opacity="1" overflow="visible" rx="4.92" ry=".76" stop-color="#000" transform="scale(-1 1)"/>
    <path id="path3614" fill="#500" stroke="#fff" stroke-linecap="round" d="M15.9 9.1c.91.23 1.7 1 2.07 1.7" overflow="visible" stop-color="#000"/>
    <path id="path3620" fill="none" stroke="#fff" stroke-linecap="round" d="M25.8 21.85c.4.07.64.46.69 1" overflow="visible" stop-color="#000"/>
    <path id="path3622" fill="none" stroke="#fff" stroke-linecap="round" d="M18.43 11.47v0" overflow="visible" stop-color="#000"/>
  </g>
</svg>
