<?xml version="1.0" encoding="UTF-8" standalone="no"?>
<svg
   xmlns:dc="http://purl.org/dc/elements/1.1/"
   xmlns:cc="http://creativecommons.org/ns#"
   xmlns:rdf="http://www.w3.org/1999/02/22-rdf-syntax-ns#"
   xmlns:svg="http://www.w3.org/2000/svg"
   xmlns="http://www.w3.org/2000/svg"
   xmlns:sodipodi="http://sodipodi.sourceforge.net/DTD/sodipodi-0.dtd"
   xmlns:inkscape="http://www.inkscape.org/namespaces/inkscape"
   sodipodi:docname="sketchy-web-elements.svg"
   inkscape:version="1.0 (4035a4fb49, 2020-05-01)"
   id="svg8"
   version="1.1"
   viewBox="0 0 210 297"
   height="297mm"
   width="210mm">
  <defs
     id="defs2">
    <inkscape:path-effect
       tgtlength_rdm="0.3;1"
       tgtlength="100"
       tgtscale="10"
       tgt_places_rdmness="0.7;1"
       nbtangents="0"
       tremble_frequency="3.51"
       tremble_size="1.5;1866837988"
       parallel_offset="0.4;-2043538030"
       ends_tolerance="0.1;-64550073"
       strokeoverlap_rdm="0.1;640227810"
       strokeoverlap="0.3"
       strokelength_rdm="0;1818729994"
       strokelength="85"
       nbiter_approxstrokes="4"
       lpeversion="1"
       is_visible="true"
       id="path-effect937"
       effect="sketch" />
    <inkscape:path-effect
       tgtlength_rdm="0.3;1"
       tgtlength="100"
       tgtscale="10"
       tgt_places_rdmness="0.7;1"
       nbtangents="0"
       tremble_frequency="3.51"
       tremble_size="1.5;1866837988"
       parallel_offset="0.4;-2043538030"
       ends_tolerance="0.1;-64550073"
       strokeoverlap_rdm="0.1;640227810"
       strokeoverlap="0.3"
       strokelength_rdm="0;1818729994"
       strokelength="66"
       nbiter_approxstrokes="2"
       lpeversion="1"
       is_visible="true"
       id="path-effect917"
       effect="sketch" />
    <inkscape:path-effect
       back_thickness="0.25"
       front_thickness="1"
       stroke_width_bottom="1"
       stroke_width_top="1"
       fat_output="true"
       bottom_smth_variation="0;1"
       top_smth_variation="0;1"
       scale_tb="1"
       scale_tf="1"
       scale_bb="1"
       scale_bf="1"
       top_tgt_variation="0;1"
       bottom_tgt_variation="0;1"
       top_edge_variation="3.494548;1"
       bottom_edge_variation="10;1"
       bender="81.313069,174.04824 , -6.2368851,0.6174095"
       do_bend="true"
       growth="0"
       dist_rdm="80;1"
       direction="76.867709,168.92476 , 9.1068171,2.2226778"
       lpeversion="1"
       is_visible="true"
       id="path-effect911"
       effect="rough_hatches" />
    <inkscape:path-effect
       back_thickness="0.25"
       front_thickness="1.1"
       stroke_width_bottom="1"
       stroke_width_top="1"
       fat_output="true"
       bottom_smth_variation="0;1"
       top_smth_variation="0.6;1"
       scale_tb="1.5"
       scale_tf="1.3"
       scale_bb="1.3"
       scale_bf="1"
       top_tgt_variation="0.3;1"
       bottom_tgt_variation="0.6;1"
       top_edge_variation="1.69;1"
       bottom_edge_variation="2.29;1"
       bender="83.782715,169.23243 , 5,0"
       do_bend="true"
       growth="0"
       dist_rdm="72.2;-1038236845"
       direction="84.276644,165.8377 , 14.787001,0"
       lpeversion="1"
       is_visible="true"
       id="path-effect907"
       effect="rough_hatches" />
    <inkscape:path-effect
       tgtlength_rdm="0.8;1"
       tgtlength="87"
       tgtscale="10"
       tgt_places_rdmness="0.7;1"
       nbtangents="0"
       tremble_frequency="1.01"
       tremble_size="1.3;1"
       parallel_offset="0.2;1"
       ends_tolerance="0.1;1"
       strokeoverlap_rdm="0.1;1"
       strokeoverlap="0.2"
       strokelength_rdm="0;1"
       strokelength="22"
       nbiter_approxstrokes="2"
       lpeversion="1"
       is_visible="true"
       id="path-effect903"
       effect="sketch" />
    <inkscape:path-effect
       tgtlength_rdm="0.8;1"
       tgtlength="87"
       tgtscale="10"
       tgt_places_rdmness="0.7;1"
       nbtangents="0"
       tremble_frequency="1.01"
       tremble_size="1.3;1"
       parallel_offset="0.2;1"
       ends_tolerance="0.1;1"
       strokeoverlap_rdm="0.1;1"
       strokeoverlap="0.2"
       strokelength_rdm="0;1"
       strokelength="22"
       nbiter_approxstrokes="2"
       lpeversion="1"
       is_visible="true"
       id="path-effect901"
       effect="sketch" />
    <inkscape:path-effect
       tgtlength_rdm="0.8;1"
       tgtlength="87"
       tgtscale="10"
       tgt_places_rdmness="0.7;1"
       nbtangents="0"
       tremble_frequency="1.01"
       tremble_size="1.3;1"
       parallel_offset="0.2;1"
       ends_tolerance="0.1;1"
       strokeoverlap_rdm="0.1;1"
       strokeoverlap="0.2"
       strokelength_rdm="0;1"
       strokelength="22"
       nbiter_approxstrokes="2"
       lpeversion="1"
       is_visible="true"
       id="path-effect873"
       effect="sketch" />
    <inkscape:path-effect
       effect="sketch"
       id="path-effect871"
       is_visible="true"
       lpeversion="1"
       nbiter_approxstrokes="2"
       strokelength="66"
       strokelength_rdm="0;1818729994"
       strokeoverlap="0.3"
       strokeoverlap_rdm="0.1;640227810"
       ends_tolerance="0.1;-64550073"
       parallel_offset="0.4;-2043538030"
       tremble_size="1.5;1866837988"
       tremble_frequency="3.51"
       nbtangents="0"
       tgt_places_rdmness="0.7;1"
       tgtscale="10"
       tgtlength="100"
       tgtlength_rdm="0.3;1" />
    <inkscape:path-effect
       effect="sketch"
       id="path-effect859"
       is_visible="true"
       lpeversion="1"
       nbiter_approxstrokes="2"
       strokelength="22"
       strokelength_rdm="0;1"
       strokeoverlap="0.2"
       strokeoverlap_rdm="0.1;1"
       ends_tolerance="0.1;1"
       parallel_offset="0.2;1"
       tremble_size="1.3;1"
       tremble_frequency="1.01"
       nbtangents="0"
       tgt_places_rdmness="0.7;1"
       tgtscale="10"
       tgtlength="87"
       tgtlength_rdm="0.8;1" />
    <inkscape:path-effect
       tgtlength_rdm="0.3;1"
       tgtlength="100"
       tgtscale="10"
       tgt_places_rdmness="0.7;1"
       nbtangents="0"
       tremble_frequency="3.51"
       tremble_size="1.5;1"
       parallel_offset="0.4;1"
       ends_tolerance="0.1;1"
       strokeoverlap_rdm="0.1;1"
       strokeoverlap="0.3"
       strokelength_rdm="0;1"
       strokelength="66"
       nbiter_approxstrokes="2"
       lpeversion="1"
       is_visible="true"
       id="path-effect841"
       effect="sketch" />
  </defs>
  <sodipodi:namedview
     showgrid="false"
     inkscape:document-rotation="0"
     inkscape:current-layer="layer1"
     inkscape:document-units="mm"
     inkscape:cy="393.07405"
     inkscape:cx="-51.877907"
     inkscape:zoom="0.53567073"
     inkscape:pageshadow="2"
     inkscape:pageopacity="0.0"
     borderopacity="1.0"
     bordercolor="#666666"
     pagecolor="#ffffff"
     id="base" />
  <metadata
     id="metadata5">
    <rdf:RDF>
      <cc:Work
         rdf:about="">
        <dc:format>image/svg+xml</dc:format>
        <dc:type
           rdf:resource="http://purl.org/dc/dcmitype/StillImage" />
        <dc:title></dc:title>
      </cc:Work>
    </rdf:RDF>
  </metadata>
  <g
     id="layer1"
     inkscape:groupmode="layer"
     inkscape:label="Layer 1">
    <path
       inkscape:original-d="m 81.730292,104.87459 h 17.617535 c 2.870623,0 5.181633,2.23858 5.181633,5.01925 v 17.06542 c 0,2.78067 -2.31101,5.01926 -5.181633,5.01926 H 81.730292 c -2.870623,0 -5.181632,-2.23859 -5.181632,-5.01926 v -17.06542 c 0,-2.78067 2.311009,-5.01925 5.181632,-5.01925 z"
       inkscape:path-effect="#path-effect841"
       d="m 86.61547,106.27015 c 4.749048,-0.23732 8.985676,-0.13639 13.175217,-0.0627 1.852603,0.0326 3.447573,1.10085 4.244513,2.6462 0.3692,0.71591 0.56783,1.53629 0.53718,2.40623 -0.18871,5.35692 -0.21269,10.54381 -0.63589,15.53597 -0.0208,0.24484 -0.0392,0.49165 -0.0555,0.74033 -0.17139,2.61486 -2.41273,4.85302 -5.130193,4.94771 -3.130456,0.10908 -6.099181,0.33162 -9.128746,0.44546 -2.314035,0.087 -4.890253,0.0856 -7.614219,0.0393 -0.7301,-0.0124 -1.43684,-0.15361 -2.094507,-0.40002 m 17.683057,-1.8322 c -5.893002,-0.42145 -10.986498,0.0911 -16.179593,0.54664 -0.737998,0.0647 -1.438897,-0.0418 -2.066858,-0.28508 -1.673913,-0.64842 -2.843803,-2.31483 -2.801875,-4.29073 0.09023,-4.25199 0.107441,-8.66668 0.372499,-12.76539 0.08178,-1.26457 0.1169,-2.57196 0.116735,-3.91154 -3.44e-4,-2.78625 2.175041,-5.12726 4.850289,-5.30836 2.093376,-0.14171 4.151061,-0.31442 6.227017,-0.46761 2.946974,-0.21747 6.324544,-0.27547 9.937645,-0.34644 m -10.489514,2.14142 c 3.612615,0.16971 7.658303,-0.15153 11.929145,-0.77339 2.989648,-0.43531 5.517958,0.979 6.281608,2.85725 0.0628,0.15443 0.1099,0.3158 0.14053,0.48315 0.82124,4.48673 -0.85579,11.52177 -2.52907,17.66044 -0.1113,0.40832 -0.26241,0.80178 -0.44972,1.17619 -1.18592,2.3706 -3.349041,4.06692 -5.659123,4.01564 -3.65385,-0.0811 -6.44631,-0.34649 -9.771233,-0.53065 -1.599121,-0.0886 -3.376724,-0.0981 -5.247516,-0.0529 -1.348509,0.0325 -2.611332,-0.42255 -3.57047,-1.19059 m 16.554406,3.86116 c -4.528675,-0.16531 -8.958368,-0.0513 -12.917495,0.0532 -1.350294,0.0356 -2.49701,-0.64582 -3.097277,-1.74462 -0.465291,-0.85173 -0.734436,-1.95782 -0.640037,-3.19396 0.397467,-5.20477 -0.735322,-10.76291 -0.96592,-16.53617 -0.026,-0.65095 -0.0486,-1.2908 -0.06845,-1.92147 -0.09541,-3.03155 2.191446,-5.32156 5.017821,-5.37175 2.97508,-0.0528 5.94258,-0.0963 8.80873,-0.40444 2.709078,-0.29128 5.625449,-0.23464 8.657554,-0.009 0.37598,0.028 0.7448,0.0919 1.1028,0.18813"
       style="color:#000000;overflow:visible;fill:#ffffff;stroke:#000000;stroke-width:0.264583;stroke-linecap:round;stroke-linejoin:round;paint-order:markers fill stroke"
       id="rect835" />
    <path
       inkscape:original-d="m 85.507553,124.91821 v -12.94362 l 11.569837,6.47182 z"
       inkscape:path-effect="#path-effect859"
       d="m 85.965111,124.56302 c 0.20169,-3.98965 0.158076,-7.81242 0.03352,-11.60569 2.874793,1.70842 5.685201,3.44032 8.547821,5.09821 0.06354,0.0368 0.127113,0.0736 0.190719,0.11034 m -3.4013,-2.69399 c 2.105425,1.05843 4.103536,2.14553 6.027286,3.24371 -4.00545,2.1166 -8.287135,4.27435 -12.609136,6.34733 -0.05747,-0.55609 -0.115553,-1.11348 -0.173808,-1.67239 -0.0081,-0.0778 -0.01604,-0.15556 -0.02379,-0.23335 m 0.548558,-0.41055 c 0.197411,-3.47902 0.233446,-7.06352 0.262819,-10.64592 3.200331,1.81555 6.393966,3.6332 9.736789,5.56137 0.06987,0.0403 0.13964,0.0805 0.209311,0.12064 m -2.304477,-3.08895 c 1.681003,1.09843 3.383157,2.19022 5.080925,3.29775 -4.057306,2.38494 -8.134945,4.84294 -12.4879,7.59777 -0.08832,-0.67998 -0.185354,-1.35056 -0.292543,-2.01048 -0.01035,-0.0637 -0.02044,-0.12779 -0.03026,-0.19218"
       inkscape:transform-center-y="0.054568174"
       inkscape:transform-center-x="-1.9460668"
       style="color:#000000;overflow:visible;fill:#ffe680;stroke:#000000;stroke-width:0.264583;stroke-linecap:round;stroke-linejoin:round;paint-order:markers fill stroke"
       id="path837" />
    <path
       id="path865"
       style="color:#000000;overflow:visible;fill:#ffffff;stroke:#000000;stroke-width:0.265;stroke-linecap:round;stroke-linejoin:round;stroke-miterlimit:4;stroke-dasharray:none;paint-order:markers fill stroke"
       d="m 146.35225,110.52516 c -0.10693,4.96464 -0.30176,10.61557 -0.793,16.47276 -0.10682,1.27365 -0.56606,2.45973 -1.27975,3.45432 -1.09774,1.52979 -2.69296,2.48163 -4.44119,2.49782 -4.83909,0.0448 -9.27369,-0.61108 -14.2266,-0.87695 -1.08498,-0.0583 -2.15283,-0.0897 -3.20858,-0.0992 -2.86829,-0.0257 -5.11112,-2.21308 -5.12494,-4.88867 -0.0123,-2.38852 -0.0318,-4.71595 -0.13904,-7.05788 -0.13335,-2.91235 -0.0974,-6.25639 0.001,-9.80943 m 2.62222,19.8484 c -0.36765,-0.66495 -0.58064,-1.44661 -0.59427,-2.29779 -0.0858,-5.35522 -0.28493,-11.50221 -0.72989,-17.66247 -0.0356,-0.49275 -0.0681,-0.97577 -0.0982,-1.4499 -0.19811,-3.12921 1.9698,-5.33686 4.63295,-5.08856 3.02687,0.2822 6.02015,0.76502 8.78217,1.13013 2.20936,0.29204 4.73195,0.36345 7.41195,0.35788 2.95369,-0.006 5.49231,2.21549 5.84484,5.07566 0.13116,1.06407 0.26101,2.14149 0.37783,3.24307 0.35024,3.30259 0.30477,6.50954 0.13499,9.70264 m -1.58036,-11.49842 c -0.0304,5.83218 0.15943,10.79475 0.50663,15.72533 0.0528,0.74916 -0.0814,1.45524 -0.3601,2.07521 -0.68571,1.52521 -2.3269,2.61235 -4.27389,2.58525 -4.32861,-0.0602 -8.8538,0.17317 -13.11645,0.0759 -1.2592,-0.0287 -2.52784,-0.0208 -3.80122,0.0199 -2.72961,0.0873 -4.9449,-2.02817 -4.89089,-4.5446 0.0432,-2.01461 0.10219,-3.95055 0.20314,-5.82883 0.14057,-2.61526 0.0102,-6.00805 -0.28097,-9.71912 m 1.23919,17.97596 c -0.46917,-0.7747 -0.7504,-1.67041 -0.78297,-2.6195 -0.17991,-5.24365 -0.45665,-10.17319 -1.16743,-14.81019 -0.0704,-0.45951 -0.12455,-0.93482 -0.16384,-1.42444 -0.21536,-2.68368 2.24178,-5.13431 5.36188,-5.47909 3.481,-0.38466 7.2025,-0.99565 10.87049,-1.5423 3.13759,-0.4676 5.80606,-0.46234 8.27656,-0.22831 2.6174,0.24795 4.52379,2.99936 4.22458,6.35142 -0.10163,1.13854 -0.19248,2.27433 -0.25871,3.39491 -0.21786,3.686 -0.14162,6.7411 0.0562,9.5441"
       inkscape:path-effect="#path-effect871"
       inkscape:original-d="m 145.13214,110.04425 v 17.61753 c 0,2.87063 -2.23858,5.18164 -5.01925,5.18164 h -17.06542 c -2.78067,0 -5.01926,-2.31101 -5.01926,-5.18164 v -17.61753 c 0,-2.87062 2.23859,-5.18163 5.01926,-5.18163 h 17.06542 c 2.78067,0 5.01925,2.31101 5.01925,5.18163 z" />
    <path
       inkscape:original-d="m 127.49544,111.01056 h 0.95541 c 0.85512,0 1.54353,0.15578 1.54353,0.34927 v 13.87236 c 0,0.1935 -0.68841,0.34928 -1.54353,0.34928 h -0.95541 c -0.85511,0 -1.54353,-0.15578 -1.54353,-0.34928 v -13.87236 c 0,-0.19349 0.68842,-0.34927 1.54353,-0.34927 z"
       inkscape:path-effect="#path-effect901"
       d="m 129.38784,112.10768 c 0.24648,0.008 0.46577,0.0294 0.64346,0.0617 0.29293,0.0531 0.47048,0.13455 0.47439,0.22902 0.18544,4.47798 0.0386,9.17829 -0.15279,13.86031 -0.004,0.0979 -0.18181,0.18708 -0.47373,0.25389 -0.29101,0.0666 -0.69327,0.11013 -1.13912,0.11477 -0.33209,0.003 -0.66424,0.007 -0.99634,0.01 -0.44601,0.004 -0.84799,-0.032 -1.13915,-0.0933 -0.29195,-0.0614 -0.46974,-0.14742 -0.47376,-0.24395 -0.0345,-0.82866 -0.0676,-1.6603 -0.0976,-2.49632 -0.003,-0.0762 -0.005,-0.15245 -0.008,-0.2287 m 1.47619,2.38534 c -0.30988,-0.0208 -0.5889,-0.0628 -0.80319,-0.11848 -0.2687,-0.0697 -0.43703,-0.16123 -0.4344,-0.25951 0.12613,-4.72499 -0.15724,-9.34777 -0.57979,-14.01266 -0.009,-0.0969 0.15062,-0.18681 0.4009,-0.25218 0.25218,-0.0659 0.60151,-0.1087 0.98721,-0.11357 0.28736,-0.004 0.57421,-0.008 0.86064,-0.0118 0.38446,-0.006 0.73094,0.0275 0.98032,0.0861 0.24715,0.058 0.40486,0.14327 0.39478,0.2382 -0.0791,0.74518 -0.15972,1.48804 -0.24067,2.22795 -0.008,0.0741 -0.016,0.14819 -0.0238,0.22229 m 0.11357,-2.95043 c 0.28555,0.0742 0.45778,0.16592 0.46252,0.26383 0.23242,4.7966 0.21432,9.42993 0.26704,14.12349 0.001,0.0978 -0.16943,0.18795 -0.44457,0.25563 -0.27531,0.0677 -0.65606,0.11317 -1.07673,0.1212 -0.31338,0.006 -0.62623,0.0124 -0.93847,0.0192 -0.41909,0.009 -0.79643,-0.0205 -1.06829,-0.0763 -0.27133,-0.0557 -0.43972,-0.13828 -0.43707,-0.23287 0.0285,-1.01628 0.0656,-2.026 0.11504,-3.02657 0.004,-0.0727 0.007,-0.14552 0.0105,-0.2184 m 1.78044,2.51134 c -0.0439,-0.006 -0.0859,-0.0119 -0.12577,-0.0186 -0.29538,-0.0499 -0.47443,-0.12839 -0.47948,-0.22186 -0.23818,-4.40905 -0.38295,-8.8396 -0.72648,-13.03525 -0.007,-0.0895 0.15484,-0.16061 0.40987,-0.19584 0.25702,-0.0355 0.61157,-0.0361 1.00286,0.009 0.29128,0.0336 0.58147,0.0684 0.87045,0.10462 0.38822,0.0486 0.7356,0.13385 0.98572,0.23243 0.24784,0.0977 0.40459,0.2102 0.39465,0.31569 -0.10635,1.12766 -0.22613,2.26994 -0.36231,3.42942 -0.0103,0.0881 -0.0204,0.17596 -0.0302,0.26346"
       style="color:#000000;overflow:visible;fill:#ffe680;stroke:#000000;stroke-width:0.264999;stroke-linecap:round;stroke-linejoin:round;stroke-miterlimit:4;stroke-dasharray:none;paint-order:markers fill stroke"
       id="rect877" />
    <path
       inkscape:original-d="m 134.42483,111.01056 h 0.95541 c 0.85512,0 1.54353,0.15578 1.54353,0.34927 v 13.87236 c 0,0.1935 -0.68841,0.34928 -1.54353,0.34928 h -0.95541 c -0.85511,0 -1.54353,-0.15578 -1.54353,-0.34928 v -13.87236 c 0,-0.19349 0.68842,-0.34927 1.54353,-0.34927 z"
       inkscape:path-effect="#path-effect903"
       d="m 136.31723,112.10768 c 0.24648,0.008 0.46577,0.0294 0.64346,0.0617 0.29293,0.0531 0.47048,0.13455 0.47439,0.22902 0.18544,4.47798 0.0386,9.17829 -0.15279,13.86031 -0.004,0.0979 -0.18181,0.18708 -0.47373,0.25389 -0.29101,0.0666 -0.69327,0.11013 -1.13912,0.11477 -0.33209,0.003 -0.66424,0.007 -0.99634,0.01 -0.44601,0.004 -0.84799,-0.032 -1.13915,-0.0933 -0.29195,-0.0614 -0.46974,-0.14742 -0.47376,-0.24395 -0.0345,-0.82866 -0.0676,-1.6603 -0.0976,-2.49632 -0.003,-0.0762 -0.005,-0.15245 -0.008,-0.2287 m 1.47619,2.38534 c -0.30988,-0.0208 -0.5889,-0.0628 -0.80319,-0.11848 -0.2687,-0.0697 -0.43703,-0.16123 -0.4344,-0.25951 0.12613,-4.72499 -0.15724,-9.34777 -0.57979,-14.01266 -0.009,-0.0969 0.15062,-0.18681 0.4009,-0.25218 0.25218,-0.0659 0.60151,-0.1087 0.98721,-0.11357 0.28736,-0.004 0.57421,-0.008 0.86064,-0.0118 0.38446,-0.006 0.73094,0.0275 0.98032,0.0861 0.24715,0.058 0.40486,0.14327 0.39478,0.2382 -0.0791,0.74518 -0.15972,1.48804 -0.24067,2.22795 -0.008,0.0741 -0.016,0.14819 -0.0238,0.22229 m 0.11357,-2.95043 c 0.28555,0.0742 0.45778,0.16592 0.46252,0.26383 0.23242,4.7966 0.21432,9.42993 0.26704,14.12349 0.001,0.0978 -0.16943,0.18795 -0.44457,0.25563 -0.27531,0.0677 -0.65606,0.11317 -1.07673,0.1212 -0.31338,0.006 -0.62623,0.0124 -0.93847,0.0192 -0.41909,0.009 -0.79643,-0.0205 -1.06829,-0.0763 -0.27133,-0.0557 -0.43972,-0.13828 -0.43707,-0.23287 0.0285,-1.01628 0.0656,-2.026 0.11504,-3.02657 0.004,-0.0727 0.007,-0.14552 0.0105,-0.2184 m 1.78044,2.51134 c -0.0439,-0.006 -0.0859,-0.0119 -0.12577,-0.0186 -0.29538,-0.0499 -0.47443,-0.12839 -0.47948,-0.22186 -0.23818,-4.40905 -0.38295,-8.8396 -0.72648,-13.03525 -0.007,-0.0895 0.15484,-0.16061 0.40987,-0.19584 0.25702,-0.0355 0.61157,-0.0361 1.00286,0.009 0.29128,0.0336 0.58147,0.0684 0.87045,0.10462 0.38822,0.0486 0.7356,0.13385 0.98572,0.23243 0.24784,0.0977 0.40459,0.2102 0.39465,0.31569 -0.10635,1.12766 -0.22613,2.26994 -0.36231,3.42942 -0.0104,0.0881 -0.0204,0.17596 -0.0302,0.26346"
       style="color:#000000;overflow:visible;fill:#ffe680;stroke:#000000;stroke-width:0.264999;stroke-linecap:round;stroke-linejoin:round;stroke-miterlimit:4;stroke-dasharray:none;paint-order:markers fill stroke"
       id="rect879" />
    <path
       d="m 136.62055,177.07355 c 0,0 0.72273,-6.36143 0.69696,-13.17303 -0.0154,-4.07798 -1.09703,-1.27504 -2.29642,3.57058 -1.11935,4.52221 -1.98182,10.10353 -2.55617,10.10355 -0.77024,3e-5 -0.441,-7.50311 0.78372,-15.32166 1.22471,-7.81856 3.3936,-15.95736 2.88856,-16.89068 -0.65737,-1.21483 -4.10982,7.77213 -6.24154,16.7419 -2.14725,9.03508 -2.88589,18.23562 -2.85112,18.23561 -0.16145,4e-5 0.4883,-9.13284 2.27291,-18.38761 1.78462,-9.25477 4.70669,-18.63168 4.1593,-18.63164 -0.73851,6e-5 -4.23411,9.14638 -6.49199,18.17734 -2.25788,9.03095 -3.27613,17.94636 -3.72532,17.94644 -0.64522,1.1e-4 -0.11659,-9.48574 1.70182,-19.10321 1.81841,-9.61747 4.92769,-19.36666 4.12517,-19.36673 -0.99324,-8e-5 -4.40574,8.06781 -6.82163,16.04646 -2.4159,7.97866 -3.83298,15.86787 -4.44433,15.86768 -0.80636,-2.4e-4 -0.13103,-7.59999 1.50204,-15.2834 1.63307,-7.68342 4.2214,-15.45025 3.86267,-15.45025 -0.54952,0 -3.8981,8.61071 -6.09676,17.11941 -2.19865,8.50869 -3.24445,16.91507 -3.31668,16.91506 -0.26767,-2e-5 0.5814,-8.17688 2.32417,-16.45072 1.74278,-8.27385 4.3813,-16.64489 3.76891,-16.64485 -0.80328,6e-5 -4.39603,9.04184 -6.67633,17.97117 -2.28031,8.92933 -3.24359,17.74576 -3.34041,17.74577 -0.29258,4e-5 0.47143,-8.76368 2.29377,-17.63919 1.82233,-8.8755 4.70479,-17.86298 4.12825,-17.86293 -0.76742,6e-5 -4.38503,9.14031 -6.78203,18.16566 -2.39701,9.02535 -3.57183,17.93564 -4.09995,17.93573 -0.7239,1.3e-4 -0.18019,-8.7851 1.50908,-17.68298 1.68926,-8.89787 4.52389,-17.90837 3.83105,-17.90829 -0.8837,1.1e-4 -4.64646,9.3744 -6.98158,18.62788 -2.33512,9.25347 -3.23703,18.38558 -3.29108,18.38559 -0.24997,7e-5 0.55914,-9.74247 2.77131,-19.62337 2.21217,-9.8809 5.82725,-19.90013 5.60007,-19.90014 -0.41767,-3e-5 -3.69047,8.22135 -5.89407,16.34998 -2.2036,8.12863 -3.334897,16.16419 -3.224243,16.16422 -0.08423,-2e-5 1.053733,-8.00261 2.992383,-16.09751 1.93866,-8.0949 4.68109,-16.2824 4.07001,-16.28243 -0.80155,-4e-5 -4.29557,8.28275 -6.6638,16.47162 -2.368226,8.18887 -3.606465,16.28341 -3.69982,16.2834 -0.28825,-6e-5 0.724042,-7.84806 2.631638,-15.78494 1.907592,-7.93687 4.710552,-15.96262 4.411802,-15.96261 -0.48932,10e-6 -3.956883,8.74592 -6.213265,17.38679 -2.256381,8.64087 -3.297828,17.17632 -3.186958,17.17632 -0.0844,0 0.997034,-8.75489 3.146624,-17.62067 2.149589,-8.86579 5.368669,-17.8426 5.076099,-17.84261 -0.48301,-2e-5 -3.853859,8.33217 -6.105544,16.56918 -2.251685,8.23701 -3.380451,16.37847 -3.233258,16.37849 -0.0477,-1e-5 1.102125,-7.96079 3.081189,-16.0129 1.979065,-8.0521 4.789543,-16.19574 4.368853,-16.19574 -0.611197,1e-5 -4.140199,8.67162 -6.620789,17.24011 -2.48059,8.56848 -3.912603,17.03382 -4.49692,17.0338 -0.779454,-3e-5 -0.05891,-8.18259 1.718368,-16.46227 1.777283,-8.27968 4.609505,-16.6563 4.132036,-16.65626 -0.668074,6e-5 -4.382715,9.20216 -6.879073,18.28805 -2.496358,9.08589 -3.77326,18.05546 -4.26405,18.05556 -0.686319,1.3e-4 0.02734,-9.12247 1.995031,-18.36619 1.967696,-9.24373 5.188622,-18.6085 4.625236,-18.60847 -0.753841,4e-5 -4.473333,8.91225 -6.870287,17.71568 -2.396954,8.80344 -3.465665,17.49753 -3.32432,17.49752 -0.05388,0 1.101982,-9.0479 3.313643,-18.21417 2.211661,-9.16626 5.482823,-18.45127 4.8696,-18.4513 -0.803447,-5e-5 -3.865512,6.92543 -6.063529,13.42933 -2.198016,6.5039 -3.602871,12.59323 -3.570238,11.16623 0.06051,-2.64625 1.279912,-8.44321 2.959267,-14.3921 1.61169,-5.70919 3.465802,-10.84979 3.093581,-10.84982 -0.562305,-6e-5 -1.945135,2.80104 -3.080146,5.59773 -1.135011,2.79669 -2.020574,5.5888 -2.021472,5.61365 0.02514,-0.69634 0.830921,-3.42519 1.642273,-6.12796 0.798434,-2.65973 1.56493,-5.16441 1.115596,-5.16446 -1.278751,-1.4e-4 -2.372999,2.83156 -2.365309,2.62793 0.04993,-1.32217 -0.143278,-1.13381 -0.143278,-1.13381 0,0 -0.162536,0.0516 -0.226,2.11838 -0.0494,1.60888 0.476149,0.91663 1.027078,-0.11863 0.56082,-1.05385 1.188536,-2.50763 1.321227,-2.50762 0.322867,10e-6 -0.4033,2.27508 -1.149698,4.82 -0.760098,2.59162 -1.496426,5.31267 -1.529894,6.46467 -0.05294,1.82233 1.050384,-1.04004 2.277848,-4.24765 1.242144,-3.24597 2.692265,-6.9562 2.747717,-6.9562 0.24567,1e-5 -1.513224,4.80334 -3.053868,10.34472 -1.606816,5.7794 -2.771824,11.58033 -2.82393,14.87987 -0.06763,4.28271 1.53571,-2.26032 3.702344,-9.17463 2.240879,-7.15124 5.467091,-15.4043 5.763482,-15.40431 0.48675,0 -2.785425,9.27866 -4.934787,18.43869 -2.149362,9.16002 -3.177913,18.2016 -2.993755,18.20157 0.379517,-5e-5 1.642843,-8.68828 3.974128,-17.48553 2.331284,-8.79724 5.731377,-17.70359 5.977509,-17.70361 0.436722,-6e-5 -2.784704,9.35833 -4.689395,18.59573 -1.904691,9.23741 -2.490121,18.3536 -1.672877,18.35338 1.012911,-2.7e-4 2.482902,-8.96382 4.911493,-18.04331 2.42859,-9.07949 5.821393,-18.27549 5.981298,-18.27551 0.350644,-6e-5 -2.48874,8.37083 -4.209597,16.64484 -1.720857,8.27402 -2.319847,16.45083 -1.409662,16.4508 1.10546,-4e-5 2.734045,-8.45969 5.15083,-17.02217 2.416784,-8.56248 5.627997,-17.22839 5.731229,-17.2284 0.29388,-3e-5 -2.525327,8.13803 -4.449688,16.18464 -1.924361,8.04661 -2.954544,16.00184 -2.776795,16.00187 0.372775,4e-5 1.700008,-8.13592 3.89026,-16.36716 2.190252,-8.23124 5.245893,-16.558 5.221063,-16.558 0.16573,0 -3.05654,8.97068 -5.145881,17.83042 -2.089341,8.85974 -3.04544,17.60851 -2.830709,17.60849 0.410138,-3e-5 1.647455,-8.52971 3.839302,-17.16451 2.191848,-8.63479 5.340908,-17.37495 5.322018,-17.37494 0.17181,-2e-5 -2.64072,8.02023 -4.494364,15.95168 -1.853647,7.93146 -2.746991,15.77397 -2.328516,15.77403 0.613508,8e-5 2.050677,-8.089 4.35793,-16.27215 2.30725,-8.18315 5.48649,-16.46055 5.7803,-16.46056 0.48443,-1e-5 -2.26637,8.18188 -4.15,16.27125 -1.88363,8.08937 -2.901656,16.08638 -2.687346,16.08641 0.409335,7e-5 1.739916,-8.03006 3.882876,-16.153 2.14296,-8.12294 5.10124,-16.33897 5.01088,-16.33897 0.10026,0 -3.51104,10.01241 -5.65594,19.88657 -2.1449,9.87416 -2.821409,19.60987 -2.44057,19.60974 0.5769,-2e-4 1.67083,-9.12615 3.93676,-18.37309 2.26593,-9.24694 5.70522,-18.615 6.0802,-18.61507 0.56599,-1.1e-4 -2.27148,9.00422 -3.89996,17.896 -1.62848,8.89178 -2.04612,17.67082 -1.1911,17.67062 1.05093,-2.6e-4 2.41954,-8.90456 4.74915,-17.92355 2.32962,-9.01899 5.62543,-18.15318 5.88403,-18.15322 0.44961,-7e-5 -2.43589,8.98126 -4.19768,17.85069 -1.7618,8.86943 -2.40005,17.62699 -1.97667,17.62691 0.61927,-1.2e-4 1.77684,-8.8106 3.99041,-17.73364 2.21356,-8.92304 5.48522,-17.95883 5.77967,-17.95888 0.48547,-6e-5 -2.16023,8.36523 -3.84659,16.63342 -1.68637,8.26818 -2.41392,16.43931 -2.01569,16.4393 0.59381,0 1.83667,-8.4007 3.97176,-16.90342 2.13508,-8.50271 5.1658,-17.10777 5.20654,-17.10777 0.23169,-2e-5 -2.36794,7.76148 -3.94864,15.43963 -1.5807,7.67815 -2.13855,15.27256 -1.20152,15.27278 1.13217,2.7e-4 2.75006,-7.88362 5.10662,-15.85672 2.35656,-7.97309 5.45554,-16.03577 5.94055,-16.03576 0.67586,1e-5 -2.43127,9.74253 -4.18397,19.35341 -1.75271,9.61089 -2.1503,19.09007 -1.37384,19.08988 0.97264,-2.3e-4 2.18485,-8.90964 4.37518,-17.93422 2.19033,-9.02458 5.36366,-18.16483 5.5927,-18.16486 0.42029,-7e-5 -2.50222,9.37043 -4.22363,18.61887 -1.72142,9.24843 -2.2426,18.37488 -1.95013,18.37479 0.48883,-1.5e-4 1.38859,-8.90621 3.41076,-17.78663 2.02217,-8.88041 5.12986,-17.73152 5.43983,-17.16691 0.43121,0.78542 -1.75795,8.91976 -2.94256,16.76992 -1.18461,7.85015 -1.40495,15.42011 -0.50348,15.42002 1.09752,-1.2e-4 2.03669,-4.26993 2.96176,-8.12628 0.93596,-3.9018 1.77847,-7.24916 1.79711,-5.53857 0.0599,5.49308 -0.51439,12.20694 -0.51439,12.20694 z"
       inkscape:path-effect="#path-effect911"
       sodipodi:type="rect"
       y="142.12807"
       x="78.41124"
       height="34.94548"
       width="59.148003"
       id="rect905"
       style="color:#000000;overflow:visible;fill:#ffe680;stroke:#000000;stroke-width:0.264999;stroke-linecap:round;stroke-linejoin:round;stroke-miterlimit:4;stroke-dasharray:none;paint-order:markers fill stroke" />
  </g>
</svg>
