<svg xmlns="http://www.w3.org/2000/svg" viewBox="0 0 29.8 30">
  <g stroke="#000" stroke-linecap="round" stroke-linejoin="round" stroke-width=".3" color="#000" paint-order="markers fill stroke">
    <path fill="none" d="M10.2 2.5c4.7-.2 9-.1 13.2 0a4.9 4.9 0 014.8 5c-.2 5.3-.3 10.5-.7 15.5v.8a5.4 5.4 0 01-5.2 5c-3 0-6 .2-9 .4H5.5c-.7 0-1.4-.2-2.1-.4M21.2 27c-6-.5-11 0-16.2.5-.7 0-1.4 0-2-.3A4.5 4.5 0 010 23c.1-4.2.1-8.6.4-12.7l.1-4c0-2.7 2.2-5 4.9-5.3l6.2-.4 10-.4M11 2.3c3.7.1 7.7-.2 12-.8 3-.4 5.5 1 6.3 2.9l.1.4a47.6 47.6 0 01-3 18.9c-1.2 2.3-3.3 4-5.6 4-3.7 0-6.5-.4-9.8-.5H5.8c-1.3 0-2.6-.5-3.5-1.3m16.5 3.9c-4.5-.2-9 0-12.9 0-1.3 0-2.5-.6-3-1.7-.6-.9-.8-2-.7-3.2.4-5.2-.8-10.8-1-16.5v-2c-.2-3 2.1-5.3 5-5.3C9.2 1 12 1 15 .7a48.4 48.4 0 019.7.1" overflow="visible"/>
    <path fill="#ffe680" d="M9.6 20.8c.2-4 .1-7.8 0-11.6l8.5 5 .2.2M15 11.7c2.1 1 4.1 2.1 6 3.2-4 2.2-8.2 4.3-12.6 6.4a1930.7 1930.7 0 00-.2-2m.6-.3c.2-3.5.2-7 .3-10.7a1545.1 1545.1 0 019.9 5.7m-2.3-3l5 3.2-12.4 7.6a63.8 63.8 0 00-.3-2.2" overflow="visible"/>
  </g>
</svg>
