<?xml version="1.0" encoding="UTF-8" standalone="no"?>
<svg
   xmlns:dc="http://purl.org/dc/elements/1.1/"
   xmlns:cc="http://creativecommons.org/ns#"
   xmlns:rdf="http://www.w3.org/1999/02/22-rdf-syntax-ns#"
   xmlns:svg="http://www.w3.org/2000/svg"
   xmlns="http://www.w3.org/2000/svg"
   xmlns:sodipodi="http://sodipodi.sourceforge.net/DTD/sodipodi-0.dtd"
   xmlns:inkscape="http://www.inkscape.org/namespaces/inkscape"
   inkscape:export-ydpi="96.009415"
   inkscape:export-xdpi="96.009415"
   inkscape:export-filename="E:\dev\_apps_.artfly.io\tizzie-whizie-fly\public\tizzie-mask.png"
   sodipodi:docname="tizzie.svg"
   inkscape:version="1.0 (4035a4fb49, 2020-05-01)"
   id="svg8"
   version="1.1"
   viewBox="0 0 63.258808 33.977261"
   height="33.977261mm"
   width="63.258808mm">
  <defs
     id="defs2" />
  <sodipodi:namedview
     inkscape:snap-nodes="false"
     inkscape:object-nodes="false"
     inkscape:snap-others="false"
     inkscape:snap-to-guides="false"
     inkscape:snap-grids="false"
     inkscape:snap-page="true"
     inkscape:snap-bbox="false"
     inkscape:pagecheckerboard="true"
     inkscape:snap-global="true"
     showgrid="false"
     inkscape:document-rotation="0"
     inkscape:current-layer="layer1"
     inkscape:document-units="px"
     inkscape:cy="11.055309"
     inkscape:cx="139.51149"
     inkscape:zoom="2.7733261"
     inkscape:pageshadow="2"
     inkscape:pageopacity="0.0"
     borderopacity="1.0"
     bordercolor="#666666"
     pagecolor="#ffffff"
     id="base"
     fit-margin-top="0"
     fit-margin-left="0"
     fit-margin-right="0"
     fit-margin-bottom="0" />
  <metadata
     id="metadata5">
    <rdf:RDF>
      <cc:Work
         rdf:about="">
        <dc:format>image/svg+xml</dc:format>
        <dc:type
           rdf:resource="http://purl.org/dc/dcmitype/StillImage" />
        <dc:title />
      </cc:Work>
    </rdf:RDF>
  </metadata>
  <g
     id="layer1"
     inkscape:groupmode="layer"
     inkscape:label="Layer 1"
     transform="translate(-56.999791,-140.61625)">
    <rect
       style="color:#000000;overflow:visible;fill:#000000;fill-opacity:0;stroke:none;stroke-width:1.12558258;stroke-linecap:round;stroke-linejoin:round;paint-order:markers fill stroke"
       id="rect20"
       width="66.182472"
       height="36.000938"
       x="55.327629"
       y="140.17232" />
    <path
       style="color:#000000;overflow:visible;fill:#000000;fill-opacity:1;stroke:none;stroke-width:0.14493194;stroke-linecap:round;stroke-linejoin:round;stroke-miterlimit:4;stroke-dasharray:none;paint-order:markers fill stroke"
       d="m 84.199301,140.61911 c -0.161483,0.0112 -0.271266,0.054 -0.358118,0.10542 -0.463206,0.27404 -1.101183,3.07807 -0.791165,3.66851 0.06319,0.12036 0.399576,0.60547 0.852659,1.22887 -3.275586,-0.66057 -3.939217,-0.39038 -4.214728,-0.0941 -0.120766,0.12989 -0.177482,0.53809 -0.189137,1.03094 -1.069541,-0.0529 -1.409044,0.12701 -1.582333,0.31833 -0.36168,0.39933 -0.144629,3.26737 0.325562,3.73931 0.09582,0.0962 0.560353,0.45961 1.176674,0.92035 -3.323453,0.34181 -3.877686,0.79733 -4.053499,1.16221 -0.234101,0.48584 0.783706,3.17449 1.367875,3.49332 0.273325,0.14918 2.474261,0.99515 5.050853,1.77561 -1.458568,1.8068 -1.952286,3.64377 -2.310453,4.55889 -0.525322,1.3422 -0.153741,3.55756 0.639236,5.2834 -1.582081,-1.74227 -4.120967,-4.05247 -6.464204,-4.05247 -3.76151,0 -8.824923,3.2675 -9.837642,3.84835 -1.01272,0.58084 -4.340395,0.50798 -4.991426,1.52445 -0.651028,1.01648 -3.61687,2.25104 -0.21704,3.2675 3.399821,1.01648 8.463796,3.26723 10.127546,1.59732 1.66374,-1.6699 4.701733,-4.50153 6.148461,-4.64674 1.41386,-0.14191 4.485341,2.20988 6.649723,0.48731 0.372367,0.30972 0.767053,0.48546 1.16582,0.47283 0.727644,-0.023 14.313651,1.31729 15.387175,0.59893 1.073533,-0.71833 7.57459,-0.47885 8.05171,-0.7183 0.47713,-0.23943 0.95388,-0.53924 2.56418,-0.35966 1.61031,0.17959 3.1612,1.25741 3.69796,0.59893 0.53677,-0.65848 0.83494,-1.67644 0.29818,-2.45464 l -2.79001,-6.63008 c 0.58826,-1.14231 1.60004,-2.74541 3.0086,-3.66438 2.37456,-1.54917 6.36912,-3.22667 6.36912,-3.22667 a 0.072466,0.072466 0 0 0 0.0388,-0.0956 0.072466,0.072466 0 0 0 -0.0718,-0.045 0.072466,0.072466 0 0 0 -0.0217,0.006 c 0,0 -3.99773,1.67441 -6.39444,3.23804 -1.39875,0.91256 -2.40378,2.462 -3.00447,3.60805 l -0.0563,-0.13436 c 0,0 -0.56496,-0.75233 -1.618,-1.7818 0.33591,-1.01475 0.89025,-2.24515 1.76475,-3.11351 1.7666,-1.75415 4.9041,-3.90828 4.9041,-3.90828 a 0.063584,0.063584 0 0 0 0.016,-0.0879 0.063584,0.063584 0 0 0 -0.0548,-0.0274 0.063584,0.063584 0 0 0 -0.0336,0.0114 c 0,0 -3.13864,2.15176 -4.92166,3.92224 -0.87915,0.87296 -1.43672,2.08675 -1.77819,3.10111 -1.84977,-1.78374 -5.14356,-4.34109 -9.653674,-5.43068 -1.020406,-3.01772 -3.046275,-7.28207 -6.793902,-9.55187 -5.028391,-3.04552 -6.702888,-3.59314 -7.402648,-3.54449 z m 30.959349,10.79573 a 0.43901837,0.43696006 87.413781 0 0 -0.0739,0.009 0.43901837,0.43696006 87.413781 0 0 -0.33951,0.51883 0.43901837,0.43696006 87.413781 0 0 0.51625,0.34107 0.43901837,0.43696006 87.413781 0 0 0.33951,-0.51883 0.43901837,0.43696006 87.413781 0 0 -0.44235,-0.34985 z m 4.60179,2.20141 a 0.49798263,0.50036258 0 0 0 -0.49765,0.50075 0.49798263,0.50036258 0 0 0 0.49765,0.50023 0.49798263,0.50036258 0 0 0 0.49816,-0.50023 0.49798263,0.50036258 0 0 0 -0.49816,-0.50075 z"
       id="path913-5-4"
       inkscape:connector-curvature="0"
       inkscape:export-filename="E:\dev\_apps_.artfly.io\tizzie-whizie-fly\public\tizzie-mask.png"
       inkscape:export-xdpi="96.009415"
       inkscape:export-ydpi="96.009415" />
  </g>
</svg>
