<?xml version="1.0" encoding="UTF-8" standalone="no"?>
<svg
   xmlns:dc="http://purl.org/dc/elements/1.1/"
   xmlns:cc="http://creativecommons.org/ns#"
   xmlns:rdf="http://www.w3.org/1999/02/22-rdf-syntax-ns#"
   xmlns:svg="http://www.w3.org/2000/svg"
   xmlns="http://www.w3.org/2000/svg"
   xmlns:sodipodi="http://sodipodi.sourceforge.net/DTD/sodipodi-0.dtd"
   xmlns:inkscape="http://www.inkscape.org/namespaces/inkscape"
   height="720"
   width="720"
   inkscape:version="1.0 (4035a4fb49, 2020-05-01)"
   sodipodi:docname="tizzie-icon.svg"
   id="svg14"
   xml:space="preserve"
   enable-background="new 0 0 841.89 595.28"
   viewBox="0 0 719.99999 720.00002"
   y="0px"
   x="0px"
   version="1.1"><metadata
     id="metadata20"><rdf:RDF><cc:Work
         rdf:about=""><dc:format>image/svg+xml</dc:format><dc:type
           rdf:resource="http://purl.org/dc/dcmitype/StillImage" /><dc:title></dc:title></cc:Work></rdf:RDF></metadata><defs
     id="defs18" /><sodipodi:namedview
     inkscape:pagecheckerboard="true"
     inkscape:current-layer="g944"
     inkscape:cy="442.45912"
     inkscape:cx="420.94501"
     inkscape:zoom="0.76199438"
     showgrid="false"
     id="namedview16"
     inkscape:window-height="480"
     inkscape:window-width="640"
     inkscape:pageshadow="2"
     inkscape:pageopacity="0"
     guidetolerance="10"
     gridtolerance="10"
     objecttolerance="10"
     borderopacity="1"
     bordercolor="#666666"
     pagecolor="#ffffff" /><g
     style="display:none"
     inkscape:label="Layer 1"
     id="layer1"
     inkscape:groupmode="layer"><rect
       rx="178.479"
       style="color:#000000;overflow:visible;fill:#ffffff;fill-opacity:1;stroke:#000000;stroke-width:20;stroke-linecap:round;stroke-linejoin:round;stroke-miterlimit:4;stroke-dasharray:none;paint-order:markers fill stroke"
       id="rect946"
       width="695"
       height="695"
       x="13.123456"
       y="14.498767"
       ry="178.479" /></g><g
     style="display:inline"
     inkscape:label="Layer 2"
     id="layer2"
     inkscape:groupmode="layer"><g
       transform="translate(0,4)"
       id="g8"><g
         id="g944"><g
           inkscape:transform-center-y="-127.64593"
           inkscape:transform-center-x="66.389327"
           style="stroke-width:26.598;stroke-miterlimit:4;stroke-dasharray:none"
           transform="matrix(0.64511895,0.38582436,-0.32346736,0.68298317,786.44077,137.02265)"
           id="g929"><path
             id="path927"
             style="color:#000000;overflow:visible;fill:#ffffff;fill-opacity:1;stroke:#000000;stroke-width:26.598;stroke-linecap:round;stroke-linejoin:round;stroke-miterlimit:4;stroke-dasharray:none;paint-order:markers fill stroke"
             d="m -409.03385,271.21086 c 107.49911,66.69139 192.06594,199.53099 157.2497,252.10724 -25.26614,34.96869 -58.98228,-39.91146 -225.44679,-82.36556 -166.46452,-42.4541 -166.12683,-152.49737 -119.90092,-199.88013 46.22593,-47.38275 98.65825,-25.34911 188.09801,30.13845 z"
             sodipodi:nodetypes="sczss" /></g><path
           style="fill:#000000"
           sodipodi:nodetypes="cccccccsccccccccccccccccccccccsscc"
           d="m 561.08892,204.03894 c -21.13127,9.07873 -35.79296,59.20116 -35.79296,59.20116 -20.72984,1.70051 -35.15501,-56.6416 -34.01492,-60.06188 -11.73275,22.12392 -31.95579,81.8568 -31.95579,81.8568 -60.66312,-44.29007 -121.58691,-15.25093 -121.58691,-15.25093 35.6278,23.55255 22.71444,58.41206 22.71444,58.41206 -64.8318,-32.0453 -111.08398,5.37644 -111.08398,5.37644 33.60607,13.05156 75.3171,30.4862 43.79243,30.01265 -13.87012,-0.20835 -71.82768,-3.37149 -99.87972,20.16307 43.24516,15.4943 43.45292,34.91351 43.45292,34.91351 -52.30524,-17.92446 -77.6693,42.0735 -77.6693,42.0735 28.56694,14.21232 56.14024,1.63895 46.56098,20.18726 -11.88501,-2.89701 -41.10685,38.32484 -43.62147,59.67438 28.71064,-21.69477 41.0279,-2.40607 56.4432,9.13754 -38.11238,14.01592 -46.42501,37.48947 -46.42501,37.48947 19.57107,-4.12744 61.39258,18.14453 61.39258,18.14453 -1.86387,4.26039 -20.39767,40.88013 -20.39767,40.88013 l 38.30587,-5.02662 c 30.56342,-9.6151 44.13833,-10.05676 58.25262,-16.97944 6.50026,10.61934 11.75556,13.86115 4.48242,31.36719 11.89399,5.1261 16.48402,10.87074 48.79765,-1.01953 -1.32301,-25.01269 -10.25533,-44.45247 -9.62968,-67.61329 104.19673,-16.32431 166.26829,-95.46994 166.26829,-95.46994 10.68764,12.9988 15.22136,45.41744 25.53709,52.52753 6.40243,4.09836 16.47716,4.99191 23.92184,4.26795 6.63466,-0.6457 14.11865,-3.37842 18.62078,-8.55737 -0.27468,0.31536 -8.73328,-13.04677 -9.29933,-14.21036 -6.47348,-12.44627 -9.23603,-44.47157 -3.74691,-54.43528 10.51726,-16.30589 25.97588,-19.86116 47.02734,-24.65234 15.85781,-2.55494 30.58522,-12.70296 37.8711,-25.45313 8.06796,-7.21007 21.70636,-21.50572 11.24739,-32.67102 -13.0931,-13.97732 -36.78589,-24.53751 -44.67318,-27.1864 -26.19878,-8.79866 -40.81859,-29.07597 -55.09375,-78.46484 -6.36703,-23.83317 -2.78714,-59.96121 -9.81836,-78.6328 z"
           id="path2" /><g
           transform="translate(107.61235,150.91975)"
           id="g859"><circle
             style="color:#000000;overflow:visible;fill:#ffffff;fill-opacity:0.919355;stroke-linecap:round;stroke-linejoin:round;paint-order:markers fill stroke"
             id="path853"
             cx="440.94812"
             cy="219.16173"
             r="38.058022" /><circle
             r="15.748145"
             cy="219.16173"
             cx="440.94812"
             id="circle855"
             style="color:#000000;overflow:visible;fill:#000000;fill-opacity:0.919355;stroke-width:1;stroke-linecap:round;stroke-linejoin:round;paint-order:markers fill stroke" /></g><path
           sodipodi:nodetypes="sscsss"
           d="m 175.29751,337.79321 c -106.238293,283.59642 22.49865,309.85779 86.40366,249.94327 38.9397,-36.50815 -3.44696,58.32006 -10.37756,53.48553 C 130.05137,716.2307 22.503877,491.84718 67.685187,306.29691 94.810897,194.89725 90.420517,144.07205 146.42591,150.16914 c 60.27334,6.56172 65.0664,91.00432 28.8716,187.62407 z"
           style="color:#000000;overflow:visible;fill:#000000;fill-opacity:0.919355;stroke:none;stroke-width:10;stroke-linecap:round;stroke-linejoin:round;stroke-miterlimit:4;stroke-dasharray:none;paint-order:markers fill stroke"
           id="path888" /><g
           id="g907"
           transform="matrix(0.76732556,0.18116188,-0.10740098,0.78426681,714.91159,22.695289)"
           style="stroke-width:25.3746;stroke-miterlimit:4;stroke-dasharray:none"><path
             sodipodi:nodetypes="sczss"
             d="m -405.73203,283.06591 c 102.54793,63.73096 183.27085,190.58106 150.1053,240.73787 -24.07026,33.35799 -56.26779,-38.13596 -215.02665,-78.77569 -158.75887,-40.63973 -158.50678,-145.67097 -114.45826,-190.86264 44.04853,-45.19167 94.05926,-24.124 179.37961,28.90046 z"
             style="color:#000000;overflow:visible;fill:#ffffff;fill-opacity:1;stroke:#000000;stroke-width:25.3746;stroke-linecap:round;stroke-linejoin:round;stroke-miterlimit:4;stroke-dasharray:none;paint-order:markers fill stroke"
             id="path891" /></g></g></g></g></svg>
