<svg xmlns="http://www.w3.org/2000/svg" id="svg1554" version="1.1" viewBox="0 0 29.8 30">
  <g id="layer1" display="inline" transform="translate(-29 -59.9)">
    <g id="playButton" stroke="#000" stroke-linecap="round" stroke-linejoin="round" stroke-width=".3" color="#000" paint-order="markers fill stroke">
      <path id="rect835" fill="none" d="M39.1 62.4c4.8-.3 9-.2 13.2-.1a4.9 4.9 0 014.8 5c-.2 5.4-.2 10.6-.7 15.6v.7a5.4 5.4 0 01-5.1 5c-3.2 0-6.1.3-9.2.4h-7.6c-.7 0-1.4-.1-2-.4M50 86.8c-5.9-.4-11 .1-16.2.6-.7 0-1.4 0-2-.3a4.5 4.5 0 01-2.8-4.3c0-4.3 0-8.7.3-12.8l.1-3.9c0-2.8 2.2-5.1 4.9-5.3l6.2-.5c3-.2 6.3-.2 10-.3M40 62c3.6.2 7.6-.1 11.9-.7 3-.5 5.5 1 6.3 2.8l.1.5a47.6 47.6 0 01-3 18.8c-1.1 2.4-3.3 4.1-5.6 4-3.7 0-6.5-.3-9.8-.5h-5.2c-1.4 0-2.6-.5-3.6-1.2m16.5 3.8H34.8c-1.3.1-2.5-.6-3-1.7-.5-.8-.8-2-.7-3.1.4-5.3-.7-10.8-1-16.6v-2c-.1-3 2.1-5.2 5-5.3 3 0 6 0 8.8-.4a48.4 48.4 0 019.7.2" overflow="visible"/>
      <path id="path837" fill="#ffe680" d="M38.5 80.6c.2-4 .1-7.8 0-11.6 2.9 1.7 5.7 3.5 8.6 5.1l.1.1m-3.4-2.6c2.1 1 4.1 2.1 6 3.2-4 2.1-8.2 4.3-12.5 6.3a1930.7 1930.7 0 00-.2-1.9m.5-.4c.2-3.5.2-7 .3-10.6a1545.1 1545.1 0 0110 5.7m-2.4-3.1l5.1 3.3c-4 2.4-8.1 4.8-12.5 7.6a63.8 63.8 0 00-.3-2.2" overflow="visible"/>
    </g>
  </g>
  <g id="layer2" display="inline">
    <g id="pauseButton" stroke="#000" stroke-dasharray="none" stroke-linecap="round" stroke-linejoin="round" stroke-miterlimit="4" stroke-width=".3" color="#000" paint-order="markers fill stroke" transform="translate(-64.1 -61.8)">
      <path id="path865" fill="none" d="M93.5 69c0 4.9-.3 10.5-.8 16.4a7 7 0 01-1.2 3.5 5.6 5.6 0 01-4.5 2.5c-4.8 0-9.2-.7-14.2-1h-3.2a5 5 0 01-5.1-5c0-2.3 0-4.6-.2-7v-9.8M67 88.5c-.3-.7-.5-1.5-.5-2.3a319.5 319.5 0 00-.9-19.1c-.2-3.2 2-5.4 4.7-5.1l8.7 1.1c2.3.3 4.8.4 7.5.4 3 0 5.4 2.2 5.8 5l.4 3.3c.3 3.3.3 6.5.1 9.7M91.1 70c0 5.8.2 10.8.5 15.7 0 .8 0 1.5-.3 2a4.6 4.6 0 01-4.3 2.7H70.1c-2.7.2-5-2-5-4.5l.3-5.8c.1-2.6 0-6-.3-9.7m1.3 18c-.5-.8-.8-1.7-.8-2.7a127.5 127.5 0 00-1.4-16.2c-.2-2.7 2.3-5.1 5.4-5.5l10.9-1.5c3.1-.5 5.8-.5 8.3-.3 2.6.3 4.5 3 4.2 6.4a113.9 113.9 0 00-.2 13" overflow="visible"/>
      <path id="rect877" fill="#ffe680" d="M76.6 70.5h.6l.5.3c.2 4.5 0 9.2-.2 13.9 0 0-.1.2-.4.2l-1.2.1a551.5 551.5 0 01-2.1 0l-.5-.3a434 434 0 010-2.7m1.4 2.4l-.8-.2c-.3 0-.5-.1-.5-.2.2-4.7-.1-9.4-.5-14 0-.1.1-.2.4-.3h1a351.5 351.5 0 001.8 0l.4.2a695.3 695.3 0 01-.3 2.5m.1-3c.3 0 .5.2.5.3l.3 14.1-.5.3h-1a328.8 328.8 0 00-2 0c-.3 0-.5-.1-.5-.2a141.9 141.9 0 01.1-3.3m1.8 2.6H75l-.5-.3-.7-13c0-.1.1-.2.4-.2h1a89.8 89.8 0 011.9.3c.2.1.4.2.3.4A150.6 150.6 0 0177 74" overflow="visible"/>
      <path id="rect879" fill="#ffe680" d="M83.5 70.5h.6l.5.3c.2 4.5 0 9.2-.1 13.9 0 0-.2.2-.5.2l-1.1.1a551.5 551.5 0 01-2.2 0l-.5-.3a434 434 0 010-2.7m1.4 2.4l-.8-.2c-.3 0-.4-.1-.4-.2.1-4.7-.2-9.4-.6-14 0-.1.1-.2.4-.3h1a351.5 351.5 0 001.8 0c.3 0 .4.1.4.2a695.3 695.3 0 01-.2 2.5m0-3c.4 0 .5.2.5.3.3 4.8.2 9.4.3 14.1l-.4.3h-1.1a328.8 328.8 0 00-2 0c-.3 0-.5-.1-.5-.2a141.9 141.9 0 01.2-3.3m1.7 2.6s0 0 0 0l-.6-.3c-.2-4.4-.3-8.8-.7-13l.4-.2h1a89.8 89.8 0 011.9.3c.2.1.4.2.4.4a150.6 150.6 0 01-.4 3.6" overflow="visible"/>
    </g>
  </g>
  <g id="layer3" display="inline">
    <g id="upArrow" stroke="#000" stroke-dasharray="none" stroke-linecap="round" stroke-linejoin="round" stroke-miterlimit="4" stroke-width=".3" color="#000" paint-order="markers fill stroke">
      <path id="rect877-1" fill="#ffe680" d="M11.8 11l-3.5 3.5c-.1 0 0 .2 0 .4l.6.7.6.5.6.5c.2.2.4.2.4.1l2.9-2.8v8.8l.4.2h.8a4227.6 4227.6 0 011.6 0c.3 0 .4-.2.4-.2v-8.8l2.8 2.8c0 .1.2 0 .4 0l.6-.6a10198.8 10198.8 0 001.1-1.2l.1-.4-5.4-5.3A25684.3 25684.3 0 0114.7 8s0 0 0 0 0 0 0 0 0 0 0 0A15316.2 15316.2 0 018 14.5l.1.4.6.7.5.5.7.6c.2.1.3.1.4 0a27776.9 27776.9 0 001.2-1.2m-1.1-3.8L8 14l.2.4.5.6.6.6.6.5.4.1 2.9-2.8V22c0 .1 0 .2.3.2l.9.1H16l.3-.3v-8.8l2.7 2.9.4-.2c.2 0 .4-.3.7-.5a2981.3 2981.3 0 001-1.2c.2-.2.2-.4.1-.4a5454 5454 0 00-7-6.6s0 0 0 0 0 0 0 0 0 0 0 0a3740.4 3740.4 0 01-6.8 6.5l.1.4.6.7.5.5.6.6.4.1a4560.8 4560.8 0 002.6-2.7" overflow="visible"/>
      <path id="path2294" fill="none" d="M9.6.2c5.1-.2 10.1.2 14.8.9 1 .1 2 .6 2.7 1.4a6 6 0 011.8 4.4c-.2 4.7 0 8.7-.2 13.1l-.2 3c0 2.7-2.4 5-5.3 5.3l-7.8.6c-3.4.3-6.5.2-9.6-.2m20.3 0a5 5 0 01-1 .2c-6 .3-12-.5-18.3-1.3h-.3c-3-.5-5.2-2.6-5.3-5.2C1 19 .9 16 .4 12.7.1 10.9.1 8.9.2 7 .2 4.2 2.8 1.9 6 1.8h5.3c3.6.2 6.8.2 9.8.2M6.4 2c5.4.4 11 0 16.9-.6.9 0 1.7 0 2.5.3 1.8.6 3 2.2 3 4.2L29 19l.1 4c0 2.8-2.2 5.3-5 5.6l-6.7 1c-3.1.7-6.4.5-10 0m20.1-2.1c-.8.5-2 .9-3 1a175.6 175.6 0 00-19 1.3c-3 .2-5.2-2.3-4.8-5.4.4-3.3 1-6.8 1.6-10.2.6-3.3.6-6 .4-8.5C2.4 3.3 4.4 1.5 7 2l2.2.4c3 .5 6.3.3 9.7 0" overflow="visible"/>
    </g>
  </g>
  <g id="layer4">
    <g id="downArrow" stroke="#000" stroke-dasharray="none" stroke-linecap="round" stroke-linejoin="round" stroke-miterlimit="4" stroke-width=".3" color="#000" paint-order="markers fill stroke">
      <path id="rect877-1-1" fill="#ffe680" d="M11.8 20.8l-3.5-3.6c-.1 0 0-.2 0-.4L9 16a5875.3 5875.3 0 001.2-1.1l.4-.1 2.9 2.8V9l.4-.2h.8a4172 4172 0 011.6 0c.3 0 .4.1.4.2v8.8l2.8-2.8h.4l.6.6.6.6.5.7c.1.2.2.3.1.4a12181.3 12181.3 0 01-7 6.5s0 0 0 0 0 0 0 0 0 0 0 0A13130.8 13130.8 0 018 17.2l.1-.4.6-.7a23168.7 23168.7 0 001.2-1l.4-.2.8.9.4.4M10.4 19L8 16.6l.2-.4c0-.2.3-.4.5-.6a2166.7 2166.7 0 001.2-1.1l.4-.2 2.9 2.9V8.4c0-.1 0-.2.3-.2l.9-.1A12195.2 12195.2 0 0116 8l.3.3V17l2.7-2.8.4.1.7.6a3478 3478 0 011 1.2c.2.2.2.3.1.4a3408.2 3408.2 0 01-7 6.5s0 0 0 0 0 0 0 0 0 0 0 0a12005.2 12005.2 0 00-1.3-1.2l-5.5-5.4.1-.4.6-.7a4236.4 4236.4 0 001.1-1l.4-.2a8260.4 8260.4 0 002.6 2.6" overflow="visible"/>
      <path id="path2294-2" fill="none" d="M9.6 27c5.1-.3 10.1.2 14.8.9 1 .1 2-.1 2.7-.6 1.1-.6 1.8-2 1.8-3.7-.2-4.6 0-10-.2-14.9l-.2-3.1c0-2.8-2.4-5-5.3-4.8l-7.8.7c-3.4.3-6.5.1-9.6-.2m20.3.2h-1c-6 .2-12-.5-18.3-1.3h-.3A5 5 0 001.2 5C1 9 .9 13.2.4 17.3a44 44 0 00-.2 6.4c0 2.8 2.6 5 5.8 5H21.1m-14.7.1c5.4.4 11-.1 16.9-.6.9-.1 1.7-.4 2.5-.8 1.8-1 3-2.8 3-4.8l.1-13 .1-4C29 3 26.8 1 24 1.3c-2.3.2-4.5.6-6.7 1-3.1.6-6.4.4-10 0M27.5 2c-.8-.6-2-1-3-1a175.6 175.6 0 00-19 1.5C2.4 2.7.2 4.7.6 7c.4 2.5 1 4.9 1.6 7.3.6 2.3.6 5 .4 8.1-.2 3 1.8 5.8 4.4 6.2l2.2.4c3 .5 6.3.4 9.7 0" overflow="visible"/>
    </g>
  </g>
</svg>
