<?xml version="1.0" encoding="UTF-8" standalone="no"?>
<svg
   xmlns:dc="http://purl.org/dc/elements/1.1/"
   xmlns:cc="http://creativecommons.org/ns#"
   xmlns:rdf="http://www.w3.org/1999/02/22-rdf-syntax-ns#"
   xmlns:svg="http://www.w3.org/2000/svg"
   xmlns="http://www.w3.org/2000/svg"
   xmlns:sodipodi="http://sodipodi.sourceforge.net/DTD/sodipodi-0.dtd"
   xmlns:inkscape="http://www.inkscape.org/namespaces/inkscape"
   width="245.04041"
   height="115.31405"
   viewBox="0 0 64.833612 30.510175"
   version="1.1"
   id="svg1554"
   inkscape:version="1.0 (4035a4fb49, 2020-05-01)"
   sodipodi:docname="sketchy-buttons.svg">
  <defs
     id="defs1548">
    <inkscape:path-effect
       effect="sketch"
       id="path-effect2488"
       is_visible="true"
       lpeversion="1"
       nbiter_approxstrokes="2"
       strokelength="65"
       strokelength_rdm="0;1"
       strokeoverlap="0.2"
       strokeoverlap_rdm="0.1;1"
       ends_tolerance="0.1;1"
       parallel_offset="0.2;1"
       tremble_size="0.8;1"
       tremble_frequency="1.01"
       nbtangents="0"
       tgt_places_rdmness="0.7;1"
       tgtscale="10"
       tgtlength="87"
       tgtlength_rdm="0.8;1" />
    <inkscape:path-effect
       tgtlength_rdm="0.8;1"
       tgtlength="87"
       tgtscale="10"
       tgt_places_rdmness="0.7;1"
       nbtangents="0"
       tremble_frequency="1.01"
       tremble_size="0.8;1"
       parallel_offset="0.2;1"
       ends_tolerance="0.1;1"
       strokeoverlap_rdm="0.1;1"
       strokeoverlap="0.2"
       strokelength_rdm="0;1"
       strokelength="65"
       nbiter_approxstrokes="2"
       lpeversion="1"
       is_visible="true"
       id="path-effect2484"
       effect="sketch" />
    <inkscape:path-effect
       tgtlength_rdm="0.8;1"
       tgtlength="87"
       tgtscale="10"
       tgt_places_rdmness="0.7;1"
       nbtangents="0"
       tremble_frequency="1.01"
       tremble_size="0.8;1"
       parallel_offset="0.2;1"
       ends_tolerance="0.1;1"
       strokeoverlap_rdm="0.1;1"
       strokeoverlap="0.2"
       strokelength_rdm="0;1"
       strokelength="65"
       nbiter_approxstrokes="2"
       lpeversion="1"
       is_visible="true"
       id="path-effect2482"
       effect="sketch" />
    <inkscape:path-effect
       tgtlength_rdm="0.8;1"
       tgtlength="87"
       tgtscale="10"
       tgt_places_rdmness="0.7;1"
       nbtangents="0"
       tremble_frequency="1.01"
       tremble_size="0.8;1"
       parallel_offset="0.2;1"
       ends_tolerance="0.1;1"
       strokeoverlap_rdm="0.1;1"
       strokeoverlap="0.2"
       strokelength_rdm="0;1"
       strokelength="65"
       nbiter_approxstrokes="2"
       lpeversion="1"
       is_visible="true"
       id="path-effect2480"
       effect="sketch" />
    <inkscape:path-effect
       tgtlength_rdm="0.8;1"
       tgtlength="87"
       tgtscale="10"
       tgt_places_rdmness="0.7;1"
       nbtangents="0"
       tremble_frequency="1.01"
       tremble_size="0.8;1"
       parallel_offset="0.2;1"
       ends_tolerance="0.1;1"
       strokeoverlap_rdm="0.1;1"
       strokeoverlap="0.2"
       strokelength_rdm="0;1"
       strokelength="65"
       nbiter_approxstrokes="2"
       lpeversion="1"
       is_visible="true"
       id="path-effect2478"
       effect="sketch" />
    <inkscape:path-effect
       tgtlength_rdm="0.8;1"
       tgtlength="87"
       tgtscale="10"
       tgt_places_rdmness="0.7;1"
       nbtangents="0"
       tremble_frequency="1.01"
       tremble_size="0.8;1"
       parallel_offset="0.2;1"
       ends_tolerance="0.1;1"
       strokeoverlap_rdm="0.1;1"
       strokeoverlap="0.2"
       strokelength_rdm="0;1"
       strokelength="65"
       nbiter_approxstrokes="2"
       lpeversion="1"
       is_visible="true"
       id="path-effect2476"
       effect="sketch" />
    <inkscape:path-effect
       tgtlength_rdm="0.3;1"
       tgtlength="100"
       tgtscale="10"
       tgt_places_rdmness="0.7;1"
       nbtangents="0"
       tremble_frequency="3.51"
       tremble_size="1.5;1866837988"
       parallel_offset="0.4;2043538031"
       ends_tolerance="0.1;64550074"
       strokeoverlap_rdm="0.1;1178824699"
       strokeoverlap="0.3"
       strokelength_rdm="0;398486388"
       strokelength="66"
       nbiter_approxstrokes="2"
       lpeversion="1"
       is_visible="true"
       id="path-effect2436"
       effect="sketch" />
    <inkscape:path-effect
       effect="sketch"
       id="path-effect2434"
       is_visible="true"
       lpeversion="1"
       nbiter_approxstrokes="2"
       strokelength="65"
       strokelength_rdm="0;1"
       strokeoverlap="0.2"
       strokeoverlap_rdm="0.1;1"
       ends_tolerance="0.1;1"
       parallel_offset="0.2;1"
       tremble_size="0.8;1"
       tremble_frequency="1.01"
       nbtangents="0"
       tgt_places_rdmness="0.7;1"
       tgtscale="10"
       tgtlength="87"
       tgtlength_rdm="0.8;1" />
    <inkscape:path-effect
       effect="sketch"
       id="path-effect2400"
       is_visible="true"
       lpeversion="1"
       nbiter_approxstrokes="2"
       strokelength="66"
       strokelength_rdm="0;398486388"
       strokeoverlap="0.3"
       strokeoverlap_rdm="0.1;1178824699"
       ends_tolerance="0.1;64550074"
       parallel_offset="0.4;2043538031"
       tremble_size="1.5;1866837988"
       tremble_frequency="3.51"
       nbtangents="0"
       tgt_places_rdmness="0.7;1"
       tgtscale="10"
       tgtlength="100"
       tgtlength_rdm="0.3;1" />
    <inkscape:path-effect
       tgtlength_rdm="0.8;1"
       tgtlength="87"
       tgtscale="10"
       tgt_places_rdmness="0.7;1"
       nbtangents="0"
       tremble_frequency="1.01"
       tremble_size="0.8;1"
       parallel_offset="0.2;1"
       ends_tolerance="0.1;1"
       strokeoverlap_rdm="0.1;1"
       strokeoverlap="0.2"
       strokelength_rdm="0;1"
       strokelength="65"
       nbiter_approxstrokes="2"
       lpeversion="1"
       is_visible="true"
       id="path-effect2398"
       effect="sketch" />
    <inkscape:path-effect
       effect="sketch"
       id="path-effect2306"
       is_visible="true"
       lpeversion="1"
       nbiter_approxstrokes="2"
       strokelength="22"
       strokelength_rdm="0;1"
       strokeoverlap="0.2"
       strokeoverlap_rdm="0.1;1"
       ends_tolerance="0.1;1"
       parallel_offset="0.2;1"
       tremble_size="1.3;1"
       tremble_frequency="1.01"
       nbtangents="0"
       tgt_places_rdmness="0.7;1"
       tgtscale="10"
       tgtlength="87"
       tgtlength_rdm="0.8;1" />
    <inkscape:path-effect
       effect="sketch"
       id="path-effect2304"
       is_visible="true"
       lpeversion="1"
       nbiter_approxstrokes="2"
       strokelength="22"
       strokelength_rdm="0;1"
       strokeoverlap="0.2"
       strokeoverlap_rdm="0.1;1"
       ends_tolerance="0.1;1"
       parallel_offset="0.2;1"
       tremble_size="1.3;1"
       tremble_frequency="1.01"
       nbtangents="0"
       tgt_places_rdmness="0.7;1"
       tgtscale="10"
       tgtlength="87"
       tgtlength_rdm="0.8;1" />
    <inkscape:path-effect
       tgtlength_rdm="0.3;1"
       tgtlength="100"
       tgtscale="10"
       tgt_places_rdmness="0.7;1"
       nbtangents="0"
       tremble_frequency="3.51"
       tremble_size="1.5;1866837988"
       parallel_offset="0.4;2043538031"
       ends_tolerance="0.1;64550074"
       strokeoverlap_rdm="0.1;1178824699"
       strokeoverlap="0.3"
       strokelength_rdm="0;398486388"
       strokelength="66"
       nbiter_approxstrokes="2"
       lpeversion="1"
       is_visible="true"
       id="path-effect2302"
       effect="sketch" />
    <inkscape:path-effect
       effect="sketch"
       id="path-effect2282"
       is_visible="true"
       lpeversion="1"
       nbiter_approxstrokes="2"
       strokelength="65"
       strokelength_rdm="0;1"
       strokeoverlap="0.2"
       strokeoverlap_rdm="0.1;1"
       ends_tolerance="0.1;1"
       parallel_offset="0.2;1"
       tremble_size="0.8;1"
       tremble_frequency="1.01"
       nbtangents="0"
       tgt_places_rdmness="0.7;1"
       tgtscale="10"
       tgtlength="87"
       tgtlength_rdm="0.8;1" />
    <inkscape:path-effect
       tgtlength_rdm="0.8;1"
       tgtlength="87"
       tgtscale="10"
       tgt_places_rdmness="0.7;1"
       nbtangents="0"
       tremble_frequency="1.01"
       tremble_size="1.3;1"
       parallel_offset="0.2;1"
       ends_tolerance="0.1;1"
       strokeoverlap_rdm="0.1;1"
       strokeoverlap="0.2"
       strokelength_rdm="0;1"
       strokelength="22"
       nbiter_approxstrokes="2"
       lpeversion="1"
       is_visible="true"
       id="path-effect2257"
       effect="sketch" />
    <inkscape:path-effect
       effect="sketch"
       id="path-effect2253"
       is_visible="true"
       lpeversion="1"
       nbiter_approxstrokes="2"
       strokelength="22"
       strokelength_rdm="0;1"
       strokeoverlap="0.2"
       strokeoverlap_rdm="0.1;1"
       ends_tolerance="0.1;1"
       parallel_offset="0.2;1"
       tremble_size="1.3;1"
       tremble_frequency="1.01"
       nbtangents="0"
       tgt_places_rdmness="0.7;1"
       tgtscale="10"
       tgtlength="87"
       tgtlength_rdm="0.8;1" />
    <inkscape:path-effect
       tgtlength_rdm="0.8;1"
       tgtlength="87"
       tgtscale="10"
       tgt_places_rdmness="0.7;1"
       nbtangents="0"
       tremble_frequency="1.01"
       tremble_size="1.3;1"
       parallel_offset="0.2;1"
       ends_tolerance="0.1;1"
       strokeoverlap_rdm="0.1;1"
       strokeoverlap="0.2"
       strokelength_rdm="0;1"
       strokelength="22"
       nbiter_approxstrokes="2"
       lpeversion="1"
       is_visible="true"
       id="path-effect2249"
       effect="sketch" />
    <inkscape:path-effect
       effect="sketch"
       id="path-effect2230"
       is_visible="true"
       lpeversion="1"
       nbiter_approxstrokes="2"
       strokelength="22"
       strokelength_rdm="0;1"
       strokeoverlap="0.2"
       strokeoverlap_rdm="0.1;1"
       ends_tolerance="0.1;1"
       parallel_offset="0.2;1"
       tremble_size="1.3;1"
       tremble_frequency="1.01"
       nbtangents="0"
       tgt_places_rdmness="0.7;1"
       tgtscale="10"
       tgtlength="87"
       tgtlength_rdm="0.8;1" />
    <inkscape:path-effect
       tgtlength_rdm="0.3;1"
       tgtlength="100"
       tgtscale="10"
       tgt_places_rdmness="0.7;1"
       nbtangents="0"
       tremble_frequency="3.51"
       tremble_size="1.5;1"
       parallel_offset="0.4;1"
       ends_tolerance="0.1;1"
       strokeoverlap_rdm="0.1;1"
       strokeoverlap="0.3"
       strokelength_rdm="0;1"
       strokelength="66"
       nbiter_approxstrokes="2"
       lpeversion="1"
       is_visible="true"
       id="path-effect841"
       effect="sketch" />
    <inkscape:path-effect
       effect="sketch"
       id="path-effect859"
       is_visible="true"
       lpeversion="1"
       nbiter_approxstrokes="2"
       strokelength="22"
       strokelength_rdm="0;1"
       strokeoverlap="0.2"
       strokeoverlap_rdm="0.1;1"
       ends_tolerance="0.1;1"
       parallel_offset="0.2;1"
       tremble_size="1.3;1"
       tremble_frequency="1.01"
       nbtangents="0"
       tgt_places_rdmness="0.7;1"
       tgtscale="10"
       tgtlength="87"
       tgtlength_rdm="0.8;1" />
    <inkscape:path-effect
       effect="sketch"
       id="path-effect871"
       is_visible="true"
       lpeversion="1"
       nbiter_approxstrokes="2"
       strokelength="66"
       strokelength_rdm="0;1818729994"
       strokeoverlap="0.3"
       strokeoverlap_rdm="0.1;640227810"
       ends_tolerance="0.1;64550074"
       parallel_offset="0.4;2043538031"
       tremble_size="1.5;1866837988"
       tremble_frequency="3.51"
       nbtangents="0"
       tgt_places_rdmness="0.7;1"
       tgtscale="10"
       tgtlength="100"
       tgtlength_rdm="0.3;1" />
    <inkscape:path-effect
       tgtlength_rdm="0.8;1"
       tgtlength="87"
       tgtscale="10"
       tgt_places_rdmness="0.7;1"
       nbtangents="0"
       tremble_frequency="1.01"
       tremble_size="1.3;1"
       parallel_offset="0.2;1"
       ends_tolerance="0.1;1"
       strokeoverlap_rdm="0.1;1"
       strokeoverlap="0.2"
       strokelength_rdm="0;1"
       strokelength="22"
       nbiter_approxstrokes="2"
       lpeversion="1"
       is_visible="true"
       id="path-effect901"
       effect="sketch" />
    <inkscape:path-effect
       tgtlength_rdm="0.8;1"
       tgtlength="87"
       tgtscale="10"
       tgt_places_rdmness="0.7;1"
       nbtangents="0"
       tremble_frequency="1.01"
       tremble_size="1.3;1"
       parallel_offset="0.2;1"
       ends_tolerance="0.1;1"
       strokeoverlap_rdm="0.1;1"
       strokeoverlap="0.2"
       strokelength_rdm="0;1"
       strokelength="22"
       nbiter_approxstrokes="2"
       lpeversion="1"
       is_visible="true"
       id="path-effect903"
       effect="sketch" />
  </defs>
  <sodipodi:namedview
     id="base"
     pagecolor="#ffffff"
     bordercolor="#666666"
     borderopacity="1.0"
     inkscape:pageopacity="0.0"
     inkscape:pageshadow="2"
     inkscape:zoom="0.91350001"
     inkscape:cx="57.089769"
     inkscape:cy="122.85203"
     inkscape:document-units="px"
     inkscape:current-layer="layer5"
     inkscape:document-rotation="0"
     showgrid="false"
     fit-margin-top="0"
     fit-margin-left="0"
     fit-margin-right="0"
     fit-margin-bottom="0"
     units="px"
     inkscape:pagecheckerboard="true"
     inkscape:snap-global="false" />
  <metadata
     id="metadata1551">
    <rdf:RDF>
      <cc:Work
         rdf:about="">
        <dc:format>image/svg+xml</dc:format>
        <dc:type
           rdf:resource="http://purl.org/dc/dcmitype/StillImage" />
        <dc:title />
      </cc:Work>
    </rdf:RDF>
  </metadata>
  <g
     inkscape:label="play"
     inkscape:groupmode="layer"
     id="layer1"
     transform="translate(-27.844068,-59.558018)"
     style="display:none">
    <g
       id="playButton">
      <path
         id="rect835"
         style="color:#000000;overflow:visible;fill:none;stroke:#000000;stroke-width:0.264583;stroke-linecap:round;stroke-linejoin:round;paint-order:markers fill stroke"
         d="m 39.121931,62.350493 c 4.749046,-0.23732 8.985673,-0.136392 13.175213,-0.06275 1.85261,0.03256 3.447577,1.100851 4.244518,2.646204 0.369196,0.715911 0.567826,1.536294 0.537181,2.406231 -0.188706,5.356915 -0.212688,10.54381 -0.635889,15.53597 -0.02076,0.244838 -0.03923,0.49165 -0.05553,0.740324 -0.171384,2.614863 -2.41273,4.853028 -5.130196,4.947716 -3.130452,0.109077 -6.099176,0.331621 -9.128738,0.445461 -2.314036,0.08695 -4.890255,0.08556 -7.614222,0.03927 -0.730099,-0.01241 -1.436838,-0.153611 -2.094505,-0.400021 m 17.683058,-1.832203 c -5.893003,-0.421449 -10.9865,0.09111 -16.179596,0.546639 -0.737997,0.06474 -1.438895,-0.04182 -2.066856,-0.285072 -1.673919,-0.648422 -2.843813,-2.31483 -2.801885,-4.290731 0.09023,-4.25199 0.107441,-8.666678 0.372499,-12.765389 0.08178,-1.264571 0.1169,-2.571966 0.116735,-3.911542 -3.44e-4,-2.786256 2.175041,-5.127264 4.850295,-5.308365 2.093371,-0.14171 4.15105,-0.314421 6.227001,-0.467611 2.946975,-0.217467 6.324545,-0.275471 9.937646,-0.346442 m -10.489497,2.14142 c 3.612613,0.169715 7.658299,-0.151523 11.929139,-0.773384 2.989655,-0.435313 5.517967,0.978997 6.281616,2.857244 0.06279,0.154434 0.109905,0.315805 0.140535,0.483149 0.821236,4.486737 -0.855793,11.521778 -2.529079,17.660443 -0.111301,0.408321 -0.262407,0.801779 -0.449712,1.176192 -1.18592,2.370598 -3.349046,4.066924 -5.659134,4.015641 -3.653846,-0.08111 -6.446304,-0.346495 -9.771225,-0.530645 -1.599121,-0.08857 -3.376725,-0.09806 -5.247519,-0.05295 -1.348509,0.03252 -2.611331,-0.422543 -3.57047,-1.190582 m 16.554409,3.861148 c -4.528675,-0.165308 -8.95837,-0.05126 -12.917497,0.05321 -1.350295,0.03563 -2.49701,-0.645818 -3.097278,-1.744615 -0.465296,-0.851728 -0.734443,-1.957826 -0.640044,-3.193969 0.397465,-5.204767 -0.735323,-10.762901 -0.965921,-16.536155 -0.026,-0.650953 -0.0486,-1.290811 -0.06845,-1.921481 -0.09541,-3.031556 2.191447,-5.321559 5.017829,-5.371751 2.975074,-0.05283 5.942568,-0.09628 8.808713,-0.404443 2.709081,-0.291279 5.625457,-0.234642 8.657561,-0.0092 0.375984,0.02796 0.744798,0.09186 1.102796,0.188134"
         inkscape:path-effect="#path-effect841"
         inkscape:original-d="m 34.236753,60.954935 h 17.61753 c 2.87063,0 5.18164,2.23858 5.18164,5.01925 v 17.06542 c 0,2.78067 -2.31101,5.019261 -5.18164,5.019261 h -17.61753 c -2.87063,0 -5.18164,-2.238591 -5.18164,-5.019261 v -17.06542 c 0,-2.78067 2.31101,-5.01925 5.18164,-5.01925 z" />
      <path
         id="path837"
         style="color:#000000;overflow:visible;fill:#ffe680;stroke:#000000;stroke-width:0.264583;stroke-linecap:round;stroke-linejoin:round;paint-order:markers fill stroke"
         inkscape:transform-center-x="-1.9460668"
         inkscape:transform-center-y="0.054568174"
         d="m 38.471571,80.643367 c 0.20169,-3.989655 0.158076,-7.812425 0.03352,-11.605696 2.874793,1.708428 5.685201,3.440319 8.547821,5.098213 0.06354,0.0368 0.127114,0.07358 0.19072,0.110343 m -3.401301,-2.693996 c 2.105426,1.058433 4.103538,2.145534 6.027288,3.243716 -4.00545,2.116593 -8.287136,4.274345 -12.609139,6.347323 -0.05747,-0.556087 -0.115553,-1.113467 -0.173807,-1.672376 -0.0081,-0.07778 -0.01604,-0.155567 -0.02379,-0.233356 m 0.548558,-0.410557 c 0.197411,-3.479013 0.233446,-7.063513 0.262819,-10.645913 3.200331,1.815545 6.393967,3.6332 9.736789,5.561365 0.06987,0.0403 0.139641,0.08051 0.209312,0.120639 m -2.304477,-3.088946 c 1.681003,1.098433 3.383158,2.190214 5.080927,3.297754 -4.057307,2.38493 -8.134947,4.842931 -12.487903,7.597762 -0.08832,-0.679974 -0.185354,-1.35055 -0.292543,-2.010467 -0.01035,-0.06373 -0.02044,-0.127798 -0.03026,-0.192186"
         inkscape:path-effect="#path-effect859"
         inkscape:original-d="m 38.014013,80.998555 v -12.94362 l 11.56984,6.47182 z" />
    </g>
  </g>
  <g
     inkscape:groupmode="layer"
     id="layer2"
     inkscape:label="pause"
     style="display:none"
     transform="translate(1.07704,0.29787183)">
    <g
       id="pauseButton"
       transform="translate(-64.096133,-61.820582)">
      <path
         id="path865"
         style="color:#000000;overflow:visible;fill:none;stroke:#000000;stroke-width:0.264999;stroke-linecap:round;stroke-linejoin:round;stroke-miterlimit:4;stroke-dasharray:none;paint-order:markers fill stroke"
         d="m 93.538326,68.929485 c -0.106926,4.964642 -0.301759,10.615571 -0.793,16.472762 -0.106821,1.273654 -0.566053,2.459726 -1.279751,3.454323 -1.097737,1.529787 -2.69296,2.481624 -4.441188,2.497821 -4.839087,0.04483 -9.273689,-0.611082 -14.226597,-0.876957 -1.084984,-0.05824 -2.152827,-0.08972 -3.208582,-0.09916 -2.868285,-0.02566 -5.111116,-2.213074 -5.12494,-4.888661 -0.01234,-2.388522 -0.03182,-4.715952 -0.139042,-7.057887 -0.133343,-2.912346 -0.0974,-6.256384 0.0012,-9.809428 m 2.622229,19.848399 c -0.367649,-0.664947 -0.580642,-1.446609 -0.594274,-2.297788 -0.08576,-5.355226 -0.284932,-11.50221 -0.729894,-17.66247 -0.03559,-0.492751 -0.06814,-0.975774 -0.09816,-1.449899 -0.198113,-3.129217 1.969799,-5.336859 4.63295,-5.088566 3.026866,0.282203 6.020148,0.765027 8.782173,1.130129 2.209352,0.292047 4.731944,0.36345 7.411951,0.357883 2.953687,-0.0061 5.492301,2.215486 5.84484,5.075658 0.131155,1.064068 0.261007,2.14149 0.377828,3.243076 0.350236,3.302588 0.304771,6.509534 0.134984,9.702634 M 91.130663,69.982937 c -0.03041,5.832182 0.159422,10.794748 0.506622,15.725332 0.05275,0.749163 -0.08137,1.455241 -0.3601,2.075213 -0.685707,1.525203 -2.326892,2.612347 -4.273884,2.585249 -4.328609,-0.06024 -8.853798,0.17317 -13.116449,0.07589 -1.259197,-0.02874 -2.527846,-0.02084 -3.801221,0.0199 -2.729609,0.08734 -4.944899,-2.02816 -4.890895,-4.544589 0.04323,-2.014611 0.102192,-3.95055 0.203147,-5.828832 0.140566,-2.615262 0.0102,-6.008056 -0.280975,-9.719123 m 1.239186,17.975962 c -0.469165,-0.774702 -0.750395,-1.67041 -0.78296,-2.619504 -0.179918,-5.243649 -0.456654,-10.173191 -1.167439,-14.810185 -0.07044,-0.459508 -0.124543,-0.934822 -0.163834,-1.424442 -0.215362,-2.68368 2.24178,-5.134311 5.361879,-5.479091 3.481003,-0.38466 7.202494,-0.995655 10.870485,-1.542302 3.137597,-0.467602 5.806069,-0.462337 8.27657,-0.228307 2.617397,0.247945 4.523782,2.999363 4.224571,6.351417 -0.101629,1.138539 -0.192478,2.274329 -0.258709,3.394913 -0.217859,3.686 -0.141616,6.741097 0.05623,9.544098"
         inkscape:path-effect="#path-effect871"
         inkscape:original-d="m 92.318219,68.448577 v 17.617531 c 0,2.870631 -2.238579,5.181639 -5.019249,5.181639 H 70.233549 c -2.78067,0 -5.01926,-2.311008 -5.01926,-5.181639 V 68.448577 c 0,-2.87062 2.23859,-5.18163 5.01926,-5.18163 H 87.29897 c 2.78067,0 5.019249,2.31101 5.019249,5.18163 z" />
      <path
         inkscape:original-d="m 74.681519,69.414887 h 0.95541 c 0.855121,0 1.54353,0.15578 1.54353,0.34927 v 13.872361 c 0,0.1935 -0.688409,0.34928 -1.54353,0.34928 h -0.95541 c -0.85511,0 -1.54353,-0.15578 -1.54353,-0.34928 V 69.764157 c 0,-0.19349 0.68842,-0.34927 1.54353,-0.34927 z"
         inkscape:path-effect="#path-effect901"
         d="m 76.573924,70.512002 c 0.246477,0.0078 0.465767,0.02943 0.643458,0.06167 0.292925,0.05314 0.470478,0.134543 0.47439,0.229016 0.185434,4.47798 0.03854,9.178294 -0.152791,13.860309 -0.004,0.09788 -0.181807,0.187086 -0.473728,0.253896 -0.291016,0.0666 -0.693272,0.11013 -1.139124,0.114771 -0.332094,0.0035 -0.664238,0.0067 -0.996337,0.0096 -0.446009,0.0039 -0.847992,-0.03202 -1.139152,-0.09326 -0.291952,-0.0614 -0.46974,-0.147417 -0.473761,-0.243951 -0.03452,-0.828656 -0.06763,-1.660292 -0.09764,-2.496315 -0.0027,-0.07621 -0.0054,-0.152446 -0.0081,-0.228698 m 1.47619,2.385339 c -0.309876,-0.02077 -0.588901,-0.06285 -0.803187,-0.118481 -0.268708,-0.06976 -0.43703,-0.161228 -0.434407,-0.259513 0.126134,-4.724984 -0.157238,-9.347773 -0.579788,-14.012662 -0.0088,-0.09691 0.150623,-0.18681 0.400907,-0.252178 0.252177,-0.06586 0.601501,-0.108698 0.987204,-0.113574 0.28736,-0.0036 0.574212,-0.0075 0.860644,-0.01179 0.384452,-0.0057 0.730941,0.02749 0.980316,0.08606 0.247147,0.05805 0.40486,0.143268 0.394783,0.238199 -0.0791,0.74518 -0.159724,1.488042 -0.240676,2.22795 -0.0081,0.0741 -0.01604,0.148195 -0.02379,0.222287 m 0.113567,-2.95042 c 0.285548,0.07416 0.45778,0.165916 0.462524,0.263828 0.232422,4.796594 0.214312,9.42993 0.267037,14.123484 0.0011,0.09784 -0.16943,0.187953 -0.444565,0.255638 -0.275316,0.06773 -0.656068,0.113168 -1.076737,0.121195 -0.313374,0.006 -0.626232,0.01237 -0.938468,0.01924 -0.419094,0.0092 -0.796435,-0.02047 -1.068287,-0.07632 -0.271335,-0.05574 -0.439722,-0.138277 -0.437071,-0.232868 0.02848,-1.016279 0.06559,-2.025995 0.115043,-3.026569 0.0036,-0.07271 0.0071,-0.145513 0.01048,-0.218402 m 1.780442,2.511339 c -0.04388,-0.0056 -0.08586,-0.01185 -0.125766,-0.0186 -0.295378,-0.0499 -0.474437,-0.128396 -0.479486,-0.221858 -0.238178,-4.409054 -0.382948,-8.839604 -0.72648,-13.035256 -0.0073,-0.08952 0.154839,-0.160608 0.409869,-0.195836 0.257023,-0.0355 0.611576,-0.03613 1.002859,0.009 0.291289,0.03359 0.581471,0.06843 0.87045,0.104615 0.388228,0.04861 0.735607,0.133847 0.985723,0.232435 0.247844,0.09769 0.404596,0.210201 0.394649,0.315685 -0.106345,1.12766 -0.22613,2.269938 -0.362303,3.429419 -0.01035,0.08815 -0.02044,0.175965 -0.03026,0.263457"
         style="color:#000000;overflow:visible;fill:#ffe680;stroke:#000000;stroke-width:0.264999;stroke-linecap:round;stroke-linejoin:round;stroke-miterlimit:4;stroke-dasharray:none;paint-order:markers fill stroke"
         id="rect877" />
      <path
         inkscape:original-d="m 81.61091,69.414887 h 0.95541 c 0.85512,0 1.54353,0.15578 1.54353,0.34927 v 13.872361 c 0,0.1935 -0.68841,0.34928 -1.54353,0.34928 h -0.95541 c -0.85511,0 -1.54353,-0.15578 -1.54353,-0.34928 V 69.764157 c 0,-0.19349 0.68842,-0.34927 1.54353,-0.34927 z"
         inkscape:path-effect="#path-effect903"
         d="m 83.503315,70.512002 c 0.246477,0.0078 0.465766,0.02943 0.643458,0.06167 0.292925,0.05314 0.470478,0.134543 0.47439,0.229016 0.185434,4.47798 0.03854,9.178294 -0.152791,13.860309 -0.004,0.09788 -0.181808,0.187086 -0.473728,0.253896 -0.291016,0.0666 -0.693273,0.11013 -1.139124,0.114771 -0.332094,0.0035 -0.664238,0.0067 -0.996337,0.0096 -0.446009,0.0039 -0.847992,-0.03202 -1.139152,-0.09326 -0.291952,-0.0614 -0.46974,-0.147417 -0.473761,-0.243951 -0.03452,-0.828656 -0.06763,-1.660292 -0.09764,-2.496315 -0.0027,-0.07621 -0.0054,-0.152446 -0.0081,-0.228698 m 1.47619,2.385339 c -0.309876,-0.02077 -0.588901,-0.06285 -0.803187,-0.118481 -0.268708,-0.06976 -0.43703,-0.161228 -0.434407,-0.259513 0.126134,-4.724984 -0.157238,-9.347773 -0.579788,-14.012662 -0.0088,-0.09691 0.150623,-0.18681 0.400907,-0.252178 0.252177,-0.06586 0.601501,-0.108698 0.987204,-0.113574 0.28736,-0.0036 0.574212,-0.0075 0.860644,-0.01179 0.384452,-0.0057 0.730941,0.02749 0.980316,0.08606 0.247147,0.05805 0.40486,0.143268 0.394783,0.238199 -0.0791,0.74518 -0.159724,1.488042 -0.240676,2.22795 -0.0081,0.0741 -0.01604,0.148195 -0.02379,0.222288 m 0.113567,-2.950421 c 0.285548,0.07416 0.45778,0.165916 0.462524,0.263828 0.232422,4.796594 0.214312,9.42993 0.267037,14.123484 0.0011,0.09784 -0.16943,0.187953 -0.444565,0.255638 -0.275316,0.06773 -0.656068,0.113168 -1.076737,0.121195 -0.313374,0.006 -0.626232,0.01237 -0.938468,0.01924 -0.419094,0.0092 -0.796435,-0.02047 -1.068287,-0.07632 -0.271335,-0.05574 -0.439722,-0.138277 -0.437071,-0.232868 0.02848,-1.016279 0.06559,-2.025995 0.115043,-3.026569 0.0036,-0.07271 0.0071,-0.145513 0.01048,-0.218402 m 1.780442,2.511339 c -0.04388,-0.0056 -0.08586,-0.01185 -0.125766,-0.0186 -0.295378,-0.0499 -0.474437,-0.128396 -0.479486,-0.221858 -0.238178,-4.409054 -0.382948,-8.839604 -0.72648,-13.035256 -0.0073,-0.08952 0.154839,-0.160608 0.409869,-0.195836 0.257023,-0.0355 0.611576,-0.03613 1.002859,0.009 0.291289,0.03359 0.581471,0.06843 0.87045,0.104615 0.388228,0.04861 0.735607,0.133847 0.985723,0.232435 0.247843,0.09769 0.404596,0.210201 0.394649,0.315685 -0.106345,1.127661 -0.22613,2.269939 -0.362303,3.429419 -0.01035,0.08815 -0.02044,0.175965 -0.03025,0.263457"
         style="color:#000000;overflow:visible;fill:#ffe680;stroke:#000000;stroke-width:0.264999;stroke-linecap:round;stroke-linejoin:round;stroke-miterlimit:4;stroke-dasharray:none;paint-order:markers fill stroke"
         id="rect879" />
    </g>
  </g>
  <g
     inkscape:groupmode="layer"
     id="layer3"
     inkscape:label="upArrow"
     style="display:none"
     transform="translate(1.07704,0.29787183)">
    <g
       id="upArrow">
      <path
         inkscape:original-d="m 14.501767,7.253294 c -0.03334,-0.0027 -0.05958,0.0034 -0.07625,0.0201 l -0.669877,0.67019 -0.535819,0.536479 -5.316773,5.318858 c -0.108546,0.108596 0.19019,0.582793 0.669875,1.062704 l 0.535817,0.536069 c 0.479692,0.479917 0.953662,0.778787 1.062208,0.670189 l 2.847173,-2.848918 v 8.789566 c 0,0.15358 0.546175,0.277263 1.224551,0.277263 h 0.758017 c 0.678385,0 1.22455,-0.123683 1.22455,-0.277263 v -8.789157 l 2.847172,2.848508 c 0.108548,0.108597 0.58211,-0.190276 1.061798,-0.670189 l 0.535818,-0.536069 c 0.479691,-0.479916 0.778832,-0.954107 0.670283,-1.062704 L 16.023537,8.480062 15.487312,7.943583 14.817436,7.273394 c -0.03335,-0.03337 -0.10411,-0.02429 -0.19596,0.01272 -0.04593,-0.0185 -0.08637,-0.03008 -0.11971,-0.03281 z"
         inkscape:path-effect="#path-effect2282"
         sodipodi:nodetypes="sccccssccssssccsscccccs"
         d="m 11.803481,10.934604 c -1.179954,1.184865 -2.3633151,2.37198 -3.5497377,3.561072 -0.053724,0.05385 -0.00527,0.198803 0.117365,0.389631 0.1226253,0.190819 0.3192799,0.42767 0.5612311,0.665831 0.1801818,0.17736 0.3602975,0.354762 0.5403484,0.532205 0.2417737,0.238272 0.4818462,0.43156 0.6750182,0.551647 0.193188,0.120097 0.339428,0.167113 0.394073,0.112477 0.95557,-0.955518 1.909363,-1.909909 2.861551,-2.863306 0.0068,2.921656 0.006,5.848042 -6.68e-4,8.77776 -1.75e-4,0.07678 0.136119,0.146103 0.356861,0.196227 0.220774,0.05013 0.526129,0.0811 0.864339,0.08119 0.25195,7.1e-5 0.503858,1.65e-4 0.755725,2.81e-4 0.33811,1.56e-4 0.643202,-0.03058 0.863733,-0.08055 0.220534,-0.04997 0.356601,-0.119188 0.356315,-0.19592 -0.01091,-2.927513 -0.027,-5.852231 -0.04649,-8.775553 0.940126,0.952433 1.879538,1.90516 2.818408,2.858044 0.05372,0.05452 0.198366,0.0072 0.388437,-0.113314 0.190182,-0.120558 0.426124,-0.314467 0.663311,-0.553548 0.176626,-0.178037 0.353234,-0.356069 0.529827,-0.534099 0.23714,-0.23907 0.42938,-0.476793 0.548715,-0.668304 0.119264,-0.191397 0.165875,-0.336945 0.111044,-0.39097 C 19.820137,12.719084 18.025992,10.952924 16.23157,9.1860466 16.050593,9.007833 15.869613,8.8296121 15.688631,8.651383 15.462541,8.4287327 15.236448,8.2060697 15.010355,7.9833921 c -0.03376,-0.033257 -0.105009,-0.024067 -0.197788,0.013187 -0.04637,-0.018388 -0.08718,-0.029875 -0.120814,-0.03253 -2.96e-4,7.14e-5 -5.91e-4,1.427e-4 -8.86e-4,2.138e-4 -2.51e-4,-1.96e-5 -5.01e-4,-3.86e-5 -7.5e-4,-5.72e-5 -0.03328,-0.00248 -0.05955,0.00373 -0.07639,0.02038 -0.226094,0.2240986 -0.452186,0.4481816 -0.678275,0.6722473 -0.180845,0.1793617 -0.361688,0.3587124 -0.542527,0.538051 -1.794406,1.7780343 -3.5885051,3.5548913 -5.3811801,5.3296933 -0.054804,0.05426 -0.00834,0.200227 0.1108571,0.392407 0.1192419,0.192258 0.3113875,0.430963 0.5485381,0.671069 0.1766011,0.178802 0.3532185,0.357581 0.5298536,0.536337 0.2372067,0.240055 0.4732524,0.434774 0.6635508,0.555923 0.1902075,0.12109 0.3349135,0.168751 0.3886555,0.114397 0.27693,-0.280116 0.553908,-0.560293 0.830938,-0.840534 0.15241,-0.154177 0.304839,-0.308367 0.457286,-0.462568 m -1.156913,-3.776565 c -0.7456051,0.750151 -1.4928385,1.500748 -2.2416227,2.251749 -0.053771,0.05393 -0.00539,0.19903 0.1170815,0.390089 0.1224662,0.191051 0.3188912,0.428196 0.5605458,0.666636 0.1799616,0.177569 0.3598385,0.355158 0.5396314,0.532769 0.241429,0.238498 0.4811506,0.431949 0.674052,0.552144 0.192917,0.120206 0.338994,0.167269 0.393541,0.112663 0.953851,-0.955 1.905384,-1.909436 2.854751,-2.863395 6.75e-4,2.920428 -0.009,5.843129 -0.02733,8.767204 -4.81e-4,0.07665 0.135378,0.145728 0.355124,0.195385 0.219852,0.04968 0.523932,0.08002 0.860694,0.0794 0.250868,-4.65e-4 0.501673,-9.21e-4 0.752417,-0.0014 0.336601,-6e-4 0.640289,-0.03205 0.859766,-0.08255 0.219328,-0.05047 0.354944,-0.120091 0.354294,-0.196945 -0.02481,-2.934577 -0.05773,-5.868122 -0.09719,-8.801532 0.930977,0.947812 1.860583,1.895652 2.78897,2.843434 0.05321,0.05432 0.196822,0.0064 0.385054,-0.114957 0.188395,-0.121434 0.421878,-0.316511 0.656311,-0.556922 0.174571,-0.179023 0.3491,-0.358048 0.523589,-0.537077 0.234314,-0.24041 0.423961,-0.479361 0.541354,-0.671783 0.117292,-0.192258 0.162709,-0.338491 0.107337,-0.392705 C 19.528427,12.110821 17.710166,10.33391 15.889096,8.5559846 15.705431,8.3766567 15.521738,8.1973184 15.338017,8.0179693 15.108504,7.7939199 14.878949,7.5698534 14.649353,7.3457688 c -0.03425,-0.033428 -0.106167,-0.024554 -0.200078,0.012269 -0.04692,-0.018609 -0.0882,-0.030281 -0.122206,-0.033086 -6.68e-4,-7.73e-5 -0.0013,-1.548e-4 -0.002,-2.325e-4 -2.53e-4,-2.07e-5 -5.06e-4,-4.08e-5 -7.58e-4,-6.05e-5 -0.03365,-0.00262 -0.06029,0.00344 -0.0775,0.019937 -0.229642,0.2226878 -0.459324,0.4453568 -0.689044,0.6680059 -0.18375,0.1782282 -0.367523,0.3564436 -0.551321,0.5346457 -1.823742,1.766761 -3.6497731,3.532214 -5.4770976,5.295795 -0.055742,0.0538 -0.011032,0.19951 0.104877,0.39048 0.1160703,0.191237 0.3039362,0.428593 0.5362605,0.667181 0.1730137,0.177678 0.346016,0.355336 0.519008,0.532974 0.2323138,0.238552 0.4638929,0.431922 0.65086,0.552072 0.1866682,0.119958 0.3296501,0.167253 0.38231,0.112506 0.6997981,-0.727638 1.3994551,-1.455629 2.0990381,-2.184011 0.149085,-0.155222 0.298274,-0.310444 0.447566,-0.465668"
         style="color:#000000;overflow:visible;fill:#ffe680;stroke:#000000;stroke-width:0.264999;stroke-linecap:round;stroke-linejoin:round;stroke-miterlimit:4;stroke-dasharray:none;paint-order:markers fill stroke"
         id="rect877-1" />
      <path
         inkscape:original-d="m 6.356585,1.748142 h 17.617531 c 2.870631,0 5.181639,2.238579 5.181639,5.019249 v 17.065421 c 0,2.78067 -2.311008,5.01926 -5.181639,5.01926 H 6.356585 c -2.87062,0 -5.18163,-2.23859 -5.18163,-5.01926 V 6.767391 c 0,-2.78067 2.31101,-5.019249 5.18163,-5.019249 z"
         inkscape:path-effect="#path-effect2302"
         d="M 9.6135105,0.19223161 C 14.700155,-0.03669722 19.698893,0.42066058 24.401223,1.0842805 c 1.022843,0.1443495 1.95243,0.6339225 2.678199,1.368849 1.120036,1.1341691 1.864392,2.7131744 1.80175,4.4209054 -0.172808,4.7111111 0.05887,8.7214761 -0.227761,13.1218801 -0.06279,0.963952 -0.108436,1.954673 -0.141997,2.967424 -0.09167,2.766267 -2.398811,5.10594 -5.287319,5.312238 -2.58552,0.184658 -5.178174,0.430406 -7.85858,0.661651 -3.333257,0.287568 -6.4972281,0.143445 -9.5985856,-0.209684 m 20.3234656,0.05362 c -0.309184,0.07368 -0.628355,0.118826 -0.954964,0.132943 -5.9434,0.256886 -12.004573,-0.494958 -18.3502907,-1.274898 -0.082023,-0.01008 -0.1636696,-0.02168 -0.2449108,-0.03477 C 3.5531919,27.123235 1.2743171,24.974115 1.1635711,22.418139 1.0150401,18.990099 0.86427604,15.90209 0.4015175,12.655261 0.14717992,10.870766 0.09235326,8.9457364 0.15782919,6.9532049 0.24813603,4.2050316 2.8395883,1.8842603 6.0487783,1.8478815 c 1.7695663,-0.020059 3.5485418,-0.022241 5.2990437,0.028385 3.55015,0.1026735 6.704599,0.1097052 9.734726,0.1028901 M 6.3808479,2.0706829 C 11.819014,2.4342942 17.477411,1.9282901 23.293182,1.3903026 c 0.88351,-0.081729 1.721224,0.027879 2.470964,0.2871542 1.83871,0.6358619 3.067798,2.2660745 3.09594,4.2109186 0.06267,4.3310356 -0.07124,8.9557276 0.05739,13.2497266 0.038,1.268459 0.06654,2.573547 0.09036,3.911485 0.05106,2.868008 -2.236647,5.302108 -5.053274,5.65631 -2.254944,0.283568 -4.494167,0.645809 -6.691391,1.065706 -3.059349,0.584653 -6.38963,0.391773 -9.8807184,-0.119379 M 27.44736,27.550347 c -0.881511,0.590916 -1.958112,0.94845 -3.130009,0.973304 C 18.946008,28.637567 13.47422,29.04738 7.5927436,29.733322 6.8204882,29.823388 6.0752923,29.887265 5.3539258,29.928146 2.3455667,30.098634 0.21504789,27.640468 0.60866911,24.521695 1.0251672,21.221662 1.6457074,17.730221 2.2179237,14.296902 2.762821,11.027499 2.7825964,8.287405 2.5983744,5.7875352 2.4141884,3.2881533 4.3839993,1.4867391 6.9669031,1.9725835 c 0.7380902,0.1388348 1.4853921,0.274327 2.2502154,0.398996 2.9820555,0.4860859 6.2582135,0.3412679 9.6559755,-0.055645"
         style="color:#000000;overflow:visible;fill:none;stroke:#000000;stroke-width:0.264999;stroke-linecap:round;stroke-linejoin:round;stroke-miterlimit:4;stroke-dasharray:none;paint-order:markers fill stroke"
         id="path2294" />
    </g>
  </g>
  <g
     inkscape:groupmode="layer"
     id="layer4"
     inkscape:label="downArrow"
     style="display:none"
     transform="translate(1.07704,0.29787183)">
    <g
       id="downArrow">
      <path
         id="rect877-1-1"
         style="color:#000000;overflow:visible;fill:#ffe680;stroke:#000000;stroke-width:0.264999;stroke-linecap:round;stroke-linejoin:round;stroke-miterlimit:4;stroke-dasharray:none;paint-order:markers fill stroke"
         d="m 11.803481,20.794552 c -1.179954,-1.213166 -2.3633151,-2.424082 -3.5497377,-3.63302 -0.053762,-0.05479 -0.00536,-0.201047 0.117365,-0.394587 0.1226294,-0.193394 0.3192758,-0.433621 0.5612311,-0.675359 0.1801818,-0.18002 0.3602975,-0.359997 0.5403484,-0.539933 0.2417872,-0.241633 0.4818327,-0.437762 0.6750182,-0.559928 0.193283,-0.122228 0.339414,-0.170302 0.394073,-0.116326 0.95557,0.94376 1.909363,1.888649 2.861551,2.83453 0.0068,-2.938055 0.006,-5.871379 -6.68e-4,-8.8013721 -1.75e-4,-0.076783 0.136119,-0.1461251 0.356861,-0.1962205 0.220784,-0.050105 0.526118,-0.080984 0.864339,-0.080889 0.25195,7.06e-5 0.503858,1.644e-4 0.755725,2.806e-4 0.338117,1.559e-4 0.643195,0.031259 0.863733,0.081527 0.220467,0.050252 0.356601,0.1197097 0.356315,0.1965279 -0.01091,2.9319248 -0.027,5.8666448 -0.04649,8.8027608 0.940126,-0.946572 1.879538,-1.892851 2.818408,-2.838972 0.05377,-0.05418 0.198312,-0.0062 0.388437,0.115493 0.190186,0.121715 0.42612,0.317183 0.663311,0.558023 0.176626,0.179343 0.353234,0.358689 0.529827,0.538039 0.237139,0.240842 0.429382,0.480181 0.548715,0.672889 0.119299,0.192651 0.165839,0.33885 0.111044,0.393245 -1.792752,1.779586 -3.586897,3.559332 -5.381319,5.33836 -0.180977,0.179439 -0.361957,0.35887 -0.542939,0.538294 -0.22609,0.224142 -0.452183,0.448272 -0.678276,0.672387 -0.03374,0.03345 -0.10503,0.02454 -0.197788,-0.01225 -0.04637,0.01861 -0.08718,0.03028 -0.120814,0.03309 -2.96e-4,7.8e-5 -5.91e-4,1.56e-4 -8.86e-4,2.34e-4 -2.51e-4,2e-5 -5.01e-4,4e-5 -7.5e-4,6e-5 -0.03328,0.0026 -0.05955,-0.0034 -0.07639,-0.01994 C 14.387636,23.478801 14.161544,23.25609 13.935455,23.033363 13.75461,22.855072 13.573767,22.67677 13.392928,22.498456 11.598522,20.730585 9.8044229,18.961536 8.0117479,17.190433 7.9569329,17.136274 8.0034229,16.990492 8.122605,16.798622 8.2418444,16.606659 8.4339958,16.368303 8.6711431,16.128501 8.8477442,15.949924 9.0243616,15.771323 9.2009967,15.5927 c 0.2372002,-0.23987 0.4732589,-0.434529 0.6635508,-0.555653 0.1902105,-0.121071 0.3349105,-0.168752 0.3886555,-0.114405 0.27693,0.280064 0.553908,0.560067 0.830938,0.840005 0.15241,0.154011 0.304839,0.308009 0.457286,0.461995 m -1.156913,2.692652 c -0.7456051,-0.76198 -1.4928385,-1.523515 -2.2416227,-2.284646 -0.053811,-0.0547 -0.00547,-0.200838 0.1170815,-0.394128 0.1224673,-0.193159 0.3188901,-0.433101 0.5605458,-0.674555 0.1799616,-0.179811 0.3598385,-0.3596 0.5396314,-0.539369 0.2414372,-0.241404 0.4811424,-0.437376 0.674052,-0.559431 0.192995,-0.122109 0.338974,-0.170152 0.393541,-0.11614 0.953851,0.944279 1.905384,1.889121 2.854751,2.834441 6.75e-4,-2.939283 -0.009,-5.876293 -0.02733,-8.8119277 -4.8e-4,-0.076882 0.135378,-0.146532 0.355124,-0.1970633 0.219854,-0.050556 0.52393,-0.082057 0.860694,-0.082681 0.250868,-4.65e-4 0.501673,-9.207e-4 0.752417,-0.00137 0.336606,-6.001e-4 0.640284,0.029795 0.859766,0.079529 0.219328,0.0497 0.354944,0.1188458 0.354294,0.1955027 -0.02481,2.924861 -0.05773,5.850754 -0.09719,8.776782 0.930977,-0.951193 1.860583,-1.902359 2.78897,-2.853582 0.05318,-0.05449 0.19685,-0.0069 0.385054,0.11385 0.188394,0.120847 0.421879,0.315131 0.656311,0.554649 0.174571,0.178357 0.3491,0.356711 0.523589,0.535061 0.234314,0.2395 0.423961,0.477614 0.541354,0.66941 0.117273,0.191602 0.162728,0.337491 0.107337,0.39151 -1.814457,1.769447 -3.632718,3.538441 -5.453788,5.306421 -0.183665,0.178324 -0.367358,0.356639 -0.551079,0.534942 -0.229513,0.222744 -0.459068,0.44547 -0.688664,0.668178 -0.03427,0.03324 -0.106147,0.0241 -0.200078,-0.01317 -0.04692,0.01839 -0.0882,0.02988 -0.122206,0.03254 -6.68e-4,-7.1e-5 -0.0013,-1.42e-4 -0.002,-2.13e-4 -2.53e-4,2e-5 -5.06e-4,3.9e-5 -7.58e-4,5.7e-5 -0.03365,0.0025 -0.06029,-0.0037 -0.0775,-0.02038 C 14.017163,22.8374 13.787481,22.613276 13.557761,22.389131 13.374011,22.209707 13.190238,22.03027 13.00644,21.850819 11.182698,20.071675 9.3566669,18.291222 7.5293424,16.508898 c -0.055694,-0.05433 -0.011081,-0.200952 0.104877,-0.393738 0.1160657,-0.192965 0.3039408,-0.432709 0.5362605,-0.674009 0.1730137,-0.179701 0.346016,-0.359422 0.519008,-0.539164 0.2323121,-0.241376 0.4638946,-0.437377 0.65086,-0.559503 0.1867649,-0.121996 0.3295534,-0.170459 0.38231,-0.116297 0.6997981,0.718538 1.3994551,1.436723 2.0990381,2.154517 0.149085,0.152966 0.298274,0.305931 0.447566,0.458895"
         sodipodi:nodetypes="sccccssccssssccsscccccs"
         inkscape:path-effect="#path-effect2398"
         inkscape:original-d="m 14.501767,23.010404 c -0.03334,0.0027 -0.05958,-0.0034 -0.07625,-0.0201 L 13.75564,22.320114 13.219821,21.783635 7.903048,16.464777 C 7.794502,16.356181 8.093238,15.881984 8.572923,15.402073 L 9.10874,14.866004 c 0.479692,-0.479917 0.953662,-0.778787 1.062208,-0.670189 l 2.847173,2.848918 V 8.255167 c 0,-0.15358 0.546175,-0.277263 1.224551,-0.277263 h 0.758017 c 0.678385,0 1.22455,0.123683 1.22455,0.277263 v 8.789157 l 2.847172,-2.848508 c 0.108548,-0.108597 0.58211,0.190276 1.061798,0.670189 l 0.535818,0.536069 c 0.479691,0.479916 0.778832,0.954107 0.670283,1.062704 l -5.316773,5.318858 -0.536225,0.536479 -0.669876,0.670189 c -0.03335,0.03337 -0.10411,0.02429 -0.19596,-0.01272 -0.04593,0.0185 -0.08637,0.03008 -0.11971,0.03281 z" />
      <path
         id="path2294-2"
         style="color:#000000;overflow:visible;fill:none;stroke:#000000;stroke-width:0.264999;stroke-linecap:round;stroke-linejoin:round;stroke-miterlimit:4;stroke-dasharray:none;paint-order:markers fill stroke"
         d="m 9.6135105,26.959646 c 5.0866445,-0.228929 10.0853825,0.228429 14.7877125,0.892049 1.022435,0.144291 1.952839,-0.05906 2.678199,-0.503627 1.120305,-0.686627 1.864122,-2.077086 1.80175,-3.745117 C 28.708364,18.981505 28.94004,13.659312 28.653411,8.727158 28.590622,7.6467206 28.544975,6.593052 28.511414,5.5614133 28.420485,2.7662873 26.111864,0.62888601 23.224095,0.83513073 20.638575,1.0197888 18.045921,1.2655373 15.365515,1.4967822 12.032258,1.7843503 8.8682869,1.6402273 5.7669294,1.2870977 M 26.090395,1.5056679 C 25.781156,1.4709876 25.462094,1.4595396 25.135431,1.4736586 19.192031,1.7305451 13.130858,0.97870112 6.7851403,0.1987611 6.7031179,0.18867988 6.6214705,0.18021111 6.5402295,0.17332154 3.555467,-0.07979894 1.272042,2.1580246 1.1635711,5.016213 1.0150401,8.9299771 0.86427604,13.183774 0.4015175,17.278749 0.14717992,19.529396 0.09235326,21.63951 0.15782919,23.682121 c 0.0901761,2.813168 2.68188981,4.969552 5.89094911,4.933175 1.7695663,-0.02006 3.5485418,-0.02224 5.2990437,0.02839 3.55015,0.102674 6.704599,0.109705 9.734726,0.10289 m -14.7017001,0.09153 c 5.4381661,0.363611 11.0965631,-0.142393 16.9123341,-0.68038 0.883747,-0.08175 1.720987,-0.347194 2.470964,-0.755851 1.838795,-1.001946 3.067714,-2.779612 3.09594,-4.784575 0.06267,-4.451522 -0.07124,-8.609387 0.05739,-13.0979455 0.038,-1.3259314 0.06654,-2.6152332 0.09036,-3.8716844 C 29.058898,2.9543292 26.77119,0.91124895 23.954563,1.265451 21.699619,1.5490192 19.460396,1.9112597 17.263172,2.3311573 14.203823,2.9158098 10.873542,2.7229304 7.3824536,2.2117777 M 27.44736,1.9914397 C 26.566722,1.3973881 25.488375,1.05837 24.317351,1.0832051 18.946008,1.197121 13.47422,1.6069342 7.5927436,2.292876 6.8204882,2.3829422 6.0752923,2.4468189 5.3539258,2.4876998 2.3543572,2.6576899 0.20625743,4.6777003 0.60866911,7.1197687 1.0251672,9.6473214 1.6457074,11.983466 2.2179237,14.377733 c 0.5448973,2.279959 0.5646727,5.089226 0.3804507,8.138718 -0.1846196,3.056074 1.7868547,5.737933 4.3685287,6.223547 0.7380902,0.138834 1.4853921,0.274327 2.2502154,0.398995 2.9820555,0.486086 6.2582135,0.341268 9.6559755,-0.05564"
         inkscape:path-effect="#path-effect2400"
         inkscape:original-d="m 6.356585,28.515556 h 17.617531 c 2.870631,0 5.181639,-2.238579 5.181639,-5.019249 V 6.430886 c 0,-2.78067 -2.311008,-5.01926 -5.181639,-5.01926 H 6.356585 c -2.87062,0 -5.18163,2.23859 -5.18163,5.01926 v 17.065421 c 0,2.78067 2.31101,5.019249 5.18163,5.019249 z" />
    </g>
  </g>
  <g
     style="display:inline"
     inkscape:groupmode="layer"
     id="layer5"
     inkscape:label="closeButton"
     transform="translate(1.07704,0.29787183)">
    <g
       id="closeButton">
      <path
         sodipodi:nodetypes="sssssssss"
         inkscape:original-d="M 6.1987027,28.515556 H 57.597984 c 2.80817,0 5.068894,-2.238579 5.068894,-5.019249 V 6.430886 c 0,-2.78067 -2.260724,-5.01926 -5.068894,-5.01926 H 6.1987027 c -2.8081594,0 -5.0688851,2.23859 -5.0688851,5.01926 v 17.065421 c 0,2.78067 2.2607257,5.019249 5.0688851,5.019249 z"
         inkscape:path-effect="#path-effect2436"
         d="m 9.4556282,26.959646 c 6.1354988,-0.276134 12.1431008,0.44622 17.6569058,1.32466 l 2e-6,0 c 5.516738,0.878907 12.334676,-0.181936 18.217477,-0.539062 l 2e-6,-1e-6 c 3.680972,-0.22346 7.614269,-0.05287 11.514456,0.244119 2.486344,0.18933 4.534637,-1.38058 4.855326,-3.522049 0.03911,-0.261192 0.05492,-0.534154 0.0452,-0.816793 -0.09332,-2.713126 -0.05544,-5.764572 0.03398,-8.988049 m -4.64027,13.864651 c 0.538252,0.03411 1.075573,0.05912 1.611828,0.07581 2.766562,0.08611 4.976178,-2.279066 4.869872,-5.276283 C 63.502032,19.98923 63.328914,16.506345 63.077034,13.019205 62.86342,10.06183 62.759489,7.4548613 62.653852,5.0189113 62.541649,2.4315466 60.184474,0.50771211 57.143299,0.86927664 56.041891,1.0002227 54.92319,1.1295691 53.780653,1.2467823 46.72272,1.9708573 41.59027,1.3386402 36.008485,1.5397509 l -10e-7,1e-7 c -2.849679,0.1026735 -6.095059,0.1097052 -9.46476,0.1028901 m 17.446211,0.091526 C 37.690632,2.1506986 31.68033,1.4260648 25.86454,0.8194385 l -1e-6,-10e-9 C 20.045656,0.21248949 13.426584,0.74735085 7.3423735,0.60850104 l -1.9e-6,-4e-8 C 6.8952148,0.59829627 6.4468661,0.59271073 5.9975373,0.59157513 3.2567563,0.58464829 1.0243958,2.9656668 1.0666703,5.9987181 c 0.048352,3.4690931 0.1077342,7.1023599 0.246741,10.8449389 0.1108774,2.985229 0.053183,5.486685 -0.1190359,7.729762 -0.047835,0.623029 0.04164,1.195825 0.2417578,1.695777 M 1.6128294,5.449545 c -0.031081,0.2028466 -0.050115,0.4099741 -0.05641,0.6207027 -0.17041,5.7044843 -0.399472,11.7682683 -1.09414585,18.1653383 -0.0460543,0.424102 -0.0513542,0.838463 -0.0205728,1.239206 0.19496887,2.538297 2.22416078,4.241257 4.82454518,4.067525 4.3097923,-0.287939 9.1786288,-1.109211 13.9566818,-1.821292 l 2e-6,0 c 7.49869,-1.117542 12.317809,0.465852 18.158886,1.417969 2.982056,0.486085 6.258214,0.341267 9.655975,-0.05565 M 8.0646578,28.87532 c 6.4082922,-0.245414 12.2194982,0.02428 17.8674072,0.09414 l 3e-6,0 c 5.650913,0.0699 12.72222,-0.150686 19.354195,-0.445312 l 2e-6,0 c 4.440721,-0.19728 8.386887,-0.251875 12.16622,-0.431323 1.991214,-0.09455 3.631181,-1.597816 4.078726,-3.72596 0.12081,-0.574473 0.165494,-1.181034 0.116224,-1.804996 -0.219178,-2.775707 -0.237169,-5.374515 -0.220338,-7.917696 m -8.105485,13.049248 c 0.920853,0.05222 1.865553,0.09161 2.828096,0.122184 2.713468,0.08618 4.997928,-2.143439 5.04184,-4.887746 0.04146,-2.591302 0.0965,-5.170412 0.05658,-7.664906 C 61.20146,12.34679 61.382532,9.2181214 61.756723,5.9853014 62.096773,3.047452 60.2613,0.61674331 58.063765,0.37162797 57.628877,0.32312012 57.19942,0.27425453 56.775184,0.2256885 52.019808,-0.31870141 43.974245,0.73504037 37.186611,1.7608445 l -2e-6,3e-7 C 33.721306,2.2845504 30.415402,2.1608609 27.059187,1.7987332 M 45.811883,2.0112551 C 39.753432,2.2677464 32.850932,1.4117175 25.74079,0.20615725 l -1e-6,1.2e-7 C 18.626865,-1.0000441 13.415939,0.98225933 7.5701859,2.5499068 l -1.8e-6,5e-7 C 6.9946782,2.7042398 6.4069242,2.8265534 5.808146,2.9213476 3.0609607,3.3562617 0.70966444,5.4380691 0.46363183,7.9977179 0.20186376,10.721074 -0.19729791,13.248421 -0.5920574,16.101001 c -0.35177432,2.541964 -0.39525678,5.210444 -0.32288605,7.931033 0.01445,0.543208 0.11671662,1.068385 0.29284179,1.562173 M 2.0297307,7.1475191 C 1.9711386,7.4689933 1.9423793,7.8011123 1.9466791,8.1404405 2.01646,13.647271 1.3036789,18.816468 0.22020545,23.300804 c -0.0450329,0.186385 -0.0736176,0.368506 -0.0869381,0.545137 -0.1454854,1.929159 2.01624221,3.730424 4.87357461,3.942378 4.3438655,0.322223 9.412492,1.282084 14.346243,1.903799 l 1e-6,0 c 8.015557,1.010063 11.806565,-0.222004 16.635449,-0.656249 2.465298,-0.221697 5.630428,-0.200752 8.921538,-0.110494"
         style="color:#000000;overflow:visible;fill:none;stroke:#000000;stroke-width:0.264999;stroke-linecap:round;stroke-linejoin:round;stroke-miterlimit:4;stroke-dasharray:none;paint-order:markers fill stroke"
         id="path2294-2-9" />
      <g
         transform="translate(69.803936,-2.2528466)"
         id="g2501">
        <path
           id="path2444"
           style="color:#000000;font-size:17.4198px;line-height:125%;font-family:'Arial Rounded MT Bold';-inkscape-font-specification:'Arial Rounded MT Bold, Normal';writing-mode:lr-tb;fill:#ffe680;fill-opacity:1;stroke:#000000;stroke-width:0.265;stroke-linecap:round;stroke-linejoin:round;paint-order:markers fill stroke"
           d="m -55.367372,23.132191 c -0.213075,0.163547 -0.445815,0.310242 -0.698188,0.440058 -0.585002,0.300914 -1.267931,0.448849 -2.048484,0.443457 -0.591787,-0.0041 -1.130385,-0.07628 -1.615484,-0.216819 -0.485109,-0.140545 -0.926869,-0.355745 -1.325111,-0.645828 -0.393117,-0.296343 -0.755331,-0.683223 -1.086754,-1.160836 -0.29569,-0.433599 -0.547795,-0.917042 -0.756358,-1.450445 -0.208537,-0.539671 -0.365859,-1.11352 -0.471996,-1.721643 -0.100993,-0.608117 -0.150774,-1.253564 -0.149424,-1.936389 0.0022,-1.108835 0.134332,-2.100978 0.397079,-2.977204 0.267883,-0.876189 0.64828,-1.623695 1.141541,-2.24291 0.493233,-0.625438 1.071005,-1.100608 1.733321,-1.425625 0.662301,-0.3250091 1.368089,-0.4873732 2.117129,-0.4870736 0.913162,3.653e-4 1.725937,0.2227826 2.437773,0.6672006 0.711819,0.444408 1.256475,0.995235 1.633495,1.65233 0.377037,0.650824 0.56411,1.267393 0.560832,1.849418 -0.0018,0.319204 -0.09605,0.600888 -0.283128,0.845131 -0.187083,0.244256 -0.412325,0.366526 -0.676386,0.367043 -0.295173,5.78e-4 -0.517777,-0.08333 -0.66846,-0.251572 -0.145497,-0.16823 -0.309733,-0.45811 -0.492835,-0.869495 -0.303397,-0.679378 -0.660195,-1.187307 -1.070453,-1.523417 -0.40514,-0.336166 -0.905314,-0.503674 -1.501562,-0.502205 -0.948795,0.0023 -1.705951,0.43851 -2.275149,1.309718 -0.563942,0.871063 -0.851859,2.108541 -0.865468,3.71222 -0.0091,1.071352 0.106685,1.963871 0.347141,2.67817 0.2405,0.708007 0.585028,1.237403 1.032894,1.58874 0.447808,0.35129 0.973224,0.527502 1.575082,0.528899 0.652877,0.0015 1.203788,-0.194088 1.651346,-0.586456 0.452676,-0.398639 0.791663,-0.981457 1.016207,-1.748527 0.09449,-0.361716 0.21267,-0.654803 0.354445,-0.879297 0.141726,-0.230726 0.371388,-0.34594 0.687671,-0.345438 0.270408,4.29e-4 0.502513,0.116371 0.695475,0.347993 0.19297,0.231633 0.288309,0.519405 0.285392,0.863508 -0.0037,0.437947 -0.09778,0.913322 -0.28242,1.42623 -0.179427,0.506641 -0.461948,1.006946 -0.847806,1.500949 -0.385806,0.487738 -0.876976,0.884754 -1.473952,1.191031 -0.589428,0.302404 -1.274255,0.455438 -2.054931,0.458952 0,0 0,0 0,0 -0.01,4.4e-5 -0.01994,6.5e-5 -0.02994,6.1e-5 -0.216242,-8.3e-5 -0.425428,-0.0091 -0.627565,-0.02694 m 1.859089,-0.626332 c -0.336584,0.0721 -0.696821,0.107152 -1.080714,0.105119 -0.59191,-0.0031 -1.130728,-0.07458 -1.61609,-0.214504 -0.485375,-0.139925 -0.927467,-0.35462 -1.326109,-0.644263 -0.39352,-0.295905 -0.756232,-0.6824 -1.08831,-1.159695 -0.296285,-0.433316 -0.549082,-0.916551 -0.75848,-1.449838 -0.209381,-0.539558 -0.367663,-1.113385 -0.474923,-1.721606 -0.102114,-0.608218 -0.153182,-1.25387 -0.153345,-1.937059 -2.66e-4,-1.109457 0.129297,-2.102394 0.389443,-2.979633 0.265277,-0.877204 0.64304,-1.625751 1.133625,-2.246181 0.490537,-0.626654 1.065581,-1.103034 1.725052,-1.4294479 0.659426,-0.3263917 1.362268,-0.4901879 2.108021,-0.4915352 0.90914,-0.00164 1.718075,0.2188195 2.425742,0.6611059 0.707614,0.4422532 1.248317,0.9910462 1.621148,1.6459802 0.372855,0.648637 0.556339,1.263417 0.549587,1.843624 -0.0037,0.318216 -0.09967,0.599037 -0.288636,0.842302 -0.188975,0.243277 -0.415634,0.364823 -0.681386,0.364485 -0.297058,-3.79e-4 -0.521055,-0.08501 -0.673206,-0.253993 -0.146946,-0.168962 -0.313365,-0.45996 -0.499527,-0.872888 -0.308451,-0.68192 -0.669578,-1.192038 -1.083638,-1.530031 -0.408944,-0.338056 -0.912774,-0.507376 -1.513559,-0.508128 -0.956013,-0.0012 -1.719146,0.432087 -2.29697,1.299192 -0.572498,0.866904 -0.870912,2.099664 -0.89945,3.696512 -0.01907,1.066943 0.08798,1.955485 0.320895,2.666613 0.232993,0.704797 0.571161,1.231465 1.013041,1.580329 0.441769,0.348776 0.9615,0.522653 1.556669,0.521348 0.645556,-0.0014 1.190328,-0.199489 1.630965,-0.594539 0.445727,-0.401412 0.777018,-0.987053 0.991882,-1.757808 0.08996,-0.363438 0.204269,-0.657887 0.342762,-0.883614 0.138354,-0.231943 0.365295,-0.348178 0.677523,-0.349118 0.266959,-8.03e-4 0.496108,0.114082 0.685189,0.344331 0.189105,0.230281 0.280761,0.516744 0.273352,0.859306 -0.0094,0.435998 -0.109788,0.909181 -0.30176,1.419668 -0.186653,0.50425 -0.476883,1.001992 -0.871467,1.493226 -0.394458,0.484983 -0.894338,0.879263 -1.501005,1.182602 -0.60665,0.30333 -1.311581,0.453367 -2.116633,0.449642 -0.610363,-0.0028 -1.165514,-0.07425 -1.665847,-0.214306 -0.06678,-0.0187 -0.132779,-0.03872 -0.197989,-0.06009 0,0 0,0 0,0 -0.214371,-0.07024 -0.420138,-0.1549 -0.617359,-0.25399"
           inkscape:path-effect="#path-effect2476"
           inkscape:original-d="m -53.816434,18.731905 q 0,0.656059 -0.270178,1.424584 -0.262458,0.759154 -0.833692,1.499562 -0.571233,0.731036 -1.458962,1.190278 -0.887727,0.45924 -2.068791,0.45924 -0.895447,0 -1.628788,-0.20619 -0.73334,-0.206189 -1.335451,-0.637313 -0.594392,-0.440496 -1.096152,-1.152788 -0.447723,-0.646687 -0.764217,-1.443328 -0.316494,-0.806015 -0.478601,-1.715125 -0.154387,-0.909109 -0.154387,-1.930686 0,-1.65889 0.393687,-2.971006 0.401408,-1.312117 1.142467,-2.239971 0.74106,-0.937226 1.73686,-1.4245836 0.995799,-0.4873576 2.122827,-0.4873576 1.374049,0 2.447041,0.6654305 1.072992,0.6654307 1.644227,1.6495187 0.571233,0.974715 0.571233,1.846335 0,0.477985 -0.277897,0.843503 -0.277898,0.365519 -0.671586,0.365519 -0.440004,0 -0.663866,-0.253052 -0.216142,-0.25305 -0.48632,-0.87162 -0.447724,-1.021577 -1.057554,-1.527679 -0.602112,-0.506102 -1.489839,-0.506102 -1.412646,0 -2.254057,1.302745 -0.833692,1.302744 -0.833692,3.702043 0,1.602657 0.370529,2.671095 0.37053,1.059065 1.049835,1.583912 0.679305,0.524846 1.590191,0.524846 0.988079,0 1.667384,-0.590452 0.687024,-0.599824 1.034396,-1.752613 0.146668,-0.543591 0.362811,-0.880993 0.216143,-0.346773 0.694744,-0.346773 0.409126,0 0.702462,0.346773 0.293336,0.346775 0.293336,0.862248 z" />
        <path
           id="path2446"
           style="color:#000000;font-size:17.4198px;line-height:125%;font-family:'Arial Rounded MT Bold';-inkscape-font-specification:'Arial Rounded MT Bold, Normal';writing-mode:lr-tb;fill:#ffe680;fill-opacity:1;stroke:#000000;stroke-width:0.265;stroke-linecap:round;stroke-linejoin:round;paint-order:markers fill stroke"
           d="m -49.733394,15.757291 c 0.02105,1.903931 0.03774,3.810747 0.05056,5.720055 1.559362,-0.0086 3.116205,-0.01556 4.670794,-0.02112 0.371865,-0.0013 0.655787,0.107087 0.852233,0.324832 0.201587,0.217718 0.302703,0.491836 0.30352,0.822013 8.34e-4,0.336424 -0.09637,0.610624 -0.291359,0.82232 -0.195006,0.205462 -0.480136,0.307879 -0.855287,0.307042 -1.842347,-0.0041 -3.687598,-0.0064 -5.535307,-0.0073 -0.499974,-2.45e-4 -0.86083,-0.134661 -1.082845,-0.403398 -0.216855,-0.268726 -0.325856,-0.703009 -0.327468,-1.302732 -0.0095,-3.52645 -0.02719,-7.048283 -0.05002,-10.56794 -0.0036,-0.561193 0.09646,-0.981926 0.299972,-1.262367 0.208595,-0.2803729 0.482013,-0.4203307 0.819276,-0.4195349 0.34236,8.078e-4 0.618285,0.14205 0.826719,0.4240689 0.213632,0.275815 0.318639,0.698464 0.314335,1.268539 -0.02523,3.341778 -0.05383,6.684553 -0.08318,10.026263 1.535382,0.0039 3.070601,0.0075 4.605923,0.01068 0.367218,7.64e-4 0.647872,0.110659 0.840841,0.32991 0.198099,0.219276 0.296051,0.49468 0.293148,0.826451 -0.003,0.338 -0.103115,0.613421 -0.301173,0.82633 -0.198023,0.206658 -0.486034,0.310216 -0.86498,0.310792 -1.860859,0.0028 -3.721279,0.0048 -5.580815,0.0056 -0.503185,2.1e-4 -0.866064,-0.134058 -1.090026,-0.402677 -0.218735,-0.26855 -0.3301,-0.702933 -0.334551,-1.302807 -0.0015,-0.195611 -0.0029,-0.391237 -0.0043,-0.586879 -0.0016,-0.217938 -0.0032,-0.435889 -0.0047,-0.653851 m 2.438085,-3.763732 c 0.0123,1.286497 0.02222,2.573647 0.02988,3.861374 1.558203,-0.0071 3.113184,-0.01337 4.665177,-0.01895 0.371239,-0.0013 0.654669,0.107042 0.850571,0.324732 0.201032,0.217659 0.301619,0.4917 0.301757,0.821754 1.4e-4,0.336288 -0.09765,0.610376 -0.293284,0.821907 -0.195643,0.205308 -0.481412,0.307557 -0.857478,0.306451 -1.846839,-0.0054 -3.697653,-0.01003 -5.552046,-0.01402 -0.501803,-0.0011 -0.863971,-0.136136 -1.087323,-0.4055 -0.218174,-0.269341 -0.328861,-0.704467 -0.332986,-1.30541 -0.02426,-3.533721 -0.06092,-7.065584 -0.107223,-10.597152 -0.0074,-0.563171 0.08983,-0.9852009 0.290954,-1.2669228 0.206145,-0.2816088 0.477627,-0.4225351 0.812432,-0.4229607 0.339878,-4.32e-4 0.613778,0.1398064 0.819594,0.4205316 0.211063,0.2745763 0.312938,0.6956229 0.304208,1.2635699 -0.05117,3.329136 -0.109877,6.657929 -0.173781,9.985058 1.519324,-0.0029 3.037526,-0.0062 4.55484,-0.01 0.362879,-9.01e-4 0.640305,0.107739 0.829802,0.325684 0.194582,0.217951 0.289267,0.492112 0.282345,0.822395 -0.007,0.336443 -0.110559,0.610702 -0.312167,0.822279 -0.201558,0.205392 -0.492956,0.307679 -0.876712,0.306557 -1.884191,-0.0055 -3.769378,-0.01187 -5.655165,-0.01929 -0.510378,-0.002 -0.878195,-0.137836 -1.107205,-0.407959 -0.223664,-0.269955 -0.341316,-0.706396 -0.354748,-1.308804 -0.01841,-0.82564 -0.0369,-1.651513 -0.05544,-2.477638 -0.0049,-0.218983 -0.0097,-0.437966 -0.01443,-0.656951"
           inkscape:path-effect="#path-effect2478"
           inkscape:original-d="m -50.038191,10.784228 v 10.000203 h 4.647062 q 0.555795,0 0.849132,0.328029 0.301055,0.32803 0.301055,0.824759 0,0.506102 -0.293336,0.824759 -0.293336,0.309284 -0.856851,0.309284 h -5.53479 q -0.748779,0 -1.080711,-0.403007 -0.324214,-0.403006 -0.324214,-1.302745 V 10.784228 q 0,-0.8435037 0.308774,-1.2652555 0.316494,-0.4217517 0.825974,-0.4217517 0.517198,0 0.833692,0.4217517 0.324213,0.4123796 0.324213,1.2652555 z" />
        <g
           id="g2492"
           transform="translate(0.52916668)">
          <path
             id="path2486"
             style="color:#000000;font-size:17.4198px;line-height:125%;font-family:'Arial Rounded MT Bold';-inkscape-font-specification:'Arial Rounded MT Bold, Normal';writing-mode:lr-tb;fill:#ffe680;fill-opacity:1;stroke:none;stroke-width:0.265;stroke-linecap:round;stroke-linejoin:round;paint-order:markers fill stroke"
             d="m -39.617817,9.3020246 c 1.173345,0 2.179436,0.290541 3.018275,0.8716214 0.843985,0.574832 1.48212,1.396467 1.914405,2.464905 0.432285,1.062189 0.648427,2.311824 0.648427,3.748904 0,1.06219 -0.118364,2.027533 -0.355091,2.89603 -0.236727,0.868495 -0.591819,1.6214 -1.065274,2.258714 -0.473455,0.637314 -1.054981,1.124672 -1.744578,1.462073 -0.689598,0.337401 -1.479547,0.506102 -2.369847,0.506102 -0.885155,0 -1.677677,-0.171825 -2.377567,-0.515475 -0.69989,-0.349897 -1.283989,-0.840378 -1.752298,-1.471444 -0.468309,-0.631065 -0.8234,-1.390218 -1.065274,-2.277459 -0.236727,-0.887241 -0.355091,-1.846336 -0.355091,-2.877285 0,-1.055941 0.12351,-2.024408 0.370531,-2.905401 0.252166,-0.880993 0.614976,-1.630774 1.088431,-2.249343 0.473455,-0.618569 1.049835,-1.090307 1.72914,-1.4152124 0.679304,-0.331153 1.451241,-0.49673 2.315811,-0.49673 z m 3.257576,7.0666864 c 0,-1.005956 0.173404,-1.467968 -0.0942,-2.205253 -0.267605,-0.737284 -0.958207,-1.70298 -1.457393,-2.07787 -0.49404,-0.381139 -1.0627,-0.571709 -1.705981,-0.571709 -0.458016,0 -0.882582,0.106219 -1.273697,0.318657 -0.385969,0.20619 -0.720475,0.509227 -1.003518,0.90911 -0.277897,0.399883 -0.499186,0.912234 -0.663866,1.537051 -0.159534,0.618569 -0.239301,1.31524 -0.239301,2.090014 0,0.781022 0.07977,1.487066 0.239301,2.118131 0.16468,0.631066 0.393688,1.155913 0.687025,1.57454 0.298482,0.412379 0.638134,0.721664 1.018956,0.927854 0.385969,0.206189 0.807961,0.309284 1.265978,0.309284 0.586672,0 1.124455,-0.178073 1.613348,-0.534218 0.49404,-0.356146 0.885155,-0.905985 1.173345,-1.649518 0.293337,-0.743533 0.440005,-1.658891 0.440005,-2.746073 z"
             sodipodi:nodetypes="sccssssscscscscssscscccscccsccs" />
          <path
             sodipodi:nodetypes="sccssssscscscscssscscccscccsccs"
             inkscape:original-d="m -39.617817,9.0972208 c 1.173345,0 2.179436,0.2905401 3.018275,0.8716203 0.843985,0.5748319 1.48212,1.3964669 1.914405,2.4649049 0.432285,1.062189 0.648427,2.311824 0.648427,3.748904 0,1.06219 -0.118364,2.027533 -0.355091,2.89603 -0.236727,0.868495 -0.591819,1.6214 -1.065274,2.258714 -0.473455,0.637314 -1.054981,1.124672 -1.744578,1.462073 -0.689598,0.337401 -1.479547,0.506102 -2.369847,0.506102 -0.885155,0 -1.677677,-0.171825 -2.377567,-0.515475 -0.69989,-0.349897 -1.283989,-0.840378 -1.752298,-1.471444 -0.468309,-0.631065 -0.8234,-1.390218 -1.065274,-2.277459 -0.236727,-0.887241 -0.355091,-1.846336 -0.355091,-2.877285 0,-1.055941 0.12351,-2.024408 0.370531,-2.905401 0.252166,-0.880993 0.614976,-1.630774 1.088431,-2.249343 0.473455,-0.618569 1.049835,-1.0903065 1.72914,-1.4152114 0.679304,-0.3311532 1.451241,-0.4967298 2.315811,-0.4967298 z m 3.257576,7.0666852 c 0,-1.005956 0.173404,-1.467968 -0.0942,-2.205253 -0.267605,-0.737284 -0.958207,-1.70298 -1.457393,-2.07787 -0.49404,-0.381139 -1.0627,-0.571709 -1.705981,-0.571709 -0.458016,0 -0.882582,0.106219 -1.273697,0.318657 -0.385969,0.20619 -0.720475,0.509227 -1.003518,0.90911 -0.277897,0.399883 -0.499186,0.912234 -0.663866,1.537051 -0.159534,0.618569 -0.239301,1.31524 -0.239301,2.090014 0,0.781022 0.07977,1.487066 0.239301,2.118131 0.16468,0.631066 0.393688,1.155913 0.687025,1.57454 0.298482,0.412379 0.638134,0.721664 1.018956,0.927854 0.385969,0.206189 0.807961,0.309284 1.265978,0.309284 0.586672,0 1.124455,-0.178073 1.613348,-0.534218 0.49404,-0.356146 0.885155,-0.905985 1.173345,-1.649518 0.293337,-0.743533 0.440005,-1.658891 0.440005,-2.746073 z"
             inkscape:path-effect="#path-effect2480"
             d="m -35.49841,11.38074 c 0.468801,0.483134 0.848624,1.073069 1.13956,1.769199 0.442911,1.053686 0.66933,2.295576 0.678733,3.724593 0.007,1.056348 -0.106259,2.01725 -0.338856,2.881914 -0.232605,0.864693 -0.584734,1.614681 -1.055797,2.249423 -0.471084,0.63477 -1.050958,1.120104 -1.73929,1.455682 -0.688379,0.3356 -1.47748,0.502716 -2.367551,0.501345 -0.884961,-0.0014 -1.677793,-0.17404 -2.378486,-0.518314 -0.700709,-0.35053 -1.285919,-0.841299 -1.755905,-1.472506 -0.469981,-0.631198 -0.827193,-1.390194 -1.07204,-2.277017 -0.239692,-0.886812 -0.361664,-1.845128 -0.366184,-2.874954 -0.0046,-1.054817 0.11402,-2.021812 0.356095,-2.901364 0.247206,-0.879527 0.605157,-1.627731 1.073807,-2.244783 0.468628,-0.61702 1.040263,-1.087202 1.71445,-1.410421 0.674158,-0.3294556 1.440651,-0.4932208 2.298843,-0.4911 1.164615,0.00288 2.163052,0.296011 2.993715,0.879745 0.83585,0.577519 1.465779,1.401767 1.888349,2.473289 0.422635,1.065295 0.628023,2.318097 0.615422,3.758899 -0.0093,1.06485 -0.136227,2.032612 -0.380925,2.903164 -0.244702,0.870566 -0.607075,1.625302 -1.087535,2.264228 -0.48047,0.638937 -1.068498,1.127713 -1.764793,1.466447 -0.696303,0.338738 -1.493072,0.508689 -2.390963,0.509878 -0.892701,0.0012 -1.691851,-0.169792 -2.398144,-0.512771 -0.706308,-0.349219 -1.296414,-0.839271 -1.770882,-1.470058 -0.474452,-0.630764 -0.835901,-1.389935 -1.084522,-2.277415 -0.02275,-0.08294 -0.04448,-0.16652 -0.06516,-0.250727 0,0 0,0 0,0 -0.0515,-0.209618 -0.09659,-0.423138 -0.135272,-0.640561 M -34.56496,12.39693 c 0.03309,0.07206 0.06517,0.14533 0.09624,0.219814 0.442842,1.055713 0.668874,2.299454 0.67715,3.729781 0.0061,1.057306 -0.108177,2.018776 -0.341998,2.883692 -0.233828,0.864938 -0.587326,1.614971 -1.059864,2.24953 -0.472562,0.63459 -1.05403,1.119625 -1.744147,1.454697 -0.690175,0.3351 -1.48132,0.50156 -2.37393,0.499222 -0.887495,-0.0023 -1.682849,-0.176059 -2.386173,-0.521495 -0.703373,-0.351708 -1.291284,-0.843731 -1.764337,-1.476403 -0.473051,-0.63267 -0.833669,-1.393334 -1.082627,-2.282221 -0.2438,-0.88888 -0.370331,-1.849505 -0.380144,-2.882058 -0.01005,-1.057637 0.103248,-2.027326 0.340005,-2.909652 0.241883,-0.882316 0.594752,-1.633036 1.058428,-2.252674 0.463638,-0.619589 1.030392,-1.092206 1.699355,-1.4180716 0.66889,-0.3321004 1.429845,-0.4986368 2.281502,-0.4997295 1.155729,-0.00148 2.146162,0.2877638 2.968333,0.8674761 0.827314,0.573468 1.4486,1.39369 1.860601,2.460403 0.412127,1.060532 0.605634,2.30803 0.578415,3.742587 -0.02011,1.060181 -0.157288,2.023791 -0.411833,2.890296 -0.254552,0.866523 -0.626244,1.617681 -1.115915,2.252999 -0.489702,0.635356 -1.086584,1.120833 -1.792279,1.456089 -0.705725,0.335268 -1.512359,0.501664 -2.421816,0.498834 -0.904194,-0.0028 -1.713887,-0.177352 -2.430822,-0.523822 -0.717015,-0.352737 -1.317477,-0.846085 -1.803215,-1.480366 -0.485703,-0.634234 -0.859224,-1.397056 -1.121705,-2.28853 -0.192145,-0.665712 -0.318849,-1.371806 -0.380402,-2.118305 -0.01777,-0.215477 -0.03,-0.434312 -0.0367,-0.656499 m 6.869905,-4.794512 c -0.329358,-0.135393 -0.685908,-0.201656 -1.069394,-0.19858 -0.45311,0.0036 -0.873272,0.113109 -1.259935,0.328871 -0.381617,0.209472 -0.711818,0.515649 -0.99032,0.918985 -0.273397,0.403337 -0.489693,0.919316 -0.648911,1.548361 -0.154126,0.622723 -0.228274,1.323626 -0.222459,2.102947 0.0059,0.785576 0.09053,1.495451 0.254356,2.129932 0.168983,0.63448 0.401463,1.162117 0.697826,1.583197 0.301498,0.414824 0.643662,0.726169 1.026828,0.934298 0.38833,0.208144 0.812516,0.313068 1.272804,0.314988 0.589558,0.0025 1.129894,-0.173463 1.621445,-0.527271 0.496678,-0.353766 0.890571,-0.9013 1.181791,-1.641993 0.296382,-0.740705 0.446309,-1.653122 0.449729,-2.736903 1.04e-4,1.02e-4 2.08e-4,2.05e-4 3.12e-4,3.07e-4 0.0031,-1.002868 0.177738,-1.463647 -0.08776,-2.198724 -0.265508,-0.735092 -0.953236,-1.697637 -1.45107,-2.070958 -0.492627,-0.379524 -1.060066,-0.568657 -1.702026,-0.567057 -0.457077,0.0011 -0.880805,0.108397 -1.271064,0.321917 -0.385132,0.207258 -0.718808,0.511346 -1.00096,0.912409 -0.277012,0.401057 -0.497313,0.914707 -0.660866,1.541076 -0.158418,0.620094 -0.236991,1.31843 -0.235661,2.095082 8.2e-4,0.47823 0.03136,0.928425 0.09162,1.350599 m 6.261414,-2.531944 c 0.01702,-0.393518 0.005,-0.725259 -0.149761,-1.146527 -0.272484,-0.741629 -0.969375,-1.714446 -1.470544,-2.092382 -0.496478,-0.384527 -1.066876,-0.578107 -1.711621,-0.581426 -0.459027,-0.0024 -0.884288,0.101711 -1.275859,0.311935 -0.386397,0.204001 -0.721151,0.504919 -1.004088,0.902434 -0.277784,0.397517 -0.498705,0.907337 -0.662298,1.529141 -0.158461,0.615597 -0.236561,1.309188 -0.233867,2.080518 0.0027,0.777535 0.0857,1.480645 0.248646,2.108904 0.168098,0.628253 0.400616,1.150843 0.697331,1.567311 0.301862,0.410253 0.644839,0.71774 1.028999,0.922149 0.389377,0.204407 0.814854,0.305795 1.276904,0.303948 0.591867,-0.0024 1.134709,-0.182592 1.629741,-0.54116 0.500212,-0.358579 0.898242,-0.91099 1.195752,-1.657723 0.302672,-0.746727 0.460629,-1.66573 0.47553,-2.75733 4.57e-4,-1.35e-4 9.14e-4,-2.7e-4 0.0014,-4.06e-4 0.01388,-1.011883 0.194333,-1.472119 -0.06184,-2.214391 -0.255493,-0.740289 -0.927677,-1.711396 -1.415906,-2.088752 -0.483405,-0.383848 -1.04206,-0.576913 -1.673629,-0.579808 -0.449655,-0.0021 -0.86631,0.10222 -1.248938,0.312596 -0.377629,0.204166 -0.703584,0.505131 -0.976869,0.902668 -0.26822,0.397585 -0.478326,0.907193 -0.629486,1.528805 -0.146165,0.61539 -0.211011,1.308451 -0.193838,2.079125 0.007,0.313323 0.02676,0.614505 0.05932,0.903516"
             style="color:#000000;font-size:17.4198px;line-height:125%;font-family:'Arial Rounded MT Bold';-inkscape-font-specification:'Arial Rounded MT Bold, Normal';writing-mode:lr-tb;fill:none;fill-opacity:1;stroke:#000000;stroke-width:0.265;stroke-linecap:round;stroke-linejoin:round;paint-order:markers fill stroke"
             id="path2448" />
        </g>
        <path
           id="path2450"
           style="color:#000000;font-size:17.4198px;line-height:125%;font-family:'Arial Rounded MT Bold';-inkscape-font-specification:'Arial Rounded MT Bold, Normal';writing-mode:lr-tb;fill:#ffe680;fill-opacity:1;stroke:#000000;stroke-width:0.265;stroke-linecap:round;stroke-linejoin:round;paint-order:markers fill stroke"
           d="m -24.974887,23.316533 c -0.08446,0.0549 -0.171914,0.107191 -0.262357,0.156867 -0.671061,0.368582 -1.468416,0.549857 -2.391704,0.543406 -1.106965,-0.0077 -2.021286,-0.269391 -2.740983,-0.786695 -0.510431,-0.372194 -0.925967,-0.865835 -1.246493,-1.48146 -0.315348,-0.62186 -0.472094,-1.224191 -0.469696,-1.807572 0.0014,-0.338728 0.09768,-0.627194 0.289168,-0.86571 0.196661,-0.244785 0.444481,-0.367459 0.743866,-0.368421 0.242591,-7.79e-4 0.446452,0.09232 0.611773,0.279025 0.170466,0.186679 0.315328,0.463889 0.43447,0.831496 0.145034,0.436182 0.300031,0.800755 0.465169,1.093693 0.170287,0.292931 0.407352,0.535927 0.711266,0.728963 0.303917,0.186798 0.702924,0.27984 1.197036,0.279131 0.679353,-9.75e-4 1.229745,-0.192124 1.651277,-0.573777 0.426633,-0.387874 0.639634,-0.869323 0.638696,-1.444387 -7.44e-4,-0.456285 -0.117269,-0.825047 -0.349631,-1.106234 -0.227231,-0.287447 -0.524012,-0.50613 -0.89045,-0.656011 -0.361266,-0.149876 -0.846515,-0.309074 -1.455856,-0.477425 -0.815977,-0.230732 -1.500643,-0.498741 -2.053985,-0.804277 -0.548177,-0.311778 -0.985691,-0.732796 -1.312963,-1.263054 -0.322126,-0.536481 -0.485078,-1.200928 -0.489522,-1.993081 -0.0042,-0.754759 0.161578,-1.425113 0.497015,-2.011114 0.335419,-0.585966 0.82274,-1.03448 1.461165,-1.345287 0.63841,-0.3170523 1.389611,-0.4746184 2.252936,-0.4724932 0.689609,0.0017 1.284657,0.1094289 1.78475,0.3232602 0.505216,0.207588 0.92334,0.486932 1.253967,0.838088 0.33066,0.344891 0.571642,0.708447 0.722651,1.090659 0.151011,0.382217 0.22512,0.754998 0.222091,1.118342 -0.0028,0.332032 -0.103066,0.632743 -0.301438,0.902294 -0.193161,0.263289 -0.434523,0.395132 -0.725164,0.395892 -0.264733,6.93e-4 -0.467083,-0.07689 -0.60784,-0.232552 -0.135601,-0.161881 -0.284871,-0.423568 -0.447837,-0.784914 -0.210689,-0.517123 -0.461806,-0.919009 -0.753545,-1.205373 -0.29183,-0.292655 -0.758799,-0.438344 -1.402682,-0.436803 -0.597078,0.0014 -1.079835,0.161865 -1.449512,0.481622 -0.364481,0.313509 -0.547939,0.692336 -0.55187,1.13692 -0.0024,0.275521 0.05723,0.513423 0.178665,0.713859 0.121429,0.20042 0.289179,0.372729 0.503027,0.516943 0.213855,0.144219 0.430419,0.257152 0.649639,0.338818 0.219155,0.08164 0.581293,0.201112 1.086065,0.358199 0.632349,0.182321 1.203479,0.383195 1.713315,0.602658 0.514938,0.219469 0.950655,0.485646 1.306891,0.798578 0.361364,0.31295 0.640454,0.710144 0.836896,1.191684 0.201632,0.475319 0.299834,1.059817 0.294355,1.753691 -0.0066,0.831321 -0.189821,1.578065 -0.550508,2.240225 -0.115902,0.215866 -0.249247,0.416438 -0.400067,0.601714 -0.137886,0.169386 -0.290376,0.325994 -0.457496,0.469824 m -4.359564,-8.838826 c 0.194125,0.119709 0.390088,0.214993 0.58795,0.285818 0.22353,0.08001 0.591973,0.196582 1.10578,0.350129 0.643305,0.177826 1.223868,0.374846 1.74192,0.590934 0.52323,0.216067 0.965953,0.479373 1.328464,0.789734 0.367653,0.310325 0.652713,0.70517 0.855227,1.184181 0.207638,0.472755 0.312302,1.054836 0.313677,1.745817 0.0016,0.82795 -0.175248,1.572212 -0.530243,2.232068 -0.349871,0.659905 -0.865085,1.176447 -1.545629,1.549127 -0.680611,0.372719 -1.487928,0.558027 -2.422685,0.555748 -1.120683,-0.0027 -2.046286,-0.260908 -2.776888,-0.775105 -0.518195,-0.369973 -0.94149,-0.861663 -1.270516,-1.475299 -0.323921,-0.619929 -0.48805,-1.220701 -0.492789,-1.802825 -0.0028,-0.337994 0.09002,-0.625843 0.277788,-0.863787 0.192827,-0.244187 0.437627,-0.366418 0.733343,-0.366884 0.239628,-3.77e-4 0.440992,0.09304 0.603252,0.280101 0.167389,0.187079 0.308449,0.464634 0.422847,0.832727 0.139381,0.436726 0.289514,0.801635 0.450521,1.094854 0.166114,0.293193 0.399137,0.536417 0.698615,0.729624 0.29952,0.186968 0.693733,0.280161 1.181723,0.279515 0.671008,-8.88e-4 1.214724,-0.192149 1.629234,-0.574007 0.419523,-0.388093 0.626628,-0.869853 0.618592,-1.44538 -0.0064,-0.456632 -0.127422,-0.825844 -0.364254,-1.10741 -0.231762,-0.287877 -0.532928,-0.507008 -0.90427,-0.657466 -0.366123,-0.150452 -0.857628,-0.310427 -1.474822,-0.479949 -0.826474,-0.232293 -1.520224,-0.501922 -2.081412,-0.808965 -0.556016,-0.313287 -1.000865,-0.735857 -1.335925,-1.26788 -0.329915,-0.5382 -0.501179,-1.20477 -0.515611,-1.999507 -0.01375,-0.757325 0.143603,-1.430012 0.470467,-2.018627 0.32683,-0.588551 0.806079,-1.0396201 1.435392,-1.3534613 0.629261,-0.320096 1.370855,-0.4810077 2.223019,-0.4829923 0.680699,-0.00159 1.268025,0.103178 1.761075,0.3142369 0.498109,0.2047891 0.909836,0.4815385 1.234178,0.8300957 0.324419,0.342302 0.559827,0.70351 0.705464,1.083406 0.145636,0.379892 0.214871,0.750564 0.20709,1.111788 -0.0071,0.330103 -0.111346,0.629049 -0.314094,0.896611 -0.19742,0.261332 -0.442005,0.391732 -0.736416,0.390726 -0.26822,-9.16e-4 -0.473152,-0.07972 -0.616666,-0.236675 -0.138371,-0.163172 -0.291621,-0.426767 -0.459849,-0.790622 -0.218109,-0.520671 -0.475447,-0.925624 -0.77261,-1.214651 -0.29729,-0.295321 -0.77024,-0.444039 -1.422796,-0.446859 -0.605147,-0.0026 -1.094166,0.154511 -1.470467,0.470877 -0.370987,0.310165 -0.559576,0.686232 -0.569576,1.127644 -0.003,0.130591 0.0084,0.252661 0.03385,0.366221 0.02791,0.124293 0.07286,0.238378 0.134698,0.342227 0.0466,0.07825 0.100393,0.152142 0.161354,0.221664 m 3.028679,9.583046 c -0.292731,0.04878 -0.600979,0.07447 -0.924696,0.07709 -1.104646,0.0089 -2.016867,-0.240571 -2.734233,-0.746727 -0.50874,-0.364226 -0.922602,-0.850513 -1.241032,-1.458436 -0.313256,-0.614149 -0.468074,-1.210355 -0.46372,-1.788072 0.0025,-0.335443 0.09981,-0.62126 0.292374,-0.857006 0.197775,-0.241952 0.446491,-0.362462 0.746987,-0.360881 0.243501,0.0013 0.448113,0.09605 0.614407,0.28478 0.171446,0.188723 0.317502,0.468334 0.438223,0.838859 0.1469,0.43962 0.303575,0.806986 0.470157,1.102199 0.171743,0.295222 0.410273,0.540377 0.715809,0.735644 0.305491,0.188988 0.70638,0.284407 1.202822,0.286433 0.68262,0.0028 1.235709,-0.185676 1.660163,-0.564683 0.429615,-0.385209 0.645148,-0.864631 0.64737,-1.437443 0.0018,-0.454532 -0.112698,-0.821957 -0.342982,-1.101926 -0.225134,-0.286214 -0.519823,-0.503756 -0.883901,-0.652473 -0.358956,-0.148736 -0.841068,-0.306498 -1.446457,-0.473346 -0.810601,-0.228696 -1.490522,-0.495343 -2.039552,-0.799792 -0.543894,-0.310704 -0.977335,-0.73091 -1.300124,-1.260405 -0.317646,-0.535753 -0.475732,-1.199501 -0.474107,-1.991077 0.0015,-0.754171 0.172664,-1.42424 0.513588,-2.009944 0.340928,-0.585708 0.833538,-1.034057 1.478097,-1.3447629 0.644563,-0.3169473 1.402361,-0.4744759 2.27361,-0.4723573 0.695954,0.00169 1.296561,0.1093944 1.801868,0.3232088 0.510465,0.2075754 0.933366,0.4868934 1.268779,0.8380584 0.335408,0.344909 0.580681,0.708454 0.73588,1.090717 0.155203,0.382267 0.233153,0.75507 0.23391,1.118498 6.92e-4,0.3321 -0.09645,0.632876 -0.291275,0.902532 -0.189704,0.26339 -0.428442,0.395318 -0.71598,0.396201 -0.261853,8.03e-4 -0.462094,-0.07669 -0.600541,-0.232236 -0.133296,-0.161789 -0.279242,-0.423269 -0.437767,-0.784364 -0.20443,-0.516768 -0.450196,-0.91819 -0.737255,-1.204186 -0.287063,-0.292247 -0.748919,-0.437468 -1.385089,-0.435069 -0.589946,0.0022 -1.067061,0.163426 -1.430754,0.484028 -0.358584,0.31433 -0.537354,0.69397 -0.535685,1.139483 0.001,0.276107 0.06371,0.51459 0.188145,0.71558 0.124439,0.200996 0.295221,0.373898 0.512444,0.518815 0.217224,0.144918 0.436983,0.258546 0.659304,0.340912 0.222366,0.08238 0.589358,0.202937 1.101399,0.361884 0.641268,0.184596 1.220744,0.387829 1.738348,0.609653 0.52278,0.221853 0.965653,0.49038 1.328701,0.805679 0.368219,0.315325 0.654169,0.715047 0.858241,1.199554 0.209191,0.478226 0.316013,1.066335 0.321005,1.764805 0.006,0.836977 -0.165775,1.589121 -0.514701,2.257425 -0.343792,0.66827 -0.852261,1.192621 -1.524375,1.574328 -0.107929,0.0613 -0.219092,0.117769 -0.333485,0.169428 -0.194068,0.08764 -0.397526,0.161347 -0.610343,0.221131 m -0.06449,-9.082695 c 0.507944,0.161324 0.973621,0.335236 1.396952,0.521783 0.513653,0.22415 0.948298,0.494614 1.303517,0.811601 0.360354,0.31705 0.638462,0.718323 0.833842,1.204449 0.200578,0.479869 0.297608,1.06952 0.29071,1.769774 -0.0083,0.838965 -0.193074,1.592753 -0.555423,2.262298 -0.357182,0.669526 -0.878464,1.194877 -1.565124,1.577343 -0.686613,0.382443 -1.499555,0.577769 -2.439716,0.587066 -1.127305,0.01115 -2.056708,-0.2357 -2.7907,-0.738917 -0.520512,-0.362079 -0.945813,-0.846003 -1.276521,-1.450919 -0.325616,-0.611175 -0.490825,-1.204364 -0.496348,-1.779092 -0.0032,-0.333682 0.08928,-0.617928 0.276773,-0.851945 0.192563,-0.240175 0.437215,-0.359231 0.732811,-0.355827 0.239538,0.0028 0.440845,0.0988 0.603094,0.289137 0.167388,0.190402 0.308447,0.471928 0.423005,0.845185 0.139559,0.442827 0.289989,0.813039 0.4513,1.110798 0.166419,0.297766 0.399819,0.545488 0.699768,0.743638 0.299943,0.191837 0.694845,0.290512 1.183667,0.296809 0.672245,0.0087 1.21704,-0.174764 1.632969,-0.548401 0.420905,-0.379704 0.629246,-0.854334 0.622829,-1.421211 -0.0051,-0.44971 -0.125036,-0.813367 -0.360756,-1.089294 -0.230636,-0.282201 -0.530654,-0.495737 -0.900694,-0.639897 -0.364808,-0.144218 -0.854635,-0.296019 -1.469568,-0.455084 -0.823517,-0.218287 -1.514453,-0.475353 -2.073316,-0.771347 -0.553654,-0.302241 -0.99623,-0.71422 -1.328908,-1.234756 -0.327525,-0.526668 -0.496223,-1.180768 -0.507632,-1.959932 -0.01087,-0.742442 0.148993,-1.401633 0.478325,-1.976097 0.329296,-0.574401 0.810792,-1.011845 1.442506,-1.3098633 0.631706,-0.3042291 1.37564,-0.4480177 2.230318,-0.4293729 0.682575,0.01489 1.271663,0.1343465 1.765893,0.3590645 0.499362,0.2185381 0.912217,0.5080497 1.237421,0.8692487 0.325298,0.354856 0.561428,0.727627 0.707619,1.118692 0.146206,0.391099 0.215867,0.772151 0.208423,1.143575 -0.0068,0.339445 -0.110825,0.646958 -0.313399,0.924157 -0.19731,0.270817 -0.441721,0.408216 -0.736146,0.415784 -0.268267,0.0069 -0.473063,-0.06596 -0.616693,-0.216641 -0.138406,-0.156778 -0.291763,-0.411322 -0.460239,-0.762816 -0.21843,-0.503177 -0.476411,-0.893474 -0.774102,-1.169233 -0.298127,-0.282195 -0.771329,-0.416034 -1.425593,-0.397207 -0.606368,0.01745 -1.097077,0.191129 -1.474794,0.524516 -0.372584,0.327087 -0.562566,0.716856 -0.574413,1.174509 -0.0073,0.283696 0.04802,0.528564 0.165142,0.736128 0.11709,0.207505 0.280452,0.387033 0.489355,0.539255 0.208936,0.152246 0.420745,0.272797 0.635358,0.361916 0.07226,0.03001 0.160367,0.06483 0.264327,0.104494 0,0 0,0 0,0 0.162343,0.06194 0.363991,0.135698 0.604188,0.220732"
           inkscape:path-effect="#path-effect2482"
           inkscape:original-d="m -23.46889,18.947468 q 0,1.24651 -0.532637,2.23997 -0.524917,0.99346 -1.543875,1.555795 -1.018956,0.562336 -2.416163,0.562336 -1.675105,0 -2.763536,-0.768525 -0.771937,-0.552963 -1.258257,-1.471445 -0.478601,-0.927854 -0.478601,-1.799474 0,-0.506102 0.285616,-0.862248 0.293337,-0.365519 0.74106,-0.365519 0.362811,0 0.60983,0.281168 0.254739,0.281168 0.432285,0.834132 0.216143,0.656058 0.463162,1.096554 0.25474,0.440497 0.710183,0.731036 0.455442,0.281168 1.196503,0.281168 1.018957,0 1.651946,-0.571707 0.640708,-0.581081 0.640708,-1.443329 0,-0.684175 -0.347372,-1.105927 -0.339653,-0.431124 -0.887728,-0.656058 -0.540356,-0.224934 -1.451242,-0.477986 -1.219662,-0.346773 -2.045634,-0.806014 -0.818254,-0.468613 -1.304574,-1.265255 -0.478601,-0.806015 -0.478601,-1.996292 0,-1.134043 0.509478,-2.015036 0.509479,-0.880993 1.474401,-1.3496059 0.964921,-0.4779853 2.269496,-0.4779853 1.042114,0 1.798613,0.3186569 0.764217,0.3092846 1.265977,0.8341313 0.50176,0.515474 0.73334,1.087182 0.231582,0.571708 0.231582,1.115299 0,0.49673 -0.293337,0.899737 -0.285616,0.393635 -0.717901,0.393635 -0.393688,0 -0.602111,-0.234306 -0.200704,-0.243679 -0.440004,-0.78727 -0.308775,-0.777898 -0.741061,-1.209022 -0.432284,-0.440496 -1.389487,-0.440496 -0.887727,0 -1.435802,0.477985 -0.540357,0.468613 -0.540357,1.134044 0,0.41238 0.185266,0.712292 0.185264,0.299912 0.509478,0.515474 0.324214,0.215562 0.656147,0.337401 0.331932,0.12184 1.096151,0.356146 0.957201,0.271796 1.729139,0.599825 0.779656,0.32803 1.320013,0.796643 0.548075,0.468613 0.84913,1.190277 0.308776,0.712291 0.308776,1.752613 z" />
        <path
           id="path2452"
           style="color:#000000;font-size:17.4198px;line-height:125%;font-family:'Arial Rounded MT Bold';-inkscape-font-specification:'Arial Rounded MT Bold, Normal';writing-mode:lr-tb;fill:#ffe680;fill-opacity:1;stroke:#000000;stroke-width:0.265;stroke-linecap:round;stroke-linejoin:round;paint-order:markers fill stroke"
           d="m -17.986791,12.210504 c -0.304598,-0.0026 -0.609309,-0.0051 -0.91413,-0.0075 0.01152,1.115821 0.02157,2.232609 0.03024,3.350287 1.597274,-0.0099 3.191824,-0.01795 4.783934,-0.02449 0.351519,-0.0014 0.612404,0.09441 0.783245,0.287145 0.17596,0.18646 0.264371,0.435532 0.265431,0.746832 0.0011,0.311325 -0.08307,0.566679 -0.252141,0.765794 -0.169099,0.192903 -0.430855,0.288959 -0.785102,0.287958 -1.581295,-0.0045 -3.164831,-0.0076 -4.750326,-0.0095 -3.7e-4,1.301168 -0.0021,2.603124 -0.0049,3.905745 1.776692,-1.69e-4 3.551204,9.03e-4 5.323937,0.0029 0.358612,4.04e-4 0.627615,0.103831 0.806427,0.310366 0.183977,0.200301 0.275319,0.469314 0.273613,0.807212 -0.0016,0.325367 -0.09566,0.591339 -0.282393,0.797957 -0.181555,0.200365 -0.453149,0.300769 -0.815432,0.301393 -2.088225,0.0036 -4.178512,0.0082 -6.270226,0.01323 -0.502921,0.0012 -0.865654,-0.132236 -1.089597,-0.400053 -0.218705,-0.267743 -0.330048,-0.701059 -0.334747,-1.299258 -0.02697,-3.433846 -0.05716,-6.866935 -0.08765,-10.301539 -0.0035,-0.398962 0.04247,-0.723073 0.13788,-0.972416 0.09535,-0.255557 0.245168,-0.439367 0.44895,-0.551326 0.208857,-0.118187 0.474111,-0.176966 0.795449,-0.176283 1.999469,0.0042 3.999075,0.0078 5.9994,0.01015 0.362303,4.28e-4 0.630302,0.100674 0.803064,0.30088 0.177936,0.193976 0.265895,0.450343 0.26328,0.769286 -0.0027,0.325156 -0.09484,0.587795 -0.277113,0.787892 -0.177074,0.193853 -0.449321,0.290858 -0.817634,0.291016 -1.077785,4.64e-4 -2.155274,5.25e-4 -3.232381,1.16e-4 -0.219444,-8.3e-5 -0.438869,-1.78e-4 -0.658277,-2.86e-4 m -0.817369,-2.688204 c 1.623385,-0.0089 3.243088,-0.016785 4.859368,-0.02381 0.367262,-0.0016 0.638594,0.097256 0.814725,0.2961035 0.18124,0.1925707 0.27233,0.4477607 0.273473,0.7651147 0.0012,0.323598 -0.08809,0.585031 -0.267431,0.78394 -0.174244,0.192716 -0.443724,0.288559 -0.808326,0.287227 -1.717776,-0.0063 -3.439257,-0.01169 -5.16412,-0.01641 -0.0023,1.121583 -0.0059,2.243458 -0.01099,3.365574 1.577931,-0.0036 3.153174,-0.0067 4.725979,-0.0095 0.347203,-6.15e-4 0.605088,0.0958 0.772788,0.289064 0.172862,0.187025 0.258259,0.436528 0.255515,0.748437 -0.0027,0.311877 -0.08998,0.567703 -0.262219,0.767211 -0.172227,0.1933 -0.437036,0.289749 -0.795654,0.289216 -1.60061,-0.0024 -3.20348,-0.0045 -4.808358,-0.0066 -0.0163,1.301061 -0.03396,2.602186 -0.05284,3.903295 1.754803,-0.0022 3.507332,-0.0045 5.257943,-0.007 0.3541,-5.04e-4 0.619873,0.10221 0.795289,0.30801 0.180611,0.199586 0.268642,0.467799 0.262725,0.80473 -0.0057,0.324379 -0.103001,0.589604 -0.293182,0.795326 -0.184928,0.199528 -0.459731,0.299081 -0.826588,0.298498 -2.114255,-0.0034 -4.230799,-0.0072 -6.349066,-0.01188 -0.509365,-0.0011 -0.876504,-0.136293 -1.104881,-0.405779 -0.223041,-0.269328 -0.339906,-0.704934 -0.352345,-1.306158 -0.07142,-3.451674 -0.146934,-6.90594 -0.223971,-10.364254 -0.0089,-0.401765 0.03267,-0.728042 0.124447,-0.979311 0.09163,-0.2575085 0.238375,-0.442861 0.438985,-0.5565062 0.20554,-0.1199028 0.467224,-0.18059 0.784087,-0.1822529 0.06363,-3.34e-4 0.127256,-6.695e-4 0.190884,-0.00101 0.21294,-0.00113 0.425985,-0.00226 0.639133,-0.00339 m 0.323733,3.070322 c 0.0092,0.813076 0.01776,1.625783 0.02585,2.438148 1.60095,0.01183 3.199917,0.02235 4.797199,0.03176 0.352654,0.0021 0.614422,0.100392 0.786123,0.295532 0.176836,0.188884 0.26611,0.440212 0.268296,0.754322 0.0022,0.314129 -0.08101,0.571629 -0.249093,0.772953 -0.168087,0.195017 -0.428971,0.293201 -0.781762,0.294984 -1.57504,0.008 -3.151553,0.01496 -4.729238,0.02123 0.006,1.307899 0.01131,2.615302 0.01594,3.92233 1.786933,0.0059 3.572697,0.011 5.357718,0.01576 0.361131,9.62e-4 0.631934,0.104743 0.812696,0.311644 0.185905,0.200651 0.279144,0.470002 0.279896,0.808261 7.25e-4,0.325737 -0.09134,0.591933 -0.276015,0.798817 -0.179536,0.200601 -0.449196,0.30123 -0.80868,0.302113 -2.072287,0.0051 -4.145204,0.0099 -6.218076,0.01497 -0.498311,0.0012 -0.857941,-0.132271 -1.078613,-0.400079 -0.215531,-0.267815 -0.322853,-0.701012 -0.321759,-1.299302 0.0063,-3.433933 0.01344,-6.866707 0.02455,-10.296107 0.0013,-0.398315 0.05128,-0.721957 0.149979,-0.970778 0.09872,-0.2550467 0.251347,-0.4384585 0.458038,-0.5499294 0.211885,-0.1176978 0.480454,-0.1759167 0.805926,-0.1744901 2.025097,0.00888 4.051812,0.019099 6.080761,0.031114 0.367488,0.00218 0.639228,0.1037475 0.815819,0.3053423 0.181731,0.1953394 0.273355,0.4531054 0.2754,0.7738274 0.0021,0.327046 -0.08625,0.59113 -0.264565,0.792908 -0.173185,0.195429 -0.441641,0.294087 -0.804372,0.296661 -1.68352,0.01195 -3.365211,0.02534 -5.044706,0.04044 -0.02557,2.3e-4 -0.05113,4.59e-4 -0.0767,6.88e-4 0.0018,0.193744 0.0036,0.387448 0.0053,0.581113 m 3.269754,-3.3810756 c 0.887141,0.0088 1.774577,0.017501 2.662254,0.02615 0.36144,0.00352 0.629013,0.1060448 0.801187,0.3084951 0.17739,0.1962584 0.264827,0.4547829 0.261562,0.7765377 -0.0033,0.32802 -0.09601,0.592915 -0.278847,0.795433 -0.177571,0.196149 -0.450405,0.295537 -0.819439,0.299036 -1.738582,0.01648 -3.476519,0.03299 -5.214178,0.04985 -0.01061,1.135683 -0.0211,2.271515 -0.03158,3.407584 1.570281,0.01606 3.140594,0.0326 4.710652,0.04986 0.346551,0.0038 0.60418,0.103472 0.77151,0.299965 0.17255,0.190301 0.257677,0.442898 0.25468,0.758855 -0.003,0.315918 -0.09034,0.574957 -0.262707,0.777892 -0.172319,0.196634 -0.437235,0.296388 -0.795797,0.300513 -1.600537,0.01841 -3.201532,0.03773 -4.803272,0.0582 -0.01372,1.31957 -0.02795,2.639921 -0.04284,3.961192 1.760253,0.02532 3.519268,0.05236 5.276639,0.08148 0.355414,0.0059 0.622311,0.113408 0.798708,0.324107 0.181648,0.204536 0.270702,0.47757 0.266084,0.820818 -0.0044,0.330477 -0.100708,0.600572 -0.289857,0.811627 -0.18389,0.204664 -0.457764,0.309262 -0.823176,0.315738 -2.10634,0.03733 -4.215281,0.0778 -6.327468,0.121987 -0.508061,0.01063 -0.873931,-0.116019 -1.101565,-0.377217 -0.222163,-0.260961 -0.33792,-0.686271 -0.349022,-1.272157 -0.06375,-3.364278 -0.137155,-6.71772 -0.223148,-10.057745 -0.01,-0.387998 0.03064,-0.702967 0.121559,-0.944769 0.09072,-0.247757 0.236716,-0.425187 0.436441,-0.53036 0.204715,-0.1112083 0.465212,-0.162214 0.780759,-0.1518996 0.755206,0.024686 1.509735,0.050086 2.263553,0.076229 0.211618,0.0073 0.423394,0.01449 0.635324,0.02145"
           inkscape:path-effect="#path-effect2484"
           inkscape:original-d="m -14.051254,11.477775 h -5.164261 v 3.374014 h 4.755134 q 0.524917,0 0.779656,0.290541 0.262459,0.281168 0.262459,0.749781 0,0.468613 -0.254739,0.768525 -0.254739,0.29054 -0.787376,0.29054 h -4.755134 v 3.908233 h 5.341806 q 0.540356,0 0.810534,0.309284 0.277897,0.299913 0.277897,0.806015 0,0.487358 -0.277897,0.796643 -0.270178,0.299911 -0.810534,0.299911 h -6.229534 q -0.748778,0 -1.080712,-0.403007 -0.324213,-0.403006 -0.324213,-1.302745 V 11.037279 q 0,-0.599825 0.146667,-0.974715 0.146669,-0.384263 0.455443,-0.5529637 0.316495,-0.178073 0.802815,-0.178073 h 6.051989 q 0.548075,0 0.810534,0.2999124 0.270178,0.2905401 0.270178,0.7685253 0,0.487358 -0.270178,0.78727 -0.262459,0.29054 -0.810534,0.29054 z" />
      </g>
    </g>
  </g>
</svg>
