<svg xmlns="http://www.w3.org/2000/svg" id="svg1554" version="1.1" viewBox="0 0 64.8 30.5">
  <g id="layer5" transform="translate(1 .3)">
    <g id="closeButton" stroke-linecap="round" stroke-linejoin="round" stroke-width=".3" color="#000" paint-order="markers fill stroke">
      <path id="path2294-2-9" fill="none" stroke="#000" stroke-dasharray="none" stroke-miterlimit="4" d="M9.5 27c6-.3 12.1.4 17.6 1.3h0c5.5.9 12.3-.2 18.2-.6h0c3.7-.2 7.6 0 11.5.3 2.5.2 4.6-1.4 4.9-3.5v-.8-9m-4.6 13.8l1.7.1c2.7 0 5-2.3 4.8-5.3L63.1 13l-.4-8C62.5 2.4 60.2.5 57 1l-3.3.3c-7 .8-12.2.1-17.8.3h0l-9.5.1m17.5.1c-6.3.5-12.3-.3-18.1-.9h0C20 .2 13.4.8 7.3.6h0H6C3.3.6 1 3 1 6l.3 10.8c.1 3 0 5.5-.1 7.8 0 .6 0 1.2.2 1.7m.2-20.9v.7A229 229 0 01.4 25.5c.2 2.5 2.3 4.2 4.9 4 4.3-.2 9.1-1 14-1.8h0c7.4-1.1 12.2.5 18 1.4 3 .5 6.3.4 9.7 0m-39-.2c6.5-.3 12.3 0 18 0h0c5.6.1 12.7 0 19.3-.4h0l12.2-.4c2-.1 3.6-1.6 4-3.7a91.1 91.1 0 01-.1-9.7m-8 13l2.7.1a5 5 0 005-4.9c.1-2.6.2-5.1.1-7.6 0-3 .2-6 .6-9.3C62 3 60.3.6 58 .4L56.8.2C52-.3 44 .7 37.2 1.8h0c-3.5.5-6.8.4-10.1 0m18.7.2c-6 .3-13-.6-20-1.8h0C18.5-1 13.3 1 7.5 2.5h0L5.8 3C3.1 3.4.8 5.4.5 8l-1 8.1a48.8 48.8 0 00-.1 9.5M2 7v1A61.6 61.6 0 010 23.8c-.1 2 2 3.8 5 4 4.3.3 9.3 1.3 14.3 1.9h0c8 1 11.8-.2 16.6-.7a82 82 0 019 0" overflow="visible"/>
      <g id="g2501" fill-opacity="1" font-family="Arial Rounded MT Bold" font-size="17.4" transform="translate(69.8 -2.3)" writing-mode="lr-tb">
        <path id="path2444" fill="#ffe680" stroke="#000" d="M-55.4 23.1l-.7.5c-.6.3-1.2.4-2 .4a6 6 0 01-1.6-.2 4.2 4.2 0 01-2.4-1.8l-.8-1.5a9.1 9.1 0 01-.6-3.6c0-1.1.1-2.1.4-3 .2-.9.6-1.6 1.1-2.2a4.7 4.7 0 013.9-2c.9 0 1.7.3 2.4.7.7.5 1.3 1 1.6 1.7.4.6.6 1.2.6 1.8 0 .3 0 .6-.3.9-.2.2-.4.3-.7.3-.3 0-.5 0-.6-.2l-.5-.9a4 4 0 00-1-1.5c-.5-.3-1-.5-1.6-.5-1 0-1.7.4-2.3 1.3a7 7 0 00-.8 3.7c0 1 0 2 .3 2.7.3.7.6 1.2 1 1.6.5.3 1 .5 1.6.5.7 0 1.2-.2 1.7-.6.4-.4.8-1 1-1.7 0-.4.2-.7.3-1 .2-.1.4-.3.7-.3.3 0 .5.2.7.4.2.2.3.5.3.9s0 .9-.3 1.4c-.1.5-.4 1-.8 1.5a4.4 4.4 0 01-3.5 1.6s0 0 0 0a6.2 6.2 0 01-.7 0m1.9-.6a6 6 0 01-2.7-.1 4.2 4.2 0 01-2.5-1.8L-63 20a9.1 9.1 0 01-.6-3.6c0-1.2 0-2.1.3-3 .3-.9.7-1.6 1.2-2.3a4.7 4.7 0 017.9.4c.3.7.5 1.3.5 1.9 0 .3 0 .6-.3.8-.2.2-.4.4-.7.4-.3 0-.5-.1-.6-.3l-.5-.9c-.3-.6-.7-1.2-1.1-1.5-.4-.3-1-.5-1.5-.5-1 0-1.7.4-2.3 1.3a7 7 0 00-1 3.7c0 1 .2 2 .4 2.7.2.7.6 1.2 1 1.5.5.4 1 .6 1.6.6.6 0 1.2-.2 1.6-.6.4-.4.8-1 1-1.8l.3-.9c.2-.2.4-.3.7-.3.3 0 .5.1.7.3.2.3.3.5.3.9l-.3 1.4c-.2.5-.5 1-1 1.5a4.5 4.5 0 01-3.5 1.6 6.3 6.3 0 01-1.9-.2s0 0 0 0l-.6-.3" style="line-height:125%;-inkscape-font-specification:'Arial Rounded MT Bold, Normal'"/>
        <path id="path2446" fill="#ffe680" stroke="#000" d="M-49.7 15.8v5.7h4.7c.4 0 .6 0 .8.3.2.2.3.5.3.8 0 .3 0 .6-.2.8-.2.2-.5.3-.9.3h-5.5c-.5 0-.9-.1-1.1-.4-.2-.2-.3-.7-.3-1.3l-.1-10.5c0-.6.1-1 .3-1.3.2-.3.5-.4.8-.4.4 0 .6.1.8.4.3.3.4.7.4 1.3l-.1 10h4.6c.4 0 .6.1.8.3.2.2.3.5.3.9 0 .3 0 .6-.3.8-.2.2-.5.3-.8.3h-5.6c-.5 0-.9-.1-1.1-.4-.2-.3-.3-.7-.4-1.3a1145.6 1145.6 0 010-1.2m2.5-3.8v3.8h4.7c.3 0 .6.1.8.4.2.2.3.4.3.8 0 .3 0 .6-.3.8-.2.2-.5.3-.8.3h-5.6c-.5 0-.8-.1-1-.4-.3-.3-.4-.7-.4-1.3l-.1-10.6c0-.6 0-1 .3-1.3.2-.3.5-.4.8-.4.3 0 .6.1.8.4.2.3.3.7.3 1.3 0 3.3 0 6.6-.2 10h4.6c.4 0 .6 0 .8.3.2.2.3.5.3.8 0 .3-.1.6-.3.8-.2.2-.5.3-.9.3h-5.6c-.5 0-1-.1-1.1-.4-.3-.3-.4-.7-.4-1.3a17186.8 17186.8 0 000-3.1" style="line-height:125%;-inkscape-font-specification:'Arial Rounded MT Bold, Normal'"/>
        <g id="g2492" transform="translate(.5)">
          <path id="path2486" fill="#ffe680" stroke="none" d="M-39.6 9.3c1.2 0 2.2.3 3 .9.8.5 1.5 1.4 2 2.4.3 1.1.6 2.4.6 3.8 0 1-.2 2-.4 2.9-.2.9-.6 1.6-1 2.2-.5.7-1.1 1.2-1.8 1.5-.7.3-1.5.5-2.4.5a4.9 4.9 0 01-4.1-2c-.5-.6-.8-1.4-1-2.3a11.1 11.1 0 010-5.7c.2-1 .6-1.7 1-2.3a5.2 5.2 0 014-2zm3.2 7c0-1 .2-1.4 0-2.1-.3-.8-1-1.7-1.5-2.1-.5-.4-1-.6-1.7-.6-.5 0-.9.1-1.3.3a3 3 0 00-1 1c-.3.3-.5.9-.7 1.5l-.2 2c0 .8 0 1.6.2 2.2l.7 1.6 1 .9c.4.2.9.3 1.3.3.6 0 1.1-.2 1.6-.5.5-.4 1-1 1.2-1.7.3-.7.4-1.6.4-2.7z" style="line-height:125%;-inkscape-font-specification:'Arial Rounded MT Bold, Normal'"/>
          <path id="path2448" fill="none" stroke="#000" d="M-35.5 11.4c.5.5.9 1 1.1 1.7.5 1.1.7 2.3.7 3.8 0 1 0 2-.3 2.9-.3.8-.6 1.6-1 2.2-.5.6-1.1 1.1-1.8 1.5-.7.3-1.5.5-2.4.5-.9 0-1.7-.2-2.4-.6-.7-.3-1.2-.8-1.7-1.4-.5-.7-.8-1.4-1-2.3a11.2 11.2 0 01-.1-5.8c.2-.9.6-1.6 1-2.2a5.1 5.1 0 014-1.9c1.3 0 2.3.3 3 .9 1 .5 1.5 1.4 2 2.4.4 1 .6 2.3.6 3.8 0 1-.1 2-.4 2.9-.2.9-.6 1.6-1 2.3-.6.6-1.2 1-1.8 1.4-.7.4-1.5.5-2.4.5a5 5 0 01-4.2-2 6.8 6.8 0 01-1.2-2.5s0 0 0 0V19m10.2-6.5l.1.2c.5 1 .7 2.3.7 3.7 0 1.1-.1 2-.3 3l-1 2.2c-.6.6-1.1 1.1-1.8 1.4-.7.4-1.5.5-2.4.5a5 5 0 01-4.2-2c-.4-.6-.8-1.4-1-2.2a11.3 11.3 0 010-5.8c.2-1 .5-1.7 1-2.3.4-.6 1-1 1.7-1.4a5 5 0 012.3-.5 5 5 0 013 .9c.8.5 1.4 1.4 1.8 2.4a11 11 0 01.2 6.6c-.3 1-.7 1.7-1.2 2.3-.5.6-1 1.1-1.8 1.5-.7.3-1.5.5-2.4.5-.9 0-1.7-.2-2.4-.6a5 5 0 01-1.8-1.4 7 7 0 01-1.1-2.3 10.8 10.8 0 01-.5-2.8m7-4.8a2.7 2.7 0 00-3.4 1l-.7 1.6-.2 2.1c0 .8.1 1.5.3 2.1.1.7.4 1.2.7 1.6l1 1c.4.2.8.3 1.3.3.6 0 1.1-.2 1.6-.6.5-.3.9-.9 1.2-1.6.3-.7.4-1.7.4-2.7 0 0 0 0 0 0 0-1 .2-1.5 0-2.2-.3-.8-1-1.7-1.5-2.1-.5-.4-1-.6-1.7-.6-.5 0-.9.1-1.3.3a3 3 0 00-1 1c-.3.4-.5.9-.6 1.5a8.4 8.4 0 00-.2 3.4m6.3-2.5c0-.4 0-.7-.2-1.1-.2-.8-1-1.8-1.4-2.1a2.7 2.7 0 00-3-.3c-.4.2-.8.5-1 .9-.3.4-.5 1-.7 1.5-.2.6-.2 1.3-.2 2.1s0 1.5.2 2.1c.2.6.4 1.2.7 1.6l1 1 1.3.2c.6 0 1.2-.2 1.6-.5.5-.4 1-1 1.2-1.7.3-.7.5-1.7.5-2.7 0 0 0 0 0 0 0-1 .2-1.5 0-2.3-.3-.7-1-1.7-1.5-2a2.6 2.6 0 00-2.9-.3c-.4.2-.7.5-1 .9l-.6 1.5a8.2 8.2 0 00-.1 3" style="line-height:125%;-inkscape-font-specification:'Arial Rounded MT Bold, Normal'"/>
        </g>
        <path id="path2450" fill="#ffe680" stroke="#000" d="M-25 23.3l-.2.2c-.7.3-1.5.5-2.4.5-1.1 0-2-.3-2.8-.8-.5-.3-.9-.8-1.2-1.5a4 4 0 01-.5-1.8c0-.3.1-.6.3-.8.2-.3.4-.4.7-.4.3 0 .5.1.7.3l.4.8c.1.5.3.8.5 1.1.1.3.4.5.7.7.3.2.7.3 1.2.3.6 0 1.2-.2 1.6-.6.4-.3.7-.8.7-1.4 0-.5-.2-.8-.4-1.1-.2-.3-.5-.5-.9-.7a13 13 0 00-1.4-.4l-2-.8c-.6-.4-1-.8-1.4-1.3-.3-.5-.5-1.2-.5-2s.2-1.4.5-2c.3-.6.8-1 1.5-1.4a5 5 0 012.2-.4c.7 0 1.3 0 1.8.3a3.5 3.5 0 012 2l.2 1c0 .4-.1.7-.3 1-.2.2-.4.3-.7.3-.3 0-.5 0-.6-.2l-.5-.8c-.2-.5-.4-.9-.7-1.2-.3-.3-.8-.4-1.4-.4-.6 0-1.1.1-1.5.5a1.5 1.5 0 00-.4 1.8l.5.5.7.4 1 .3 1.8.6 1.3.8c.4.3.6.7.8 1.2.2.5.3 1 .3 1.8a4.7 4.7 0 01-1 2.8c0 .2-.2.3-.4.5M-29 14l.5.3 1.2.4 1.7.6 1.3.8c.4.3.7.7.9 1.1.2.5.3 1.1.3 1.8 0 .8-.2 1.6-.5 2.2-.4.7-.9 1.2-1.6 1.6a5 5 0 01-2.4.5c-1.1 0-2-.2-2.8-.7-.5-.4-1-1-1.3-1.5a4 4 0 01-.4-1.8c0-.4 0-.6.2-.9.2-.2.5-.4.8-.4l.6.3.4.9.4 1 .7.8c.3.2.7.3 1.2.3.7 0 1.2-.2 1.7-.6.4-.4.6-.9.6-1.5 0-.4-.2-.8-.4-1-.2-.4-.5-.6-.9-.7l-1.5-.5a10 10 0 01-2-.8c-.6-.3-1-.7-1.4-1.3-.3-.5-.5-1.2-.5-2 0-.7.1-1.4.5-2 .3-.6.8-1 1.4-1.3.6-.4 1.4-.5 2.2-.5.7 0 1.3 0 1.8.3a3.4 3.4 0 012 1.9l.1 1.1c0 .3 0 .6-.3.9-.2.3-.4.4-.7.4-.3 0-.5 0-.6-.2l-.5-.8c-.2-.6-.5-1-.8-1.2-.3-.3-.7-.5-1.4-.5-.6 0-1 .2-1.5.5a1.5 1.5 0 00-.4 1.8l.2.2m3 9.6a6 6 0 01-.9 0c-1.1.1-2-.1-2.7-.7a4 4 0 01-1.3-1.4c-.3-.6-.4-1.2-.4-1.8 0-.3 0-.6.3-.9.2-.2.4-.3.7-.3.2 0 .5 0 .6.3l.5.8.4 1.1.7.7c.3.2.7.3 1.2.3.7 0 1.3-.2 1.7-.5.4-.4.6-.9.7-1.5 0-.4-.2-.8-.4-1-.2-.4-.5-.6-.9-.7l-1.4-.5c-.8-.2-1.5-.5-2-.8-.6-.3-1-.7-1.4-1.3-.3-.5-.4-1.2-.4-2 0-.7.1-1.4.5-2 .3-.5.8-1 1.5-1.3a5 5 0 012.2-.5c.7 0 1.3.1 1.8.3a3.6 3.6 0 012 2l.3 1c0 .4-.1.7-.3 1-.2.3-.4.4-.7.4-.3 0-.5 0-.6-.2l-.5-.8c-.2-.5-.4-1-.7-1.2-.3-.3-.8-.5-1.4-.5-.6 0-1 .2-1.4.5-.4.3-.6.7-.6 1.2l.2.7.5.5.7.3 1.1.4 1.7.6c.6.2 1 .5 1.4.8.3.3.6.7.8 1.2.2.5.3 1 .3 1.8s-.1 1.6-.5 2.2a3.8 3.8 0 01-1.8 1.8l-.6.2m-.1-9c.5 0 1 .3 1.4.4l1.3.8c.4.4.6.8.8 1.3.2.4.3 1 .3 1.7 0 .9-.2 1.6-.5 2.3-.4.7-1 1.2-1.6 1.6a5 5 0 01-2.4.6c-1.2 0-2.1-.3-2.8-.8-.6-.4-1-.8-1.3-1.4-.3-.7-.5-1.2-.5-1.8 0-.4 0-.6.3-.9.2-.2.4-.3.7-.3.2 0 .4 0 .6.3l.4.8.5 1.1.7.8c.3.2.7.3 1.2.3.6 0 1.2-.2 1.6-.6.4-.4.6-.8.6-1.4 0-.5-.1-.8-.3-1.1-.3-.3-.6-.5-1-.6a13 13 0 00-1.4-.5c-.8-.2-1.5-.5-2-.8-.6-.3-1-.7-1.4-1.2-.3-.5-.5-1.2-.5-2 0-.7.1-1.4.5-2 .3-.5.8-1 1.4-1.2.6-.4 1.4-.5 2.2-.5.7 0 1.3.2 1.8.4a3.6 3.6 0 012 2l.2 1.1c0 .4-.2.7-.4 1a1 1 0 01-.7.4c-.3 0-.5-.1-.6-.3-.2-.1-.3-.4-.5-.7-.2-.5-.4-1-.7-1.2-.3-.3-.8-.4-1.5-.4-.6 0-1 .2-1.4.5a1.6 1.6 0 00-.5 2l.5.5a3.1 3.1 0 001 .4s0 0 0 0l.5.3" style="line-height:125%;-inkscape-font-specification:'Arial Rounded MT Bold, Normal'"/>
        <path id="path2452" fill="#ffe680" stroke="#000" d="M-18 12.2h-.9v3.4h4.8c.4 0 .6 0 .8.2.2.2.3.5.3.8 0 .3-.1.5-.3.7-.2.2-.4.3-.8.3h-4.7v4h5.3c.4 0 .6 0 .8.2.2.2.3.5.3.8 0 .4-.1.6-.3.8-.2.2-.5.3-.8.3h-6.3c-.5 0-.9 0-1-.4-.3-.2-.4-.7-.4-1.3a10069 10069 0 000-11.2c.1-.3.3-.5.5-.6l.8-.2h6c.3 0 .6.2.8.4.2.1.2.4.2.7 0 .4 0 .6-.2.8-.2.2-.5.3-.9.3a3989.5 3989.5 0 01-3.8 0m-.9-2.7h4.9c.4 0 .6 0 .8.3.2.2.3.4.3.8 0 .3-.1.5-.3.7-.2.2-.4.3-.8.3H-19V15h4.8c.3 0 .6 0 .7.3.2.1.3.4.3.7 0 .3-.1.6-.3.8-.1.2-.4.3-.8.3H-19V21h5.2c.4 0 .6 0 .8.3.2.2.3.4.3.8 0 .3-.1.6-.3.8-.2.2-.5.3-.8.3h-6.4c-.5 0-.9-.2-1-.5-.3-.2-.4-.7-.4-1.3a6546.3 6546.3 0 00-.1-11.3c0-.3.2-.5.4-.6l.8-.2a1865.6 1865.6 0 00.8 0m.3 3.1V15h4.9c.3 0 .6 0 .7.3.2.2.3.4.3.7 0 .3 0 .6-.2.8-.2.2-.5.3-.8.3h-4.7v4h5.3c.4 0 .7 0 .8.3.2.2.3.4.3.8 0 .3 0 .6-.3.8-.1.2-.4.3-.8.3h-6.2c-.5 0-.8-.1-1-.4-.3-.3-.4-.7-.4-1.3a7330 7330 0 01.2-11.3c0-.2.2-.4.5-.5l.8-.2h6c.4 0 .7.1.9.3l.2.8c0 .3 0 .6-.2.8-.2.2-.5.3-.8.3a2666 2666 0 00-5.2 0v.6m3.3-3.4h2.7c.3 0 .6.2.8.4.2.2.2.4.2.8 0 .3 0 .6-.2.8l-.9.3h-5.2v3.4h4.7c.4 0 .6.2.8.4l.2.7c0 .3 0 .6-.2.8-.2.2-.5.3-.8.3h-4.8v4l5.2.1c.4 0 .6.1.8.3.2.2.3.5.3.8 0 .4-.1.6-.3.9-.2.2-.5.3-.8.3h-6.4c-.5.1-.8 0-1-.3-.3-.2-.4-.7-.4-1.3a1481.2 1481.2 0 00-.1-11c0-.2.2-.4.4-.5a1137.7 1137.7 0 013.7 0" style="line-height:125%;-inkscape-font-specification:'Arial Rounded MT Bold, Normal'"/>
      </g>
    </g>
  </g>
</svg>
