<?xml version="1.0" standalone="no"?>
<!DOCTYPE svg PUBLIC "-//W3C//DTD SVG 20010904//EN"
 "http://www.w3.org/TR/2001/REC-SVG-20010904/DTD/svg10.dtd">
<svg version="1.0" xmlns="http://www.w3.org/2000/svg"
 width="700.000000pt" height="700.000000pt" viewBox="0 0 700.000000 700.000000"
 preserveAspectRatio="xMidYMid meet">
<metadata>
Created by potrace 1.11, written by Peter Selinger 2001-2013
</metadata>
<g transform="translate(0.000000,700.000000) scale(0.100000,-0.100000)"
fill="#000000" stroke="none">
<path d="M3225 6393 c-105 -20 -217 -65 -288 -115 -57 -39 -148 -132 -187
-188 l-37 -55 -84 2 c-349 6 -648 -307 -663 -697 -13 -336 166 -670 509 -951
152 -124 220 -167 515 -329 215 -117 384 -219 377 -227 -3 -2 -14 0 -24 5 -10
5 -43 15 -73 23 -212 50 -409 45 -598 -17 -84 -27 -254 -117 -241 -127 2 -2
69 -30 149 -61 260 -105 409 -192 370 -216 -8 -5 -26 -10 -40 -10 -199 -2
-463 -10 -490 -14 -19 -3 -53 -8 -75 -11 -22 -3 -51 -7 -65 -10 -14 -3 -40 -8
-59 -11 -85 -14 -257 -87 -318 -134 -22 -17 -21 -18 64 -56 184 -81 304 -183
327 -276 6 -25 4 -27 -16 -19 -13 5 -27 9 -33 10 -5 0 -30 4 -55 8 -201 31
-384 -59 -545 -270 -47 -61 -98 -155 -90 -166 14 -23 181 -65 305 -77 136 -12
167 -28 154 -78 -5 -22 -41 -55 -52 -47 -1 1 -15 -5 -31 -14 -69 -35 -192
-185 -268 -325 -47 -86 -86 -190 -81 -214 3 -15 8 -13 37 9 59 43 138 67 202
62 70 -6 129 -37 227 -119 l74 -61 -69 -31 c-108 -49 -174 -91 -245 -156 -66
-60 -131 -145 -125 -163 1 -5 32 -11 67 -13 61 -4 190 -33 235 -53 11 -5 40
-17 65 -26 25 -9 84 -35 133 -57 97 -46 99 -53 18 -82 -94 -33 -164 -44 -266
-42 -113 3 -196 27 -282 82 -28 18 -55 29 -59 26 -4 -4 -4 -1 0 5 4 8 -2 17
-18 25 -14 6 -26 15 -26 20 0 4 -8 16 -17 26 -66 69 -114 156 -156 282 -32 97
-63 256 -59 308 0 12 -3 22 -8 22 -5 0 -7 6 -5 13 3 6 7 95 9 197 3 102 7 201
10 220 3 19 8 60 10 90 3 30 6 55 7 55 0 0 2 11 4 25 6 51 46 257 59 305 10
37 11 54 2 64 -8 11 -8 13 1 8 8 -5 15 2 19 20 3 15 13 54 20 86 8 32 12 63 8
70 -4 7 -3 8 2 4 8 -7 24 39 40 111 2 13 11 43 20 68 8 24 12 50 8 57 -4 6 -4
9 1 5 5 -5 139 363 169 467 1 6 10 27 19 49 9 21 17 42 17 47 0 5 6 23 14 41
17 39 68 204 72 233 2 11 8 36 14 55 10 34 48 194 55 235 12 69 18 108 31 230
8 76 12 295 5 295 -4 0 -6 17 -6 38 3 77 -41 252 -83 333 -32 61 -72 119 -83
119 -5 0 -8 4 -5 8 3 5 -6 17 -20 27 -14 10 -35 28 -47 38 -19 17 -115 67
-142 74 -78 19 -110 24 -169 27 -75 2 -186 -17 -197 -35 -3 -6 -9 -10 -13 -10
-20 3 -31 -4 -83 -56 -59 -59 -113 -153 -146 -258 -41 -128 -85 -315 -74 -315
9 0 9 -2 1 -8 -13 -8 -30 -65 -39 -127 -3 -22 -10 -56 -15 -75 -22 -82 -41
-192 -36 -206 3 -8 2 -13 -3 -10 -10 7 -25 -60 -16 -73 3 -5 -1 -11 -7 -14
-10 -3 -10 -9 0 -27 8 -12 9 -19 3 -16 -12 8 -19 -2 -26 -43 -3 -18 -15 -72
-26 -119 -11 -48 -22 -96 -25 -107 -2 -11 -6 -29 -9 -40 -19 -82 -24 -104 -29
-137 -3 -21 -10 -57 -15 -80 -5 -24 -12 -68 -16 -98 -3 -30 -10 -85 -15 -121
-28 -198 -30 -530 -5 -799 8 -91 18 -177 21 -195 2 -11 7 -40 10 -65 8 -58 36
-197 44 -220 1 -3 3 -12 4 -20 7 -50 20 -100 26 -100 4 0 7 -6 6 -12 -2 -22
26 -138 33 -134 3 2 7 -12 8 -32 1 -20 6 -38 12 -40 5 -2 7 -10 4 -19 -4 -9
-2 -14 3 -11 5 4 10 -4 10 -17 2 -28 56 -175 64 -170 3 2 6 -7 6 -18 2 -23 15
-55 90 -212 44 -92 94 -186 105 -195 3 -3 19 -27 34 -54 67 -115 242 -325 266
-318 6 1 8 -2 5 -7 -8 -13 106 -112 122 -106 7 3 10 0 7 -5 -6 -10 109 -90
131 -90 7 0 14 -4 16 -8 3 -9 126 -61 157 -67 9 -1 36 -8 61 -15 62 -17 202
-18 285 -3 95 17 157 37 148 48 -4 4 -3 5 4 1 11 -6 122 37 133 53 10 14 154
59 352 110 109 28 211 57 228 66 40 20 49 13 89 -67 33 -65 35 -116 6 -184
l-15 -35 58 -27 c32 -15 82 -28 114 -30 61 -5 172 16 254 47 46 18 49 21 48
53 -2 47 -13 121 -29 198 -3 14 -7 36 -10 50 -3 14 -7 36 -10 50 -32 149 -51
315 -37 324 4 2 28 7 52 11 79 11 302 72 405 110 411 153 816 429 1112 757 38
42 43 45 56 30 24 -28 52 -89 106 -237 98 -265 124 -290 311 -290 109 0 171
17 212 59 16 16 16 18 0 45 -109 180 -130 254 -132 462 -2 132 17 184 96 262
63 63 171 108 365 152 190 43 259 89 423 281 104 122 132 193 100 255 -38 76
-240 213 -420 284 -99 39 -183 82 -228 118 -102 81 -205 249 -281 462 -74 205
-93 309 -110 595 -5 87 -16 227 -20 245 -1 6 -7 36 -14 67 l-12 58 -28 -14
c-38 -20 -111 -101 -153 -171 -58 -96 -144 -289 -163 -367 -8 -31 -29 -32 -81
-5 -87 46 -203 280 -246 495 l-13 64 -39 -84 c-44 -94 -45 -95 -85 -198 -16
-41 -32 -68 -35 -60 -2 8 -21 69 -41 135 -79 256 -192 509 -360 800 -181 316
-294 475 -434 613 -102 100 -221 172 -327 198 -33 8 -199 13 -229 7z"/>
</g>
</svg>
